<?xml version="1.0" encoding="UTF-8" standalone="no"?>
<!DOCTYPE svg PUBLIC "-//W3C//DTD SVG 1.1//EN"
 "http://www.w3.org/Graphics/SVG/1.1/DTD/svg11.dtd">
<!-- Generated by graphviz version 2.50.0 (20211204.2007)
 -->
<!-- Title: TMIV Pages: 1 -->
<svg width="2251pt" height="551pt"
 viewBox="0.00 0.00 2251.38 551.00" xmlns="http://www.w3.org/2000/svg" xmlns:xlink="http://www.w3.org/1999/xlink">
<g id="graph0" class="graph" transform="scale(1 1) rotate(0) translate(4 547)">
<title>TMIV</title>
<polygon fill="white" stroke="transparent" points="-4,4 -4,-547 2247.38,-547 2247.38,4 -4,4"/>
<g id="clust1" class="cluster">
<title>clusterLegend</title>
<polygon fill="none" stroke="black" points="8,-284 8,-535 521,-535 521,-284 8,-284"/>
<text text-anchor="middle" x="264.5" y="-519.8" font-family="Times New Roman,serif" font-size="14.00">Legend</text>
</g>
<!-- legendNode0 -->
<g id="node1" class="node">
<title>legendNode0</title>
<polygon fill="none" stroke="black" points="274.98,-468.05 277.62,-468.15 280.23,-468.3 282.8,-468.49 285.32,-468.74 287.79,-469.03 290.18,-469.36 292.5,-469.75 294.74,-470.18 296.87,-470.65 298.91,-471.16 300.84,-471.71 302.65,-472.31 304.34,-472.94 305.9,-473.61 307.33,-474.31 308.63,-475.04 309.79,-475.8 310.81,-476.59 311.69,-477.41 312.43,-478.25 313.03,-479.11 313.48,-479.99 313.8,-480.89 313.99,-481.8 314.04,-482.72 313.95,-483.65 313.75,-484.59 313.41,-485.53 312.97,-486.47 312.4,-487.41 311.73,-488.35 310.96,-489.28 310.09,-490.2 309.13,-491.11 308.08,-492.01 306.96,-492.89 305.76,-493.75 304.49,-494.59 303.16,-495.41 301.78,-496.2 300.34,-496.96 298.86,-497.69 297.33,-498.39 295.77,-499.06 294.17,-499.69 292.55,-500.29 290.9,-500.84 289.23,-501.35 287.54,-501.82 285.84,-502.25 284.12,-502.64 282.39,-502.97 280.65,-503.26 278.91,-503.51 277.15,-503.7 275.4,-503.85 273.64,-503.95 271.88,-504 270.12,-504 268.36,-503.95 266.6,-503.85 264.85,-503.7 263.09,-503.51 261.35,-503.26 259.61,-502.97 257.88,-502.64 256.16,-502.25 254.46,-501.82 252.77,-501.35 251.1,-500.84 249.45,-500.29 247.83,-499.69 246.23,-499.06 244.67,-498.39 243.14,-497.69 241.66,-496.96 240.22,-496.2 238.84,-495.41 237.51,-494.59 236.24,-493.75 235.04,-492.89 233.92,-492.01 232.87,-491.11 231.91,-490.2 231.04,-489.28 230.27,-488.35 229.6,-487.41 229.03,-486.47 228.59,-485.53 228.25,-484.59 228.05,-483.65 227.96,-482.72 228.01,-481.8 228.2,-480.89 228.52,-479.99 228.97,-479.11 229.57,-478.25 230.31,-477.41 231.19,-476.59 232.21,-475.8 233.37,-475.04 234.67,-474.31 236.1,-473.61 237.66,-472.94 239.35,-472.31 241.16,-471.71 243.09,-471.16 245.13,-470.65 247.26,-470.18 249.5,-469.75 251.82,-469.36 254.21,-469.03 256.68,-468.74 259.2,-468.49 261.77,-468.3 264.38,-468.15 267.02,-468.05 269.67,-468 272.33,-468 274.98,-468.05"/>
<text text-anchor="middle" x="271" y="-482.9" font-family="Times New Roman,serif" font-size="12.00">Executable</text>
</g>
<!-- legendNode1 -->
<g id="node2" class="node">
<title>legendNode1</title>
<polygon fill="none" stroke="black" points="119.94,-397.54 119.94,-412.46 89.52,-423 46.48,-423 16.06,-412.46 16.06,-397.54 46.48,-387 89.52,-387 119.94,-397.54"/>
<text text-anchor="middle" x="68" y="-401.9" font-family="Times New Roman,serif" font-size="12.00">Static Library</text>
</g>
<!-- legendNode0&#45;&gt;legendNode1 -->
<g id="edge1" class="edge">
<title>legendNode0&#45;&gt;legendNode1</title>
<path fill="none" stroke="black" d="M237.91,-472.69C209.07,-461.9 166.16,-445.68 129,-431 122.71,-428.51 116.07,-425.84 109.57,-423.2"/>
<polygon fill="black" stroke="black" points="110.81,-419.93 100.23,-419.39 108.16,-426.41 110.81,-419.93"/>
</g>
<!-- legendNode2 -->
<g id="node3" class="node">
<title>legendNode2</title>
<polygon fill="none" stroke="black" points="255.76,-397.54 255.76,-412.46 222.51,-423 175.49,-423 142.24,-412.46 142.24,-397.54 175.49,-387 222.51,-387 255.76,-397.54"/>
<polygon fill="none" stroke="black" points="259.77,-394.62 259.77,-415.38 223.13,-427 174.87,-427 138.23,-415.38 138.23,-394.62 174.87,-383 223.13,-383 259.77,-394.62"/>
<text text-anchor="middle" x="199" y="-401.9" font-family="Times New Roman,serif" font-size="12.00">Shared Library</text>
</g>
<!-- legendNode0&#45;&gt;legendNode2 -->
<g id="edge2" class="edge">
<title>legendNode0&#45;&gt;legendNode2</title>
<path fill="none" stroke="black" d="M256.08,-468.63C247.18,-458.86 235.62,-446.18 225.24,-434.79"/>
<polygon fill="black" stroke="black" points="227.6,-432.19 218.28,-427.16 222.43,-436.9 227.6,-432.19"/>
</g>
<!-- legendNode3 -->
<g id="node4" class="node">
<title>legendNode3</title>
<polygon fill="none" stroke="black" points="402.75,-397.54 402.75,-412.46 368.34,-423 319.66,-423 285.25,-412.46 285.25,-397.54 319.66,-387 368.34,-387 402.75,-397.54"/>
<polygon fill="none" stroke="black" points="406.76,-394.59 406.76,-415.41 368.94,-427 319.06,-427 281.24,-415.41 281.24,-394.59 319.06,-383 368.94,-383 406.76,-394.59"/>
<polygon fill="none" stroke="black" points="410.77,-391.63 410.77,-418.37 369.54,-431 318.46,-431 277.23,-418.37 277.23,-391.63 318.46,-379 369.54,-379 410.77,-391.63"/>
<text text-anchor="middle" x="344" y="-401.9" font-family="Times New Roman,serif" font-size="12.00">Module Library</text>
</g>
<!-- legendNode0&#45;&gt;legendNode3 -->
<!-- legendNode7 -->
<g id="node8" class="node">
<title>legendNode7</title>
<polygon fill="none" stroke="black" points="513,-423 429,-423 429,-387 513,-387 513,-423"/>
<text text-anchor="middle" x="471" y="-401.9" font-family="Times New Roman,serif" font-size="12.00">Custom Target</text>
</g>
<!-- legendNode0&#45;&gt;legendNode7 -->
<!-- legendNode4 -->
<g id="node5" class="node">
<title>legendNode4</title>
<polygon fill="none" stroke="black" points="156.01,-315.56 86,-328 15.99,-315.56 42.73,-295.44 129.27,-295.44 156.01,-315.56"/>
<text text-anchor="middle" x="86" y="-306.9" font-family="Times New Roman,serif" font-size="12.00">Interface Library</text>
</g>
<!-- legendNode1&#45;&gt;legendNode4 -->
<g id="edge4" class="edge">
<title>legendNode1&#45;&gt;legendNode4</title>
<path fill="none" stroke="black" stroke-dasharray="5,2" d="M71.3,-386.94C73.96,-373.22 77.74,-353.7 80.8,-337.88"/>
<polygon fill="black" stroke="black" points="84.32,-338.12 82.78,-327.64 77.44,-336.79 84.32,-338.12"/>
<text text-anchor="middle" x="104.5" y="-349.8" font-family="Times New Roman,serif" font-size="14.00">Interface</text>
</g>
<!-- legendNode5 -->
<g id="node6" class="node">
<title>legendNode5</title>
<polygon fill="none" stroke="black" points="293.92,-310 263.96,-328 204.04,-328 174.08,-310 204.04,-292 263.96,-292 293.92,-310"/>
<text text-anchor="middle" x="234" y="-306.9" font-family="Times New Roman,serif" font-size="12.00">Object Library</text>
</g>
<!-- legendNode2&#45;&gt;legendNode5 -->
<g id="edge5" class="edge">
<title>legendNode2&#45;&gt;legendNode5</title>
<path fill="none" stroke="black" stroke-dasharray="1,5" d="M206.94,-382.9C211.99,-369.49 218.57,-352.01 223.97,-337.64"/>
<polygon fill="black" stroke="black" points="227.25,-338.88 227.49,-328.28 220.7,-336.41 227.25,-338.88"/>
<text text-anchor="middle" x="240.5" y="-349.8" font-family="Times New Roman,serif" font-size="14.00">Private</text>
</g>
<!-- legendNode6 -->
<g id="node7" class="node">
<title>legendNode6</title>
<polygon fill="none" stroke="black" points="444.05,-305.99 430.97,-321.22 378,-328 325.03,-321.22 311.95,-305.99 348.6,-293.78 407.4,-293.78 444.05,-305.99"/>
<text text-anchor="middle" x="378" y="-306.9" font-family="Times New Roman,serif" font-size="12.00">Unknown Library</text>
</g>
<!-- legendNode3&#45;&gt;legendNode6 -->
<g id="edge6" class="edge">
<title>legendNode3&#45;&gt;legendNode6</title>
<path fill="none" stroke="black" d="M353.29,-378.59C358.01,-365.69 363.73,-350.04 368.48,-337.05"/>
<polygon fill="black" stroke="black" points="371.89,-337.9 372.04,-327.31 365.32,-335.5 371.89,-337.9"/>
</g>
<!-- node0 -->
<g id="node9" class="node">
<title>node0</title>
<polygon fill="none" stroke="black" points="639.11,-302.54 639.11,-317.46 606.83,-328 561.17,-328 528.89,-317.46 528.89,-302.54 561.17,-292 606.83,-292 639.11,-302.54"/>
<text text-anchor="middle" x="584" y="-306.9" font-family="Times New Roman,serif" font-size="12.00">AggregatorLib</text>
</g>
<!-- node1 -->
<g id="node10" class="node">
<title>node1</title>
<polygon fill="none" stroke="black" points="2009.11,-10.54 2009.11,-25.46 1980.34,-36 1939.66,-36 1910.89,-25.46 1910.89,-10.54 1939.66,0 1980.34,0 2009.11,-10.54"/>
<text text-anchor="middle" x="1960" y="-14.9" font-family="Times New Roman,serif" font-size="12.00">CommonLib</text>
</g>
<!-- node0&#45;&gt;node1 -->
<g id="edge8" class="edge">
<title>node0&#45;&gt;node1</title>
<path fill="none" stroke="black" d="M612.86,-293.82C631.77,-281.58 653,-262.41 653,-238 653,-238 653,-238 653,-90 653,-26.65 1645.05,-19.79 1900.56,-19.08"/>
<polygon fill="black" stroke="black" points="1900.76,-22.58 1910.76,-19.05 1900.75,-15.58 1900.76,-22.58"/>
</g>
<!-- node2 -->
<g id="node11" class="node">
<title>node2</title>
<polygon fill="none" stroke="black" points="1815.12,-229.54 1815.12,-244.46 1787.52,-255 1748.48,-255 1720.88,-244.46 1720.88,-229.54 1748.48,-219 1787.52,-219 1815.12,-229.54"/>
<text text-anchor="middle" x="1768" y="-233.9" font-family="Times New Roman,serif" font-size="12.00">DecoderLib</text>
</g>
<!-- node3 -->
<g id="node12" class="node">
<title>node3</title>
<polygon fill="none" stroke="black" points="1823.11,-156.54 1823.11,-171.46 1790.83,-182 1745.17,-182 1712.89,-171.46 1712.89,-156.54 1745.17,-146 1790.83,-146 1823.11,-156.54"/>
<text text-anchor="middle" x="1768" y="-160.9" font-family="Times New Roman,serif" font-size="12.00">PtlCheckerLib</text>
</g>
<!-- node2&#45;&gt;node3 -->
<g id="edge11" class="edge">
<title>node2&#45;&gt;node3</title>
<path fill="none" stroke="black" d="M1768,-218.81C1768,-210.79 1768,-201.05 1768,-192.07"/>
<polygon fill="black" stroke="black" points="1771.5,-192.03 1768,-182.03 1764.5,-192.03 1771.5,-192.03"/>
</g>
<!-- node4 -->
<g id="node13" class="node">
<title>node4</title>
<polygon fill="none" stroke="black" points="1505.1,-83.54 1505.1,-98.46 1469.31,-109 1418.69,-109 1382.9,-98.46 1382.9,-83.54 1418.69,-73 1469.31,-73 1505.1,-83.54"/>
<text text-anchor="middle" x="1444" y="-87.9" font-family="Times New Roman,serif" font-size="12.00">MivBitstreamLib</text>
</g>
<!-- node3&#45;&gt;node4 -->
<g id="edge10" class="edge">
<title>node3&#45;&gt;node4</title>
<path fill="none" stroke="black" d="M1727.11,-151.79C1719.45,-149.79 1711.49,-147.78 1704,-146 1635.94,-129.87 1557.23,-113.89 1504.4,-103.55"/>
<polygon fill="black" stroke="black" points="1505,-100.1 1494.51,-101.62 1503.66,-106.97 1505,-100.1"/>
</g>
<!-- node4&#45;&gt;node1 -->
<g id="edge9" class="edge">
<title>node4&#45;&gt;node1</title>
<path fill="none" stroke="black" d="M1500.7,-82.2C1599.28,-68.63 1801.31,-40.84 1901.28,-27.08"/>
<polygon fill="black" stroke="black" points="1901.79,-30.54 1911.22,-25.71 1900.83,-23.61 1901.79,-30.54"/>
</g>
<!-- node5 -->
<g id="node14" class="node">
<title>node5</title>
<polygon fill="none" stroke="black" points="1052.74,-302.54 1052.74,-317.46 1000.76,-328 927.24,-328 875.26,-317.46 875.26,-302.54 927.24,-292 1000.76,-292 1052.74,-302.54"/>
<text text-anchor="middle" x="964" y="-306.9" font-family="Times New Roman,serif" font-size="12.00">DepthQualityAssessorLib</text>
</g>
<!-- node6 -->
<g id="node15" class="node">
<title>node6</title>
<polygon fill="none" stroke="black" points="1199.11,-229.54 1199.11,-244.46 1170.34,-255 1129.66,-255 1100.89,-244.46 1100.89,-229.54 1129.66,-219 1170.34,-219 1199.11,-229.54"/>
<text text-anchor="middle" x="1150" y="-233.9" font-family="Times New Roman,serif" font-size="12.00">RendererLib</text>
</g>
<!-- node5&#45;&gt;node6 -->
<g id="edge15" class="edge">
<title>node5&#45;&gt;node6</title>
<path fill="none" stroke="black" stroke-dasharray="1,5" d="M1006.21,-292.89C1036.58,-281.3 1077.37,-265.73 1107.75,-254.13"/>
<polygon fill="black" stroke="black" points="1109.12,-257.35 1117.22,-250.51 1106.63,-250.81 1109.12,-257.35"/>
</g>
<!-- node6&#45;&gt;node4 -->
<g id="edge12" class="edge">
<title>node6&#45;&gt;node4</title>
<path fill="none" stroke="black" d="M1178.73,-221.93C1231.25,-196.2 1342.93,-141.5 1403.28,-111.95"/>
<polygon fill="black" stroke="black" points="1405.06,-114.97 1412.51,-107.43 1401.99,-108.68 1405.06,-114.97"/>
</g>
<!-- node7 -->
<g id="node16" class="node">
<title>node7</title>
<polygon fill="none" stroke="black" points="1054.76,-156.54 1054.76,-171.46 1016.83,-182 963.17,-182 925.24,-171.46 925.24,-156.54 963.17,-146 1016.83,-146 1054.76,-156.54"/>
<text text-anchor="middle" x="990" y="-160.9" font-family="Times New Roman,serif" font-size="12.00">ViewingSpaceLib</text>
</g>
<!-- node6&#45;&gt;node7 -->
<g id="edge14" class="edge">
<title>node6&#45;&gt;node7</title>
<path fill="none" stroke="black" stroke-dasharray="1,5" d="M1119.53,-222.48C1095.12,-211.65 1060.56,-196.31 1033.28,-184.2"/>
<polygon fill="black" stroke="black" points="1034.52,-180.93 1023.96,-180.07 1031.68,-187.32 1034.52,-180.93"/>
</g>
<!-- node7&#45;&gt;node4 -->
<g id="edge13" class="edge">
<title>node7&#45;&gt;node4</title>
<path fill="none" stroke="black" d="M1019.51,-146.7C1033.99,-139.45 1051.96,-131.54 1069,-127 1172.04,-99.55 1295.98,-92.87 1372.38,-91.64"/>
<polygon fill="black" stroke="black" points="1372.88,-95.13 1382.83,-91.5 1372.79,-88.13 1372.88,-95.13"/>
</g>
<!-- node8 -->
<g id="node17" class="node">
<title>node8</title>
<polygon fill="none" stroke="black" points="1092.78,-397.54 1092.78,-412.46 1065.38,-423 1026.62,-423 999.22,-412.46 999.22,-397.54 1026.62,-387 1065.38,-387 1092.78,-397.54"/>
<text text-anchor="middle" x="1046" y="-401.9" font-family="Times New Roman,serif" font-size="12.00">EncoderLib</text>
</g>
<!-- node8&#45;&gt;node0 -->
<g id="edge16" class="edge">
<title>node8&#45;&gt;node0</title>
<path fill="none" stroke="black" stroke-dasharray="1,5" d="M1010.09,-393.33C992.67,-388.44 971.37,-382.88 952,-379 893.94,-367.37 878.43,-370.58 820,-361 743.19,-348.4 723.88,-345.34 648,-328 643.59,-326.99 639.03,-325.9 634.47,-324.76"/>
<polygon fill="black" stroke="black" points="635.08,-321.3 624.52,-322.22 633.35,-328.08 635.08,-321.3"/>
</g>
<!-- node8&#45;&gt;node4 -->
<g id="edge18" class="edge">
<title>node8&#45;&gt;node4</title>
<path fill="none" stroke="black" d="M1013.1,-392.15C940.11,-365.38 771,-300.5 771,-274 771,-274 771,-274 771,-163 771,-102.99 1199.64,-93.54 1372.75,-92.18"/>
<polygon fill="black" stroke="black" points="1372.82,-95.68 1382.79,-92.1 1372.77,-88.68 1372.82,-95.68"/>
</g>
<!-- node8&#45;&gt;node5 -->
<g id="edge17" class="edge">
<title>node8&#45;&gt;node5</title>
<path fill="none" stroke="black" stroke-dasharray="1,5" d="M1030.96,-386.94C1018.32,-372.61 1000.1,-351.94 985.85,-335.79"/>
<polygon fill="black" stroke="black" points="988.46,-333.45 979.22,-328.26 983.21,-338.08 988.46,-333.45"/>
</g>
<!-- node8&#45;&gt;node6 -->
<g id="edge23" class="edge">
<title>node8&#45;&gt;node6</title>
<path fill="none" stroke="black" stroke-dasharray="1,5" d="M1051.22,-386.96C1059.21,-362.62 1076.08,-317.16 1100,-284 1105.78,-275.99 1113.12,-268.3 1120.39,-261.58"/>
<polygon fill="black" stroke="black" points="1123.01,-263.94 1128.18,-254.69 1118.37,-258.7 1123.01,-263.94"/>
</g>
<!-- node9 -->
<g id="node18" class="node">
<title>node9</title>
<polygon fill="none" stroke="black" points="742.79,-302.54 742.79,-317.46 717.72,-328 682.28,-328 657.21,-317.46 657.21,-302.54 682.28,-292 717.72,-292 742.79,-302.54"/>
<text text-anchor="middle" x="700" y="-306.9" font-family="Times New Roman,serif" font-size="12.00">PackerLib</text>
</g>
<!-- node8&#45;&gt;node9 -->
<g id="edge20" class="edge">
<title>node8&#45;&gt;node9</title>
<path fill="none" stroke="black" stroke-dasharray="1,5" d="M1008.05,-393.87C990.93,-389.31 970.45,-383.87 952,-379 865.38,-356.15 843.27,-352.14 757,-328 752.69,-326.79 748.2,-325.51 743.72,-324.2"/>
<polygon fill="black" stroke="black" points="744.59,-320.81 734,-321.35 742.61,-327.53 744.59,-320.81"/>
</g>
<!-- node10 -->
<g id="node19" class="node">
<title>node10</title>
<polygon fill="none" stroke="black" points="1191.12,-302.54 1191.12,-317.46 1167.03,-328 1132.97,-328 1108.88,-317.46 1108.88,-302.54 1132.97,-292 1167.03,-292 1191.12,-302.54"/>
<text text-anchor="middle" x="1150" y="-306.9" font-family="Times New Roman,serif" font-size="12.00">PrunerLib</text>
</g>
<!-- node8&#45;&gt;node10 -->
<g id="edge22" class="edge">
<title>node8&#45;&gt;node10</title>
<path fill="none" stroke="black" stroke-dasharray="1,5" d="M1065.08,-386.94C1081.45,-372.3 1105.22,-351.04 1123.46,-334.74"/>
<polygon fill="black" stroke="black" points="1126.27,-336.91 1131.4,-327.64 1121.61,-331.69 1126.27,-336.91"/>
</g>
<!-- node11 -->
<g id="node20" class="node">
<title>node11</title>
<polygon fill="none" stroke="black" points="1635.76,-302.54 1635.76,-317.46 1596.65,-328 1541.35,-328 1502.24,-317.46 1502.24,-302.54 1541.35,-292 1596.65,-292 1635.76,-302.54"/>
<text text-anchor="middle" x="1569" y="-306.9" font-family="Times New Roman,serif" font-size="12.00">ViewOptimizerLib</text>
</g>
<!-- node8&#45;&gt;node11 -->
<g id="edge26" class="edge">
<title>node8&#45;&gt;node11</title>
<path fill="none" stroke="black" stroke-dasharray="1,5" d="M1091.94,-397.06C1173.26,-384.58 1347.74,-356.96 1494,-328 1499.32,-326.95 1504.84,-325.8 1510.36,-324.61"/>
<polygon fill="black" stroke="black" points="1511.24,-328.01 1520.27,-322.45 1509.75,-321.17 1511.24,-328.01"/>
</g>
<!-- node9&#45;&gt;node4 -->
<g id="edge19" class="edge">
<title>node9&#45;&gt;node4</title>
<path fill="none" stroke="black" d="M738.33,-300.6C782.76,-290.64 858.08,-273.12 922,-255 1073.05,-212.19 1107.93,-192.11 1258,-146 1303,-132.17 1354.4,-117.32 1391.75,-106.7"/>
<polygon fill="black" stroke="black" points="1392.75,-110.05 1401.41,-103.96 1390.84,-103.32 1392.75,-110.05"/>
</g>
<!-- node10&#45;&gt;node6 -->
<g id="edge21" class="edge">
<title>node10&#45;&gt;node6</title>
<path fill="none" stroke="black" stroke-dasharray="1,5" d="M1150,-291.81C1150,-283.79 1150,-274.05 1150,-265.07"/>
<polygon fill="black" stroke="black" points="1153.5,-265.03 1150,-255.03 1146.5,-265.03 1153.5,-265.03"/>
</g>
<!-- node11&#45;&gt;node4 -->
<g id="edge24" class="edge">
<title>node11&#45;&gt;node4</title>
<path fill="none" stroke="black" d="M1574.24,-291.77C1582.79,-259.96 1595.99,-191.15 1566,-146 1552.21,-125.23 1528.45,-112.38 1505.54,-104.46"/>
<polygon fill="black" stroke="black" points="1506.4,-101.06 1495.81,-101.36 1504.28,-107.73 1506.4,-101.06"/>
</g>
<!-- node11&#45;&gt;node6 -->
<g id="edge25" class="edge">
<title>node11&#45;&gt;node6</title>
<path fill="none" stroke="black" stroke-dasharray="1,5" d="M1530.86,-294.74C1519.16,-290.79 1506.17,-286.82 1494,-284 1395.59,-261.23 1278.55,-248.56 1209.48,-242.52"/>
<polygon fill="black" stroke="black" points="1209.49,-239.01 1199.23,-241.64 1208.89,-245.98 1209.49,-239.01"/>
</g>
<!-- node12 -->
<g id="node21" class="node">
<title>node12</title>
<polygon fill="none" stroke="black" points="907.11,-156.54 907.11,-171.46 876,-182 832,-182 800.89,-171.46 800.89,-156.54 832,-146 876,-146 907.11,-156.54"/>
<text text-anchor="middle" x="854" y="-160.9" font-family="Times New Roman,serif" font-size="12.00">GaInserterLib</text>
</g>
<!-- node12&#45;&gt;node4 -->
<g id="edge27" class="edge">
<title>node12&#45;&gt;node4</title>
<path fill="none" stroke="black" d="M892.5,-151.56C900.23,-149.51 908.34,-147.54 916,-146 1077.35,-113.54 1270.58,-100.09 1372.66,-94.92"/>
<polygon fill="black" stroke="black" points="1373.04,-98.41 1382.85,-94.42 1372.69,-91.42 1373.04,-98.41"/>
</g>
<!-- node13 -->
<g id="node22" class="node">
<title>node13</title>
<polygon fill="none" stroke="black" points="1469.14,-229.54 1469.14,-244.46 1452.07,-255 1427.93,-255 1410.86,-244.46 1410.86,-229.54 1427.93,-219 1452.07,-219 1469.14,-229.54"/>
<text text-anchor="middle" x="1440" y="-233.9" font-family="Times New Roman,serif" font-size="12.00">IOLib</text>
</g>
<!-- node13&#45;&gt;node4 -->
<g id="edge28" class="edge">
<title>node13&#45;&gt;node4</title>
<path fill="none" stroke="black" d="M1430.04,-218.63C1424.73,-208.35 1418.73,-194.85 1416,-182 1412.68,-166.35 1412.21,-161.54 1416,-146 1418.35,-136.36 1422.75,-126.51 1427.38,-117.92"/>
<polygon fill="black" stroke="black" points="1430.47,-119.57 1432.4,-109.15 1424.39,-116.09 1430.47,-119.57"/>
</g>
<!-- node14 -->
<g id="node23" class="node">
<title>node14</title>
<polygon fill="none" stroke="black" points="1484.79,-302.54 1484.79,-317.46 1458.55,-328 1421.45,-328 1395.21,-317.46 1395.21,-302.54 1421.45,-292 1458.55,-292 1484.79,-302.54"/>
<text text-anchor="middle" x="1440" y="-306.9" font-family="Times New Roman,serif" font-size="12.00">MpiPcsLib</text>
</g>
<!-- node14&#45;&gt;node13 -->
<g id="edge29" class="edge">
<title>node14&#45;&gt;node13</title>
<path fill="none" stroke="black" d="M1440,-291.81C1440,-283.79 1440,-274.05 1440,-265.07"/>
<polygon fill="black" stroke="black" points="1443.5,-265.03 1440,-255.03 1436.5,-265.03 1443.5,-265.03"/>
</g>
<!-- node15 -->
<g id="node24" class="node">
<title>node15</title>
<polygon fill="none" stroke="black" points="2100.11,-302.54 2100.11,-317.46 2067.83,-328 2022.17,-328 1989.89,-317.46 1989.89,-302.54 2022.17,-292 2067.83,-292 2100.11,-302.54"/>
<text text-anchor="middle" x="2045" y="-306.9" font-family="Times New Roman,serif" font-size="12.00">MultiplexerLib</text>
</g>
<!-- node15&#45;&gt;node2 -->
<g id="edge30" class="edge">
<title>node15&#45;&gt;node2</title>
<path fill="none" stroke="black" stroke-dasharray="1,5" d="M2013.68,-294.65C2003.46,-290.55 1991.93,-286.51 1981,-284 1926.25,-271.42 1909.62,-287.12 1855,-274 1838.05,-269.93 1820.13,-263 1804.98,-256.31"/>
<polygon fill="black" stroke="black" points="1806.02,-252.93 1795.46,-251.97 1803.11,-259.3 1806.02,-252.93"/>
</g>
<!-- node15&#45;&gt;node4 -->
<g id="edge31" class="edge">
<title>node15&#45;&gt;node4</title>
<path fill="none" stroke="black" d="M2021.24,-292.13C2006.43,-281.56 1987.02,-267.6 1970,-255 1926.91,-223.12 1915.7,-215.68 1874,-182 1854.87,-166.55 1854.41,-156.1 1832,-146 1776.96,-121.19 1611.66,-104.82 1515.5,-97.12"/>
<polygon fill="black" stroke="black" points="1515.52,-93.61 1505.27,-96.31 1514.97,-100.59 1515.52,-93.61"/>
</g>
<!-- node16 -->
<g id="node25" class="node">
<title>node16</title>
<polygon fill="none" stroke="black" points="2110.93,-229.54 2110.93,-244.46 2072.31,-255 2017.69,-255 1979.07,-244.46 1979.07,-229.54 2017.69,-219 2072.31,-219 2110.93,-229.54"/>
<text text-anchor="middle" x="2045" y="-233.9" font-family="Times New Roman,serif" font-size="12.00">VideoDecoderLib</text>
</g>
<!-- node15&#45;&gt;node16 -->
<g id="edge37" class="edge">
<title>node15&#45;&gt;node16</title>
<path fill="none" stroke="black" stroke-dasharray="1,5" d="M2045,-291.81C2045,-283.79 2045,-274.05 2045,-265.07"/>
<polygon fill="black" stroke="black" points="2048.5,-265.03 2045,-255.03 2041.5,-265.03 2048.5,-265.03"/>
</g>
<!-- node16&#45;&gt;node1 -->
<g id="edge32" class="edge">
<title>node16&#45;&gt;node1</title>
<path fill="none" stroke="black" d="M2111.09,-229.49C2178.5,-219.94 2268.87,-197.31 2236,-146 2188.4,-71.7 2085.14,-40.27 2019.3,-27.41"/>
<polygon fill="black" stroke="black" points="2019.54,-23.9 2009.07,-25.51 2018.26,-30.78 2019.54,-23.9"/>
</g>
<!-- node17 -->
<g id="node26" class="node">
<title>node17</title>
<polygon fill="none" stroke="black" points="2037.08,-156.54 2037.08,-171.46 1991.93,-182 1928.07,-182 1882.92,-171.46 1882.92,-156.54 1928.07,-146 1991.93,-146 2037.08,-156.54"/>
<text text-anchor="middle" x="1960" y="-160.9" font-family="Times New Roman,serif" font-size="12.00">VideoDecoderHmLib</text>
</g>
<!-- node16&#45;&gt;node17 -->
<g id="edge34" class="edge">
<title>node16&#45;&gt;node17</title>
<path fill="none" stroke="black" stroke-dasharray="1,5" d="M2024.42,-218.81C2013.57,-209.74 2000.08,-198.48 1988.25,-188.6"/>
<polygon fill="black" stroke="black" points="1990.31,-185.75 1980.39,-182.03 1985.82,-191.13 1990.31,-185.75"/>
</g>
<!-- node18 -->
<g id="node27" class="node">
<title>node18</title>
<polygon fill="none" stroke="black" points="2226.91,-156.54 2226.91,-171.46 2176.58,-182 2105.42,-182 2055.09,-171.46 2055.09,-156.54 2105.42,-146 2176.58,-146 2226.91,-156.54"/>
<text text-anchor="middle" x="2141" y="-160.9" font-family="Times New Roman,serif" font-size="12.00">VideoDecoderVvdecLib</text>
</g>
<!-- node16&#45;&gt;node18 -->
<g id="edge36" class="edge">
<title>node16&#45;&gt;node18</title>
<path fill="none" stroke="black" stroke-dasharray="1,5" d="M2068.24,-218.81C2080.74,-209.57 2096.32,-198.04 2109.86,-188.03"/>
<polygon fill="black" stroke="black" points="2112.02,-190.79 2117.98,-182.03 2107.85,-185.16 2112.02,-190.79"/>
</g>
<!-- node17&#45;&gt;node1 -->
<g id="edge33" class="edge">
<title>node17&#45;&gt;node1</title>
<path fill="none" stroke="black" stroke-dasharray="1,5" d="M1960,-145.92C1960,-121.34 1960,-75.75 1960,-46.43"/>
<polygon fill="black" stroke="black" points="1963.5,-46.06 1960,-36.06 1956.5,-46.06 1963.5,-46.06"/>
</g>
<!-- node18&#45;&gt;node1 -->
<g id="edge35" class="edge">
<title>node18&#45;&gt;node1</title>
<path fill="none" stroke="black" stroke-dasharray="1,5" d="M2119.53,-145.92C2087.19,-120.19 2025.91,-71.43 1989.43,-42.42"/>
<polygon fill="black" stroke="black" points="1991.17,-39.33 1981.17,-35.84 1986.81,-44.8 1991.17,-39.33"/>
</g>
<!-- node19 -->
<g id="node28" class="node">
<title>node19</title>
<polygon fill="none" stroke="black" points="1694.79,-156.54 1694.79,-171.46 1670.9,-182 1637.1,-182 1613.21,-171.46 1613.21,-156.54 1637.1,-146 1670.9,-146 1694.79,-156.54"/>
<text text-anchor="middle" x="1654" y="-160.9" font-family="Times New Roman,serif" font-size="12.00">ParserLib</text>
</g>
<!-- node19&#45;&gt;node4 -->
<g id="edge38" class="edge">
<title>node19&#45;&gt;node4</title>
<path fill="none" stroke="black" d="M1633.84,-147.29C1623.84,-140.18 1611.29,-132.21 1599,-127 1571.17,-115.21 1538.78,-107.1 1510.82,-101.68"/>
<polygon fill="black" stroke="black" points="1511.21,-98.19 1500.74,-99.8 1509.93,-105.07 1511.21,-98.19"/>
</g>
<!-- node20 -->
<g id="node29" class="node">
<title>node20</title>
<polygon fill="none" stroke="black" points="1377.1,-302.54 1377.1,-317.46 1338.96,-328 1285.04,-328 1246.9,-317.46 1246.9,-302.54 1285.04,-292 1338.96,-292 1377.1,-302.54"/>
<text text-anchor="middle" x="1312" y="-306.9" font-family="Times New Roman,serif" font-size="12.00">RendererFrontLib</text>
</g>
<!-- node20&#45;&gt;node6 -->
<g id="edge40" class="edge">
<title>node20&#45;&gt;node6</title>
<path fill="none" stroke="black" stroke-dasharray="1,5" d="M1278.65,-293.55C1264.6,-287.1 1248.05,-279.6 1233,-273 1219.4,-267.04 1204.47,-260.68 1191.07,-255.05"/>
<polygon fill="black" stroke="black" points="1192.2,-251.72 1181.62,-251.09 1189.49,-258.18 1192.2,-251.72"/>
</g>
<!-- node20&#45;&gt;node13 -->
<g id="edge39" class="edge">
<title>node20&#45;&gt;node13</title>
<path fill="none" stroke="black" d="M1341.69,-292.53C1362.18,-281.16 1389.34,-266.1 1409.92,-254.69"/>
<polygon fill="black" stroke="black" points="1411.82,-257.64 1418.86,-249.72 1408.42,-251.51 1411.82,-257.64"/>
</g>
<!-- node21 -->
<g id="node30" class="node">
<title>node21</title>
<polygon fill="none" stroke="black" points="1497.15,-146.05 1501.22,-146.15 1505.24,-146.3 1509.21,-146.49 1513.11,-146.74 1516.91,-147.03 1520.61,-147.36 1524.19,-147.75 1527.64,-148.18 1530.94,-148.65 1534.08,-149.16 1537.05,-149.71 1539.85,-150.31 1542.45,-150.94 1544.86,-151.61 1547.07,-152.31 1549.08,-153.04 1550.87,-153.8 1552.44,-154.59 1553.8,-155.41 1554.94,-156.25 1555.86,-157.11 1556.57,-157.99 1557.07,-158.89 1557.35,-159.8 1557.42,-160.72 1557.3,-161.65 1556.98,-162.59 1556.47,-163.53 1555.77,-164.47 1554.91,-165.41 1553.87,-166.35 1552.68,-167.28 1551.34,-168.2 1549.85,-169.11 1548.24,-170.01 1546.5,-170.89 1544.65,-171.75 1542.7,-172.59 1540.64,-173.41 1538.5,-174.2 1536.29,-174.96 1534,-175.69 1531.64,-176.39 1529.23,-177.06 1526.77,-177.69 1524.26,-178.29 1521.72,-178.84 1519.14,-179.35 1516.53,-179.82 1513.9,-180.25 1511.25,-180.64 1508.58,-180.97 1505.9,-181.26 1503.2,-181.51 1500.5,-181.7 1497.79,-181.85 1495.08,-181.95 1492.36,-182 1489.64,-182 1486.92,-181.95 1484.21,-181.85 1481.5,-181.7 1478.8,-181.51 1476.1,-181.26 1473.42,-180.97 1470.75,-180.64 1468.1,-180.25 1465.47,-179.82 1462.86,-179.35 1460.28,-178.84 1457.74,-178.29 1455.23,-177.69 1452.77,-177.06 1450.36,-176.39 1448,-175.69 1445.71,-174.96 1443.5,-174.2 1441.36,-173.41 1439.3,-172.59 1437.35,-171.75 1435.5,-170.89 1433.76,-170.01 1432.15,-169.11 1430.66,-168.2 1429.32,-167.28 1428.13,-166.35 1427.09,-165.41 1426.23,-164.47 1425.53,-163.53 1425.02,-162.59 1424.7,-161.65 1424.58,-160.72 1424.65,-159.8 1424.93,-158.89 1425.43,-157.99 1426.14,-157.11 1427.06,-156.25 1428.2,-155.41 1429.56,-154.59 1431.13,-153.8 1432.92,-153.04 1434.93,-152.31 1437.14,-151.61 1439.55,-150.94 1442.15,-150.31 1444.95,-149.71 1447.92,-149.16 1451.06,-148.65 1454.36,-148.18 1457.81,-147.75 1461.39,-147.36 1465.09,-147.03 1468.89,-146.74 1472.79,-146.49 1476.76,-146.3 1480.78,-146.15 1484.85,-146.05 1488.95,-146 1493.05,-146 1497.15,-146.05"/>
<text text-anchor="middle" x="1491" y="-160.9" font-family="Times New Roman,serif" font-size="12.00">TmivBitrateReport</text>
</g>
<!-- node21&#45;&gt;node4 -->
<g id="edge41" class="edge">
<title>node21&#45;&gt;node4</title>
<path fill="none" stroke="black" stroke-dasharray="1,5" d="M1479.86,-146.17C1474.21,-137.63 1467.22,-127.08 1460.92,-117.56"/>
<polygon fill="black" stroke="black" points="1463.82,-115.61 1455.38,-109.2 1457.99,-119.47 1463.82,-115.61"/>
</g>
<!-- node22 -->
<g id="node31" class="node">
<title>node22</title>
<polygon fill="none" stroke="black" points="1748.77,-387.05 1751.93,-387.15 1755.06,-387.3 1758.14,-387.49 1761.17,-387.74 1764.12,-388.03 1766.99,-388.36 1769.77,-388.75 1772.45,-389.18 1775.01,-389.65 1777.45,-390.16 1779.76,-390.71 1781.93,-391.31 1783.95,-391.94 1785.83,-392.61 1787.54,-393.31 1789.1,-394.04 1790.49,-394.8 1791.71,-395.59 1792.77,-396.41 1793.65,-397.25 1794.37,-398.11 1794.92,-398.99 1795.3,-399.89 1795.52,-400.8 1795.58,-401.72 1795.48,-402.65 1795.23,-403.59 1794.84,-404.53 1794.3,-405.47 1793.62,-406.41 1792.82,-407.35 1791.89,-408.28 1790.85,-409.2 1789.7,-410.11 1788.45,-411.01 1787.1,-411.89 1785.66,-412.75 1784.14,-413.59 1782.55,-414.41 1780.89,-415.2 1779.17,-415.96 1777.39,-416.69 1775.56,-417.39 1773.69,-418.06 1771.77,-418.69 1769.83,-419.29 1767.85,-419.84 1765.85,-420.35 1763.83,-420.82 1761.78,-421.25 1759.72,-421.64 1757.65,-421.97 1755.57,-422.26 1753.47,-422.51 1751.38,-422.7 1749.27,-422.85 1747.16,-422.95 1745.06,-423 1742.94,-423 1740.84,-422.95 1738.73,-422.85 1736.62,-422.7 1734.53,-422.51 1732.43,-422.26 1730.35,-421.97 1728.28,-421.64 1726.22,-421.25 1724.17,-420.82 1722.15,-420.35 1720.15,-419.84 1718.17,-419.29 1716.23,-418.69 1714.31,-418.06 1712.44,-417.39 1710.61,-416.69 1708.83,-415.96 1707.11,-415.2 1705.45,-414.41 1703.86,-413.59 1702.34,-412.75 1700.9,-411.89 1699.55,-411.01 1698.3,-410.11 1697.15,-409.2 1696.11,-408.28 1695.18,-407.35 1694.38,-406.41 1693.7,-405.47 1693.16,-404.53 1692.77,-403.59 1692.52,-402.65 1692.42,-401.72 1692.48,-400.8 1692.7,-399.89 1693.08,-398.99 1693.63,-398.11 1694.35,-397.25 1695.23,-396.41 1696.29,-395.59 1697.51,-394.8 1698.9,-394.04 1700.46,-393.31 1702.17,-392.61 1704.05,-391.94 1706.07,-391.31 1708.24,-390.71 1710.55,-390.16 1712.99,-389.65 1715.55,-389.18 1718.23,-388.75 1721.01,-388.36 1723.88,-388.03 1726.83,-387.74 1729.86,-387.49 1732.94,-387.3 1736.07,-387.15 1739.23,-387.05 1742.41,-387 1745.59,-387 1748.77,-387.05"/>
<text text-anchor="middle" x="1744" y="-401.9" font-family="Times New Roman,serif" font-size="12.00">TmivDecoder</text>
</g>
<!-- node22&#45;&gt;node2 -->
<g id="edge42" class="edge">
<title>node22&#45;&gt;node2</title>
<path fill="none" stroke="black" stroke-dasharray="1,5" d="M1734.23,-387.03C1728.79,-375.62 1723.56,-360.13 1726,-346 1731.02,-316.95 1744.06,-285.76 1754.29,-264.41"/>
<polygon fill="black" stroke="black" points="1757.48,-265.85 1758.75,-255.33 1751.2,-262.76 1757.48,-265.85"/>
</g>
<!-- node22&#45;&gt;node16 -->
<g id="edge44" class="edge">
<title>node22&#45;&gt;node16</title>
<path fill="none" stroke="black" stroke-dasharray="1,5" d="M1751.93,-387.01C1765.19,-360.57 1794.47,-309.91 1835,-284 1874.88,-258.5 1926.79,-246.98 1969.02,-241.84"/>
<polygon fill="black" stroke="black" points="1969.43,-245.32 1978.98,-240.72 1968.66,-238.36 1969.43,-245.32"/>
</g>
<!-- node22&#45;&gt;node20 -->
<g id="edge43" class="edge">
<title>node22&#45;&gt;node20</title>
<path fill="none" stroke="black" stroke-dasharray="1,5" d="M1697.89,-394.47C1629.66,-380.3 1497.83,-352.71 1386,-328 1380.77,-326.84 1375.34,-325.63 1369.9,-324.4"/>
<polygon fill="black" stroke="black" points="1370.67,-320.98 1360.14,-322.18 1369.12,-327.81 1370.67,-320.98"/>
</g>
<!-- node23 -->
<g id="node32" class="node">
<title>node23</title>
<polygon fill="none" stroke="black" points="1913.89,-292.05 1917.79,-292.15 1921.66,-292.3 1925.46,-292.49 1929.19,-292.74 1932.84,-293.03 1936.39,-293.36 1939.82,-293.75 1943.12,-294.18 1946.29,-294.65 1949.3,-295.16 1952.15,-295.71 1954.83,-296.31 1957.33,-296.94 1959.64,-297.61 1961.76,-298.31 1963.68,-299.04 1965.39,-299.8 1966.9,-300.59 1968.21,-301.41 1969.3,-302.25 1970.18,-303.11 1970.86,-303.99 1971.34,-304.89 1971.61,-305.8 1971.68,-306.72 1971.56,-307.65 1971.25,-308.59 1970.76,-309.53 1970.1,-310.47 1969.26,-311.41 1968.27,-312.35 1967.13,-313.28 1965.84,-314.2 1964.42,-315.11 1962.87,-316.01 1961.21,-316.89 1959.43,-317.75 1957.56,-318.59 1955.59,-319.41 1953.54,-320.2 1951.41,-320.96 1949.22,-321.69 1946.96,-322.39 1944.65,-323.06 1942.29,-323.69 1939.89,-324.29 1937.45,-324.84 1934.98,-325.35 1932.48,-325.82 1929.95,-326.25 1927.41,-326.64 1924.85,-326.97 1922.28,-327.26 1919.7,-327.51 1917.11,-327.7 1914.51,-327.85 1911.91,-327.95 1909.3,-328 1906.7,-328 1904.09,-327.95 1901.49,-327.85 1898.89,-327.7 1896.3,-327.51 1893.72,-327.26 1891.15,-326.97 1888.59,-326.64 1886.05,-326.25 1883.52,-325.82 1881.02,-325.35 1878.55,-324.84 1876.11,-324.29 1873.71,-323.69 1871.35,-323.06 1869.04,-322.39 1866.78,-321.69 1864.59,-320.96 1862.46,-320.2 1860.41,-319.41 1858.44,-318.59 1856.57,-317.75 1854.79,-316.89 1853.13,-316.01 1851.58,-315.11 1850.16,-314.2 1848.87,-313.28 1847.73,-312.35 1846.74,-311.41 1845.9,-310.47 1845.24,-309.53 1844.75,-308.59 1844.44,-307.65 1844.32,-306.72 1844.39,-305.8 1844.66,-304.89 1845.14,-303.99 1845.82,-303.11 1846.7,-302.25 1847.79,-301.41 1849.1,-300.59 1850.61,-299.8 1852.32,-299.04 1854.24,-298.31 1856.36,-297.61 1858.67,-296.94 1861.17,-296.31 1863.85,-295.71 1866.7,-295.16 1869.71,-294.65 1872.88,-294.18 1876.18,-293.75 1879.61,-293.36 1883.16,-293.03 1886.81,-292.74 1890.54,-292.49 1894.34,-292.3 1898.21,-292.15 1902.11,-292.05 1906.03,-292 1909.97,-292 1913.89,-292.05"/>
<text text-anchor="middle" x="1908" y="-306.9" font-family="Times New Roman,serif" font-size="12.00">TmivDecoderLog</text>
</g>
<!-- node23&#45;&gt;node2 -->
<g id="edge45" class="edge">
<title>node23&#45;&gt;node2</title>
<path fill="none" stroke="black" stroke-dasharray="1,5" d="M1871.21,-294.38C1857.17,-288.48 1841.15,-281.33 1827,-274 1818.14,-269.41 1808.82,-264.01 1800.26,-258.8"/>
<polygon fill="black" stroke="black" points="1802.02,-255.78 1791.67,-253.49 1798.34,-261.73 1802.02,-255.78"/>
</g>
<!-- node23&#45;&gt;node16 -->
<g id="edge46" class="edge">
<title>node23&#45;&gt;node16</title>
<path fill="none" stroke="black" stroke-dasharray="1,5" d="M1938.07,-293.42C1957.69,-283.25 1983.53,-269.85 2004.9,-258.78"/>
<polygon fill="black" stroke="black" points="2006.79,-261.75 2014.06,-254.04 2003.57,-255.53 2006.79,-261.75"/>
</g>
<!-- node24 -->
<g id="node33" class="node">
<title>node24</title>
<polygon fill="none" stroke="black" points="1237.67,-468.05 1240.76,-468.15 1243.82,-468.3 1246.83,-468.49 1249.79,-468.74 1252.68,-469.03 1255.49,-469.36 1258.21,-469.75 1260.83,-470.18 1263.34,-470.65 1265.72,-471.16 1267.98,-471.71 1270.1,-472.31 1272.08,-472.94 1273.92,-473.61 1275.59,-474.31 1277.11,-475.04 1278.47,-475.8 1279.67,-476.59 1280.7,-477.41 1281.57,-478.25 1282.27,-479.11 1282.81,-479.99 1283.18,-480.89 1283.4,-481.8 1283.46,-482.72 1283.36,-483.65 1283.12,-484.59 1282.73,-485.53 1282.2,-486.47 1281.54,-487.41 1280.76,-488.35 1279.85,-489.28 1278.83,-490.2 1277.71,-491.11 1276.48,-492.01 1275.16,-492.89 1273.75,-493.75 1272.27,-494.59 1270.71,-495.41 1269.09,-496.2 1267.4,-496.96 1265.66,-497.69 1263.87,-498.39 1262.04,-499.06 1260.17,-499.69 1258.27,-500.29 1256.33,-500.84 1254.37,-501.35 1252.39,-501.82 1250.39,-502.25 1248.38,-502.64 1246.35,-502.97 1244.31,-503.26 1242.27,-503.51 1240.22,-503.7 1238.16,-503.85 1236.1,-503.95 1234.03,-504 1231.97,-504 1229.9,-503.95 1227.84,-503.85 1225.78,-503.7 1223.73,-503.51 1221.69,-503.26 1219.65,-502.97 1217.62,-502.64 1215.61,-502.25 1213.61,-501.82 1211.63,-501.35 1209.67,-500.84 1207.73,-500.29 1205.83,-499.69 1203.96,-499.06 1202.13,-498.39 1200.34,-497.69 1198.6,-496.96 1196.91,-496.2 1195.29,-495.41 1193.73,-494.59 1192.25,-493.75 1190.84,-492.89 1189.52,-492.01 1188.29,-491.11 1187.17,-490.2 1186.15,-489.28 1185.24,-488.35 1184.46,-487.41 1183.8,-486.47 1183.27,-485.53 1182.88,-484.59 1182.64,-483.65 1182.54,-482.72 1182.6,-481.8 1182.82,-480.89 1183.19,-479.99 1183.73,-479.11 1184.43,-478.25 1185.3,-477.41 1186.33,-476.59 1187.53,-475.8 1188.89,-475.04 1190.41,-474.31 1192.08,-473.61 1193.92,-472.94 1195.9,-472.31 1198.02,-471.71 1200.28,-471.16 1202.66,-470.65 1205.17,-470.18 1207.79,-469.75 1210.51,-469.36 1213.32,-469.03 1216.21,-468.74 1219.17,-468.49 1222.18,-468.3 1225.24,-468.15 1228.33,-468.05 1231.44,-468 1234.56,-468 1237.67,-468.05"/>
<text text-anchor="middle" x="1233" y="-482.9" font-family="Times New Roman,serif" font-size="12.00">TmivEncoder</text>
</g>
<!-- node24&#45;&gt;node0 -->
<g id="edge47" class="edge">
<title>node24&#45;&gt;node0</title>
<path fill="none" stroke="black" stroke-dasharray="1,5" d="M1182.97,-479.69C1062.22,-466.84 763.97,-434.81 754,-431 723.99,-419.53 653.63,-366.08 613.47,-334.52"/>
<polygon fill="black" stroke="black" points="615.4,-331.58 605.38,-328.13 611.06,-337.08 615.4,-331.58"/>
</g>
<!-- node24&#45;&gt;node5 -->
<g id="edge48" class="edge">
<title>node24&#45;&gt;node5</title>
<path fill="none" stroke="black" stroke-dasharray="1,5" d="M1215.32,-468.54C1191.03,-446.44 1145.38,-406.75 1102,-379 1073.62,-360.85 1039.71,-344.08 1012.6,-331.73"/>
<polygon fill="black" stroke="black" points="1013.87,-328.46 1003.32,-327.55 1011,-334.85 1013.87,-328.46"/>
</g>
<!-- node24&#45;&gt;node6 -->
<g id="edge53" class="edge">
<title>node24&#45;&gt;node6</title>
<path fill="none" stroke="black" stroke-dasharray="1,5" d="M1242.73,-468.16C1245.16,-462.24 1246.86,-455.46 1246,-449 1243.7,-431.73 1202.2,-287.58 1200,-284 1194.82,-275.59 1187.68,-267.76 1180.42,-261.03"/>
<polygon fill="black" stroke="black" points="1182.41,-258.13 1172.58,-254.19 1177.81,-263.4 1182.41,-258.13"/>
</g>
<!-- node24&#45;&gt;node8 -->
<g id="edge49" class="edge">
<title>node24&#45;&gt;node8</title>
<path fill="none" stroke="black" stroke-dasharray="1,5" d="M1200,-471.06C1168.22,-457.63 1120.1,-437.3 1086.12,-422.95"/>
<polygon fill="black" stroke="black" points="1087.08,-419.55 1076.5,-418.89 1084.35,-426 1087.08,-419.55"/>
</g>
<!-- node24&#45;&gt;node9 -->
<g id="edge51" class="edge">
<title>node24&#45;&gt;node9</title>
<path fill="none" stroke="black" stroke-dasharray="1,5" d="M1183.02,-480.06C1081.82,-469.82 859.53,-445.95 828,-431 782.11,-409.23 741.69,-364.91 719.09,-336.65"/>
<polygon fill="black" stroke="black" points="721.58,-334.15 712.66,-328.44 716.07,-338.47 721.58,-334.15"/>
</g>
<!-- node24&#45;&gt;node10 -->
<g id="edge52" class="edge">
<title>node24&#45;&gt;node10</title>
<path fill="none" stroke="black" stroke-dasharray="1,5" d="M1234.22,-467.89C1234.21,-461.83 1233.69,-455.02 1232,-449 1219.89,-405.91 1190.7,-362.57 1170.62,-336.25"/>
<polygon fill="black" stroke="black" points="1173.36,-334.07 1164.46,-328.33 1167.84,-338.37 1173.36,-334.07"/>
</g>
<!-- node24&#45;&gt;node11 -->
<g id="edge54" class="edge">
<title>node24&#45;&gt;node11</title>
<path fill="none" stroke="black" stroke-dasharray="1,5" d="M1282.64,-479.19C1326.47,-472.45 1391,-458.55 1441,-431 1485.25,-406.62 1525.88,-363.47 1549.02,-336.1"/>
<polygon fill="black" stroke="black" points="1551.92,-338.08 1555.62,-328.15 1546.54,-333.6 1551.92,-338.08"/>
</g>
<!-- node24&#45;&gt;node13 -->
<g id="edge50" class="edge">
<title>node24&#45;&gt;node13</title>
<path fill="none" stroke="black" stroke-dasharray="1,5" d="M1283.19,-484.76C1376.8,-481.16 1574.9,-457.83 1645,-328 1654.29,-310.79 1657.22,-299.27 1645,-284 1624.7,-258.64 1533.4,-246.3 1479.73,-241.14"/>
<polygon fill="black" stroke="black" points="1479.81,-237.63 1469.53,-240.2 1479.17,-244.6 1479.81,-237.63"/>
</g>
<!-- node25 -->
<g id="node34" class="node">
<title>node25</title>
<polygon fill="none" stroke="black" points="861.28,-219.05 864.78,-219.15 868.24,-219.3 871.65,-219.49 874.99,-219.74 878.26,-220.03 881.44,-220.36 884.51,-220.75 887.48,-221.18 890.31,-221.65 893.01,-222.16 895.56,-222.71 897.97,-223.31 900.2,-223.94 902.28,-224.61 904.18,-225.31 905.9,-226.04 907.43,-226.8 908.79,-227.59 909.95,-228.41 910.93,-229.25 911.73,-230.11 912.34,-230.99 912.76,-231.89 913,-232.8 913.07,-233.72 912.96,-234.65 912.68,-235.59 912.25,-236.53 911.65,-237.47 910.9,-238.41 910.02,-239.35 908.99,-240.28 907.84,-241.2 906.56,-242.11 905.18,-243.01 903.68,-243.89 902.09,-244.75 900.41,-245.59 898.65,-246.41 896.81,-247.2 894.91,-247.96 892.94,-248.69 890.92,-249.39 888.84,-250.06 886.73,-250.69 884.58,-251.29 882.39,-251.84 880.17,-252.35 877.93,-252.82 875.67,-253.25 873.4,-253.64 871.1,-253.97 868.8,-254.26 866.48,-254.51 864.16,-254.7 861.83,-254.85 859.5,-254.95 857.17,-255 854.83,-255 852.5,-254.95 850.17,-254.85 847.84,-254.7 845.52,-254.51 843.2,-254.26 840.9,-253.97 838.6,-253.64 836.33,-253.25 834.07,-252.82 831.83,-252.35 829.61,-251.84 827.42,-251.29 825.27,-250.69 823.16,-250.06 821.08,-249.39 819.06,-248.69 817.09,-247.96 815.19,-247.2 813.35,-246.41 811.59,-245.59 809.91,-244.75 808.32,-243.89 806.82,-243.01 805.44,-242.11 804.16,-241.2 803.01,-240.28 801.98,-239.35 801.1,-238.41 800.35,-237.47 799.75,-236.53 799.32,-235.59 799.04,-234.65 798.93,-233.72 799,-232.8 799.24,-231.89 799.66,-230.99 800.27,-230.11 801.07,-229.25 802.05,-228.41 803.21,-227.59 804.57,-226.8 806.1,-226.04 807.82,-225.31 809.72,-224.61 811.8,-223.94 814.03,-223.31 816.44,-222.71 818.99,-222.16 821.69,-221.65 824.52,-221.18 827.49,-220.75 830.56,-220.36 833.74,-220.03 837.01,-219.74 840.35,-219.49 843.76,-219.3 847.22,-219.15 850.72,-219.05 854.24,-219 857.76,-219 861.28,-219.05"/>
<text text-anchor="middle" x="856" y="-233.9" font-family="Times New Roman,serif" font-size="12.00">TmivGaInserter</text>
</g>
<!-- node25&#45;&gt;node12 -->
<g id="edge55" class="edge">
<title>node25&#45;&gt;node12</title>
<path fill="none" stroke="black" stroke-dasharray="1,5" d="M855.52,-218.81C855.29,-210.79 855.02,-201.05 854.76,-192.07"/>
<polygon fill="black" stroke="black" points="858.26,-191.93 854.48,-182.03 851.26,-192.12 858.26,-191.93"/>
</g>
<!-- node26 -->
<g id="node35" class="node">
<title>node26</title>
<polygon fill="none" stroke="black" points="1001.82,-468.05 1005.67,-468.15 1009.48,-468.3 1013.24,-468.49 1016.92,-468.74 1020.52,-469.03 1024.02,-469.36 1027.41,-469.75 1030.67,-470.18 1033.8,-470.65 1036.77,-471.16 1039.59,-471.71 1042.23,-472.31 1044.7,-472.94 1046.98,-473.61 1049.07,-474.31 1050.97,-475.04 1052.66,-475.8 1054.15,-476.59 1055.44,-477.41 1056.52,-478.25 1057.39,-479.11 1058.06,-479.99 1058.53,-480.89 1058.8,-481.8 1058.87,-482.72 1058.75,-483.65 1058.44,-484.59 1057.96,-485.53 1057.31,-486.47 1056.48,-487.41 1055.51,-488.35 1054.38,-489.28 1053.11,-490.2 1051.7,-491.11 1050.18,-492.01 1048.53,-492.89 1046.78,-493.75 1044.93,-494.59 1042.99,-495.41 1040.96,-496.2 1038.86,-496.96 1036.69,-497.69 1034.47,-498.39 1032.18,-499.06 1029.85,-499.69 1027.48,-500.29 1025.07,-500.84 1022.63,-501.35 1020.16,-501.82 1017.67,-502.25 1015.16,-502.64 1012.64,-502.97 1010.1,-503.26 1007.55,-503.51 1004.99,-503.7 1002.43,-503.85 999.86,-503.95 997.29,-504 994.71,-504 992.14,-503.95 989.57,-503.85 987.01,-503.7 984.45,-503.51 981.9,-503.26 979.36,-502.97 976.84,-502.64 974.33,-502.25 971.84,-501.82 969.37,-501.35 966.93,-500.84 964.52,-500.29 962.15,-499.69 959.82,-499.06 957.53,-498.39 955.31,-497.69 953.14,-496.96 951.04,-496.2 949.01,-495.41 947.07,-494.59 945.22,-493.75 943.47,-492.89 941.82,-492.01 940.3,-491.11 938.89,-490.2 937.62,-489.28 936.49,-488.35 935.52,-487.41 934.69,-486.47 934.04,-485.53 933.56,-484.59 933.25,-483.65 933.13,-482.72 933.2,-481.8 933.47,-480.89 933.94,-479.99 934.61,-479.11 935.48,-478.25 936.56,-477.41 937.85,-476.59 939.34,-475.8 941.03,-475.04 942.93,-474.31 945.02,-473.61 947.3,-472.94 949.77,-472.31 952.41,-471.71 955.23,-471.16 958.2,-470.65 961.33,-470.18 964.59,-469.75 967.98,-469.36 971.48,-469.03 975.08,-468.74 978.76,-468.49 982.52,-468.3 986.33,-468.15 990.18,-468.05 994.06,-468 997.94,-468 1001.82,-468.05"/>
<text text-anchor="middle" x="996" y="-482.9" font-family="Times New Roman,serif" font-size="12.00">TmivMpiEncoder</text>
</g>
<!-- node26&#45;&gt;node0 -->
<g id="edge56" class="edge">
<title>node26&#45;&gt;node0</title>
<path fill="none" stroke="black" stroke-dasharray="1,5" d="M933.25,-480.64C852.04,-473.96 716.06,-458.93 675,-431 639.61,-406.93 612.27,-364.58 597.16,-337.16"/>
<polygon fill="black" stroke="black" points="600.13,-335.31 592.33,-328.14 593.96,-338.61 600.13,-335.31"/>
</g>
<!-- node26&#45;&gt;node5 -->
<g id="edge57" class="edge">
<title>node26&#45;&gt;node5</title>
<path fill="none" stroke="black" stroke-dasharray="1,5" d="M992.87,-468C987.31,-437.72 975.63,-374.25 968.96,-337.96"/>
<polygon fill="black" stroke="black" points="972.39,-337.27 967.14,-328.07 965.51,-338.54 972.39,-337.27"/>
</g>
<!-- node26&#45;&gt;node6 -->
<g id="edge62" class="edge">
<title>node26&#45;&gt;node6</title>
<path fill="none" stroke="black" stroke-dasharray="1,5" d="M933.12,-482.33C896.08,-477.12 851.91,-463.8 828,-431 788.25,-376.47 813.34,-326.19 866,-284 874.74,-277 1010.6,-257.23 1091.19,-246.02"/>
<polygon fill="black" stroke="black" points="1091.79,-249.47 1101.21,-244.63 1090.83,-242.54 1091.79,-249.47"/>
</g>
<!-- node26&#45;&gt;node8 -->
<g id="edge58" class="edge">
<title>node26&#45;&gt;node8</title>
<path fill="none" stroke="black" stroke-dasharray="1,5" d="M1006.85,-467.86C1013.53,-457.3 1022.23,-443.56 1029.72,-431.71"/>
<polygon fill="black" stroke="black" points="1032.78,-433.43 1035.17,-423.11 1026.87,-429.69 1032.78,-433.43"/>
</g>
<!-- node26&#45;&gt;node9 -->
<g id="edge60" class="edge">
<title>node26&#45;&gt;node9</title>
<path fill="none" stroke="black" stroke-dasharray="1,5" d="M933.02,-483.53C868.71,-480.76 774.52,-472.81 747,-450 713.7,-422.39 703.9,-370.25 701.07,-338.27"/>
<polygon fill="black" stroke="black" points="704.56,-337.99 700.36,-328.27 697.58,-338.49 704.56,-337.99"/>
</g>
<!-- node26&#45;&gt;node10 -->
<g id="edge61" class="edge">
<title>node26&#45;&gt;node10</title>
<path fill="none" stroke="black" stroke-dasharray="1,5" d="M1038.76,-471.4C1060.14,-462.74 1085.01,-449.61 1102,-431 1126.07,-404.64 1138.76,-364.7 1144.92,-338.24"/>
<polygon fill="black" stroke="black" points="1148.41,-338.66 1147.11,-328.14 1141.57,-337.18 1148.41,-338.66"/>
</g>
<!-- node26&#45;&gt;node11 -->
<g id="edge63" class="edge">
<title>node26&#45;&gt;node11</title>
<path fill="none" stroke="black" stroke-dasharray="1,5" d="M1056.77,-478.4C1167.78,-466.16 1393.37,-440.34 1408,-431 1431.08,-416.28 1420.91,-397.59 1441,-379 1464.19,-357.53 1495.43,-340.77 1521.24,-329.25"/>
<polygon fill="black" stroke="black" points="1522.7,-332.43 1530.48,-325.25 1519.91,-326.01 1522.7,-332.43"/>
</g>
<!-- node26&#45;&gt;node14 -->
<g id="edge59" class="edge">
<title>node26&#45;&gt;node14</title>
<path fill="none" stroke="black" stroke-dasharray="1,5" d="M1036.18,-471.05C1053.96,-464.77 1075.08,-457.18 1094,-450 1205.98,-407.53 1336.81,-353.85 1400.76,-327.34"/>
<polygon fill="black" stroke="black" points="1402.18,-330.55 1410.07,-323.48 1399.49,-324.08 1402.18,-330.55"/>
</g>
<!-- node27 -->
<g id="node36" class="node">
<title>node27</title>
<polygon fill="none" stroke="black" points="1354.49,-387.05 1357.46,-387.15 1360.41,-387.3 1363.3,-387.49 1366.15,-387.74 1368.93,-388.03 1371.63,-388.36 1374.25,-388.75 1376.76,-389.18 1379.17,-389.65 1381.47,-390.16 1383.64,-390.71 1385.68,-391.31 1387.59,-391.94 1389.35,-392.61 1390.96,-393.31 1392.42,-394.04 1393.73,-394.8 1394.88,-395.59 1395.88,-396.41 1396.71,-397.25 1397.38,-398.11 1397.9,-398.99 1398.26,-399.89 1398.47,-400.8 1398.52,-401.72 1398.43,-402.65 1398.2,-403.59 1397.82,-404.53 1397.32,-405.47 1396.68,-406.41 1395.93,-407.35 1395.06,-408.28 1394.08,-409.2 1392.99,-410.11 1391.81,-411.01 1390.54,-411.89 1389.19,-412.75 1387.76,-413.59 1386.27,-414.41 1384.7,-415.2 1383.08,-415.96 1381.41,-416.69 1379.69,-417.39 1377.93,-418.06 1376.13,-418.69 1374.3,-419.29 1372.44,-419.84 1370.56,-420.35 1368.65,-420.82 1366.73,-421.25 1364.79,-421.64 1362.84,-421.97 1360.88,-422.26 1358.91,-422.51 1356.94,-422.7 1354.96,-422.85 1352.98,-422.95 1350.99,-423 1349.01,-423 1347.02,-422.95 1345.04,-422.85 1343.06,-422.7 1341.09,-422.51 1339.12,-422.26 1337.16,-421.97 1335.21,-421.64 1333.27,-421.25 1331.35,-420.82 1329.44,-420.35 1327.56,-419.84 1325.7,-419.29 1323.87,-418.69 1322.07,-418.06 1320.31,-417.39 1318.59,-416.69 1316.92,-415.96 1315.3,-415.2 1313.73,-414.41 1312.24,-413.59 1310.81,-412.75 1309.46,-411.89 1308.19,-411.01 1307.01,-410.11 1305.92,-409.2 1304.94,-408.28 1304.07,-407.35 1303.32,-406.41 1302.68,-405.47 1302.18,-404.53 1301.8,-403.59 1301.57,-402.65 1301.48,-401.72 1301.53,-400.8 1301.74,-399.89 1302.1,-398.99 1302.62,-398.11 1303.29,-397.25 1304.12,-396.41 1305.12,-395.59 1306.27,-394.8 1307.58,-394.04 1309.04,-393.31 1310.65,-392.61 1312.41,-391.94 1314.32,-391.31 1316.36,-390.71 1318.53,-390.16 1320.83,-389.65 1323.24,-389.18 1325.75,-388.75 1328.37,-388.36 1331.07,-388.03 1333.85,-387.74 1336.7,-387.49 1339.59,-387.3 1342.54,-387.15 1345.51,-387.05 1348.5,-387 1351.5,-387 1354.49,-387.05"/>
<text text-anchor="middle" x="1350" y="-401.9" font-family="Times New Roman,serif" font-size="12.00">TmivMpiPcs</text>
</g>
<!-- node27&#45;&gt;node14 -->
<g id="edge64" class="edge">
<title>node27&#45;&gt;node14</title>
<path fill="none" stroke="black" stroke-dasharray="1,5" d="M1366.09,-387.37C1379.99,-373.01 1400.28,-352.04 1416.09,-335.71"/>
<polygon fill="black" stroke="black" points="1419,-337.73 1423.44,-328.11 1413.97,-332.86 1419,-337.73"/>
</g>
<!-- node28 -->
<g id="node37" class="node">
<title>node28</title>
<polygon fill="none" stroke="black" points="1964.46,-387.05 1968.07,-387.15 1971.65,-387.3 1975.18,-387.49 1978.64,-387.74 1982.02,-388.03 1985.3,-388.36 1988.48,-388.75 1991.54,-389.18 1994.47,-389.65 1997.26,-390.16 1999.9,-390.71 2002.39,-391.31 2004.7,-391.94 2006.84,-392.61 2008.81,-393.31 2010.59,-394.04 2012.18,-394.8 2013.58,-395.59 2014.78,-396.41 2015.8,-397.25 2016.62,-398.11 2017.24,-398.99 2017.68,-399.89 2017.93,-400.8 2018,-401.72 2017.89,-402.65 2017.6,-403.59 2017.15,-404.53 2016.54,-405.47 2015.76,-406.41 2014.85,-407.35 2013.79,-408.28 2012.59,-409.2 2011.28,-410.11 2009.84,-411.01 2008.3,-411.89 2006.66,-412.75 2004.92,-413.59 2003.1,-414.41 2001.2,-415.2 1999.23,-415.96 1997.19,-416.69 1995.1,-417.39 1992.96,-418.06 1990.77,-418.69 1988.54,-419.29 1986.28,-419.84 1983.99,-420.35 1981.68,-420.82 1979.34,-421.25 1976.98,-421.64 1974.61,-421.97 1972.23,-422.26 1969.84,-422.51 1967.44,-422.7 1965.03,-422.85 1962.62,-422.95 1960.21,-423 1957.79,-423 1955.38,-422.95 1952.97,-422.85 1950.56,-422.7 1948.16,-422.51 1945.77,-422.26 1943.39,-421.97 1941.02,-421.64 1938.66,-421.25 1936.32,-420.82 1934.01,-420.35 1931.72,-419.84 1929.46,-419.29 1927.23,-418.69 1925.04,-418.06 1922.9,-417.39 1920.81,-416.69 1918.77,-415.96 1916.8,-415.2 1914.9,-414.41 1913.08,-413.59 1911.34,-412.75 1909.7,-411.89 1908.16,-411.01 1906.72,-410.11 1905.41,-409.2 1904.21,-408.28 1903.15,-407.35 1902.24,-406.41 1901.46,-405.47 1900.85,-404.53 1900.4,-403.59 1900.11,-402.65 1900,-401.72 1900.07,-400.8 1900.32,-399.89 1900.76,-398.99 1901.38,-398.11 1902.2,-397.25 1903.22,-396.41 1904.42,-395.59 1905.82,-394.8 1907.41,-394.04 1909.19,-393.31 1911.16,-392.61 1913.3,-391.94 1915.61,-391.31 1918.1,-390.71 1920.74,-390.16 1923.53,-389.65 1926.46,-389.18 1929.52,-388.75 1932.7,-388.36 1935.98,-388.03 1939.36,-387.74 1942.82,-387.49 1946.35,-387.3 1949.93,-387.15 1953.54,-387.05 1957.18,-387 1960.82,-387 1964.46,-387.05"/>
<text text-anchor="middle" x="1959" y="-401.9" font-family="Times New Roman,serif" font-size="12.00">TmivMultiplexer</text>
</g>
<!-- node28&#45;&gt;node2 -->
<g id="edge65" class="edge">
<title>node28&#45;&gt;node2</title>
<path fill="none" stroke="black" stroke-dasharray="1,5" d="M1927.47,-388.98C1900.98,-375.39 1863.05,-353.63 1835,-328 1814.27,-309.06 1795.64,-282.91 1783.32,-263.67"/>
<polygon fill="black" stroke="black" points="1786.23,-261.73 1777.96,-255.11 1780.3,-265.45 1786.23,-261.73"/>
</g>
<!-- node28&#45;&gt;node13 -->
<g id="edge66" class="edge">
<title>node28&#45;&gt;node13</title>
<path fill="none" stroke="black" stroke-dasharray="1,5" d="M1923.08,-389.73C1902.5,-381.48 1876.23,-370.82 1853,-361 1774.73,-327.91 1759.11,-309.33 1678,-284 1609.7,-262.67 1527.14,-249.38 1479.39,-242.86"/>
<polygon fill="black" stroke="black" points="1479.84,-239.39 1469.46,-241.54 1478.91,-246.33 1479.84,-239.39"/>
</g>
<!-- node28&#45;&gt;node15 -->
<g id="edge67" class="edge">
<title>node28&#45;&gt;node15</title>
<path fill="none" stroke="black" stroke-dasharray="1,5" d="M1974.38,-387.37C1987.66,-373.01 2007.05,-352.04 2022.15,-335.71"/>
<polygon fill="black" stroke="black" points="2024.96,-337.83 2029.18,-328.11 2019.82,-333.08 2024.96,-337.83"/>
</g>
<!-- node28&#45;&gt;node16 -->
<g id="edge68" class="edge">
<title>node28&#45;&gt;node16</title>
<path fill="none" stroke="black" stroke-dasharray="1,5" d="M2008.83,-393.22C2043.52,-382.84 2087.3,-363.32 2109,-328 2119.24,-311.34 2117.92,-301.4 2109,-284 2103.93,-274.12 2095.65,-265.88 2086.69,-259.23"/>
<polygon fill="black" stroke="black" points="2088.59,-256.29 2078.35,-253.58 2084.66,-262.09 2088.59,-256.29"/>
</g>
<!-- node29 -->
<g id="node38" class="node">
<title>node29</title>
<polygon fill="none" stroke="black" points="1662.13,-219.05 1664.87,-219.15 1667.58,-219.3 1670.24,-219.49 1672.86,-219.74 1675.42,-220.03 1677.91,-220.36 1680.31,-220.75 1682.63,-221.18 1684.85,-221.65 1686.96,-222.16 1688.96,-222.71 1690.84,-223.31 1692.59,-223.94 1694.21,-224.61 1695.7,-225.31 1697.04,-226.04 1698.25,-226.8 1699.31,-227.59 1700.22,-228.41 1700.99,-229.25 1701.61,-230.11 1702.08,-230.99 1702.42,-231.89 1702.61,-232.8 1702.66,-233.72 1702.57,-234.65 1702.36,-235.59 1702.01,-236.53 1701.55,-237.47 1700.96,-238.41 1700.27,-239.35 1699.47,-240.28 1698.56,-241.2 1697.57,-242.11 1696.48,-243.01 1695.31,-243.89 1694.07,-244.75 1692.75,-245.59 1691.38,-246.41 1689.94,-247.2 1688.45,-247.96 1686.91,-248.69 1685.32,-249.39 1683.7,-250.06 1682.05,-250.69 1680.36,-251.29 1678.65,-251.84 1676.92,-252.35 1675.16,-252.82 1673.4,-253.25 1671.61,-253.64 1669.82,-253.97 1668.01,-254.26 1666.2,-254.51 1664.39,-254.7 1662.56,-254.85 1660.74,-254.95 1658.91,-255 1657.09,-255 1655.26,-254.95 1653.44,-254.85 1651.61,-254.7 1649.8,-254.51 1647.99,-254.26 1646.18,-253.97 1644.39,-253.64 1642.6,-253.25 1640.84,-252.82 1639.08,-252.35 1637.35,-251.84 1635.64,-251.29 1633.95,-250.69 1632.3,-250.06 1630.68,-249.39 1629.09,-248.69 1627.55,-247.96 1626.06,-247.2 1624.62,-246.41 1623.25,-245.59 1621.93,-244.75 1620.69,-243.89 1619.52,-243.01 1618.43,-242.11 1617.44,-241.2 1616.53,-240.28 1615.73,-239.35 1615.04,-238.41 1614.45,-237.47 1613.99,-236.53 1613.64,-235.59 1613.43,-234.65 1613.34,-233.72 1613.39,-232.8 1613.58,-231.89 1613.92,-230.99 1614.39,-230.11 1615.01,-229.25 1615.78,-228.41 1616.69,-227.59 1617.75,-226.8 1618.96,-226.04 1620.3,-225.31 1621.79,-224.61 1623.41,-223.94 1625.16,-223.31 1627.04,-222.71 1629.04,-222.16 1631.15,-221.65 1633.37,-221.18 1635.69,-220.75 1638.09,-220.36 1640.58,-220.03 1643.14,-219.74 1645.76,-219.49 1648.42,-219.3 1651.13,-219.15 1653.87,-219.05 1656.62,-219 1659.38,-219 1662.13,-219.05"/>
<text text-anchor="middle" x="1658" y="-233.9" font-family="Times New Roman,serif" font-size="12.00">TmivParser</text>
</g>
<!-- node29&#45;&gt;node19 -->
<g id="edge69" class="edge">
<title>node29&#45;&gt;node19</title>
<path fill="none" stroke="black" stroke-dasharray="1,5" d="M1657.03,-218.81C1656.58,-210.79 1656.03,-201.05 1655.53,-192.07"/>
<polygon fill="black" stroke="black" points="1659.02,-191.82 1654.96,-182.03 1652.03,-192.21 1659.02,-191.82"/>
</g>
<!-- node30 -->
<g id="node39" class="node">
<title>node30</title>
<polygon fill="none" stroke="black" points="894.92,-387.05 898.18,-387.15 901.41,-387.3 904.59,-387.49 907.71,-387.74 910.75,-388.03 913.72,-388.36 916.58,-388.75 919.34,-389.18 921.99,-389.65 924.5,-390.16 926.88,-390.71 929.12,-391.31 931.21,-391.94 933.14,-392.61 934.91,-393.31 936.51,-394.04 937.95,-394.8 939.21,-395.59 940.3,-396.41 941.21,-397.25 941.95,-398.11 942.52,-398.99 942.91,-399.89 943.14,-400.8 943.2,-401.72 943.1,-402.65 942.84,-403.59 942.43,-404.53 941.88,-405.47 941.18,-406.41 940.36,-407.35 939.4,-408.28 938.33,-409.2 937.14,-410.11 935.85,-411.01 934.45,-411.89 932.97,-412.75 931.4,-413.59 929.76,-414.41 928.05,-415.2 926.27,-415.96 924.44,-416.69 922.55,-417.39 920.62,-418.06 918.65,-418.69 916.64,-419.29 914.6,-419.84 912.54,-420.35 910.45,-420.82 908.34,-421.25 906.22,-421.64 904.08,-421.97 901.93,-422.26 899.77,-422.51 897.61,-422.7 895.44,-422.85 893.26,-422.95 891.09,-423 888.91,-423 886.74,-422.95 884.56,-422.85 882.39,-422.7 880.23,-422.51 878.07,-422.26 875.92,-421.97 873.78,-421.64 871.66,-421.25 869.55,-420.82 867.46,-420.35 865.4,-419.84 863.36,-419.29 861.35,-418.69 859.38,-418.06 857.45,-417.39 855.56,-416.69 853.73,-415.96 851.95,-415.2 850.24,-414.41 848.6,-413.59 847.03,-412.75 845.55,-411.89 844.15,-411.01 842.86,-410.11 841.67,-409.2 840.6,-408.28 839.64,-407.35 838.82,-406.41 838.12,-405.47 837.57,-404.53 837.16,-403.59 836.9,-402.65 836.8,-401.72 836.86,-400.8 837.09,-399.89 837.48,-398.99 838.05,-398.11 838.79,-397.25 839.7,-396.41 840.79,-395.59 842.05,-394.8 843.49,-394.04 845.09,-393.31 846.86,-392.61 848.79,-391.94 850.88,-391.31 853.12,-390.71 855.5,-390.16 858.01,-389.65 860.66,-389.18 863.42,-388.75 866.28,-388.36 869.25,-388.03 872.29,-387.74 875.41,-387.49 878.59,-387.3 881.82,-387.15 885.08,-387.05 888.36,-387 891.64,-387 894.92,-387.05"/>
<text text-anchor="middle" x="890" y="-401.9" font-family="Times New Roman,serif" font-size="12.00">TmivRenderer</text>
</g>
<!-- node30&#45;&gt;node5 -->
<g id="edge70" class="edge">
<title>node30&#45;&gt;node5</title>
<path fill="none" stroke="black" stroke-dasharray="1,5" d="M903.23,-387.37C914.56,-373.14 931.04,-352.42 943.98,-336.15"/>
<polygon fill="black" stroke="black" points="946.9,-338.12 950.38,-328.11 941.42,-333.76 946.9,-338.12"/>
</g>
<!-- node30&#45;&gt;node7 -->
<g id="edge72" class="edge">
<title>node30&#45;&gt;node7</title>
<path fill="none" stroke="black" stroke-dasharray="1,5" d="M879.66,-387.19C866.06,-362.73 846.13,-316.67 866,-284 880.57,-260.05 900.58,-273.07 922,-255 943.71,-236.69 962.65,-210.24 974.98,-190.75"/>
<polygon fill="black" stroke="black" points="978.06,-192.42 980.33,-182.07 972.1,-188.75 978.06,-192.42"/>
</g>
<!-- node30&#45;&gt;node20 -->
<g id="edge71" class="edge">
<title>node30&#45;&gt;node20</title>
<path fill="none" stroke="black" stroke-dasharray="1,5" d="M933.73,-392.7C951.19,-388.28 971.52,-383.26 990,-379 1080.37,-358.17 1185.59,-336.42 1250.5,-323.29"/>
<polygon fill="black" stroke="black" points="1251.46,-326.66 1260.56,-321.25 1250.07,-319.8 1251.46,-326.66"/>
</g>
</g>
</svg>
