<?xml version="1.0" encoding="UTF-8" standalone="no"?>
<!DOCTYPE svg PUBLIC "-//W3C//DTD SVG 1.1//EN"
 "http://www.w3.org/Graphics/SVG/1.1/DTD/svg11.dtd">
<!-- Generated by graphviz version 2.50.0 (20211204.2007)
 -->
<!-- Title: TMIV Pages: 1 -->
<svg width="2394pt" height="809pt"
 viewBox="0.00 0.00 2393.83 809.36" xmlns="http://www.w3.org/2000/svg" xmlns:xlink="http://www.w3.org/1999/xlink">
<g id="graph0" class="graph" transform="scale(1 1) rotate(0) translate(4 805.36)">
<title>TMIV</title>
<polygon fill="white" stroke="transparent" points="-4,4 -4,-805.36 2389.83,-805.36 2389.83,4 -4,4"/>
<g id="clust1" class="cluster">
<title>clusterLegend</title>
<polygon fill="none" stroke="black" points="8,-534.29 8,-793.36 521,-793.36 521,-534.29 8,-534.29"/>
<text text-anchor="middle" x="264.5" y="-778.16" font-family="Times New Roman,serif" font-size="14.00">Legend</text>
</g>
<!-- legendNode0 -->
<g id="node1" class="node">
<title>legendNode0</title>
<polygon fill="none" stroke="black" points="274.98,-726.41 277.62,-726.51 280.23,-726.65 282.8,-726.85 285.32,-727.09 287.79,-727.39 290.18,-727.72 292.5,-728.11 294.74,-728.54 296.87,-729.01 298.91,-729.52 300.84,-730.07 302.65,-730.67 304.34,-731.3 305.9,-731.96 307.33,-732.67 308.63,-733.4 309.79,-734.16 310.81,-734.95 311.69,-735.77 312.43,-736.61 313.03,-737.47 313.48,-738.35 313.8,-739.25 313.99,-740.16 314.04,-741.08 313.95,-742.01 313.75,-742.95 313.41,-743.89 312.97,-744.83 312.4,-745.77 311.73,-746.71 310.96,-747.64 310.09,-748.56 309.13,-749.47 308.08,-750.37 306.96,-751.25 305.76,-752.11 304.49,-752.95 303.16,-753.77 301.78,-754.56 300.34,-755.32 298.86,-756.05 297.33,-756.75 295.77,-757.42 294.17,-758.05 292.55,-758.64 290.9,-759.2 289.23,-759.71 287.54,-760.18 285.84,-760.61 284.12,-761 282.39,-761.33 280.65,-761.62 278.91,-761.87 277.15,-762.06 275.4,-762.21 273.64,-762.31 271.88,-762.36 270.12,-762.36 268.36,-762.31 266.6,-762.21 264.85,-762.06 263.09,-761.87 261.35,-761.62 259.61,-761.33 257.88,-761 256.16,-760.61 254.46,-760.18 252.77,-759.71 251.1,-759.2 249.45,-758.64 247.83,-758.05 246.23,-757.42 244.67,-756.75 243.14,-756.05 241.66,-755.32 240.22,-754.56 238.84,-753.77 237.51,-752.95 236.24,-752.11 235.04,-751.25 233.92,-750.37 232.87,-749.47 231.91,-748.56 231.04,-747.64 230.27,-746.71 229.6,-745.77 229.03,-744.83 228.59,-743.89 228.25,-742.95 228.05,-742.01 227.96,-741.08 228.01,-740.16 228.2,-739.25 228.52,-738.35 228.97,-737.47 229.57,-736.61 230.31,-735.77 231.19,-734.95 232.21,-734.16 233.37,-733.4 234.67,-732.67 236.1,-731.96 237.66,-731.3 239.35,-730.67 241.16,-730.07 243.09,-729.52 245.13,-729.01 247.26,-728.54 249.5,-728.11 251.82,-727.72 254.21,-727.39 256.68,-727.09 259.2,-726.85 261.77,-726.65 264.38,-726.51 267.02,-726.41 269.67,-726.36 272.33,-726.36 274.98,-726.41"/>
<text text-anchor="middle" x="271" y="-741.26" font-family="Times New Roman,serif" font-size="12.00">Executable</text>
</g>
<!-- legendNode1 -->
<g id="node2" class="node">
<title>legendNode1</title>
<polygon fill="none" stroke="black" points="119.94,-655.88 119.94,-670.79 89.52,-681.34 46.48,-681.34 16.06,-670.79 16.06,-655.88 46.48,-645.34 89.52,-645.34 119.94,-655.88"/>
<text text-anchor="middle" x="68" y="-660.24" font-family="Times New Roman,serif" font-size="12.00">Static Library</text>
</g>
<!-- legendNode0&#45;&gt;legendNode1 -->
<g id="edge1" class="edge">
<title>legendNode0&#45;&gt;legendNode1</title>
<path fill="none" stroke="black" d="M237.91,-731.05C209.07,-720.26 166.16,-704.04 129,-689.36 122.71,-686.87 116.07,-684.2 109.57,-681.56"/>
<polygon fill="black" stroke="black" points="110.81,-678.28 100.23,-677.74 108.16,-684.76 110.81,-678.28"/>
</g>
<!-- legendNode2 -->
<g id="node3" class="node">
<title>legendNode2</title>
<polygon fill="none" stroke="black" points="255.76,-655.88 255.76,-670.79 222.51,-681.34 175.49,-681.34 142.24,-670.79 142.24,-655.88 175.49,-645.34 222.51,-645.34 255.76,-655.88"/>
<polygon fill="none" stroke="black" points="259.77,-652.96 259.77,-673.72 223.13,-685.34 174.87,-685.34 138.23,-673.72 138.23,-652.96 174.87,-641.34 223.13,-641.34 259.77,-652.96"/>
<text text-anchor="middle" x="199" y="-660.24" font-family="Times New Roman,serif" font-size="12.00">Shared Library</text>
</g>
<!-- legendNode0&#45;&gt;legendNode2 -->
<g id="edge2" class="edge">
<title>legendNode0&#45;&gt;legendNode2</title>
<path fill="none" stroke="black" d="M256.08,-726.99C247.18,-717.22 235.62,-704.53 225.24,-693.13"/>
<polygon fill="black" stroke="black" points="227.6,-690.53 218.28,-685.5 222.43,-695.25 227.6,-690.53"/>
</g>
<!-- legendNode3 -->
<g id="node4" class="node">
<title>legendNode3</title>
<polygon fill="none" stroke="black" points="402.75,-655.88 402.75,-670.79 368.34,-681.34 319.66,-681.34 285.25,-670.79 285.25,-655.88 319.66,-645.34 368.34,-645.34 402.75,-655.88"/>
<polygon fill="none" stroke="black" points="406.76,-652.92 406.76,-673.75 368.94,-685.34 319.06,-685.34 281.24,-673.75 281.24,-652.92 319.06,-641.34 368.94,-641.34 406.76,-652.92"/>
<polygon fill="none" stroke="black" points="410.77,-649.97 410.77,-676.71 369.54,-689.34 318.46,-689.34 277.23,-676.71 277.23,-649.97 318.46,-637.34 369.54,-637.34 410.77,-649.97"/>
<text text-anchor="middle" x="344" y="-660.24" font-family="Times New Roman,serif" font-size="12.00">Module Library</text>
</g>
<!-- legendNode0&#45;&gt;legendNode3 -->
<!-- legendNode7 -->
<g id="node8" class="node">
<title>legendNode7</title>
<polygon fill="none" stroke="black" points="513,-681.34 429,-681.34 429,-645.34 513,-645.34 513,-681.34"/>
<text text-anchor="middle" x="471" y="-660.24" font-family="Times New Roman,serif" font-size="12.00">Custom Target</text>
</g>
<!-- legendNode0&#45;&gt;legendNode7 -->
<!-- legendNode4 -->
<g id="node5" class="node">
<title>legendNode4</title>
<polygon fill="none" stroke="black" points="156.01,-565.85 86,-578.29 15.99,-565.85 42.73,-545.73 129.27,-545.73 156.01,-565.85"/>
<text text-anchor="middle" x="86" y="-557.19" font-family="Times New Roman,serif" font-size="12.00">Interface Library</text>
</g>
<!-- legendNode1&#45;&gt;legendNode4 -->
<g id="edge4" class="edge">
<title>legendNode1&#45;&gt;legendNode4</title>
<path fill="none" stroke="black" stroke-dasharray="5,2" d="M71.05,-645.2C73.85,-629.48 78.04,-605.95 81.28,-587.81"/>
<polygon fill="black" stroke="black" points="84.74,-588.3 83.05,-577.85 77.85,-587.08 84.74,-588.3"/>
<text text-anchor="middle" x="103.5" y="-608.11" font-family="Times New Roman,serif" font-size="14.00">Interface</text>
</g>
<!-- legendNode5 -->
<g id="node6" class="node">
<title>legendNode5</title>
<polygon fill="none" stroke="black" points="293.92,-560.29 263.96,-578.29 204.04,-578.29 174.08,-560.29 204.04,-542.29 263.96,-542.29 293.92,-560.29"/>
<text text-anchor="middle" x="234" y="-557.19" font-family="Times New Roman,serif" font-size="12.00">Object Library</text>
</g>
<!-- legendNode2&#45;&gt;legendNode5 -->
<g id="edge5" class="edge">
<title>legendNode2&#45;&gt;legendNode5</title>
<path fill="none" stroke="black" stroke-dasharray="1,5" d="M206.42,-640.91C211.77,-625.46 219.03,-604.51 224.76,-587.97"/>
<polygon fill="black" stroke="black" points="228.13,-588.93 228.09,-578.34 221.51,-586.64 228.13,-588.93"/>
<text text-anchor="middle" x="238.5" y="-608.11" font-family="Times New Roman,serif" font-size="14.00">Private</text>
</g>
<!-- legendNode6 -->
<g id="node7" class="node">
<title>legendNode6</title>
<polygon fill="none" stroke="black" points="444.05,-556.29 430.97,-571.51 378,-578.29 325.03,-571.51 311.95,-556.29 348.6,-544.07 407.4,-544.07 444.05,-556.29"/>
<text text-anchor="middle" x="378" y="-557.19" font-family="Times New Roman,serif" font-size="12.00">Unknown Library</text>
</g>
<!-- legendNode3&#45;&gt;legendNode6 -->
<g id="edge6" class="edge">
<title>legendNode3&#45;&gt;legendNode6</title>
<path fill="none" stroke="black" d="M352.49,-637.1C357.57,-622 364.02,-602.83 369.16,-587.55"/>
<polygon fill="black" stroke="black" points="372.61,-588.28 372.48,-577.69 365.98,-586.05 372.61,-588.28"/>
</g>
<!-- node0 -->
<g id="node9" class="node">
<title>node0</title>
<polygon fill="none" stroke="black" points="1691.81,-549.5 1691.81,-571.08 1636.27,-586.34 1557.73,-586.34 1502.19,-571.08 1502.19,-549.5 1557.73,-534.25 1636.27,-534.25 1691.81,-549.5"/>
<text text-anchor="middle" x="1597" y="-563.69" font-family="Times New Roman,serif" font-size="12.00">AggregatorLib</text>
<text text-anchor="middle" x="1597" y="-550.69" font-family="Times New Roman,serif" font-size="12.00">(TMIV::AggregatorLib)</text>
</g>
<!-- node1 -->
<g id="node10" class="node">
<title>node1</title>
<polygon fill="none" stroke="black" points="1592.03,-193.32 1592.03,-214.9 1540.47,-230.16 1467.53,-230.16 1415.97,-214.9 1415.97,-193.32 1467.53,-178.07 1540.47,-178.07 1592.03,-193.32"/>
<text text-anchor="middle" x="1504" y="-207.51" font-family="Times New Roman,serif" font-size="12.00">CommonLib</text>
<text text-anchor="middle" x="1504" y="-194.51" font-family="Times New Roman,serif" font-size="12.00">(TMIV::CommonLib)</text>
</g>
<!-- node0&#45;&gt;node1 -->
<g id="edge10" class="edge">
<title>node0&#45;&gt;node1</title>
<path fill="none" stroke="black" d="M1655,-539.19C1683.16,-525.37 1711,-503.75 1711,-472.25 1711,-472.25 1711,-472.25 1711,-292.16 1711,-240.5 1655.54,-219 1602.04,-210.27"/>
<polygon fill="black" stroke="black" points="1602.49,-206.8 1592.09,-208.79 1601.46,-213.73 1602.49,-206.8"/>
</g>
<!-- node2 -->
<g id="node11" class="node">
<title>node2</title>
<polygon fill="none" stroke="black" points="1831.07,-120.63 1759,-133.07 1686.93,-120.63 1714.46,-100.51 1803.54,-100.51 1831.07,-120.63"/>
<text text-anchor="middle" x="1759" y="-111.97" font-family="Times New Roman,serif" font-size="12.00">Threads::Threads</text>
</g>
<!-- node1&#45;&gt;node2 -->
<g id="edge8" class="edge">
<title>node1&#45;&gt;node2</title>
<path fill="none" stroke="black" stroke-dasharray="1,5" d="M1560.28,-183.9C1607.36,-167.83 1673.51,-145.25 1716.32,-130.64"/>
<polygon fill="black" stroke="black" points="1717.55,-133.92 1725.88,-127.37 1715.29,-127.29 1717.55,-133.92"/>
</g>
<!-- node3 -->
<g id="node12" class="node">
<title>node3</title>
<polygon fill="none" stroke="black" points="1547.75,-104.28 1547.75,-125.86 1522.12,-141.11 1485.88,-141.11 1460.25,-125.86 1460.25,-104.28 1485.88,-89.02 1522.12,-89.02 1547.75,-104.28"/>
<text text-anchor="middle" x="1504" y="-118.47" font-family="Times New Roman,serif" font-size="12.00">fmt</text>
<text text-anchor="middle" x="1504" y="-105.47" font-family="Times New Roman,serif" font-size="12.00">(fmt::fmt)</text>
</g>
<!-- node1&#45;&gt;node3 -->
<g id="edge9" class="edge">
<title>node1&#45;&gt;node3</title>
<path fill="none" stroke="black" d="M1504,-177.94C1504,-169.63 1504,-160.24 1504,-151.33"/>
<polygon fill="black" stroke="black" points="1507.5,-151.19 1504,-141.19 1500.5,-151.19 1507.5,-151.19"/>
</g>
<!-- node4 -->
<g id="node13" class="node">
<title>node4</title>
<polygon fill="none" stroke="black" points="1012.74,-364.25 1015.89,-364.35 1018.99,-364.5 1022.06,-364.69 1025.06,-364.94 1028,-365.23 1030.85,-365.57 1033.62,-365.95 1036.28,-366.38 1038.82,-366.85 1041.25,-367.36 1043.54,-367.92 1045.7,-368.51 1047.71,-369.14 1049.57,-369.81 1051.28,-370.51 1052.82,-371.24 1054.21,-372 1055.42,-372.79 1056.47,-373.61 1057.35,-374.45 1058.06,-375.31 1058.61,-376.19 1058.99,-377.09 1059.21,-378 1059.27,-378.92 1059.17,-379.85 1058.92,-380.79 1058.53,-381.73 1057.99,-382.67 1057.32,-383.62 1056.53,-384.55 1055.61,-385.48 1054.57,-386.41 1053.43,-387.32 1052.18,-388.21 1050.84,-389.09 1049.41,-389.95 1047.9,-390.79 1046.32,-391.61 1044.67,-392.4 1042.95,-393.16 1041.19,-393.9 1039.37,-394.6 1037.51,-395.26 1035.61,-395.89 1033.67,-396.49 1031.71,-397.04 1029.72,-397.56 1027.71,-398.03 1025.67,-398.45 1023.63,-398.84 1021.57,-399.18 1019.5,-399.47 1017.42,-399.71 1015.33,-399.91 1013.24,-400.05 1011.15,-400.15 1009.05,-400.2 1006.95,-400.2 1004.85,-400.15 1002.76,-400.05 1000.67,-399.91 998.58,-399.71 996.5,-399.47 994.43,-399.18 992.37,-398.84 990.33,-398.45 988.29,-398.03 986.28,-397.56 984.29,-397.04 982.33,-396.49 980.39,-395.89 978.49,-395.26 976.63,-394.6 974.81,-393.9 973.05,-393.16 971.33,-392.4 969.68,-391.61 968.1,-390.79 966.59,-389.95 965.16,-389.09 963.82,-388.21 962.57,-387.32 961.43,-386.41 960.39,-385.48 959.47,-384.55 958.68,-383.62 958.01,-382.67 957.47,-381.73 957.08,-380.79 956.83,-379.85 956.73,-378.92 956.79,-378 957.01,-377.09 957.39,-376.19 957.94,-375.31 958.65,-374.45 959.53,-373.61 960.58,-372.79 961.79,-372 963.18,-371.24 964.72,-370.51 966.43,-369.81 968.29,-369.14 970.3,-368.51 972.46,-367.92 974.75,-367.36 977.18,-366.85 979.72,-366.38 982.38,-365.95 985.15,-365.57 988,-365.23 990.94,-364.94 993.94,-364.69 997.01,-364.5 1000.11,-364.35 1003.26,-364.25 1006.42,-364.2 1009.58,-364.2 1012.74,-364.25"/>
<text text-anchor="middle" x="1008" y="-379.1" font-family="Times New Roman,serif" font-size="12.00">BitrateReport</text>
</g>
<!-- node5 -->
<g id="node14" class="node">
<title>node5</title>
<polygon fill="none" stroke="black" points="1506.62,-282.37 1506.62,-303.95 1446.51,-319.2 1361.49,-319.2 1301.38,-303.95 1301.38,-282.37 1361.49,-267.11 1446.51,-267.11 1506.62,-282.37"/>
<text text-anchor="middle" x="1404" y="-296.56" font-family="Times New Roman,serif" font-size="12.00">MivBitstreamLib</text>
<text text-anchor="middle" x="1404" y="-283.56" font-family="Times New Roman,serif" font-size="12.00">(TMIV::MivBitstreamLib)</text>
</g>
<!-- node4&#45;&gt;node5 -->
<g id="edge12" class="edge">
<title>node4&#45;&gt;node5</title>
<path fill="none" stroke="black" stroke-dasharray="1,5" d="M1038.99,-366.8C1048.19,-362.94 1058.37,-359.04 1068,-356.18 1144.13,-333.56 1232.52,-317.64 1299.53,-307.59"/>
<polygon fill="black" stroke="black" points="1300.3,-311.02 1309.68,-306.09 1299.28,-304.09 1300.3,-311.02"/>
</g>
<!-- node5&#45;&gt;node1 -->
<g id="edge11" class="edge">
<title>node5&#45;&gt;node1</title>
<path fill="none" stroke="black" d="M1432.92,-266.98C1443.7,-257.6 1456.08,-246.82 1467.46,-236.92"/>
<polygon fill="black" stroke="black" points="1469.9,-239.44 1475.14,-230.23 1465.3,-234.16 1469.9,-239.44"/>
</g>
<!-- node6 -->
<g id="node15" class="node">
<title>node6</title>
<polygon fill="none" stroke="black" points="1066.42,-645.39 1068.68,-645.48 1070.92,-645.63 1073.12,-645.83 1075.29,-646.07 1077.4,-646.36 1079.46,-646.7 1081.45,-647.08 1083.37,-647.51 1085.2,-647.98 1086.95,-648.5 1088.6,-649.05 1090.15,-649.65 1091.6,-650.28 1092.94,-650.94 1094.17,-651.64 1095.28,-652.38 1096.28,-653.14 1097.15,-653.93 1097.91,-654.75 1098.54,-655.59 1099.06,-656.45 1099.45,-657.33 1099.72,-658.22 1099.88,-659.13 1099.92,-660.06 1099.85,-660.99 1099.68,-661.92 1099.39,-662.87 1099.01,-663.81 1098.52,-664.75 1097.95,-665.69 1097.29,-666.62 1096.54,-667.54 1095.72,-668.45 1094.82,-669.35 1093.85,-670.23 1092.82,-671.09 1091.74,-671.93 1090.6,-672.75 1089.41,-673.54 1088.17,-674.3 1086.9,-675.03 1085.59,-675.73 1084.25,-676.4 1082.88,-677.03 1081.49,-677.62 1080.07,-678.18 1078.64,-678.69 1077.19,-679.16 1075.73,-679.59 1074.26,-679.97 1072.77,-680.31 1071.28,-680.6 1069.78,-680.85 1068.28,-681.04 1066.77,-681.19 1065.27,-681.29 1063.76,-681.34 1062.24,-681.34 1060.73,-681.29 1059.23,-681.19 1057.72,-681.04 1056.22,-680.85 1054.72,-680.6 1053.23,-680.31 1051.74,-679.97 1050.27,-679.59 1048.81,-679.16 1047.36,-678.69 1045.93,-678.18 1044.51,-677.62 1043.12,-677.03 1041.75,-676.4 1040.41,-675.73 1039.1,-675.03 1037.83,-674.3 1036.59,-673.54 1035.4,-672.75 1034.26,-671.93 1033.18,-671.09 1032.15,-670.23 1031.18,-669.35 1030.28,-668.45 1029.46,-667.54 1028.71,-666.62 1028.05,-665.69 1027.48,-664.75 1026.99,-663.81 1026.61,-662.87 1026.32,-661.92 1026.15,-660.99 1026.08,-660.06 1026.12,-659.13 1026.28,-658.22 1026.55,-657.33 1026.94,-656.45 1027.46,-655.59 1028.09,-654.75 1028.85,-653.93 1029.72,-653.14 1030.72,-652.38 1031.83,-651.64 1033.06,-650.94 1034.4,-650.28 1035.85,-649.65 1037.4,-649.05 1039.05,-648.5 1040.8,-647.98 1042.63,-647.51 1044.55,-647.08 1046.54,-646.7 1048.6,-646.36 1050.71,-646.07 1052.88,-645.83 1055.08,-645.63 1057.32,-645.48 1059.58,-645.39 1061.86,-645.34 1064.14,-645.34 1066.42,-645.39"/>
<text text-anchor="middle" x="1063" y="-660.24" font-family="Times New Roman,serif" font-size="12.00">Decoder</text>
</g>
<!-- node7 -->
<g id="node16" class="node">
<title>node7</title>
<polygon fill="none" stroke="black" points="1320.47,-460.46 1320.47,-482.04 1269.82,-497.29 1198.18,-497.29 1147.53,-482.04 1147.53,-460.46 1198.18,-445.2 1269.82,-445.2 1320.47,-460.46"/>
<text text-anchor="middle" x="1234" y="-474.65" font-family="Times New Roman,serif" font-size="12.00">DecoderLib</text>
<text text-anchor="middle" x="1234" y="-461.65" font-family="Times New Roman,serif" font-size="12.00">(TMIV::DecoderLib)</text>
</g>
<!-- node6&#45;&gt;node7 -->
<g id="edge15" class="edge">
<title>node6&#45;&gt;node7</title>
<path fill="none" stroke="black" stroke-dasharray="1,5" d="M1060.56,-644.93C1057.81,-618.17 1056.61,-566.63 1082,-534.27 1093.02,-520.23 1129.63,-505.09 1164.15,-493.28"/>
<polygon fill="black" stroke="black" points="1165.45,-496.53 1173.82,-490.04 1163.22,-489.9 1165.45,-496.53"/>
</g>
<!-- node9 -->
<g id="node18" class="node">
<title>node9</title>
<polygon fill="none" stroke="black" points="1305.3,-549.5 1305.3,-571.08 1242.45,-586.34 1153.55,-586.34 1090.7,-571.08 1090.7,-549.5 1153.55,-534.25 1242.45,-534.25 1305.3,-549.5"/>
<text text-anchor="middle" x="1198" y="-563.69" font-family="Times New Roman,serif" font-size="12.00">RendererFrontLib</text>
<text text-anchor="middle" x="1198" y="-550.69" font-family="Times New Roman,serif" font-size="12.00">(TMIV::RendererFrontLib)</text>
</g>
<!-- node6&#45;&gt;node9 -->
<g id="edge22" class="edge">
<title>node6&#45;&gt;node9</title>
<path fill="none" stroke="black" stroke-dasharray="1,5" d="M1083.21,-647.21C1102.51,-632.77 1132.17,-610.57 1156.5,-592.35"/>
<polygon fill="black" stroke="black" points="1158.62,-595.14 1164.53,-586.34 1154.43,-589.53 1158.62,-595.14"/>
</g>
<!-- node13 -->
<g id="node22" class="node">
<title>node13</title>
<polygon fill="none" stroke="black" points="1160.3,-282.37 1160.3,-303.95 1097.45,-319.2 1008.55,-319.2 945.7,-303.95 945.7,-282.37 1008.55,-267.11 1097.45,-267.11 1160.3,-282.37"/>
<text text-anchor="middle" x="1053" y="-296.56" font-family="Times New Roman,serif" font-size="12.00">VideoDecoderLib</text>
<text text-anchor="middle" x="1053" y="-283.56" font-family="Times New Roman,serif" font-size="12.00">(TMIV::VideoDecoderLib)</text>
</g>
<!-- node6&#45;&gt;node13 -->
<g id="edge29" class="edge">
<title>node6&#45;&gt;node13</title>
<path fill="none" stroke="black" stroke-dasharray="1,5" d="M1058.93,-645.23C1047.97,-600.11 1017.13,-479 994,-445.22 979.17,-423.58 959.33,-431.89 948,-408.22 938.01,-387.36 936.53,-376.27 948,-356.18 956.51,-341.27 970.16,-329.58 984.85,-320.57"/>
<polygon fill="black" stroke="black" points="986.64,-323.58 993.58,-315.57 983.16,-317.5 986.64,-323.58"/>
</g>
<!-- node8 -->
<g id="node17" class="node">
<title>node8</title>
<polygon fill="none" stroke="black" points="1440.81,-371.41 1440.81,-392.99 1385.27,-408.25 1306.73,-408.25 1251.19,-392.99 1251.19,-371.41 1306.73,-356.16 1385.27,-356.16 1440.81,-371.41"/>
<text text-anchor="middle" x="1346" y="-385.6" font-family="Times New Roman,serif" font-size="12.00">PtlCheckerLib</text>
<text text-anchor="middle" x="1346" y="-372.6" font-family="Times New Roman,serif" font-size="12.00">(TMIV::PtlCheckerLib)</text>
</g>
<!-- node7&#45;&gt;node8 -->
<g id="edge14" class="edge">
<title>node7&#45;&gt;node8</title>
<path fill="none" stroke="black" d="M1266.4,-445.07C1278.58,-435.6 1292.6,-424.7 1305.44,-414.72"/>
<polygon fill="black" stroke="black" points="1307.93,-417.22 1313.68,-408.32 1303.63,-411.7 1307.93,-417.22"/>
</g>
<!-- node8&#45;&gt;node5 -->
<g id="edge13" class="edge">
<title>node8&#45;&gt;node5</title>
<path fill="none" stroke="black" d="M1362.78,-356.03C1368.67,-347.18 1375.38,-337.11 1381.66,-327.69"/>
<polygon fill="black" stroke="black" points="1384.63,-329.54 1387.26,-319.28 1378.8,-325.66 1384.63,-329.54"/>
</g>
<!-- node10 -->
<g id="node19" class="node">
<title>node10</title>
<polygon fill="none" stroke="black" points="984.64,-460.46 984.64,-482.04 946.19,-497.29 891.81,-497.29 853.36,-482.04 853.36,-460.46 891.81,-445.2 946.19,-445.2 984.64,-460.46"/>
<text text-anchor="middle" x="919" y="-474.65" font-family="Times New Roman,serif" font-size="12.00">IOLib</text>
<text text-anchor="middle" x="919" y="-461.65" font-family="Times New Roman,serif" font-size="12.00">(TMIV::IOLib)</text>
</g>
<!-- node9&#45;&gt;node10 -->
<g id="edge17" class="edge">
<title>node9&#45;&gt;node10</title>
<path fill="none" stroke="black" d="M1133.29,-539.1C1086.95,-524.65 1024.97,-505.31 979.6,-491.15"/>
<polygon fill="black" stroke="black" points="980.48,-487.76 969.89,-488.12 978.39,-494.44 980.48,-487.76"/>
</g>
<!-- node11 -->
<g id="node20" class="node">
<title>node11</title>
<polygon fill="none" stroke="black" points="2039.03,-460.46 2039.03,-482.04 1987.47,-497.29 1914.53,-497.29 1862.97,-482.04 1862.97,-460.46 1914.53,-445.2 1987.47,-445.2 2039.03,-460.46"/>
<text text-anchor="middle" x="1951" y="-474.65" font-family="Times New Roman,serif" font-size="12.00">RendererLib</text>
<text text-anchor="middle" x="1951" y="-461.65" font-family="Times New Roman,serif" font-size="12.00">(TMIV::RendererLib)</text>
</g>
<!-- node9&#45;&gt;node11 -->
<g id="edge21" class="edge">
<title>node9&#45;&gt;node11</title>
<path fill="none" stroke="black" d="M1273.92,-541.75C1287.55,-538.97 1301.66,-536.34 1315,-534.27 1504.14,-504.92 1727.2,-486.96 1852.56,-478.37"/>
<polygon fill="black" stroke="black" points="1853.16,-481.84 1862.9,-477.67 1852.69,-474.85 1853.16,-481.84"/>
</g>
<!-- node10&#45;&gt;node5 -->
<g id="edge16" class="edge">
<title>node10&#45;&gt;node5</title>
<path fill="none" stroke="black" d="M917.86,-444.8C918.19,-418.53 923.15,-378.35 948,-356.18 960.86,-344.7 1163.73,-320.5 1294.5,-305.96"/>
<polygon fill="black" stroke="black" points="1295.02,-309.42 1304.57,-304.84 1294.25,-302.46 1295.02,-309.42"/>
</g>
<!-- node11&#45;&gt;node2 -->
<g id="edge18" class="edge">
<title>node11&#45;&gt;node2</title>
<path fill="none" stroke="black" stroke-dasharray="1,5" d="M1963.69,-445.03C1971.1,-428.01 1979,-404.79 1979,-383.2 1979,-383.2 1979,-383.2 1979,-203.11 1979,-168.17 1881.82,-141.22 1816.63,-127.08"/>
<polygon fill="black" stroke="black" points="1816.97,-123.57 1806.47,-124.92 1815.52,-130.42 1816.97,-123.57"/>
</g>
<!-- node12 -->
<g id="node21" class="node">
<title>node12</title>
<polygon fill="none" stroke="black" points="1950.74,-371.41 1950.74,-392.99 1888.8,-408.25 1801.2,-408.25 1739.26,-392.99 1739.26,-371.41 1801.2,-356.16 1888.8,-356.16 1950.74,-371.41"/>
<text text-anchor="middle" x="1845" y="-385.6" font-family="Times New Roman,serif" font-size="12.00">ViewingSpaceLib</text>
<text text-anchor="middle" x="1845" y="-372.6" font-family="Times New Roman,serif" font-size="12.00">(TMIV::ViewingSpaceLib)</text>
</g>
<!-- node11&#45;&gt;node12 -->
<g id="edge20" class="edge">
<title>node11&#45;&gt;node12</title>
<path fill="none" stroke="black" d="M1920.34,-445.07C1908.8,-435.6 1895.54,-424.7 1883.39,-414.72"/>
<polygon fill="black" stroke="black" points="1885.54,-411.96 1875.59,-408.32 1881.1,-417.37 1885.54,-411.96"/>
</g>
<!-- node12&#45;&gt;node5 -->
<g id="edge19" class="edge">
<title>node12&#45;&gt;node5</title>
<path fill="none" stroke="black" d="M1776.3,-362.21C1744.69,-353.86 1706.6,-344.34 1672,-337.18 1617.28,-325.85 1555.74,-315.78 1505.45,-308.24"/>
<polygon fill="black" stroke="black" points="1505.95,-304.78 1495.54,-306.77 1504.92,-311.7 1505.95,-304.78"/>
</g>
<!-- node13&#45;&gt;node1 -->
<g id="edge23" class="edge">
<title>node13&#45;&gt;node1</title>
<path fill="none" stroke="black" d="M1135.46,-276.24C1216.39,-260.62 1339.18,-236.92 1420.47,-221.23"/>
<polygon fill="black" stroke="black" points="1421.51,-224.6 1430.67,-219.27 1420.18,-217.72 1421.51,-224.6"/>
</g>
<!-- node14 -->
<g id="node23" class="node">
<title>node14</title>
<polygon fill="none" stroke="black" points="1144.16,-193.32 1144.16,-214.9 1090.76,-230.16 1015.24,-230.16 961.84,-214.9 961.84,-193.32 1015.24,-178.07 1090.76,-178.07 1144.16,-193.32"/>
<text text-anchor="middle" x="1053" y="-207.51" font-family="Times New Roman,serif" font-size="12.00">TLibDecoder</text>
<text text-anchor="middle" x="1053" y="-194.51" font-family="Times New Roman,serif" font-size="12.00">(TMIV::TLibDecoder)</text>
</g>
<!-- node13&#45;&gt;node14 -->
<g id="edge26" class="edge">
<title>node13&#45;&gt;node14</title>
<path fill="none" stroke="black" stroke-dasharray="1,5" d="M1053,-266.98C1053,-258.68 1053,-249.29 1053,-240.38"/>
<polygon fill="black" stroke="black" points="1056.5,-240.23 1053,-230.23 1049.5,-240.23 1056.5,-240.23"/>
</g>
<!-- node17 -->
<g id="node26" class="node">
<title>node17</title>
<polygon fill="none" stroke="black" points="1751.14,-196.66 1751.14,-211.57 1734.07,-222.11 1709.93,-222.11 1692.86,-211.57 1692.86,-196.66 1709.93,-186.11 1734.07,-186.11 1751.14,-196.66"/>
<text text-anchor="middle" x="1722" y="-201.01" font-family="Times New Roman,serif" font-size="12.00">vvdec</text>
</g>
<!-- node13&#45;&gt;node17 -->
<g id="edge28" class="edge">
<title>node13&#45;&gt;node17</title>
<path fill="none" stroke="black" stroke-dasharray="1,5" d="M1155.23,-281.1C1301.64,-265.18 1558.19,-236.97 1601,-230.13 1628.49,-225.75 1659.21,-219.37 1682.82,-214.16"/>
<polygon fill="black" stroke="black" points="1683.8,-217.53 1692.8,-211.93 1682.27,-210.7 1683.8,-217.53"/>
</g>
<!-- node15 -->
<g id="node24" class="node">
<title>node15</title>
<polygon fill="none" stroke="black" points="1146.25,-104.28 1146.25,-125.86 1091.63,-141.11 1014.37,-141.11 959.75,-125.86 959.75,-104.28 1014.37,-89.02 1091.63,-89.02 1146.25,-104.28"/>
<text text-anchor="middle" x="1053" y="-118.47" font-family="Times New Roman,serif" font-size="12.00">TLibCommon</text>
<text text-anchor="middle" x="1053" y="-105.47" font-family="Times New Roman,serif" font-size="12.00">(TMIV::TLibCommon)</text>
</g>
<!-- node14&#45;&gt;node15 -->
<g id="edge25" class="edge">
<title>node14&#45;&gt;node15</title>
<path fill="none" stroke="black" d="M1053,-177.94C1053,-169.63 1053,-160.24 1053,-151.33"/>
<polygon fill="black" stroke="black" points="1056.5,-151.19 1053,-141.19 1049.5,-151.19 1056.5,-151.19"/>
</g>
<!-- node16 -->
<g id="node25" class="node">
<title>node16</title>
<polygon fill="none" stroke="black" points="1121.24,-15.23 1121.24,-36.81 1081.26,-52.07 1024.74,-52.07 984.76,-36.81 984.76,-15.23 1024.74,0.02 1081.26,0.02 1121.24,-15.23"/>
<text text-anchor="middle" x="1053" y="-29.42" font-family="Times New Roman,serif" font-size="12.00">libmd5</text>
<text text-anchor="middle" x="1053" y="-16.42" font-family="Times New Roman,serif" font-size="12.00">(TMIV::libmd5)</text>
</g>
<!-- node15&#45;&gt;node16 -->
<g id="edge24" class="edge">
<title>node15&#45;&gt;node16</title>
<path fill="none" stroke="black" stroke-dasharray="1,5" d="M1053,-88.89C1053,-80.59 1053,-71.2 1053,-62.29"/>
<polygon fill="black" stroke="black" points="1056.5,-62.14 1053,-52.14 1049.5,-62.14 1056.5,-62.14"/>
</g>
<!-- node17&#45;&gt;node2 -->
<g id="edge27" class="edge">
<title>node17&#45;&gt;node2</title>
<path fill="none" stroke="black" d="M1729.31,-185.92C1734.72,-173.19 1742.17,-155.67 1748.25,-141.35"/>
<polygon fill="black" stroke="black" points="1751.51,-142.63 1752.2,-132.05 1745.07,-139.89 1751.51,-142.63"/>
</g>
<!-- node18 -->
<g id="node27" class="node">
<title>node18</title>
<polygon fill="none" stroke="black" points="1976.35,-549.5 1976.35,-571.08 1898.23,-586.34 1787.77,-586.34 1709.65,-571.08 1709.65,-549.5 1787.77,-534.25 1898.23,-534.25 1976.35,-549.5"/>
<text text-anchor="middle" x="1843" y="-563.69" font-family="Times New Roman,serif" font-size="12.00">DepthQualityAssessorLib</text>
<text text-anchor="middle" x="1843" y="-550.69" font-family="Times New Roman,serif" font-size="12.00">(TMIV::DepthQualityAssessorLib)</text>
</g>
<!-- node18&#45;&gt;node11 -->
<g id="edge30" class="edge">
<title>node18&#45;&gt;node11</title>
<path fill="none" stroke="black" d="M1874.24,-534.12C1885.99,-524.64 1899.51,-513.75 1911.89,-503.77"/>
<polygon fill="black" stroke="black" points="1914.24,-506.37 1919.83,-497.37 1909.85,-500.92 1914.24,-506.37"/>
</g>
<!-- node19 -->
<g id="node28" class="node">
<title>node19</title>
<polygon fill="none" stroke="black" points="1198.34,-726.41 1200.55,-726.51 1202.74,-726.65 1204.9,-726.85 1207.02,-727.09 1209.09,-727.39 1211.1,-727.72 1213.04,-728.11 1214.92,-728.54 1216.71,-729.01 1218.42,-729.52 1220.04,-730.07 1221.56,-730.67 1222.97,-731.3 1224.28,-731.96 1225.48,-732.67 1226.57,-733.4 1227.55,-734.16 1228.4,-734.95 1229.14,-735.77 1229.76,-736.61 1230.26,-737.47 1230.65,-738.35 1230.92,-739.25 1231.07,-740.16 1231.11,-741.08 1231.04,-742.01 1230.87,-742.95 1230.59,-743.89 1230.21,-744.83 1229.74,-745.77 1229.18,-746.71 1228.53,-747.64 1227.8,-748.56 1227,-749.47 1226.12,-750.37 1225.17,-751.25 1224.17,-752.11 1223.1,-752.95 1221.99,-753.77 1220.83,-754.56 1219.62,-755.32 1218.37,-756.05 1217.09,-756.75 1215.78,-757.42 1214.45,-758.05 1213.08,-758.64 1211.7,-759.2 1210.3,-759.71 1208.88,-760.18 1207.45,-760.61 1206.01,-761 1204.56,-761.33 1203.1,-761.62 1201.63,-761.87 1200.16,-762.06 1198.69,-762.21 1197.22,-762.31 1195.74,-762.36 1194.26,-762.36 1192.78,-762.31 1191.31,-762.21 1189.84,-762.06 1188.37,-761.87 1186.9,-761.62 1185.44,-761.33 1183.99,-761 1182.55,-760.61 1181.12,-760.18 1179.7,-759.71 1178.3,-759.2 1176.92,-758.64 1175.55,-758.05 1174.22,-757.42 1172.91,-756.75 1171.63,-756.05 1170.38,-755.32 1169.17,-754.56 1168.01,-753.77 1166.9,-752.95 1165.83,-752.11 1164.83,-751.25 1163.88,-750.37 1163,-749.47 1162.2,-748.56 1161.47,-747.64 1160.82,-746.71 1160.26,-745.77 1159.79,-744.83 1159.41,-743.89 1159.13,-742.95 1158.96,-742.01 1158.89,-741.08 1158.93,-740.16 1159.08,-739.25 1159.35,-738.35 1159.74,-737.47 1160.24,-736.61 1160.86,-735.77 1161.6,-734.95 1162.45,-734.16 1163.43,-733.4 1164.52,-732.67 1165.72,-731.96 1167.03,-731.3 1168.44,-730.67 1169.96,-730.07 1171.58,-729.52 1173.29,-729.01 1175.08,-728.54 1176.96,-728.11 1178.9,-727.72 1180.91,-727.39 1182.98,-727.09 1185.1,-726.85 1187.26,-726.65 1189.45,-726.51 1191.66,-726.41 1193.88,-726.36 1196.12,-726.36 1198.34,-726.41"/>
<text text-anchor="middle" x="1195" y="-741.26" font-family="Times New Roman,serif" font-size="12.00">Encoder</text>
</g>
<!-- node19&#45;&gt;node10 -->
<g id="edge40" class="edge">
<title>node19&#45;&gt;node10</title>
<path fill="none" stroke="black" stroke-dasharray="1,5" d="M1159.39,-744.33C1095.07,-744.68 956.66,-739 854,-689.36 793.11,-659.91 769.18,-648.25 742,-586.31 732.71,-565.13 728.62,-553.14 742,-534.27 764.9,-501.98 805.97,-486.37 842.78,-478.88"/>
<polygon fill="black" stroke="black" points="843.84,-482.25 853.03,-476.98 842.56,-475.36 843.84,-482.25"/>
</g>
<!-- node20 -->
<g id="node29" class="node">
<title>node20</title>
<polygon fill="none" stroke="black" points="1681.91,-652.55 1681.91,-674.13 1632.17,-689.38 1561.83,-689.38 1512.09,-674.13 1512.09,-652.55 1561.83,-637.29 1632.17,-637.29 1681.91,-652.55"/>
<text text-anchor="middle" x="1597" y="-666.74" font-family="Times New Roman,serif" font-size="12.00">EncoderLib</text>
<text text-anchor="middle" x="1597" y="-653.74" font-family="Times New Roman,serif" font-size="12.00">(TMIV::EncoderLib)</text>
</g>
<!-- node19&#45;&gt;node20 -->
<g id="edge39" class="edge">
<title>node19&#45;&gt;node20</title>
<path fill="none" stroke="black" stroke-dasharray="1,5" d="M1229.97,-736.49C1293.25,-724.05 1428.26,-697.51 1515.72,-680.32"/>
<polygon fill="black" stroke="black" points="1516.47,-683.73 1525.61,-678.37 1515.12,-676.87 1516.47,-683.73"/>
</g>
<!-- node20&#45;&gt;node0 -->
<g id="edge31" class="edge">
<title>node20&#45;&gt;node0</title>
<path fill="none" stroke="black" d="M1597,-637.1C1597,-624.92 1597,-610.11 1597,-596.81"/>
<polygon fill="black" stroke="black" points="1600.5,-596.56 1597,-586.56 1593.5,-596.56 1600.5,-596.56"/>
</g>
<!-- node20&#45;&gt;node18 -->
<g id="edge32" class="edge">
<title>node20&#45;&gt;node18</title>
<path fill="none" stroke="black" d="M1647.08,-641.77C1683.62,-626.76 1733.61,-606.22 1773.95,-589.66"/>
<polygon fill="black" stroke="black" points="1775.53,-592.79 1783.45,-585.75 1772.87,-586.31 1775.53,-592.79"/>
</g>
<!-- node21 -->
<g id="node30" class="node">
<title>node21</title>
<polygon fill="none" stroke="black" points="1484.23,-549.5 1484.23,-571.08 1437.23,-586.34 1370.77,-586.34 1323.77,-571.08 1323.77,-549.5 1370.77,-534.25 1437.23,-534.25 1484.23,-549.5"/>
<text text-anchor="middle" x="1404" y="-563.69" font-family="Times New Roman,serif" font-size="12.00">PackerLib</text>
<text text-anchor="middle" x="1404" y="-550.69" font-family="Times New Roman,serif" font-size="12.00">(TMIV::PackerLib)</text>
</g>
<!-- node20&#45;&gt;node21 -->
<g id="edge34" class="edge">
<title>node20&#45;&gt;node21</title>
<path fill="none" stroke="black" d="M1553.69,-639.66C1524.68,-624.47 1486.35,-604.41 1455.74,-588.38"/>
<polygon fill="black" stroke="black" points="1456.99,-585.08 1446.5,-583.55 1453.74,-591.28 1456.99,-585.08"/>
</g>
<!-- node22 -->
<g id="node31" class="node">
<title>node22</title>
<polygon fill="none" stroke="black" points="2385.67,-549.5 2385.67,-571.08 2339.58,-586.34 2274.42,-586.34 2228.33,-571.08 2228.33,-549.5 2274.42,-534.25 2339.58,-534.25 2385.67,-549.5"/>
<text text-anchor="middle" x="2307" y="-563.69" font-family="Times New Roman,serif" font-size="12.00">PrunerLib</text>
<text text-anchor="middle" x="2307" y="-550.69" font-family="Times New Roman,serif" font-size="12.00">(TMIV::PrunerLib)</text>
</g>
<!-- node20&#45;&gt;node22 -->
<g id="edge36" class="edge">
<title>node20&#45;&gt;node22</title>
<path fill="none" stroke="black" d="M1681.93,-656.16C1802.3,-646.46 2029.06,-624.69 2219,-586.31 2226.25,-584.85 2233.78,-583.09 2241.24,-581.19"/>
<polygon fill="black" stroke="black" points="2242.21,-584.55 2250.98,-578.62 2240.42,-577.79 2242.21,-584.55"/>
</g>
<!-- node23 -->
<g id="node32" class="node">
<title>node23</title>
<polygon fill="none" stroke="black" points="2209.83,-549.5 2209.83,-571.08 2146.67,-586.34 2057.33,-586.34 1994.17,-571.08 1994.17,-549.5 2057.33,-534.25 2146.67,-534.25 2209.83,-549.5"/>
<text text-anchor="middle" x="2102" y="-563.69" font-family="Times New Roman,serif" font-size="12.00">ViewOptimizerLib</text>
<text text-anchor="middle" x="2102" y="-550.69" font-family="Times New Roman,serif" font-size="12.00">(TMIV::ViewOptimizerLib)</text>
</g>
<!-- node20&#45;&gt;node23 -->
<g id="edge38" class="edge">
<title>node20&#45;&gt;node23</title>
<path fill="none" stroke="black" d="M1669.3,-648.56C1747.28,-633.6 1875.05,-608.84 1985,-586.31 1994.29,-584.41 2003.98,-582.39 2013.65,-580.36"/>
<polygon fill="black" stroke="black" points="2014.62,-583.73 2023.68,-578.24 2013.18,-576.88 2014.62,-583.73"/>
</g>
<!-- node21&#45;&gt;node5 -->
<g id="edge33" class="edge">
<title>node21&#45;&gt;node5</title>
<path fill="none" stroke="black" d="M1462.51,-542.3C1519.46,-525.58 1598.27,-501.91 1604,-497.27 1655.73,-455.44 1694.99,-408.58 1654,-356.18 1635.76,-332.87 1569.54,-317.08 1509.83,-307.27"/>
<polygon fill="black" stroke="black" points="1510.35,-303.81 1499.93,-305.68 1509.25,-310.72 1510.35,-303.81"/>
</g>
<!-- node22&#45;&gt;node11 -->
<g id="edge35" class="edge">
<title>node22&#45;&gt;node11</title>
<path fill="none" stroke="black" d="M2249.36,-542.46C2239.27,-539.64 2228.84,-536.81 2219,-534.27 2156.11,-518.06 2084.41,-501.57 2031.01,-489.67"/>
<polygon fill="black" stroke="black" points="2031.44,-486.18 2020.92,-487.43 2029.92,-493.02 2031.44,-486.18"/>
</g>
<!-- node23&#45;&gt;node11 -->
<g id="edge37" class="edge">
<title>node23&#45;&gt;node11</title>
<path fill="none" stroke="black" d="M2058.32,-534.12C2040.43,-523.8 2019.63,-511.81 2001.12,-501.14"/>
<polygon fill="black" stroke="black" points="2002.66,-497.98 1992.24,-496.02 1999.16,-504.05 2002.66,-497.98"/>
</g>
<!-- node24 -->
<g id="node33" class="node">
<title>node24</title>
<polygon fill="none" stroke="black" points="1555.95,-453.3 1558.57,-453.4 1561.16,-453.54 1563.71,-453.74 1566.22,-453.98 1568.67,-454.27 1571.04,-454.61 1573.35,-455 1575.56,-455.42 1577.69,-455.89 1579.71,-456.41 1581.62,-456.96 1583.42,-457.56 1585.09,-458.19 1586.64,-458.85 1588.07,-459.55 1589.35,-460.29 1590.51,-461.05 1591.52,-461.84 1592.39,-462.66 1593.13,-463.5 1593.72,-464.36 1594.18,-465.24 1594.49,-466.13 1594.67,-467.04 1594.72,-467.97 1594.64,-468.9 1594.44,-469.83 1594.11,-470.78 1593.66,-471.72 1593.1,-472.66 1592.44,-473.6 1591.67,-474.53 1590.81,-475.45 1589.85,-476.36 1588.82,-477.26 1587.7,-478.14 1586.51,-479 1585.25,-479.84 1583.93,-480.66 1582.55,-481.45 1581.13,-482.21 1579.65,-482.94 1578.14,-483.64 1576.59,-484.31 1575.01,-484.94 1573.39,-485.53 1571.76,-486.09 1570.1,-486.6 1568.42,-487.07 1566.73,-487.5 1565.02,-487.88 1563.31,-488.22 1561.58,-488.51 1559.85,-488.76 1558.11,-488.95 1556.37,-489.1 1554.62,-489.2 1552.87,-489.25 1551.13,-489.25 1549.38,-489.2 1547.63,-489.1 1545.89,-488.95 1544.15,-488.76 1542.42,-488.51 1540.69,-488.22 1538.98,-487.88 1537.27,-487.5 1535.58,-487.07 1533.9,-486.6 1532.24,-486.09 1530.61,-485.53 1528.99,-484.94 1527.41,-484.31 1525.86,-483.64 1524.35,-482.94 1522.87,-482.21 1521.45,-481.45 1520.07,-480.66 1518.75,-479.84 1517.49,-479 1516.3,-478.14 1515.18,-477.26 1514.15,-476.36 1513.19,-475.45 1512.33,-474.53 1511.56,-473.6 1510.9,-472.66 1510.34,-471.72 1509.89,-470.78 1509.56,-469.83 1509.36,-468.9 1509.28,-467.97 1509.33,-467.04 1509.51,-466.13 1509.82,-465.24 1510.28,-464.36 1510.87,-463.5 1511.61,-462.66 1512.48,-461.84 1513.49,-461.05 1514.65,-460.29 1515.93,-459.55 1517.36,-458.85 1518.91,-458.19 1520.58,-457.56 1522.38,-456.96 1524.29,-456.41 1526.31,-455.89 1528.44,-455.42 1530.65,-455 1532.96,-454.61 1535.33,-454.27 1537.78,-453.98 1540.29,-453.74 1542.84,-453.54 1545.43,-453.4 1548.05,-453.3 1550.68,-453.25 1553.32,-453.25 1555.95,-453.3"/>
<text text-anchor="middle" x="1552" y="-468.15" font-family="Times New Roman,serif" font-size="12.00">GaInserter</text>
</g>
<!-- node25 -->
<g id="node34" class="node">
<title>node25</title>
<polygon fill="none" stroke="black" points="1644.72,-371.41 1644.72,-392.99 1590.41,-408.25 1513.59,-408.25 1459.28,-392.99 1459.28,-371.41 1513.59,-356.16 1590.41,-356.16 1644.72,-371.41"/>
<text text-anchor="middle" x="1552" y="-385.6" font-family="Times New Roman,serif" font-size="12.00">GaInserterLib</text>
<text text-anchor="middle" x="1552" y="-372.6" font-family="Times New Roman,serif" font-size="12.00">(TMIV::GaInserterLib)</text>
</g>
<!-- node24&#45;&gt;node25 -->
<g id="edge42" class="edge">
<title>node24&#45;&gt;node25</title>
<path fill="none" stroke="black" stroke-dasharray="1,5" d="M1552,-453.05C1552,-443.16 1552,-430.37 1552,-418.44"/>
<polygon fill="black" stroke="black" points="1555.5,-418.28 1552,-408.28 1548.5,-418.28 1555.5,-418.28"/>
</g>
<!-- node25&#45;&gt;node5 -->
<g id="edge41" class="edge">
<title>node25&#45;&gt;node5</title>
<path fill="none" stroke="black" d="M1510.38,-356.72C1493.26,-346.66 1473.26,-334.89 1455.25,-324.3"/>
<polygon fill="black" stroke="black" points="1456.99,-321.26 1446.59,-319.21 1453.44,-327.29 1456.99,-321.26"/>
</g>
<!-- node26 -->
<g id="node35" class="node">
<title>node26</title>
<polygon fill="none" stroke="black" points="689.49,-726.41 692.46,-726.51 695.41,-726.65 698.3,-726.85 701.15,-727.09 703.93,-727.39 706.63,-727.72 709.25,-728.11 711.76,-728.54 714.17,-729.01 716.47,-729.52 718.64,-730.07 720.68,-730.67 722.59,-731.3 724.35,-731.96 725.96,-732.67 727.42,-733.4 728.73,-734.16 729.88,-734.95 730.88,-735.77 731.71,-736.61 732.38,-737.47 732.9,-738.35 733.26,-739.25 733.47,-740.16 733.52,-741.08 733.43,-742.01 733.2,-742.95 732.82,-743.89 732.32,-744.83 731.68,-745.77 730.93,-746.71 730.06,-747.64 729.08,-748.56 727.99,-749.47 726.81,-750.37 725.54,-751.25 724.19,-752.11 722.76,-752.95 721.27,-753.77 719.7,-754.56 718.08,-755.32 716.41,-756.05 714.69,-756.75 712.93,-757.42 711.13,-758.05 709.3,-758.64 707.44,-759.2 705.56,-759.71 703.65,-760.18 701.73,-760.61 699.79,-761 697.84,-761.33 695.88,-761.62 693.91,-761.87 691.94,-762.06 689.96,-762.21 687.98,-762.31 685.99,-762.36 684.01,-762.36 682.02,-762.31 680.04,-762.21 678.06,-762.06 676.09,-761.87 674.12,-761.62 672.16,-761.33 670.21,-761 668.27,-760.61 666.35,-760.18 664.44,-759.71 662.56,-759.2 660.7,-758.64 658.87,-758.05 657.07,-757.42 655.31,-756.75 653.59,-756.05 651.92,-755.32 650.3,-754.56 648.73,-753.77 647.24,-752.95 645.81,-752.11 644.46,-751.25 643.19,-750.37 642.01,-749.47 640.92,-748.56 639.94,-747.64 639.07,-746.71 638.32,-745.77 637.68,-744.83 637.18,-743.89 636.8,-742.95 636.57,-742.01 636.48,-741.08 636.53,-740.16 636.74,-739.25 637.1,-738.35 637.62,-737.47 638.29,-736.61 639.12,-735.77 640.12,-734.95 641.27,-734.16 642.58,-733.4 644.04,-732.67 645.65,-731.96 647.41,-731.3 649.32,-730.67 651.36,-730.07 653.53,-729.52 655.83,-729.01 658.24,-728.54 660.75,-728.11 663.37,-727.72 666.07,-727.39 668.85,-727.09 671.7,-726.85 674.59,-726.65 677.54,-726.51 680.51,-726.41 683.5,-726.36 686.5,-726.36 689.49,-726.41"/>
<text text-anchor="middle" x="685" y="-741.26" font-family="Times New Roman,serif" font-size="12.00">MpiEncoder</text>
</g>
<!-- node26&#45;&gt;node20 -->
<g id="edge43" class="edge">
<title>node26&#45;&gt;node20</title>
<path fill="none" stroke="black" stroke-dasharray="1,5" d="M733.57,-740.13C846.33,-732.51 1134.58,-712.31 1375,-689.36 1417,-685.35 1463.39,-680.23 1502.86,-675.67"/>
<polygon fill="black" stroke="black" points="1503.47,-679.12 1513,-674.49 1502.66,-672.17 1503.47,-679.12"/>
</g>
<!-- node27 -->
<g id="node36" class="node">
<title>node27</title>
<polygon fill="none" stroke="black" points="694.82,-549.5 694.82,-571.08 646.3,-586.34 577.7,-586.34 529.18,-571.08 529.18,-549.5 577.7,-534.25 646.3,-534.25 694.82,-549.5"/>
<text text-anchor="middle" x="612" y="-563.69" font-family="Times New Roman,serif" font-size="12.00">MpiPcsLib</text>
<text text-anchor="middle" x="612" y="-550.69" font-family="Times New Roman,serif" font-size="12.00">(TMIV::MpiPcsLib)</text>
</g>
<!-- node26&#45;&gt;node27 -->
<g id="edge45" class="edge">
<title>node26&#45;&gt;node27</title>
<path fill="none" stroke="black" stroke-dasharray="1,5" d="M681.19,-726.06C676.2,-704.74 666.61,-667.59 654,-637.31 648.12,-623.2 640.31,-608.34 633.02,-595.54"/>
<polygon fill="black" stroke="black" points="635.89,-593.51 627.84,-586.63 629.84,-597.03 635.89,-593.51"/>
</g>
<!-- node27&#45;&gt;node10 -->
<g id="edge44" class="edge">
<title>node27&#45;&gt;node10</title>
<path fill="none" stroke="black" d="M655.6,-536.99C672.02,-529.27 691.06,-521.1 709,-515.27 752.56,-501.12 802.77,-490.63 843.17,-483.56"/>
<polygon fill="black" stroke="black" points="843.96,-486.97 853.22,-481.83 842.77,-480.07 843.96,-486.97"/>
</g>
<!-- node28 -->
<g id="node37" class="node">
<title>node28</title>
<polygon fill="none" stroke="black" points="614.16,-645.39 616.26,-645.48 618.33,-645.63 620.37,-645.83 622.38,-646.07 624.33,-646.36 626.24,-646.7 628.08,-647.08 629.85,-647.51 631.55,-647.98 633.17,-648.5 634.7,-649.05 636.13,-649.65 637.47,-650.28 638.72,-650.94 639.85,-651.64 640.88,-652.38 641.8,-653.14 642.61,-653.93 643.31,-654.75 643.9,-655.59 644.38,-656.45 644.74,-657.33 644.99,-658.22 645.14,-659.13 645.18,-660.06 645.11,-660.99 644.95,-661.92 644.69,-662.87 644.33,-663.81 643.88,-664.75 643.35,-665.69 642.74,-666.62 642.05,-667.54 641.28,-668.45 640.45,-669.35 639.56,-670.23 638.61,-671.09 637.6,-671.93 636.54,-672.75 635.44,-673.54 634.3,-674.3 633.12,-675.03 631.91,-675.73 630.67,-676.4 629.4,-677.03 628.11,-677.62 626.81,-678.18 625.48,-678.69 624.14,-679.16 622.78,-679.59 621.42,-679.97 620.05,-680.31 618.66,-680.6 617.28,-680.85 615.89,-681.04 614.49,-681.19 613.1,-681.29 611.7,-681.34 610.3,-681.34 608.9,-681.29 607.51,-681.19 606.11,-681.04 604.72,-680.85 603.34,-680.6 601.95,-680.31 600.58,-679.97 599.22,-679.59 597.86,-679.16 596.52,-678.69 595.19,-678.18 593.89,-677.62 592.6,-677.03 591.33,-676.4 590.09,-675.73 588.88,-675.03 587.7,-674.3 586.56,-673.54 585.46,-672.75 584.4,-671.93 583.39,-671.09 582.44,-670.23 581.55,-669.35 580.72,-668.45 579.95,-667.54 579.26,-666.62 578.65,-665.69 578.12,-664.75 577.67,-663.81 577.31,-662.87 577.05,-661.92 576.89,-660.99 576.82,-660.06 576.86,-659.13 577.01,-658.22 577.26,-657.33 577.62,-656.45 578.1,-655.59 578.69,-654.75 579.39,-653.93 580.2,-653.14 581.12,-652.38 582.15,-651.64 583.28,-650.94 584.53,-650.28 585.87,-649.65 587.3,-649.05 588.83,-648.5 590.45,-647.98 592.15,-647.51 593.92,-647.08 595.76,-646.7 597.67,-646.36 599.62,-646.07 601.63,-645.83 603.67,-645.63 605.74,-645.48 607.84,-645.39 609.94,-645.34 612.06,-645.34 614.16,-645.39"/>
<text text-anchor="middle" x="611" y="-660.24" font-family="Times New Roman,serif" font-size="12.00">MpiPcs</text>
</g>
<!-- node28&#45;&gt;node27 -->
<g id="edge46" class="edge">
<title>node28&#45;&gt;node27</title>
<path fill="none" stroke="black" stroke-dasharray="1,5" d="M611.17,-645.2C611.3,-631.99 611.49,-613.27 611.65,-596.86"/>
<polygon fill="black" stroke="black" points="615.15,-596.52 611.75,-586.49 608.15,-596.46 615.15,-596.52"/>
</g>
<!-- node29 -->
<g id="node38" class="node">
<title>node29</title>
<polygon fill="none" stroke="black" points="912.13,-645.39 914.87,-645.48 917.58,-645.63 920.24,-645.83 922.86,-646.07 925.42,-646.36 927.91,-646.7 930.31,-647.08 932.63,-647.51 934.85,-647.98 936.96,-648.5 938.96,-649.05 940.84,-649.65 942.59,-650.28 944.21,-650.94 945.7,-651.64 947.04,-652.38 948.25,-653.14 949.31,-653.93 950.22,-654.75 950.99,-655.59 951.61,-656.45 952.08,-657.33 952.42,-658.22 952.61,-659.13 952.66,-660.06 952.57,-660.99 952.36,-661.92 952.01,-662.87 951.55,-663.81 950.96,-664.75 950.27,-665.69 949.47,-666.62 948.56,-667.54 947.57,-668.45 946.48,-669.35 945.31,-670.23 944.07,-671.09 942.75,-671.93 941.38,-672.75 939.94,-673.54 938.45,-674.3 936.91,-675.03 935.32,-675.73 933.7,-676.4 932.05,-677.03 930.36,-677.62 928.65,-678.18 926.92,-678.69 925.16,-679.16 923.4,-679.59 921.61,-679.97 919.82,-680.31 918.01,-680.6 916.2,-680.85 914.39,-681.04 912.56,-681.19 910.74,-681.29 908.91,-681.34 907.09,-681.34 905.26,-681.29 903.44,-681.19 901.61,-681.04 899.8,-680.85 897.99,-680.6 896.18,-680.31 894.39,-679.97 892.6,-679.59 890.84,-679.16 889.08,-678.69 887.35,-678.18 885.64,-677.62 883.95,-677.03 882.3,-676.4 880.68,-675.73 879.09,-675.03 877.55,-674.3 876.06,-673.54 874.62,-672.75 873.25,-671.93 871.93,-671.09 870.69,-670.23 869.52,-669.35 868.43,-668.45 867.44,-667.54 866.53,-666.62 865.73,-665.69 865.04,-664.75 864.45,-663.81 863.99,-662.87 863.64,-661.92 863.43,-660.99 863.34,-660.06 863.39,-659.13 863.58,-658.22 863.92,-657.33 864.39,-656.45 865.01,-655.59 865.78,-654.75 866.69,-653.93 867.75,-653.14 868.96,-652.38 870.3,-651.64 871.79,-650.94 873.41,-650.28 875.16,-649.65 877.04,-649.05 879.04,-648.5 881.15,-647.98 883.37,-647.51 885.69,-647.08 888.09,-646.7 890.58,-646.36 893.14,-646.07 895.76,-645.83 898.42,-645.63 901.13,-645.48 903.87,-645.39 906.62,-645.34 909.38,-645.34 912.13,-645.39"/>
<text text-anchor="middle" x="908" y="-660.24" font-family="Times New Roman,serif" font-size="12.00">Multiplexer</text>
</g>
<!-- node29&#45;&gt;node10 -->
<g id="edge47" class="edge">
<title>node29&#45;&gt;node10</title>
<path fill="none" stroke="black" stroke-dasharray="1,5" d="M920.53,-645.59C930.72,-630.85 944.31,-608.36 950,-586.31 955.78,-563.92 955.31,-556.78 950,-534.27 947.79,-524.89 943.93,-515.31 939.67,-506.58"/>
<polygon fill="black" stroke="black" points="942.66,-504.74 934.94,-497.48 936.44,-507.97 942.66,-504.74"/>
</g>
<!-- node30 -->
<g id="node39" class="node">
<title>node30</title>
<polygon fill="none" stroke="black" points="940.81,-549.5 940.81,-571.08 885.27,-586.34 806.73,-586.34 751.19,-571.08 751.19,-549.5 806.73,-534.25 885.27,-534.25 940.81,-549.5"/>
<text text-anchor="middle" x="846" y="-563.69" font-family="Times New Roman,serif" font-size="12.00">MultiplexerLib</text>
<text text-anchor="middle" x="846" y="-550.69" font-family="Times New Roman,serif" font-size="12.00">(TMIV::MultiplexerLib)</text>
</g>
<!-- node29&#45;&gt;node30 -->
<g id="edge50" class="edge">
<title>node29&#45;&gt;node30</title>
<path fill="none" stroke="black" stroke-dasharray="1,5" d="M897.76,-645.65C889.33,-631.9 877.1,-611.97 866.64,-594.93"/>
<polygon fill="black" stroke="black" points="869.58,-593.03 861.37,-586.33 863.61,-596.69 869.58,-593.03"/>
</g>
<!-- node30&#45;&gt;node7 -->
<g id="edge48" class="edge">
<title>node30&#45;&gt;node7</title>
<path fill="none" stroke="black" d="M918.76,-543.25C957.42,-534.8 1005.76,-524.33 1049,-515.27 1088.5,-506.99 1098.68,-506.36 1138,-497.27 1145.55,-495.52 1153.41,-493.62 1161.25,-491.66"/>
<polygon fill="black" stroke="black" points="1162.28,-495.01 1171.12,-489.17 1160.57,-488.22 1162.28,-495.01"/>
</g>
<!-- node30&#45;&gt;node13 -->
<g id="edge49" class="edge">
<title>node30&#45;&gt;node13</title>
<path fill="none" stroke="black" d="M841.27,-534.22C837.82,-510.71 835.14,-474.83 844,-445.22 860.47,-390.18 869.11,-371.76 915,-337.18 928.49,-327.02 944.42,-319.22 960.58,-313.26"/>
<polygon fill="black" stroke="black" points="961.8,-316.54 970.1,-309.95 959.51,-309.92 961.8,-316.54"/>
</g>
<!-- node31 -->
<g id="node40" class="node">
<title>node31</title>
<polygon fill="none" stroke="black" points="1101.81,-453.3 1103.66,-453.4 1105.5,-453.54 1107.31,-453.74 1109.09,-453.98 1110.82,-454.27 1112.51,-454.61 1114.15,-455 1115.72,-455.42 1117.22,-455.89 1118.66,-456.41 1120.02,-456.96 1121.29,-457.56 1122.48,-458.19 1123.58,-458.85 1124.59,-459.55 1125.5,-460.29 1126.32,-461.05 1127.04,-461.84 1127.66,-462.66 1128.18,-463.5 1128.6,-464.36 1128.92,-465.24 1129.15,-466.13 1129.28,-467.04 1129.31,-467.97 1129.26,-468.9 1129.11,-469.83 1128.88,-470.78 1128.56,-471.72 1128.16,-472.66 1127.69,-473.6 1127.15,-474.53 1126.53,-475.45 1125.86,-476.36 1125.12,-477.26 1124.33,-478.14 1123.48,-479 1122.59,-479.84 1121.66,-480.66 1120.68,-481.45 1119.67,-482.21 1118.62,-482.94 1117.55,-483.64 1116.45,-484.31 1115.32,-484.94 1114.18,-485.53 1113.02,-486.09 1111.84,-486.6 1110.65,-487.07 1109.45,-487.5 1108.24,-487.88 1107.02,-488.22 1105.8,-488.51 1104.57,-488.76 1103.33,-488.95 1102.1,-489.1 1100.86,-489.2 1099.62,-489.25 1098.38,-489.25 1097.14,-489.2 1095.9,-489.1 1094.67,-488.95 1093.43,-488.76 1092.2,-488.51 1090.98,-488.22 1089.76,-487.88 1088.55,-487.5 1087.35,-487.07 1086.16,-486.6 1084.98,-486.09 1083.82,-485.53 1082.68,-484.94 1081.55,-484.31 1080.45,-483.64 1079.38,-482.94 1078.33,-482.21 1077.32,-481.45 1076.34,-480.66 1075.41,-479.84 1074.52,-479 1073.67,-478.14 1072.88,-477.26 1072.14,-476.36 1071.47,-475.45 1070.85,-474.53 1070.31,-473.6 1069.84,-472.66 1069.44,-471.72 1069.12,-470.78 1068.89,-469.83 1068.74,-468.9 1068.69,-467.97 1068.72,-467.04 1068.85,-466.13 1069.08,-465.24 1069.4,-464.36 1069.82,-463.5 1070.34,-462.66 1070.96,-461.84 1071.68,-461.05 1072.5,-460.29 1073.41,-459.55 1074.42,-458.85 1075.52,-458.19 1076.71,-457.56 1077.98,-456.96 1079.34,-456.41 1080.78,-455.89 1082.28,-455.42 1083.85,-455 1085.49,-454.61 1087.18,-454.27 1088.91,-453.98 1090.69,-453.74 1092.5,-453.54 1094.34,-453.4 1096.19,-453.3 1098.06,-453.25 1099.94,-453.25 1101.81,-453.3"/>
<text text-anchor="middle" x="1099" y="-468.15" font-family="Times New Roman,serif" font-size="12.00">Parser</text>
</g>
<!-- node32 -->
<g id="node41" class="node">
<title>node32</title>
<polygon fill="none" stroke="black" points="1233.13,-371.41 1233.13,-392.99 1187.36,-408.25 1122.64,-408.25 1076.87,-392.99 1076.87,-371.41 1122.64,-356.16 1187.36,-356.16 1233.13,-371.41"/>
<text text-anchor="middle" x="1155" y="-385.6" font-family="Times New Roman,serif" font-size="12.00">ParserLib</text>
<text text-anchor="middle" x="1155" y="-372.6" font-family="Times New Roman,serif" font-size="12.00">(TMIV::ParserLib)</text>
</g>
<!-- node31&#45;&gt;node32 -->
<g id="edge52" class="edge">
<title>node31&#45;&gt;node32</title>
<path fill="none" stroke="black" stroke-dasharray="1,5" d="M1109.53,-453.87C1116.23,-443.47 1125.14,-429.62 1133.29,-416.94"/>
<polygon fill="black" stroke="black" points="1136.32,-418.71 1138.79,-408.4 1130.43,-414.92 1136.32,-418.71"/>
</g>
<!-- node32&#45;&gt;node5 -->
<g id="edge51" class="edge">
<title>node32&#45;&gt;node5</title>
<path fill="none" stroke="black" d="M1207.5,-362.85C1244.62,-349.87 1294.75,-332.35 1335.08,-318.25"/>
<polygon fill="black" stroke="black" points="1336.3,-321.53 1344.58,-314.93 1333.99,-314.92 1336.3,-321.53"/>
</g>
<!-- node33 -->
<g id="node42" class="node">
<title>node33</title>
<polygon fill="none" stroke="black" points="1330.6,-645.39 1332.98,-645.48 1335.33,-645.63 1337.65,-645.83 1339.93,-646.07 1342.16,-646.36 1344.32,-646.7 1346.42,-647.08 1348.43,-647.51 1350.36,-647.98 1352.2,-648.5 1353.94,-649.05 1355.57,-649.65 1357.1,-650.28 1358.51,-650.94 1359.8,-651.64 1360.97,-652.38 1362.02,-653.14 1362.94,-653.93 1363.74,-654.75 1364.4,-655.59 1364.95,-656.45 1365.36,-657.33 1365.65,-658.22 1365.81,-659.13 1365.86,-660.06 1365.78,-660.99 1365.6,-661.92 1365.3,-662.87 1364.89,-663.81 1364.38,-664.75 1363.78,-665.69 1363.08,-666.62 1362.3,-667.54 1361.43,-668.45 1360.48,-669.35 1359.47,-670.23 1358.39,-671.09 1357.24,-671.93 1356.04,-672.75 1354.79,-673.54 1353.49,-674.3 1352.15,-675.03 1350.77,-675.73 1349.36,-676.4 1347.92,-677.03 1346.46,-677.62 1344.97,-678.18 1343.46,-678.69 1341.94,-679.16 1340.4,-679.59 1338.84,-679.97 1337.28,-680.31 1335.71,-680.6 1334.14,-680.85 1332.56,-681.04 1330.97,-681.19 1329.38,-681.29 1327.79,-681.34 1326.21,-681.34 1324.62,-681.29 1323.03,-681.19 1321.44,-681.04 1319.86,-680.85 1318.29,-680.6 1316.72,-680.31 1315.16,-679.97 1313.6,-679.59 1312.06,-679.16 1310.54,-678.69 1309.03,-678.18 1307.54,-677.62 1306.08,-677.03 1304.64,-676.4 1303.23,-675.73 1301.85,-675.03 1300.51,-674.3 1299.21,-673.54 1297.96,-672.75 1296.76,-671.93 1295.61,-671.09 1294.53,-670.23 1293.52,-669.35 1292.57,-668.45 1291.7,-667.54 1290.92,-666.62 1290.22,-665.69 1289.62,-664.75 1289.11,-663.81 1288.7,-662.87 1288.4,-661.92 1288.22,-660.99 1288.14,-660.06 1288.19,-659.13 1288.35,-658.22 1288.64,-657.33 1289.05,-656.45 1289.6,-655.59 1290.26,-654.75 1291.06,-653.93 1291.98,-653.14 1293.03,-652.38 1294.2,-651.64 1295.49,-650.94 1296.9,-650.28 1298.43,-649.65 1300.06,-649.05 1301.8,-648.5 1303.64,-647.98 1305.57,-647.51 1307.58,-647.08 1309.68,-646.7 1311.84,-646.36 1314.07,-646.07 1316.35,-645.83 1318.67,-645.63 1321.02,-645.48 1323.4,-645.39 1325.8,-645.34 1328.2,-645.34 1330.6,-645.39"/>
<text text-anchor="middle" x="1327" y="-660.24" font-family="Times New Roman,serif" font-size="12.00">Renderer</text>
</g>
<!-- node33&#45;&gt;node9 -->
<g id="edge54" class="edge">
<title>node33&#45;&gt;node9</title>
<path fill="none" stroke="black" stroke-dasharray="1,5" d="M1307.41,-646.99C1289.06,-632.62 1261.09,-610.71 1238.02,-592.64"/>
<polygon fill="black" stroke="black" points="1240.12,-589.84 1230.09,-586.43 1235.81,-595.35 1240.12,-589.84"/>
</g>
<!-- node33&#45;&gt;node18 -->
<g id="edge53" class="edge">
<title>node33&#45;&gt;node18</title>
<path fill="none" stroke="black" stroke-dasharray="1,5" d="M1364.11,-655.07C1442.14,-639.79 1625.53,-603.88 1741.38,-581.19"/>
<polygon fill="black" stroke="black" points="1742.19,-584.6 1751.33,-579.24 1740.84,-577.73 1742.19,-584.6"/>
</g>
<!-- node34 -->
<g id="node43" class="node">
<title>node34</title>
<polygon fill="none" stroke="black" points="1782.7,-275.21 1785.15,-275.31 1787.57,-275.45 1789.96,-275.65 1792.31,-275.89 1794.6,-276.18 1796.82,-276.52 1798.98,-276.91 1801.05,-277.33 1803.04,-277.8 1804.93,-278.32 1806.72,-278.87 1808.4,-279.47 1809.97,-280.1 1811.42,-280.76 1812.75,-281.46 1813.95,-282.2 1815.03,-282.96 1815.98,-283.75 1816.8,-284.57 1817.48,-285.41 1818.04,-286.27 1818.47,-287.15 1818.76,-288.04 1818.93,-288.95 1818.98,-289.88 1818.9,-290.81 1818.71,-291.74 1818.4,-292.69 1817.99,-293.63 1817.46,-294.57 1816.84,-295.51 1816.12,-296.44 1815.31,-297.36 1814.42,-298.27 1813.45,-299.17 1812.41,-300.05 1811.29,-300.91 1810.11,-301.75 1808.88,-302.57 1807.59,-303.36 1806.26,-304.12 1804.88,-304.85 1803.46,-305.55 1802.01,-306.22 1800.53,-306.85 1799.02,-307.44 1797.49,-308 1795.94,-308.51 1794.37,-308.98 1792.78,-309.41 1791.19,-309.79 1789.58,-310.13 1787.97,-310.42 1786.34,-310.67 1784.72,-310.86 1783.09,-311.01 1781.45,-311.11 1779.82,-311.16 1778.18,-311.16 1776.55,-311.11 1774.91,-311.01 1773.28,-310.86 1771.66,-310.67 1770.03,-310.42 1768.42,-310.13 1766.81,-309.79 1765.22,-309.41 1763.63,-308.98 1762.06,-308.51 1760.51,-308 1758.98,-307.44 1757.47,-306.85 1755.99,-306.22 1754.54,-305.55 1753.12,-304.85 1751.74,-304.12 1750.41,-303.36 1749.12,-302.57 1747.89,-301.75 1746.71,-300.91 1745.59,-300.05 1744.55,-299.17 1743.58,-298.27 1742.69,-297.36 1741.88,-296.44 1741.16,-295.51 1740.54,-294.57 1740.01,-293.63 1739.6,-292.69 1739.29,-291.74 1739.1,-290.81 1739.02,-289.88 1739.07,-288.95 1739.24,-288.04 1739.53,-287.15 1739.96,-286.27 1740.52,-285.41 1741.2,-284.57 1742.02,-283.75 1742.97,-282.96 1744.05,-282.2 1745.25,-281.46 1746.58,-280.76 1748.03,-280.1 1749.6,-279.47 1751.28,-278.87 1753.07,-278.32 1754.96,-277.8 1756.95,-277.33 1759.02,-276.91 1761.18,-276.52 1763.4,-276.18 1765.69,-275.89 1768.04,-275.65 1770.43,-275.45 1772.85,-275.31 1775.3,-275.21 1777.77,-275.16 1780.23,-275.16 1782.7,-275.21"/>
<text text-anchor="middle" x="1779" y="-290.06" font-family="Times New Roman,serif" font-size="12.00">vvdecapp</text>
</g>
<!-- node34&#45;&gt;node2 -->
<g id="edge55" class="edge">
<title>node34&#45;&gt;node2</title>
<path fill="none" stroke="black" stroke-dasharray="1,5" d="M1777.05,-274.95C1773.55,-244.16 1766.19,-179.41 1762.03,-142.79"/>
<polygon fill="black" stroke="black" points="1765.51,-142.37 1760.9,-132.83 1758.55,-143.16 1765.51,-142.37"/>
</g>
<!-- node34&#45;&gt;node17 -->
<g id="edge56" class="edge">
<title>node34&#45;&gt;node17</title>
<path fill="none" stroke="black" stroke-dasharray="1,5" d="M1768.01,-275.37C1759.7,-262.69 1748.16,-245.06 1738.71,-230.64"/>
<polygon fill="black" stroke="black" points="1741.56,-228.59 1733.15,-222.14 1735.7,-232.42 1741.56,-228.59"/>
</g>
</g>
</svg>
