<?xml version="1.0" encoding="UTF-8" standalone="no"?>
<!DOCTYPE svg PUBLIC "-//W3C//DTD SVG 1.1//EN"
 "http://www.w3.org/Graphics/SVG/1.1/DTD/svg11.dtd">
<!-- Generated by graphviz version 2.30.1 (20180413.0232)
 -->
<!-- Title: GG Pages: 1 -->
<svg width="2421pt" height="476pt"
 viewBox="0.00 0.00 2421.00 476.00" xmlns="http://www.w3.org/2000/svg" xmlns:xlink="http://www.w3.org/1999/xlink">
<g id="graph0" class="graph" transform="scale(1 1) rotate(0) translate(4 472)">
<title>GG</title>
<polygon fill="white" stroke="white" points="-4,5 -4,-472 2418,-472 2418,5 -4,5"/>
<!-- node65 -->
<g id="node1" class="node"><title>node65</title>
<polygon fill="none" stroke="black" points="581,-108 489.078,-90 581,-72 672.922,-90 581,-108"/>
<text text-anchor="middle" x="581" y="-86.9" font-family="Times,serif" font-size="12.00">AggregatorLib</text>
</g>
<!-- node24 -->
<g id="node2" class="node"><title>node24</title>
<polygon fill="none" stroke="black" points="581,-36 502.972,-18 581,-3.55271e-15 659.028,-18 581,-36"/>
<text text-anchor="middle" x="581" y="-14.9" font-family="Times,serif" font-size="12.00">CommonLib</text>
</g>
<!-- node65&#45;&gt;node24 -->
<g id="edge1" class="edge"><title>node65&#45;&gt;node24</title>
<path fill="none" stroke="black" d="M581,-71.6966C581,-63.9827 581,-54.7125 581,-46.1124"/>
<polygon fill="black" stroke="black" points="584.5,-46.1043 581,-36.1043 577.5,-46.1044 584.5,-46.1043"/>
</g>
<!-- node23 -->
<g id="node3" class="node"><title>node23</title>
<polygon fill="none" stroke="black" points="469.93,-95.5623 398,-108 326.07,-95.5623 326.137,-75.4377 469.863,-75.4377 469.93,-95.5623"/>
<text text-anchor="middle" x="398" y="-86.9" font-family="Times,serif" font-size="12.00">CommonTest</text>
</g>
<!-- node23&#45;&gt;node24 -->
<g id="edge2" class="edge"><title>node23&#45;&gt;node24</title>
<path fill="none" stroke="black" stroke-dasharray="5,2" d="M433.719,-75.3371C465.392,-63.2218 511.484,-45.5906 543.643,-33.2897"/>
<polygon fill="black" stroke="black" points="545.054,-36.497 553.144,-29.6553 542.554,-29.959 545.054,-36.497"/>
</g>
<!-- node128 -->
<g id="node4" class="node"><title>node128</title>
<polygon fill="none" stroke="black" points="1713.61,-383.562 1662,-396 1610.39,-383.562 1610.44,-363.438 1713.56,-363.438 1713.61,-383.562"/>
<text text-anchor="middle" x="1662" y="-374.9" font-family="Times,serif" font-size="12.00">Decoder</text>
</g>
<!-- node130 -->
<g id="node5" class="node"><title>node130</title>
<polygon fill="none" stroke="black" points="1346,-324 1270.39,-306 1346,-288 1421.61,-306 1346,-324"/>
<text text-anchor="middle" x="1346" y="-302.9" font-family="Times,serif" font-size="12.00">DecoderLib</text>
</g>
<!-- node128&#45;&gt;node130 -->
<g id="edge3" class="edge"><title>node128&#45;&gt;node130</title>
<path fill="none" stroke="black" stroke-dasharray="5,2" d="M1614.46,-363.42C1609.92,-362.224 1605.38,-361.064 1601,-360 1581.2,-355.189 1462.87,-330.878 1394.57,-316.912"/>
<polygon fill="black" stroke="black" points="1394.97,-313.421 1384.47,-314.847 1393.56,-320.279 1394.97,-313.421"/>
</g>
<!-- node41 -->
<g id="node14" class="node"><title>node41</title>
<polygon fill="none" stroke="black" points="1660,-324 1616.71,-306 1660,-288 1703.29,-306 1660,-324"/>
<text text-anchor="middle" x="1660" y="-302.9" font-family="Times,serif" font-size="12.00">IOLib</text>
</g>
<!-- node128&#45;&gt;node41 -->
<g id="edge15" class="edge"><title>node128&#45;&gt;node41</title>
<path fill="none" stroke="black" stroke-dasharray="5,2" d="M1661.6,-363.17C1661.37,-354.919 1661.06,-344.153 1660.78,-334.256"/>
<polygon fill="black" stroke="black" points="1664.27,-333.915 1660.49,-324.019 1657.27,-334.115 1664.27,-333.915"/>
</g>
<!-- node91 -->
<g id="node6" class="node"><title>node91</title>
<polygon fill="none" stroke="black" points="1086,-252 1005.86,-234 1086,-216 1166.14,-234 1086,-252"/>
<text text-anchor="middle" x="1086" y="-230.9" font-family="Times,serif" font-size="12.00">RendererLib</text>
</g>
<!-- node130&#45;&gt;node91 -->
<g id="edge4" class="edge"><title>node130&#45;&gt;node91</title>
<path fill="none" stroke="black" d="M1312.28,-295.92C1265.77,-283.401 1181.88,-260.814 1130.35,-246.939"/>
<polygon fill="black" stroke="black" points="1131.06,-243.506 1120.49,-244.286 1129.24,-250.266 1131.06,-243.506"/>
</g>
<!-- node109 -->
<g id="node10" class="node"><title>node109</title>
<polygon fill="none" stroke="black" points="1416,-252 1309.69,-234 1416,-216 1522.31,-234 1416,-252"/>
<text text-anchor="middle" x="1416" y="-230.9" font-family="Times,serif" font-size="12.00">VideoDecoderLib</text>
</g>
<!-- node130&#45;&gt;node109 -->
<g id="edge9" class="edge"><title>node130&#45;&gt;node109</title>
<path fill="none" stroke="black" d="M1359.83,-291.17C1369.54,-281.458 1382.74,-268.263 1393.9,-257.102"/>
<polygon fill="black" stroke="black" points="1396.64,-259.314 1401.23,-249.768 1391.69,-254.364 1396.64,-259.314"/>
</g>
<!-- node147 -->
<g id="node7" class="node"><title>node147</title>
<ellipse fill="none" stroke="black" cx="1312" cy="-162" rx="75.5754" ry="18"/>
<text text-anchor="middle" x="1312" y="-158.9" font-family="Times,serif" font-size="12.00">Threads::Threads</text>
</g>
<!-- node91&#45;&gt;node147 -->
<g id="edge5" class="edge"><title>node91&#45;&gt;node147</title>
<path fill="none" stroke="black" stroke-dasharray="5,2" d="M1117.9,-223.119C1154.33,-211.837 1214.51,-193.196 1258.22,-179.658"/>
<polygon fill="black" stroke="black" points="1259.32,-182.981 1267.84,-176.679 1257.25,-176.295 1259.32,-182.981"/>
</g>
<!-- node100 -->
<g id="node8" class="node"><title>node100</title>
<polygon fill="none" stroke="black" points="1074,-180 967.685,-162 1074,-144 1180.31,-162 1074,-180"/>
<text text-anchor="middle" x="1074" y="-158.9" font-family="Times,serif" font-size="12.00">ViewingSpaceLib</text>
</g>
<!-- node91&#45;&gt;node100 -->
<g id="edge6" class="edge"><title>node91&#45;&gt;node100</title>
<path fill="none" stroke="black" d="M1083.16,-216.411C1081.8,-208.507 1080.15,-198.852 1078.62,-189.935"/>
<polygon fill="black" stroke="black" points="1082.05,-189.221 1076.91,-179.956 1075.15,-190.404 1082.05,-189.221"/>
</g>
<!-- node33 -->
<g id="node9" class="node"><title>node33</title>
<polygon fill="none" stroke="black" points="1141,-108 1038.41,-90 1141,-72 1243.59,-90 1141,-108"/>
<text text-anchor="middle" x="1141" y="-86.9" font-family="Times,serif" font-size="12.00">MivBitstreamLib</text>
</g>
<!-- node100&#45;&gt;node33 -->
<g id="edge7" class="edge"><title>node100&#45;&gt;node33</title>
<path fill="none" stroke="black" d="M1088.21,-146.155C1097.36,-136.596 1109.42,-123.994 1119.7,-113.249"/>
<polygon fill="black" stroke="black" points="1122.43,-115.468 1126.81,-105.824 1117.37,-110.628 1122.43,-115.468"/>
</g>
<!-- node33&#45;&gt;node24 -->
<g id="edge8" class="edge"><title>node33&#45;&gt;node24</title>
<path fill="none" stroke="black" d="M1084.22,-81.9028C977.281,-68.5351 747.061,-39.7576 639.107,-26.2634"/>
<polygon fill="black" stroke="black" points="639.407,-22.7737 629.05,-25.0062 638.538,-29.7196 639.407,-22.7737"/>
</g>
<!-- node109&#45;&gt;node33 -->
<g id="edge10" class="edge"><title>node109&#45;&gt;node33</title>
<path fill="none" stroke="black" d="M1417.24,-216.009C1417.71,-195.934 1415.19,-162.883 1396,-144 1370.95,-119.352 1282.31,-105.097 1216.54,-97.7"/>
<polygon fill="black" stroke="black" points="1216.51,-94.1765 1206.19,-96.5712 1215.76,-101.135 1216.51,-94.1765"/>
</g>
<!-- node8 -->
<g id="node11" class="node"><title>node8</title>
<polygon fill="none" stroke="black" points="1771,-180 1688.44,-162 1771,-144 1853.56,-162 1771,-180"/>
<text text-anchor="middle" x="1771" y="-158.9" font-family="Times,serif" font-size="12.00">TLibDecoder</text>
</g>
<!-- node109&#45;&gt;node8 -->
<g id="edge11" class="edge"><title>node109&#45;&gt;node8</title>
<path fill="none" stroke="black" stroke-dasharray="5,2" d="M1462.41,-223.849C1528.82,-210.753 1650.55,-186.751 1719.61,-173.133"/>
<polygon fill="black" stroke="black" points="1720.68,-176.49 1729.81,-171.121 1719.33,-169.622 1720.68,-176.49"/>
</g>
<!-- node109&#45;&gt;node147 -->
<g id="edge14" class="edge"><title>node109&#45;&gt;node147</title>
<path fill="none" stroke="black" stroke-dasharray="5,2" d="M1395.45,-219.17C1380.93,-209.399 1361.18,-196.1 1344.53,-184.896"/>
<polygon fill="black" stroke="black" points="1346.4,-181.938 1336.15,-179.257 1342.5,-187.745 1346.4,-181.938"/>
</g>
<!-- node6 -->
<g id="node12" class="node"><title>node6</title>
<polygon fill="none" stroke="black" points="2047,-108 1962.03,-90 2047,-72 2131.97,-90 2047,-108"/>
<text text-anchor="middle" x="2047" y="-86.9" font-family="Times,serif" font-size="12.00">TLibCommon</text>
</g>
<!-- node8&#45;&gt;node6 -->
<g id="edge12" class="edge"><title>node8&#45;&gt;node6</title>
<path fill="none" stroke="black" d="M1807.08,-151.849C1856.74,-139.254 1946.18,-116.57 2000.71,-102.74"/>
<polygon fill="black" stroke="black" points="2001.64,-106.116 2010.47,-100.265 1999.92,-99.3309 2001.64,-106.116"/>
</g>
<!-- node5 -->
<g id="node13" class="node"><title>node5</title>
<polygon fill="none" stroke="black" points="2047,-36 1996.76,-18 2047,-3.55271e-15 2097.24,-18 2047,-36"/>
<text text-anchor="middle" x="2047" y="-14.9" font-family="Times,serif" font-size="12.00">libmd5</text>
</g>
<!-- node6&#45;&gt;node5 -->
<g id="edge13" class="edge"><title>node6&#45;&gt;node5</title>
<path fill="none" stroke="black" stroke-dasharray="5,2" d="M2047,-71.6966C2047,-63.9827 2047,-54.7125 2047,-46.1124"/>
<polygon fill="black" stroke="black" points="2050.5,-46.1043 2047,-36.1043 2043.5,-46.1044 2050.5,-46.1043"/>
</g>
<!-- node41&#45;&gt;node33 -->
<g id="edge16" class="edge"><title>node41&#45;&gt;node33</title>
<path fill="none" stroke="black" d="M1663.61,-289.483C1670.09,-257.264 1679.58,-182.885 1640,-144 1611.44,-115.941 1366.57,-100.85 1230.79,-94.5712"/>
<polygon fill="black" stroke="black" points="1230.56,-91.057 1220.41,-94.0984 1230.24,-98.0497 1230.56,-91.057"/>
</g>
<!-- node126 -->
<g id="node15" class="node"><title>node126</title>
<polygon fill="none" stroke="black" points="1134.01,-383.562 1064,-396 993.995,-383.562 994.06,-363.438 1133.94,-363.438 1134.01,-383.562"/>
<text text-anchor="middle" x="1064" y="-374.9" font-family="Times,serif" font-size="12.00">DecoderTest</text>
</g>
<!-- node126&#45;&gt;node130 -->
<g id="edge17" class="edge"><title>node126&#45;&gt;node130</title>
<path fill="none" stroke="black" stroke-dasharray="5,2" d="M1118.71,-363.42C1171.9,-350.216 1251.72,-330.402 1301.25,-318.109"/>
<polygon fill="black" stroke="black" points="1302.17,-321.487 1311.03,-315.68 1300.48,-314.693 1302.17,-321.487"/>
</g>
<!-- node146 -->
<g id="node16" class="node"><title>node146</title>
<polygon fill="none" stroke="black" points="510,-324 362.81,-306 510,-288 657.19,-306 510,-324"/>
<text text-anchor="middle" x="510" y="-302.9" font-family="Times,serif" font-size="12.00">DepthQualityAssessorLib</text>
</g>
<!-- node146&#45;&gt;node91 -->
<g id="edge18" class="edge"><title>node146&#45;&gt;node91</title>
<path fill="none" stroke="black" d="M583.698,-296.968C719.458,-282.17 995.367,-252.094 996,-252 1009.03,-250.062 1023.05,-247.597 1036.06,-245.151"/>
<polygon fill="black" stroke="black" points="1037.08,-248.52 1046.24,-243.203 1035.76,-241.645 1037.08,-248.52"/>
</g>
<!-- node116 -->
<g id="node17" class="node"><title>node116</title>
<polygon fill="none" stroke="black" points="1177.61,-455.562 1126,-468 1074.39,-455.562 1074.44,-435.438 1177.56,-435.438 1177.61,-455.562"/>
<text text-anchor="middle" x="1126" y="-446.9" font-family="Times,serif" font-size="12.00">Encoder</text>
</g>
<!-- node119 -->
<g id="node18" class="node"><title>node119</title>
<polygon fill="none" stroke="black" points="510,-396 434.391,-378 510,-360 585.609,-378 510,-396"/>
<text text-anchor="middle" x="510" y="-374.9" font-family="Times,serif" font-size="12.00">EncoderLib</text>
</g>
<!-- node116&#45;&gt;node119 -->
<g id="edge19" class="edge"><title>node116&#45;&gt;node119</title>
<path fill="none" stroke="black" stroke-dasharray="5,2" d="M1074.54,-443.152C960.887,-430.237 689.04,-399.345 568.856,-385.688"/>
<polygon fill="black" stroke="black" points="569.073,-382.19 558.742,-384.539 568.282,-389.146 569.073,-382.19"/>
</g>
<!-- node116&#45;&gt;node41 -->
<g id="edge30" class="edge"><title>node116&#45;&gt;node41</title>
<path fill="none" stroke="black" stroke-dasharray="5,2" d="M1177.65,-448.303C1315.76,-445.909 1685.58,-435.804 1722,-396 1743.36,-372.659 1709.98,-341.622 1684.51,-323.043"/>
<polygon fill="black" stroke="black" points="1686.46,-320.136 1676.27,-317.249 1682.43,-325.863 1686.46,-320.136"/>
</g>
<!-- node119&#45;&gt;node65 -->
<g id="edge20" class="edge"><title>node119&#45;&gt;node65</title>
<path fill="none" stroke="black" d="M447.936,-374.662C411.034,-369.678 366.891,-356.648 343,-324 333.551,-311.088 336.19,-302.478 343,-288 385.194,-198.301 490.502,-135.444 545.809,-107.421"/>
<polygon fill="black" stroke="black" points="547.488,-110.495 554.884,-102.909 544.371,-104.227 547.488,-110.495"/>
</g>
<!-- node119&#45;&gt;node146 -->
<g id="edge21" class="edge"><title>node119&#45;&gt;node146</title>
<path fill="none" stroke="black" d="M510,-359.697C510,-351.983 510,-342.712 510,-334.112"/>
<polygon fill="black" stroke="black" points="513.5,-334.104 510,-324.104 506.5,-334.104 513.5,-334.104"/>
</g>
<!-- node82 -->
<g id="node19" class="node"><title>node82</title>
<polygon fill="none" stroke="black" points="134,-324 -0.408115,-306 134,-288 268.408,-306 134,-324"/>
<text text-anchor="middle" x="134" y="-302.9" font-family="Times,serif" font-size="12.00">GeometryQuantizerLib</text>
</g>
<!-- node119&#45;&gt;node82 -->
<g id="edge22" class="edge"><title>node119&#45;&gt;node82</title>
<path fill="none" stroke="black" d="M469.761,-369.509C404.49,-357.357 275.026,-333.255 197.317,-318.788"/>
<polygon fill="black" stroke="black" points="197.645,-315.289 187.174,-316.899 196.364,-322.171 197.645,-315.289"/>
</g>
<!-- node73 -->
<g id="node20" class="node"><title>node73</title>
<polygon fill="none" stroke="black" points="527,-252 459.642,-234 527,-216 594.358,-234 527,-252"/>
<text text-anchor="middle" x="527" y="-230.9" font-family="Times,serif" font-size="12.00">PackerLib</text>
</g>
<!-- node119&#45;&gt;node73 -->
<g id="edge24" class="edge"><title>node119&#45;&gt;node73</title>
<path fill="none" stroke="black" d="M467.619,-369.963C410.807,-358.651 320.721,-333.001 354,-288 377.645,-256.026 420.212,-242.714 457.203,-237.426"/>
<polygon fill="black" stroke="black" points="457.982,-240.856 467.469,-236.139 457.111,-233.911 457.982,-240.856"/>
</g>
<!-- node57 -->
<g id="node21" class="node"><title>node57</title>
<polygon fill="none" stroke="black" points="743,-324 675.642,-306 743,-288 810.358,-306 743,-324"/>
<text text-anchor="middle" x="743" y="-302.9" font-family="Times,serif" font-size="12.00">PrunerLib</text>
</g>
<!-- node119&#45;&gt;node57 -->
<g id="edge26" class="edge"><title>node119&#45;&gt;node57</title>
<path fill="none" stroke="black" d="M541.909,-367.414C583.854,-354.812 657.542,-332.674 703.119,-318.982"/>
<polygon fill="black" stroke="black" points="704.381,-322.257 712.951,-316.028 702.367,-315.553 704.381,-322.257"/>
</g>
<!-- node49 -->
<g id="node22" class="node"><title>node49</title>
<polygon fill="none" stroke="black" points="938,-324 829.767,-306 938,-288 1046.23,-306 938,-324"/>
<text text-anchor="middle" x="938" y="-302.9" font-family="Times,serif" font-size="12.00">ViewOptimizerLib</text>
</g>
<!-- node119&#45;&gt;node49 -->
<g id="edge28" class="edge"><title>node119&#45;&gt;node49</title>
<path fill="none" stroke="black" d="M552.603,-370.032C628.67,-357.591 788.116,-331.514 876.214,-317.105"/>
<polygon fill="black" stroke="black" points="877.029,-320.518 886.333,-315.45 875.899,-313.61 877.029,-320.518"/>
</g>
<!-- node82&#45;&gt;node33 -->
<g id="edge23" class="edge"><title>node82&#45;&gt;node33</title>
<path fill="none" stroke="black" d="M173.754,-293.194C233.503,-275.589 350.108,-241.767 450,-216 585.705,-180.995 619.213,-169.609 757,-144 865.915,-123.758 993.531,-107.634 1070.77,-98.7017"/>
<polygon fill="black" stroke="black" points="1071.32,-102.161 1080.86,-97.5423 1070.53,-95.2065 1071.32,-102.161"/>
</g>
<!-- node73&#45;&gt;node33 -->
<g id="edge25" class="edge"><title>node73&#45;&gt;node33</title>
<path fill="none" stroke="black" d="M561.327,-225.061C663.637,-201.4 966.949,-131.253 1089.13,-102.995"/>
<polygon fill="black" stroke="black" points="1090.05,-106.377 1099,-100.713 1088.47,-99.5567 1090.05,-106.377"/>
</g>
<!-- node57&#45;&gt;node91 -->
<g id="edge27" class="edge"><title>node57&#45;&gt;node91</title>
<path fill="none" stroke="black" d="M777.848,-297.147C791.04,-294.216 806.2,-290.898 820,-288 894.68,-272.318 981.404,-255.252 1035,-244.838"/>
<polygon fill="black" stroke="black" points="1035.78,-248.251 1044.93,-242.91 1034.45,-241.379 1035.78,-248.251"/>
</g>
<!-- node49&#45;&gt;node91 -->
<g id="edge29" class="edge"><title>node49&#45;&gt;node91</title>
<path fill="none" stroke="black" d="M964.802,-292.324C989.284,-280.744 1025.6,-263.57 1052.09,-251.039"/>
<polygon fill="black" stroke="black" points="1053.82,-254.091 1061.36,-246.652 1050.83,-247.764 1053.82,-254.091"/>
</g>
<!-- node79 -->
<g id="node23" class="node"><title>node79</title>
<polygon fill="none" stroke="black" points="255.618,-383.562 134,-396 12.3825,-383.562 12.496,-363.438 255.504,-363.438 255.618,-383.562"/>
<text text-anchor="middle" x="134" y="-374.9" font-family="Times,serif" font-size="12.00">GeometryQuantizerTest</text>
</g>
<!-- node79&#45;&gt;node82 -->
<g id="edge31" class="edge"><title>node79&#45;&gt;node82</title>
<path fill="none" stroke="black" stroke-dasharray="5,2" d="M134,-363.17C134,-354.919 134,-344.153 134,-334.256"/>
<polygon fill="black" stroke="black" points="137.5,-334.019 134,-324.019 130.5,-334.019 137.5,-334.019"/>
</g>
<!-- node32 -->
<g id="node24" class="node"><title>node32</title>
<polygon fill="none" stroke="black" points="1631.39,-167.562 1538,-180 1444.61,-167.562 1444.7,-147.438 1631.3,-147.438 1631.39,-167.562"/>
<text text-anchor="middle" x="1538" y="-158.9" font-family="Times,serif" font-size="12.00">MivBitstreamTest</text>
</g>
<!-- node32&#45;&gt;node33 -->
<g id="edge32" class="edge"><title>node32&#45;&gt;node33</title>
<path fill="none" stroke="black" stroke-dasharray="5,2" d="M1460.98,-147.42C1384.37,-133.911 1268.51,-113.483 1199.24,-101.27"/>
<polygon fill="black" stroke="black" points="1199.83,-97.819 1189.37,-99.5293 1198.61,-104.713 1199.83,-97.819"/>
</g>
<!-- node114 -->
<g id="node25" class="node"><title>node114</title>
<polygon fill="none" stroke="black" points="1282.16,-383.562 1217,-396 1151.84,-383.562 1151.9,-363.438 1282.1,-363.438 1282.16,-383.562"/>
<text text-anchor="middle" x="1217" y="-374.9" font-family="Times,serif" font-size="12.00">Multiplexer</text>
</g>
<!-- node114&#45;&gt;node41 -->
<g id="edge33" class="edge"><title>node114&#45;&gt;node41</title>
<path fill="none" stroke="black" stroke-dasharray="5,2" d="M1273.43,-363.357C1279.35,-362.131 1285.28,-360.983 1291,-360 1428.57,-336.337 1466.26,-352.055 1603,-324 1611.11,-322.336 1619.73,-320.048 1627.74,-317.689"/>
<polygon fill="black" stroke="black" points="1628.95,-320.98 1637.49,-314.705 1626.9,-314.286 1628.95,-320.98"/>
</g>
<!-- node114&#45;&gt;node33 -->
<g id="edge34" class="edge"><title>node114&#45;&gt;node33</title>
<path fill="none" stroke="black" stroke-dasharray="5,2" d="M1218.67,-363.077C1219.87,-352.402 1221.37,-337.294 1222,-324 1225.82,-242.757 1226.6,-216.12 1189,-144 1182.9,-132.304 1173.6,-121.187 1164.8,-112.183"/>
<polygon fill="black" stroke="black" points="1167.2,-109.64 1157.61,-105.151 1162.31,-114.645 1167.2,-109.64"/>
</g>
<!-- node138 -->
<g id="node26" class="node"><title>node138</title>
<polygon fill="none" stroke="black" points="1385.42,-383.562 1343,-396 1300.58,-383.562 1300.62,-363.438 1385.38,-363.438 1385.42,-383.562"/>
<text text-anchor="middle" x="1343" y="-374.9" font-family="Times,serif" font-size="12.00">Parser</text>
</g>
<!-- node138&#45;&gt;node130 -->
<g id="edge35" class="edge"><title>node138&#45;&gt;node130</title>
<path fill="none" stroke="black" stroke-dasharray="5,2" d="M1343.59,-363.17C1343.95,-354.919 1344.41,-344.153 1344.83,-334.256"/>
<polygon fill="black" stroke="black" points="1348.34,-334.16 1345.27,-324.019 1341.35,-333.86 1348.34,-334.16"/>
</g>
<!-- node88 -->
<g id="node27" class="node"><title>node88</title>
<polygon fill="none" stroke="black" points="1213.35,-311.562 1139,-324 1064.65,-311.562 1064.72,-291.438 1213.28,-291.438 1213.35,-311.562"/>
<text text-anchor="middle" x="1139" y="-302.9" font-family="Times,serif" font-size="12.00">RendererTest</text>
</g>
<!-- node88&#45;&gt;node91 -->
<g id="edge36" class="edge"><title>node88&#45;&gt;node91</title>
<path fill="none" stroke="black" stroke-dasharray="5,2" d="M1128.53,-291.17C1121.32,-281.645 1111.57,-268.769 1103.22,-257.748"/>
<polygon fill="black" stroke="black" points="1106.01,-255.628 1097.18,-249.768 1100.43,-259.853 1106.01,-255.628"/>
</g>
<!-- node14 -->
<g id="node28" class="node"><title>node14</title>
<polygon fill="none" stroke="black" points="2141,-180 2052.8,-162 2141,-144 2229.2,-162 2141,-180"/>
<text text-anchor="middle" x="2141" y="-158.9" font-family="Times,serif" font-size="12.00">TAppCommon</text>
</g>
<!-- node14&#45;&gt;node6 -->
<g id="edge37" class="edge"><title>node14&#45;&gt;node6</title>
<path fill="none" stroke="black" d="M2122.88,-147.503C2108.83,-137.045 2089.17,-122.404 2073.38,-110.646"/>
<polygon fill="black" stroke="black" points="2075.18,-107.621 2065.07,-104.455 2071,-113.235 2075.18,-107.621"/>
</g>
<!-- node7 -->
<g id="node29" class="node"><title>node7</title>
<polygon fill="none" stroke="black" points="2028,-239.562 1953,-252 1878,-239.562 1878.07,-219.438 2027.93,-219.438 2028,-239.562"/>
<text text-anchor="middle" x="1953" y="-230.9" font-family="Times,serif" font-size="12.00">TAppDecoder</text>
</g>
<!-- node7&#45;&gt;node14 -->
<g id="edge38" class="edge"><title>node7&#45;&gt;node14</title>
<path fill="none" stroke="black" stroke-dasharray="5,2" d="M1989.69,-219.337C2021.94,-207.33 2068.74,-189.905 2101.73,-177.62"/>
<polygon fill="black" stroke="black" points="2103.35,-180.754 2111.5,-173.985 2100.91,-174.194 2103.35,-180.754"/>
</g>
<!-- node7&#45;&gt;node8 -->
<g id="edge39" class="edge"><title>node7&#45;&gt;node8</title>
<path fill="none" stroke="black" stroke-dasharray="5,2" d="M1917.48,-219.337C1886.16,-207.294 1840.68,-189.8 1808.73,-177.51"/>
<polygon fill="black" stroke="black" points="1809.86,-174.198 1799.27,-173.874 1807.35,-180.731 1809.86,-174.198"/>
</g>
<!-- node11 -->
<g id="node30" class="node"><title>node11</title>
<polygon fill="none" stroke="black" points="1953,-180 1872.56,-162 1953,-144 2033.44,-162 1953,-180"/>
<text text-anchor="middle" x="1953" y="-158.9" font-family="Times,serif" font-size="12.00">TLibVideoIO</text>
</g>
<!-- node7&#45;&gt;node11 -->
<g id="edge40" class="edge"><title>node7&#45;&gt;node11</title>
<path fill="none" stroke="black" stroke-dasharray="5,2" d="M1953,-219.17C1953,-210.919 1953,-200.153 1953,-190.256"/>
<polygon fill="black" stroke="black" points="1956.5,-190.019 1953,-180.019 1949.5,-190.019 1956.5,-190.019"/>
</g>
<!-- node11&#45;&gt;node6 -->
<g id="edge41" class="edge"><title>node11&#45;&gt;node6</title>
<path fill="none" stroke="black" d="M1970.68,-147.834C1984.77,-137.341 2004.71,-122.489 2020.68,-110.6"/>
<polygon fill="black" stroke="black" points="2023.15,-113.125 2029.08,-104.345 2018.97,-107.511 2023.15,-113.125"/>
</g>
<!-- node12 -->
<g id="node31" class="node"><title>node12</title>
<polygon fill="none" stroke="black" points="2216,-239.562 2141,-252 2066,-239.562 2066.07,-219.438 2215.93,-219.438 2216,-239.562"/>
<text text-anchor="middle" x="2141" y="-230.9" font-family="Times,serif" font-size="12.00">TAppEncoder</text>
</g>
<!-- node12&#45;&gt;node14 -->
<g id="edge42" class="edge"><title>node12&#45;&gt;node14</title>
<path fill="none" stroke="black" stroke-dasharray="5,2" d="M2141,-219.17C2141,-210.919 2141,-200.153 2141,-190.256"/>
<polygon fill="black" stroke="black" points="2144.5,-190.019 2141,-180.019 2137.5,-190.019 2144.5,-190.019"/>
</g>
<!-- node9 -->
<g id="node32" class="node"><title>node9</title>
<polygon fill="none" stroke="black" points="2331,-180 2248.44,-162 2331,-144 2413.56,-162 2331,-180"/>
<text text-anchor="middle" x="2331" y="-158.9" font-family="Times,serif" font-size="12.00">TLibEncoder</text>
</g>
<!-- node12&#45;&gt;node9 -->
<g id="edge43" class="edge"><title>node12&#45;&gt;node9</title>
<path fill="none" stroke="black" stroke-dasharray="5,2" d="M2178.08,-219.337C2211.01,-207.206 2258.95,-189.544 2292.35,-177.241"/>
<polygon fill="black" stroke="black" points="2293.61,-180.506 2301.78,-173.765 2291.19,-173.938 2293.61,-180.506"/>
</g>
<!-- node12&#45;&gt;node11 -->
<g id="edge45" class="edge"><title>node12&#45;&gt;node11</title>
<path fill="none" stroke="black" stroke-dasharray="5,2" d="M2104.31,-219.337C2071.77,-207.222 2024.41,-189.591 1991.38,-177.29"/>
<polygon fill="black" stroke="black" points="1992.21,-173.865 1981.62,-173.655 1989.77,-180.425 1992.21,-173.865"/>
</g>
<!-- node9&#45;&gt;node6 -->
<g id="edge44" class="edge"><title>node9&#45;&gt;node6</title>
<path fill="none" stroke="black" d="M2294.16,-151.92C2243.02,-139.314 2150.46,-116.5 2094.27,-102.652"/>
<polygon fill="black" stroke="black" points="2094.77,-99.1695 2084.22,-100.175 2093.09,-105.966 2094.77,-99.1695"/>
</g>
<!-- node125 -->
<g id="node33" class="node"><title>node125</title>
<polygon fill="none" stroke="black" points="1592.03,-383.562 1498,-396 1403.97,-383.562 1404.06,-363.438 1591.94,-363.438 1592.03,-383.562"/>
<text text-anchor="middle" x="1498" y="-374.9" font-family="Times,serif" font-size="12.00">V3cBitstreamTest</text>
</g>
<!-- node125&#45;&gt;node130 -->
<g id="edge46" class="edge"><title>node125&#45;&gt;node130</title>
<path fill="none" stroke="black" stroke-dasharray="5,2" d="M1468.33,-363.337C1442.94,-351.643 1406.39,-334.811 1379.86,-322.592"/>
<polygon fill="black" stroke="black" points="1381.12,-319.322 1370.58,-318.318 1378.19,-325.68 1381.12,-319.322"/>
</g>
<!-- node125&#45;&gt;node41 -->
<g id="edge47" class="edge"><title>node125&#45;&gt;node41</title>
<path fill="none" stroke="black" stroke-dasharray="5,2" d="M1529.62,-363.337C1558.78,-350.738 1601.74,-332.173 1630.28,-319.842"/>
<polygon fill="black" stroke="black" points="1631.94,-322.939 1639.73,-315.76 1629.16,-316.514 1631.94,-322.939"/>
</g>
<!-- node108 -->
<g id="node34" class="node"><title>node108</title>
<polygon fill="none" stroke="black" points="1594.42,-311.562 1517,-324 1439.58,-311.562 1439.65,-291.438 1594.35,-291.438 1594.42,-311.562"/>
<text text-anchor="middle" x="1517" y="-302.9" font-family="Times,serif" font-size="12.00">VideoDecoder</text>
</g>
<!-- node108&#45;&gt;node109 -->
<g id="edge48" class="edge"><title>node108&#45;&gt;node109</title>
<path fill="none" stroke="black" stroke-dasharray="5,2" d="M1497.05,-291.17C1481.97,-280.72 1461.07,-266.236 1444.27,-254.594"/>
<polygon fill="black" stroke="black" points="1446.13,-251.621 1435.91,-248.801 1442.14,-257.374 1446.13,-251.621"/>
</g>
<!-- node99 -->
<g id="node35" class="node"><title>node99</title>
<polygon fill="none" stroke="black" points="987.453,-239.562 891,-252 794.547,-239.562 794.637,-219.438 987.363,-219.438 987.453,-239.562"/>
<text text-anchor="middle" x="891" y="-230.9" font-family="Times,serif" font-size="12.00">ViewingSpaceTest</text>
</g>
<!-- node99&#45;&gt;node100 -->
<g id="edge49" class="edge"><title>node99&#45;&gt;node100</title>
<path fill="none" stroke="black" stroke-dasharray="5,2" d="M926.719,-219.337C957.355,-207.618 1001.48,-190.739 1033.44,-178.515"/>
<polygon fill="black" stroke="black" points="1034.85,-181.723 1042.94,-174.881 1032.35,-175.185 1034.85,-181.723"/>
</g>
</g>
</svg>
