<?xml version="1.0" encoding="UTF-8" standalone="no"?>
<!DOCTYPE svg PUBLIC "-//W3C//DTD SVG 1.1//EN"
 "http://www.w3.org/Graphics/SVG/1.1/DTD/svg11.dtd">
<!-- Generated by graphviz version 2.50.0 (20211204.2007)
 -->
<!-- Title: TMIV Pages: 1 -->
<svg width="1736pt" height="551pt"
 viewBox="0.00 0.00 1736.30 551.00" xmlns="http://www.w3.org/2000/svg" xmlns:xlink="http://www.w3.org/1999/xlink">
<g id="graph0" class="graph" transform="scale(1 1) rotate(0) translate(4 547)">
<title>TMIV</title>
<polygon fill="white" stroke="transparent" points="-4,4 -4,-547 1732.3,-547 1732.3,4 -4,4"/>
<g id="clust1" class="cluster">
<title>clusterLegend</title>
<polygon fill="none" stroke="black" points="8,-284 8,-535 521,-535 521,-284 8,-284"/>
<text text-anchor="middle" x="264.5" y="-519.8" font-family="Times New Roman,serif" font-size="14.00">Legend</text>
</g>
<!-- legendNode0 -->
<g id="node1" class="node">
<title>legendNode0</title>
<polygon fill="none" stroke="black" points="274.98,-468.05 277.62,-468.15 280.23,-468.3 282.8,-468.49 285.32,-468.74 287.79,-469.03 290.18,-469.36 292.5,-469.75 294.74,-470.18 296.87,-470.65 298.91,-471.16 300.84,-471.71 302.65,-472.31 304.34,-472.94 305.9,-473.61 307.33,-474.31 308.63,-475.04 309.79,-475.8 310.81,-476.59 311.69,-477.41 312.43,-478.25 313.03,-479.11 313.48,-479.99 313.8,-480.89 313.99,-481.8 314.04,-482.72 313.95,-483.65 313.75,-484.59 313.41,-485.53 312.97,-486.47 312.4,-487.41 311.73,-488.35 310.96,-489.28 310.09,-490.2 309.13,-491.11 308.08,-492.01 306.96,-492.89 305.76,-493.75 304.49,-494.59 303.16,-495.41 301.78,-496.2 300.34,-496.96 298.86,-497.69 297.33,-498.39 295.77,-499.06 294.17,-499.69 292.55,-500.29 290.9,-500.84 289.23,-501.35 287.54,-501.82 285.84,-502.25 284.12,-502.64 282.39,-502.97 280.65,-503.26 278.91,-503.51 277.15,-503.7 275.4,-503.85 273.64,-503.95 271.88,-504 270.12,-504 268.36,-503.95 266.6,-503.85 264.85,-503.7 263.09,-503.51 261.35,-503.26 259.61,-502.97 257.88,-502.64 256.16,-502.25 254.46,-501.82 252.77,-501.35 251.1,-500.84 249.45,-500.29 247.83,-499.69 246.23,-499.06 244.67,-498.39 243.14,-497.69 241.66,-496.96 240.22,-496.2 238.84,-495.41 237.51,-494.59 236.24,-493.75 235.04,-492.89 233.92,-492.01 232.87,-491.11 231.91,-490.2 231.04,-489.28 230.27,-488.35 229.6,-487.41 229.03,-486.47 228.59,-485.53 228.25,-484.59 228.05,-483.65 227.96,-482.72 228.01,-481.8 228.2,-480.89 228.52,-479.99 228.97,-479.11 229.57,-478.25 230.31,-477.41 231.19,-476.59 232.21,-475.8 233.37,-475.04 234.67,-474.31 236.1,-473.61 237.66,-472.94 239.35,-472.31 241.16,-471.71 243.09,-471.16 245.13,-470.65 247.26,-470.18 249.5,-469.75 251.82,-469.36 254.21,-469.03 256.68,-468.74 259.2,-468.49 261.77,-468.3 264.38,-468.15 267.02,-468.05 269.67,-468 272.33,-468 274.98,-468.05"/>
<text text-anchor="middle" x="271" y="-482.9" font-family="Times New Roman,serif" font-size="12.00">Executable</text>
</g>
<!-- legendNode1 -->
<g id="node2" class="node">
<title>legendNode1</title>
<polygon fill="none" stroke="black" points="119.94,-397.54 119.94,-412.46 89.52,-423 46.48,-423 16.06,-412.46 16.06,-397.54 46.48,-387 89.52,-387 119.94,-397.54"/>
<text text-anchor="middle" x="68" y="-401.9" font-family="Times New Roman,serif" font-size="12.00">Static Library</text>
</g>
<!-- legendNode0&#45;&gt;legendNode1 -->
<g id="edge1" class="edge">
<title>legendNode0&#45;&gt;legendNode1</title>
<path fill="none" stroke="black" d="M237.91,-472.69C209.07,-461.9 166.16,-445.68 129,-431 122.71,-428.51 116.07,-425.84 109.57,-423.2"/>
<polygon fill="black" stroke="black" points="110.81,-419.93 100.23,-419.39 108.16,-426.41 110.81,-419.93"/>
</g>
<!-- legendNode2 -->
<g id="node3" class="node">
<title>legendNode2</title>
<polygon fill="none" stroke="black" points="255.76,-397.54 255.76,-412.46 222.51,-423 175.49,-423 142.24,-412.46 142.24,-397.54 175.49,-387 222.51,-387 255.76,-397.54"/>
<polygon fill="none" stroke="black" points="259.77,-394.62 259.77,-415.38 223.13,-427 174.87,-427 138.23,-415.38 138.23,-394.62 174.87,-383 223.13,-383 259.77,-394.62"/>
<text text-anchor="middle" x="199" y="-401.9" font-family="Times New Roman,serif" font-size="12.00">Shared Library</text>
</g>
<!-- legendNode0&#45;&gt;legendNode2 -->
<g id="edge2" class="edge">
<title>legendNode0&#45;&gt;legendNode2</title>
<path fill="none" stroke="black" d="M256.08,-468.63C247.18,-458.86 235.62,-446.18 225.24,-434.79"/>
<polygon fill="black" stroke="black" points="227.6,-432.19 218.28,-427.16 222.43,-436.9 227.6,-432.19"/>
</g>
<!-- legendNode3 -->
<g id="node4" class="node">
<title>legendNode3</title>
<polygon fill="none" stroke="black" points="402.75,-397.54 402.75,-412.46 368.34,-423 319.66,-423 285.25,-412.46 285.25,-397.54 319.66,-387 368.34,-387 402.75,-397.54"/>
<polygon fill="none" stroke="black" points="406.76,-394.59 406.76,-415.41 368.94,-427 319.06,-427 281.24,-415.41 281.24,-394.59 319.06,-383 368.94,-383 406.76,-394.59"/>
<polygon fill="none" stroke="black" points="410.77,-391.63 410.77,-418.37 369.54,-431 318.46,-431 277.23,-418.37 277.23,-391.63 318.46,-379 369.54,-379 410.77,-391.63"/>
<text text-anchor="middle" x="344" y="-401.9" font-family="Times New Roman,serif" font-size="12.00">Module Library</text>
</g>
<!-- legendNode0&#45;&gt;legendNode3 -->
<!-- legendNode7 -->
<g id="node8" class="node">
<title>legendNode7</title>
<polygon fill="none" stroke="black" points="513,-423 429,-423 429,-387 513,-387 513,-423"/>
<text text-anchor="middle" x="471" y="-401.9" font-family="Times New Roman,serif" font-size="12.00">Custom Target</text>
</g>
<!-- legendNode0&#45;&gt;legendNode7 -->
<!-- legendNode4 -->
<g id="node5" class="node">
<title>legendNode4</title>
<polygon fill="none" stroke="black" points="156.01,-315.56 86,-328 15.99,-315.56 42.73,-295.44 129.27,-295.44 156.01,-315.56"/>
<text text-anchor="middle" x="86" y="-306.9" font-family="Times New Roman,serif" font-size="12.00">Interface Library</text>
</g>
<!-- legendNode1&#45;&gt;legendNode4 -->
<g id="edge4" class="edge">
<title>legendNode1&#45;&gt;legendNode4</title>
<path fill="none" stroke="black" stroke-dasharray="5,2" d="M71.3,-386.94C73.96,-373.22 77.74,-353.7 80.8,-337.88"/>
<polygon fill="black" stroke="black" points="84.32,-338.12 82.78,-327.64 77.44,-336.79 84.32,-338.12"/>
<text text-anchor="middle" x="104.5" y="-349.8" font-family="Times New Roman,serif" font-size="14.00">Interface</text>
</g>
<!-- legendNode5 -->
<g id="node6" class="node">
<title>legendNode5</title>
<polygon fill="none" stroke="black" points="293.92,-310 263.96,-328 204.04,-328 174.08,-310 204.04,-292 263.96,-292 293.92,-310"/>
<text text-anchor="middle" x="234" y="-306.9" font-family="Times New Roman,serif" font-size="12.00">Object Library</text>
</g>
<!-- legendNode2&#45;&gt;legendNode5 -->
<g id="edge5" class="edge">
<title>legendNode2&#45;&gt;legendNode5</title>
<path fill="none" stroke="black" stroke-dasharray="1,5" d="M206.94,-382.9C211.99,-369.49 218.57,-352.01 223.97,-337.64"/>
<polygon fill="black" stroke="black" points="227.25,-338.88 227.49,-328.28 220.7,-336.41 227.25,-338.88"/>
<text text-anchor="middle" x="240.5" y="-349.8" font-family="Times New Roman,serif" font-size="14.00">Private</text>
</g>
<!-- legendNode6 -->
<g id="node7" class="node">
<title>legendNode6</title>
<polygon fill="none" stroke="black" points="444.05,-305.99 430.97,-321.22 378,-328 325.03,-321.22 311.95,-305.99 348.6,-293.78 407.4,-293.78 444.05,-305.99"/>
<text text-anchor="middle" x="378" y="-306.9" font-family="Times New Roman,serif" font-size="12.00">Unknown Library</text>
</g>
<!-- legendNode3&#45;&gt;legendNode6 -->
<g id="edge6" class="edge">
<title>legendNode3&#45;&gt;legendNode6</title>
<path fill="none" stroke="black" d="M353.29,-378.59C358.01,-365.69 363.73,-350.04 368.48,-337.05"/>
<polygon fill="black" stroke="black" points="371.89,-337.9 372.04,-327.31 365.32,-335.5 371.89,-337.9"/>
</g>
<!-- node0 -->
<g id="node9" class="node">
<title>node0</title>
<polygon fill="none" stroke="black" points="1728.11,-302.54 1728.11,-317.46 1695.83,-328 1650.17,-328 1617.89,-317.46 1617.89,-302.54 1650.17,-292 1695.83,-292 1728.11,-302.54"/>
<text text-anchor="middle" x="1673" y="-306.9" font-family="Times New Roman,serif" font-size="12.00">AggregatorLib</text>
</g>
<!-- node1 -->
<g id="node10" class="node">
<title>node1</title>
<polygon fill="none" stroke="black" points="1306.11,-10.54 1306.11,-25.46 1277.34,-36 1236.66,-36 1207.89,-25.46 1207.89,-10.54 1236.66,0 1277.34,0 1306.11,-10.54"/>
<text text-anchor="middle" x="1257" y="-14.9" font-family="Times New Roman,serif" font-size="12.00">CommonLib</text>
</g>
<!-- node0&#45;&gt;node1 -->
<g id="edge8" class="edge">
<title>node0&#45;&gt;node1</title>
<path fill="none" stroke="black" d="M1660.35,-291.87C1651.41,-278.06 1641,-257.74 1641,-238 1641,-238 1641,-238 1641,-90 1641,-57.41 1424.33,-33.72 1316.5,-23.95"/>
<polygon fill="black" stroke="black" points="1316.69,-20.45 1306.42,-23.04 1316.06,-27.42 1316.69,-20.45"/>
</g>
<!-- node2 -->
<g id="node11" class="node">
<title>node2</title>
<polygon fill="none" stroke="black" points="1521.74,-146.05 1524.89,-146.15 1527.99,-146.3 1531.06,-146.49 1534.06,-146.74 1537,-147.03 1539.85,-147.36 1542.62,-147.75 1545.28,-148.18 1547.82,-148.65 1550.25,-149.16 1552.54,-149.71 1554.7,-150.31 1556.71,-150.94 1558.57,-151.61 1560.28,-152.31 1561.82,-153.04 1563.21,-153.8 1564.42,-154.59 1565.47,-155.41 1566.35,-156.25 1567.06,-157.11 1567.61,-157.99 1567.99,-158.89 1568.21,-159.8 1568.27,-160.72 1568.17,-161.65 1567.92,-162.59 1567.53,-163.53 1566.99,-164.47 1566.32,-165.41 1565.53,-166.35 1564.61,-167.28 1563.57,-168.2 1562.43,-169.11 1561.18,-170.01 1559.84,-170.89 1558.41,-171.75 1556.9,-172.59 1555.32,-173.41 1553.67,-174.2 1551.95,-174.96 1550.19,-175.69 1548.37,-176.39 1546.51,-177.06 1544.61,-177.69 1542.67,-178.29 1540.71,-178.84 1538.72,-179.35 1536.71,-179.82 1534.67,-180.25 1532.63,-180.64 1530.57,-180.97 1528.5,-181.26 1526.42,-181.51 1524.33,-181.7 1522.24,-181.85 1520.15,-181.95 1518.05,-182 1515.95,-182 1513.85,-181.95 1511.76,-181.85 1509.67,-181.7 1507.58,-181.51 1505.5,-181.26 1503.43,-180.97 1501.37,-180.64 1499.33,-180.25 1497.29,-179.82 1495.28,-179.35 1493.29,-178.84 1491.33,-178.29 1489.39,-177.69 1487.49,-177.06 1485.63,-176.39 1483.81,-175.69 1482.05,-174.96 1480.33,-174.2 1478.68,-173.41 1477.1,-172.59 1475.59,-171.75 1474.16,-170.89 1472.82,-170.01 1471.57,-169.11 1470.43,-168.2 1469.39,-167.28 1468.47,-166.35 1467.68,-165.41 1467.01,-164.47 1466.47,-163.53 1466.08,-162.59 1465.83,-161.65 1465.73,-160.72 1465.79,-159.8 1466.01,-158.89 1466.39,-157.99 1466.94,-157.11 1467.65,-156.25 1468.53,-155.41 1469.58,-154.59 1470.79,-153.8 1472.18,-153.04 1473.72,-152.31 1475.43,-151.61 1477.29,-150.94 1479.3,-150.31 1481.46,-149.71 1483.75,-149.16 1486.18,-148.65 1488.72,-148.18 1491.38,-147.75 1494.15,-147.36 1497,-147.03 1499.94,-146.74 1502.94,-146.49 1506.01,-146.3 1509.11,-146.15 1512.26,-146.05 1515.42,-146 1518.58,-146 1521.74,-146.05"/>
<text text-anchor="middle" x="1517" y="-160.9" font-family="Times New Roman,serif" font-size="12.00">BitrateReport</text>
</g>
<!-- node3 -->
<g id="node12" class="node">
<title>node3</title>
<polygon fill="none" stroke="black" points="1318.1,-83.54 1318.1,-98.46 1282.31,-109 1231.69,-109 1195.9,-98.46 1195.9,-83.54 1231.69,-73 1282.31,-73 1318.1,-83.54"/>
<text text-anchor="middle" x="1257" y="-87.9" font-family="Times New Roman,serif" font-size="12.00">MivBitstreamLib</text>
</g>
<!-- node2&#45;&gt;node3 -->
<g id="edge10" class="edge">
<title>node2&#45;&gt;node3</title>
<path fill="none" stroke="black" stroke-dasharray="1,5" d="M1493.2,-147.34C1481.27,-140.15 1466.34,-132.1 1452,-127 1412.45,-112.94 1366.3,-104.33 1328.83,-99.17"/>
<polygon fill="black" stroke="black" points="1328.87,-95.64 1318.5,-97.8 1327.96,-102.58 1328.87,-95.64"/>
</g>
<!-- node3&#45;&gt;node1 -->
<g id="edge9" class="edge">
<title>node3&#45;&gt;node1</title>
<path fill="none" stroke="black" d="M1257,-72.81C1257,-64.79 1257,-55.05 1257,-46.07"/>
<polygon fill="black" stroke="black" points="1260.5,-46.03 1257,-36.03 1253.5,-46.03 1260.5,-46.03"/>
</g>
<!-- node4 -->
<g id="node13" class="node">
<title>node4</title>
<polygon fill="none" stroke="black" points="894.42,-387.05 896.68,-387.15 898.92,-387.3 901.12,-387.49 903.29,-387.74 905.4,-388.03 907.46,-388.36 909.45,-388.75 911.37,-389.18 913.2,-389.65 914.95,-390.16 916.6,-390.71 918.15,-391.31 919.6,-391.94 920.94,-392.61 922.17,-393.31 923.28,-394.04 924.28,-394.8 925.15,-395.59 925.91,-396.41 926.54,-397.25 927.06,-398.11 927.45,-398.99 927.72,-399.89 927.88,-400.8 927.92,-401.72 927.85,-402.65 927.68,-403.59 927.39,-404.53 927.01,-405.47 926.52,-406.41 925.95,-407.35 925.29,-408.28 924.54,-409.2 923.72,-410.11 922.82,-411.01 921.85,-411.89 920.82,-412.75 919.74,-413.59 918.6,-414.41 917.41,-415.2 916.17,-415.96 914.9,-416.69 913.59,-417.39 912.25,-418.06 910.88,-418.69 909.49,-419.29 908.07,-419.84 906.64,-420.35 905.19,-420.82 903.73,-421.25 902.26,-421.64 900.77,-421.97 899.28,-422.26 897.78,-422.51 896.28,-422.7 894.77,-422.85 893.27,-422.95 891.76,-423 890.24,-423 888.73,-422.95 887.23,-422.85 885.72,-422.7 884.22,-422.51 882.72,-422.26 881.23,-421.97 879.74,-421.64 878.27,-421.25 876.81,-420.82 875.36,-420.35 873.93,-419.84 872.51,-419.29 871.12,-418.69 869.75,-418.06 868.41,-417.39 867.1,-416.69 865.83,-415.96 864.59,-415.2 863.4,-414.41 862.26,-413.59 861.18,-412.75 860.15,-411.89 859.18,-411.01 858.28,-410.11 857.46,-409.2 856.71,-408.28 856.05,-407.35 855.48,-406.41 854.99,-405.47 854.61,-404.53 854.32,-403.59 854.15,-402.65 854.08,-401.72 854.12,-400.8 854.28,-399.89 854.55,-398.99 854.94,-398.11 855.46,-397.25 856.09,-396.41 856.85,-395.59 857.72,-394.8 858.72,-394.04 859.83,-393.31 861.06,-392.61 862.4,-391.94 863.85,-391.31 865.4,-390.71 867.05,-390.16 868.8,-389.65 870.63,-389.18 872.55,-388.75 874.54,-388.36 876.6,-388.03 878.71,-387.74 880.88,-387.49 883.08,-387.3 885.32,-387.15 887.58,-387.05 889.86,-387 892.14,-387 894.42,-387.05"/>
<text text-anchor="middle" x="891" y="-401.9" font-family="Times New Roman,serif" font-size="12.00">Decoder</text>
</g>
<!-- node5 -->
<g id="node14" class="node">
<title>node5</title>
<polygon fill="none" stroke="black" points="980.12,-229.54 980.12,-244.46 952.52,-255 913.48,-255 885.88,-244.46 885.88,-229.54 913.48,-219 952.52,-219 980.12,-229.54"/>
<text text-anchor="middle" x="933" y="-233.9" font-family="Times New Roman,serif" font-size="12.00">DecoderLib</text>
</g>
<!-- node4&#45;&gt;node5 -->
<g id="edge13" class="edge">
<title>node4&#45;&gt;node5</title>
<path fill="none" stroke="black" stroke-dasharray="1,5" d="M892.05,-386.93C893.88,-363.31 898.6,-319.55 910,-284 912.08,-277.53 914.95,-270.84 917.97,-264.63"/>
<polygon fill="black" stroke="black" points="921.26,-265.87 922.73,-255.38 915.04,-262.67 921.26,-265.87"/>
</g>
<!-- node7 -->
<g id="node16" class="node">
<title>node7</title>
<polygon fill="none" stroke="black" points="1049.1,-302.54 1049.1,-317.46 1010.96,-328 957.04,-328 918.9,-317.46 918.9,-302.54 957.04,-292 1010.96,-292 1049.1,-302.54"/>
<text text-anchor="middle" x="984" y="-306.9" font-family="Times New Roman,serif" font-size="12.00">RendererFrontLib</text>
</g>
<!-- node4&#45;&gt;node7 -->
<g id="edge19" class="edge">
<title>node4&#45;&gt;node7</title>
<path fill="none" stroke="black" stroke-dasharray="1,5" d="M906.78,-388.22C921.25,-373.75 942.9,-352.1 959.6,-335.4"/>
<polygon fill="black" stroke="black" points="962.29,-337.66 966.88,-328.12 957.34,-332.71 962.29,-337.66"/>
</g>
<!-- node11 -->
<g id="node20" class="node">
<title>node11</title>
<polygon fill="none" stroke="black" points="867.93,-229.54 867.93,-244.46 829.31,-255 774.69,-255 736.07,-244.46 736.07,-229.54 774.69,-219 829.31,-219 867.93,-229.54"/>
<text text-anchor="middle" x="802" y="-233.9" font-family="Times New Roman,serif" font-size="12.00">VideoDecoderLib</text>
</g>
<!-- node4&#45;&gt;node11 -->
<g id="edge21" class="edge">
<title>node4&#45;&gt;node11</title>
<path fill="none" stroke="black" stroke-dasharray="1,5" d="M883.92,-386.86C873.89,-363.16 854.48,-319.31 834,-284 830.04,-277.17 825.38,-270.05 820.85,-263.51"/>
<polygon fill="black" stroke="black" points="823.48,-261.17 814.85,-255.03 817.77,-265.22 823.48,-261.17"/>
</g>
<!-- node6 -->
<g id="node15" class="node">
<title>node6</title>
<polygon fill="none" stroke="black" points="1008.11,-156.54 1008.11,-171.46 975.83,-182 930.17,-182 897.89,-171.46 897.89,-156.54 930.17,-146 975.83,-146 1008.11,-156.54"/>
<text text-anchor="middle" x="953" y="-160.9" font-family="Times New Roman,serif" font-size="12.00">PtlCheckerLib</text>
</g>
<!-- node5&#45;&gt;node6 -->
<g id="edge12" class="edge">
<title>node5&#45;&gt;node6</title>
<path fill="none" stroke="black" d="M937.84,-218.81C940.13,-210.7 942.91,-200.84 945.46,-191.78"/>
<polygon fill="black" stroke="black" points="948.86,-192.6 948.2,-182.03 942.12,-190.71 948.86,-192.6"/>
</g>
<!-- node6&#45;&gt;node3 -->
<g id="edge11" class="edge">
<title>node6&#45;&gt;node3</title>
<path fill="none" stroke="black" d="M996.88,-152.75C1050.66,-140.19 1141.88,-118.89 1200.76,-105.13"/>
<polygon fill="black" stroke="black" points="1201.7,-108.51 1210.64,-102.83 1200.11,-101.69 1201.7,-108.51"/>
</g>
<!-- node8 -->
<g id="node17" class="node">
<title>node8</title>
<polygon fill="none" stroke="black" points="681.14,-229.54 681.14,-244.46 664.07,-255 639.93,-255 622.86,-244.46 622.86,-229.54 639.93,-219 664.07,-219 681.14,-229.54"/>
<text text-anchor="middle" x="652" y="-233.9" font-family="Times New Roman,serif" font-size="12.00">IOLib</text>
</g>
<!-- node7&#45;&gt;node8 -->
<g id="edge15" class="edge">
<title>node7&#45;&gt;node8</title>
<path fill="none" stroke="black" d="M933.24,-298.58C881.36,-287.87 798.49,-270.61 727,-255 715.3,-252.44 702.59,-249.59 691.01,-246.96"/>
<polygon fill="black" stroke="black" points="691.71,-243.53 681.18,-244.73 690.16,-250.36 691.71,-243.53"/>
</g>
<!-- node9 -->
<g id="node18" class="node">
<title>node9</title>
<polygon fill="none" stroke="black" points="1183.11,-229.54 1183.11,-244.46 1154.34,-255 1113.66,-255 1084.89,-244.46 1084.89,-229.54 1113.66,-219 1154.34,-219 1183.11,-229.54"/>
<text text-anchor="middle" x="1134" y="-233.9" font-family="Times New Roman,serif" font-size="12.00">RendererLib</text>
</g>
<!-- node7&#45;&gt;node9 -->
<g id="edge18" class="edge">
<title>node7&#45;&gt;node9</title>
<path fill="none" stroke="black" d="M1016.92,-293.42C1040.06,-282.46 1071.11,-267.77 1095.42,-256.26"/>
<polygon fill="black" stroke="black" points="1097.17,-259.31 1104.71,-251.86 1094.18,-252.98 1097.17,-259.31"/>
</g>
<!-- node8&#45;&gt;node3 -->
<g id="edge14" class="edge">
<title>node8&#45;&gt;node3</title>
<path fill="none" stroke="black" d="M674.67,-225.48C716.24,-206.63 807.85,-167.09 889,-146 990.17,-119.7 1110.55,-105.07 1185.38,-97.87"/>
<polygon fill="black" stroke="black" points="1186,-101.32 1195.63,-96.9 1185.35,-94.35 1186,-101.32"/>
</g>
<!-- node10 -->
<g id="node19" class="node">
<title>node10</title>
<polygon fill="none" stroke="black" points="1185.76,-156.54 1185.76,-171.46 1147.83,-182 1094.17,-182 1056.24,-171.46 1056.24,-156.54 1094.17,-146 1147.83,-146 1185.76,-156.54"/>
<text text-anchor="middle" x="1121" y="-160.9" font-family="Times New Roman,serif" font-size="12.00">ViewingSpaceLib</text>
</g>
<!-- node9&#45;&gt;node10 -->
<g id="edge17" class="edge">
<title>node9&#45;&gt;node10</title>
<path fill="none" stroke="black" d="M1130.85,-218.81C1129.38,-210.79 1127.6,-201.05 1125.96,-192.07"/>
<polygon fill="black" stroke="black" points="1129.36,-191.23 1124.12,-182.03 1122.48,-192.5 1129.36,-191.23"/>
</g>
<!-- node10&#45;&gt;node3 -->
<g id="edge16" class="edge">
<title>node10&#45;&gt;node3</title>
<path fill="none" stroke="black" d="M1151.86,-146.89C1171.39,-136.7 1196.8,-123.43 1217.76,-112.49"/>
<polygon fill="black" stroke="black" points="1219.49,-115.53 1226.73,-107.8 1216.25,-109.33 1219.49,-115.53"/>
</g>
<!-- node11&#45;&gt;node1 -->
<g id="edge20" class="edge">
<title>node11&#45;&gt;node1</title>
<path fill="none" stroke="black" d="M814.58,-218.72C830.03,-198.64 858.03,-165.74 889,-146 989.98,-81.65 1127.45,-45.54 1202.53,-29.41"/>
<polygon fill="black" stroke="black" points="1203.64,-32.75 1212.7,-27.26 1202.19,-25.9 1203.64,-32.75"/>
</g>
<!-- node12 -->
<g id="node21" class="node">
<title>node12</title>
<polygon fill="none" stroke="black" points="1395.74,-302.54 1395.74,-317.46 1343.76,-328 1270.24,-328 1218.26,-317.46 1218.26,-302.54 1270.24,-292 1343.76,-292 1395.74,-302.54"/>
<text text-anchor="middle" x="1307" y="-306.9" font-family="Times New Roman,serif" font-size="12.00">DepthQualityAssessorLib</text>
</g>
<!-- node12&#45;&gt;node9 -->
<g id="edge22" class="edge">
<title>node12&#45;&gt;node9</title>
<path fill="none" stroke="black" d="M1266.88,-292.53C1239.29,-281.21 1202.76,-266.22 1174.98,-254.82"/>
<polygon fill="black" stroke="black" points="1176.13,-251.51 1165.55,-250.95 1173.48,-257.98 1176.13,-251.51"/>
</g>
<!-- node13 -->
<g id="node22" class="node">
<title>node13</title>
<polygon fill="none" stroke="black" points="593.34,-468.05 595.55,-468.15 597.74,-468.3 599.9,-468.49 602.02,-468.74 604.09,-469.03 606.1,-469.36 608.04,-469.75 609.92,-470.18 611.71,-470.65 613.42,-471.16 615.04,-471.71 616.56,-472.31 617.97,-472.94 619.28,-473.61 620.48,-474.31 621.57,-475.04 622.55,-475.8 623.4,-476.59 624.14,-477.41 624.76,-478.25 625.26,-479.11 625.65,-479.99 625.92,-480.89 626.07,-481.8 626.11,-482.72 626.04,-483.65 625.87,-484.59 625.59,-485.53 625.21,-486.47 624.74,-487.41 624.18,-488.35 623.53,-489.28 622.8,-490.2 622,-491.11 621.12,-492.01 620.17,-492.89 619.17,-493.75 618.1,-494.59 616.99,-495.41 615.83,-496.2 614.62,-496.96 613.37,-497.69 612.09,-498.39 610.78,-499.06 609.45,-499.69 608.08,-500.29 606.7,-500.84 605.3,-501.35 603.88,-501.82 602.45,-502.25 601.01,-502.64 599.56,-502.97 598.1,-503.26 596.63,-503.51 595.16,-503.7 593.69,-503.85 592.22,-503.95 590.74,-504 589.26,-504 587.78,-503.95 586.31,-503.85 584.84,-503.7 583.37,-503.51 581.9,-503.26 580.44,-502.97 578.99,-502.64 577.55,-502.25 576.12,-501.82 574.7,-501.35 573.3,-500.84 571.92,-500.29 570.55,-499.69 569.22,-499.06 567.91,-498.39 566.63,-497.69 565.38,-496.96 564.17,-496.2 563.01,-495.41 561.9,-494.59 560.83,-493.75 559.83,-492.89 558.88,-492.01 558,-491.11 557.2,-490.2 556.47,-489.28 555.82,-488.35 555.26,-487.41 554.79,-486.47 554.41,-485.53 554.13,-484.59 553.96,-483.65 553.89,-482.72 553.93,-481.8 554.08,-480.89 554.35,-479.99 554.74,-479.11 555.24,-478.25 555.86,-477.41 556.6,-476.59 557.45,-475.8 558.43,-475.04 559.52,-474.31 560.72,-473.61 562.03,-472.94 563.44,-472.31 564.96,-471.71 566.58,-471.16 568.29,-470.65 570.08,-470.18 571.96,-469.75 573.9,-469.36 575.91,-469.03 577.98,-468.74 580.1,-468.49 582.26,-468.3 584.45,-468.15 586.66,-468.05 588.88,-468 591.12,-468 593.34,-468.05"/>
<text text-anchor="middle" x="590" y="-482.9" font-family="Times New Roman,serif" font-size="12.00">Encoder</text>
</g>
<!-- node13&#45;&gt;node8 -->
<g id="edge32" class="edge">
<title>node13&#45;&gt;node8</title>
<path fill="none" stroke="black" stroke-dasharray="1,5" d="M584.88,-468.02C575.01,-431.97 556.87,-345.99 587,-284 593.61,-270.39 606.45,-260.01 618.98,-252.59"/>
<polygon fill="black" stroke="black" points="620.85,-255.56 627.96,-247.7 617.5,-249.41 620.85,-255.56"/>
</g>
<!-- node14 -->
<g id="node23" class="node">
<title>node14</title>
<polygon fill="none" stroke="black" points="1353.78,-397.54 1353.78,-412.46 1326.38,-423 1287.62,-423 1260.22,-412.46 1260.22,-397.54 1287.62,-387 1326.38,-387 1353.78,-397.54"/>
<text text-anchor="middle" x="1307" y="-401.9" font-family="Times New Roman,serif" font-size="12.00">EncoderLib</text>
</g>
<!-- node13&#45;&gt;node14 -->
<g id="edge31" class="edge">
<title>node13&#45;&gt;node14</title>
<path fill="none" stroke="black" stroke-dasharray="1,5" d="M623.12,-475.99C635.26,-473 649.17,-469.94 662,-468 898.98,-432.12 962.98,-466.6 1200,-431 1219.74,-428.04 1241.21,-423.32 1259.71,-418.78"/>
<polygon fill="black" stroke="black" points="1260.8,-422.11 1269.65,-416.28 1259.1,-415.32 1260.8,-422.11"/>
</g>
<!-- node14&#45;&gt;node0 -->
<g id="edge23" class="edge">
<title>node14&#45;&gt;node0</title>
<path fill="none" stroke="black" d="M1346.13,-394.33C1403.75,-380.04 1514.78,-352.37 1609,-328 1613.13,-326.93 1617.41,-325.82 1621.71,-324.69"/>
<polygon fill="black" stroke="black" points="1622.93,-327.99 1631.71,-322.05 1621.15,-321.22 1622.93,-327.99"/>
</g>
<!-- node14&#45;&gt;node12 -->
<g id="edge24" class="edge">
<title>node14&#45;&gt;node12</title>
<path fill="none" stroke="black" d="M1307,-386.94C1307,-373.39 1307,-354.18 1307,-338.47"/>
<polygon fill="black" stroke="black" points="1310.5,-338.26 1307,-328.26 1303.5,-338.26 1310.5,-338.26"/>
</g>
<!-- node15 -->
<g id="node24" class="node">
<title>node15</title>
<polygon fill="none" stroke="black" points="1599.79,-302.54 1599.79,-317.46 1574.72,-328 1539.28,-328 1514.21,-317.46 1514.21,-302.54 1539.28,-292 1574.72,-292 1599.79,-302.54"/>
<text text-anchor="middle" x="1557" y="-306.9" font-family="Times New Roman,serif" font-size="12.00">PackerLib</text>
</g>
<!-- node14&#45;&gt;node15 -->
<g id="edge26" class="edge">
<title>node14&#45;&gt;node15</title>
<path fill="none" stroke="black" d="M1339.43,-391.94C1384.76,-375.07 1467.05,-344.46 1516.4,-326.1"/>
<polygon fill="black" stroke="black" points="1517.66,-329.37 1525.81,-322.6 1515.22,-322.81 1517.66,-329.37"/>
</g>
<!-- node16 -->
<g id="node25" class="node">
<title>node16</title>
<polygon fill="none" stroke="black" points="1496.12,-302.54 1496.12,-317.46 1472.03,-328 1437.97,-328 1413.88,-317.46 1413.88,-302.54 1437.97,-292 1472.03,-292 1496.12,-302.54"/>
<text text-anchor="middle" x="1455" y="-306.9" font-family="Times New Roman,serif" font-size="12.00">PrunerLib</text>
</g>
<!-- node14&#45;&gt;node16 -->
<g id="edge28" class="edge">
<title>node14&#45;&gt;node16</title>
<path fill="none" stroke="black" d="M1331.44,-388.64C1356.63,-372.81 1395.99,-348.08 1423.5,-330.79"/>
<polygon fill="black" stroke="black" points="1425.38,-333.75 1431.99,-325.46 1421.66,-327.82 1425.38,-333.75"/>
</g>
<!-- node17 -->
<g id="node26" class="node">
<title>node17</title>
<polygon fill="none" stroke="black" points="1200.76,-302.54 1200.76,-317.46 1161.65,-328 1106.35,-328 1067.24,-317.46 1067.24,-302.54 1106.35,-292 1161.65,-292 1200.76,-302.54"/>
<text text-anchor="middle" x="1134" y="-306.9" font-family="Times New Roman,serif" font-size="12.00">ViewOptimizerLib</text>
</g>
<!-- node14&#45;&gt;node17 -->
<g id="edge30" class="edge">
<title>node14&#45;&gt;node17</title>
<path fill="none" stroke="black" d="M1280.35,-389.67C1251.76,-374.3 1206.06,-349.74 1173.33,-332.15"/>
<polygon fill="black" stroke="black" points="1174.94,-329.03 1164.47,-327.38 1171.62,-335.2 1174.94,-329.03"/>
</g>
<!-- node15&#45;&gt;node3 -->
<g id="edge25" class="edge">
<title>node15&#45;&gt;node3</title>
<path fill="none" stroke="black" d="M1544.49,-292C1516.66,-254.58 1449.71,-166.78 1419,-146 1388.63,-125.44 1349.78,-112.15 1317.74,-103.89"/>
<polygon fill="black" stroke="black" points="1318.58,-100.49 1308.04,-101.49 1316.9,-107.29 1318.58,-100.49"/>
</g>
<!-- node16&#45;&gt;node9 -->
<g id="edge27" class="edge">
<title>node16&#45;&gt;node9</title>
<path fill="none" stroke="black" d="M1430.99,-295.05C1422.95,-290.91 1413.8,-286.76 1405,-284 1319.3,-257.13 1293.21,-271.92 1205,-255 1197.9,-253.64 1190.43,-252.04 1183.12,-250.37"/>
<polygon fill="black" stroke="black" points="1183.83,-246.95 1173.29,-248.08 1182.24,-253.76 1183.83,-246.95"/>
</g>
<!-- node17&#45;&gt;node9 -->
<g id="edge29" class="edge">
<title>node17&#45;&gt;node9</title>
<path fill="none" stroke="black" d="M1134,-291.81C1134,-283.79 1134,-274.05 1134,-265.07"/>
<polygon fill="black" stroke="black" points="1137.5,-265.03 1134,-255.03 1130.5,-265.03 1137.5,-265.03"/>
</g>
<!-- node18 -->
<g id="node27" class="node">
<title>node18</title>
<polygon fill="none" stroke="black" points="1260.95,-219.05 1263.57,-219.15 1266.16,-219.3 1268.71,-219.49 1271.22,-219.74 1273.67,-220.03 1276.04,-220.36 1278.35,-220.75 1280.56,-221.18 1282.69,-221.65 1284.71,-222.16 1286.62,-222.71 1288.42,-223.31 1290.09,-223.94 1291.64,-224.61 1293.07,-225.31 1294.35,-226.04 1295.51,-226.8 1296.52,-227.59 1297.39,-228.41 1298.13,-229.25 1298.72,-230.11 1299.18,-230.99 1299.49,-231.89 1299.67,-232.8 1299.72,-233.72 1299.64,-234.65 1299.44,-235.59 1299.11,-236.53 1298.66,-237.47 1298.1,-238.41 1297.44,-239.35 1296.67,-240.28 1295.81,-241.2 1294.85,-242.11 1293.82,-243.01 1292.7,-243.89 1291.51,-244.75 1290.25,-245.59 1288.93,-246.41 1287.55,-247.2 1286.13,-247.96 1284.65,-248.69 1283.14,-249.39 1281.59,-250.06 1280.01,-250.69 1278.39,-251.29 1276.76,-251.84 1275.1,-252.35 1273.42,-252.82 1271.73,-253.25 1270.02,-253.64 1268.31,-253.97 1266.58,-254.26 1264.85,-254.51 1263.11,-254.7 1261.37,-254.85 1259.62,-254.95 1257.87,-255 1256.13,-255 1254.38,-254.95 1252.63,-254.85 1250.89,-254.7 1249.15,-254.51 1247.42,-254.26 1245.69,-253.97 1243.98,-253.64 1242.27,-253.25 1240.58,-252.82 1238.9,-252.35 1237.24,-251.84 1235.61,-251.29 1233.99,-250.69 1232.41,-250.06 1230.86,-249.39 1229.35,-248.69 1227.87,-247.96 1226.45,-247.2 1225.07,-246.41 1223.75,-245.59 1222.49,-244.75 1221.3,-243.89 1220.18,-243.01 1219.15,-242.11 1218.19,-241.2 1217.33,-240.28 1216.56,-239.35 1215.9,-238.41 1215.34,-237.47 1214.89,-236.53 1214.56,-235.59 1214.36,-234.65 1214.28,-233.72 1214.33,-232.8 1214.51,-231.89 1214.82,-230.99 1215.28,-230.11 1215.87,-229.25 1216.61,-228.41 1217.48,-227.59 1218.49,-226.8 1219.65,-226.04 1220.93,-225.31 1222.36,-224.61 1223.91,-223.94 1225.58,-223.31 1227.38,-222.71 1229.29,-222.16 1231.31,-221.65 1233.44,-221.18 1235.65,-220.75 1237.96,-220.36 1240.33,-220.03 1242.78,-219.74 1245.29,-219.49 1247.84,-219.3 1250.43,-219.15 1253.05,-219.05 1255.68,-219 1258.32,-219 1260.95,-219.05"/>
<text text-anchor="middle" x="1257" y="-233.9" font-family="Times New Roman,serif" font-size="12.00">GaInserter</text>
</g>
<!-- node19 -->
<g id="node28" class="node">
<title>node19</title>
<polygon fill="none" stroke="black" points="1310.11,-156.54 1310.11,-171.46 1279,-182 1235,-182 1203.89,-171.46 1203.89,-156.54 1235,-146 1279,-146 1310.11,-156.54"/>
<text text-anchor="middle" x="1257" y="-160.9" font-family="Times New Roman,serif" font-size="12.00">GaInserterLib</text>
</g>
<!-- node18&#45;&gt;node19 -->
<g id="edge34" class="edge">
<title>node18&#45;&gt;node19</title>
<path fill="none" stroke="black" stroke-dasharray="1,5" d="M1257,-218.81C1257,-210.79 1257,-201.05 1257,-192.07"/>
<polygon fill="black" stroke="black" points="1260.5,-192.03 1257,-182.03 1253.5,-192.03 1260.5,-192.03"/>
</g>
<!-- node19&#45;&gt;node3 -->
<g id="edge33" class="edge">
<title>node19&#45;&gt;node3</title>
<path fill="none" stroke="black" d="M1257,-145.81C1257,-137.79 1257,-128.05 1257,-119.07"/>
<polygon fill="black" stroke="black" points="1260.5,-119.03 1257,-109.03 1253.5,-119.03 1260.5,-119.03"/>
</g>
<!-- node20 -->
<g id="node29" class="node">
<title>node20</title>
<polygon fill="none" stroke="black" points="724.49,-468.05 727.46,-468.15 730.41,-468.3 733.3,-468.49 736.15,-468.74 738.93,-469.03 741.63,-469.36 744.25,-469.75 746.76,-470.18 749.17,-470.65 751.47,-471.16 753.64,-471.71 755.68,-472.31 757.59,-472.94 759.35,-473.61 760.96,-474.31 762.42,-475.04 763.73,-475.8 764.88,-476.59 765.88,-477.41 766.71,-478.25 767.38,-479.11 767.9,-479.99 768.26,-480.89 768.47,-481.8 768.52,-482.72 768.43,-483.65 768.2,-484.59 767.82,-485.53 767.32,-486.47 766.68,-487.41 765.93,-488.35 765.06,-489.28 764.08,-490.2 762.99,-491.11 761.81,-492.01 760.54,-492.89 759.19,-493.75 757.76,-494.59 756.27,-495.41 754.7,-496.2 753.08,-496.96 751.41,-497.69 749.69,-498.39 747.93,-499.06 746.13,-499.69 744.3,-500.29 742.44,-500.84 740.56,-501.35 738.65,-501.82 736.73,-502.25 734.79,-502.64 732.84,-502.97 730.88,-503.26 728.91,-503.51 726.94,-503.7 724.96,-503.85 722.98,-503.95 720.99,-504 719.01,-504 717.02,-503.95 715.04,-503.85 713.06,-503.7 711.09,-503.51 709.12,-503.26 707.16,-502.97 705.21,-502.64 703.27,-502.25 701.35,-501.82 699.44,-501.35 697.56,-500.84 695.7,-500.29 693.87,-499.69 692.07,-499.06 690.31,-498.39 688.59,-497.69 686.92,-496.96 685.3,-496.2 683.73,-495.41 682.24,-494.59 680.81,-493.75 679.46,-492.89 678.19,-492.01 677.01,-491.11 675.92,-490.2 674.94,-489.28 674.07,-488.35 673.32,-487.41 672.68,-486.47 672.18,-485.53 671.8,-484.59 671.57,-483.65 671.48,-482.72 671.53,-481.8 671.74,-480.89 672.1,-479.99 672.62,-479.11 673.29,-478.25 674.12,-477.41 675.12,-476.59 676.27,-475.8 677.58,-475.04 679.04,-474.31 680.65,-473.61 682.41,-472.94 684.32,-472.31 686.36,-471.71 688.53,-471.16 690.83,-470.65 693.24,-470.18 695.75,-469.75 698.37,-469.36 701.07,-469.03 703.85,-468.74 706.7,-468.49 709.59,-468.3 712.54,-468.15 715.51,-468.05 718.5,-468 721.5,-468 724.49,-468.05"/>
<text text-anchor="middle" x="720" y="-482.9" font-family="Times New Roman,serif" font-size="12.00">MpiEncoder</text>
</g>
<!-- node20&#45;&gt;node14 -->
<g id="edge35" class="edge">
<title>node20&#45;&gt;node14</title>
<path fill="none" stroke="black" stroke-dasharray="1,5" d="M768.64,-481.43C855.63,-474.62 1043.4,-458.01 1200,-431 1219.51,-427.64 1240.79,-422.89 1259.19,-418.44"/>
<polygon fill="black" stroke="black" points="1260.22,-421.79 1269.09,-416 1258.54,-414.99 1260.22,-421.79"/>
</g>
<!-- node21 -->
<g id="node30" class="node">
<title>node21</title>
<polygon fill="none" stroke="black" points="696.79,-302.54 696.79,-317.46 670.55,-328 633.45,-328 607.21,-317.46 607.21,-302.54 633.45,-292 670.55,-292 696.79,-302.54"/>
<text text-anchor="middle" x="652" y="-306.9" font-family="Times New Roman,serif" font-size="12.00">MpiPcsLib</text>
</g>
<!-- node20&#45;&gt;node21 -->
<g id="edge37" class="edge">
<title>node20&#45;&gt;node21</title>
<path fill="none" stroke="black" stroke-dasharray="1,5" d="M713.36,-468C701.47,-437.59 676.5,-373.7 662.35,-337.5"/>
<polygon fill="black" stroke="black" points="665.57,-336.11 658.67,-328.07 659.05,-338.66 665.57,-336.11"/>
</g>
<!-- node21&#45;&gt;node8 -->
<g id="edge36" class="edge">
<title>node21&#45;&gt;node8</title>
<path fill="none" stroke="black" d="M652,-291.81C652,-283.79 652,-274.05 652,-265.07"/>
<polygon fill="black" stroke="black" points="655.5,-265.03 652,-255.03 648.5,-265.03 655.5,-265.03"/>
</g>
<!-- node22 -->
<g id="node31" class="node">
<title>node22</title>
<polygon fill="none" stroke="black" points="638.16,-387.05 640.26,-387.15 642.33,-387.3 644.37,-387.49 646.38,-387.74 648.33,-388.03 650.24,-388.36 652.08,-388.75 653.85,-389.18 655.55,-389.65 657.17,-390.16 658.7,-390.71 660.13,-391.31 661.47,-391.94 662.72,-392.61 663.85,-393.31 664.88,-394.04 665.8,-394.8 666.61,-395.59 667.31,-396.41 667.9,-397.25 668.38,-398.11 668.74,-398.99 668.99,-399.89 669.14,-400.8 669.18,-401.72 669.11,-402.65 668.95,-403.59 668.69,-404.53 668.33,-405.47 667.88,-406.41 667.35,-407.35 666.74,-408.28 666.05,-409.2 665.28,-410.11 664.45,-411.01 663.56,-411.89 662.61,-412.75 661.6,-413.59 660.54,-414.41 659.44,-415.2 658.3,-415.96 657.12,-416.69 655.91,-417.39 654.67,-418.06 653.4,-418.69 652.11,-419.29 650.81,-419.84 649.48,-420.35 648.14,-420.82 646.78,-421.25 645.42,-421.64 644.05,-421.97 642.66,-422.26 641.28,-422.51 639.89,-422.7 638.49,-422.85 637.1,-422.95 635.7,-423 634.3,-423 632.9,-422.95 631.51,-422.85 630.11,-422.7 628.72,-422.51 627.34,-422.26 625.95,-421.97 624.58,-421.64 623.22,-421.25 621.86,-420.82 620.52,-420.35 619.19,-419.84 617.89,-419.29 616.6,-418.69 615.33,-418.06 614.09,-417.39 612.88,-416.69 611.7,-415.96 610.56,-415.2 609.46,-414.41 608.4,-413.59 607.39,-412.75 606.44,-411.89 605.55,-411.01 604.72,-410.11 603.95,-409.2 603.26,-408.28 602.65,-407.35 602.12,-406.41 601.67,-405.47 601.31,-404.53 601.05,-403.59 600.89,-402.65 600.82,-401.72 600.86,-400.8 601.01,-399.89 601.26,-398.99 601.62,-398.11 602.1,-397.25 602.69,-396.41 603.39,-395.59 604.2,-394.8 605.12,-394.04 606.15,-393.31 607.28,-392.61 608.53,-391.94 609.87,-391.31 611.3,-390.71 612.83,-390.16 614.45,-389.65 616.15,-389.18 617.92,-388.75 619.76,-388.36 621.67,-388.03 623.62,-387.74 625.63,-387.49 627.67,-387.3 629.74,-387.15 631.84,-387.05 633.94,-387 636.06,-387 638.16,-387.05"/>
<text text-anchor="middle" x="635" y="-401.9" font-family="Times New Roman,serif" font-size="12.00">MpiPcs</text>
</g>
<!-- node22&#45;&gt;node21 -->
<g id="edge38" class="edge">
<title>node22&#45;&gt;node21</title>
<path fill="none" stroke="black" stroke-dasharray="1,5" d="M638.12,-386.94C640.59,-373.39 644.11,-354.18 646.98,-338.47"/>
<polygon fill="black" stroke="black" points="650.49,-338.73 648.84,-328.26 643.6,-337.47 650.49,-338.73"/>
</g>
<!-- node23 -->
<g id="node32" class="node">
<title>node23</title>
<polygon fill="none" stroke="black" points="774.13,-387.05 776.87,-387.15 779.58,-387.3 782.24,-387.49 784.86,-387.74 787.42,-388.03 789.91,-388.36 792.31,-388.75 794.63,-389.18 796.85,-389.65 798.96,-390.16 800.96,-390.71 802.84,-391.31 804.59,-391.94 806.21,-392.61 807.7,-393.31 809.04,-394.04 810.25,-394.8 811.31,-395.59 812.22,-396.41 812.99,-397.25 813.61,-398.11 814.08,-398.99 814.42,-399.89 814.61,-400.8 814.66,-401.72 814.57,-402.65 814.36,-403.59 814.01,-404.53 813.55,-405.47 812.96,-406.41 812.27,-407.35 811.47,-408.28 810.56,-409.2 809.57,-410.11 808.48,-411.01 807.31,-411.89 806.07,-412.75 804.75,-413.59 803.38,-414.41 801.94,-415.2 800.45,-415.96 798.91,-416.69 797.32,-417.39 795.7,-418.06 794.05,-418.69 792.36,-419.29 790.65,-419.84 788.92,-420.35 787.16,-420.82 785.4,-421.25 783.61,-421.64 781.82,-421.97 780.01,-422.26 778.2,-422.51 776.39,-422.7 774.56,-422.85 772.74,-422.95 770.91,-423 769.09,-423 767.26,-422.95 765.44,-422.85 763.61,-422.7 761.8,-422.51 759.99,-422.26 758.18,-421.97 756.39,-421.64 754.6,-421.25 752.84,-420.82 751.08,-420.35 749.35,-419.84 747.64,-419.29 745.95,-418.69 744.3,-418.06 742.68,-417.39 741.09,-416.69 739.55,-415.96 738.06,-415.2 736.62,-414.41 735.25,-413.59 733.93,-412.75 732.69,-411.89 731.52,-411.01 730.43,-410.11 729.44,-409.2 728.53,-408.28 727.73,-407.35 727.04,-406.41 726.45,-405.47 725.99,-404.53 725.64,-403.59 725.43,-402.65 725.34,-401.72 725.39,-400.8 725.58,-399.89 725.92,-398.99 726.39,-398.11 727.01,-397.25 727.78,-396.41 728.69,-395.59 729.75,-394.8 730.96,-394.04 732.3,-393.31 733.79,-392.61 735.41,-391.94 737.16,-391.31 739.04,-390.71 741.04,-390.16 743.15,-389.65 745.37,-389.18 747.69,-388.75 750.09,-388.36 752.58,-388.03 755.14,-387.74 757.76,-387.49 760.42,-387.3 763.13,-387.15 765.87,-387.05 768.62,-387 771.38,-387 774.13,-387.05"/>
<text text-anchor="middle" x="770" y="-401.9" font-family="Times New Roman,serif" font-size="12.00">Multiplexer</text>
</g>
<!-- node23&#45;&gt;node8 -->
<g id="edge39" class="edge">
<title>node23&#45;&gt;node8</title>
<path fill="none" stroke="black" stroke-dasharray="1,5" d="M732.74,-392.8C686.97,-378.2 613.46,-351.73 598,-328 587.33,-311.61 589.8,-301.75 598,-284 603.27,-272.59 612.93,-262.96 622.63,-255.51"/>
<polygon fill="black" stroke="black" points="624.93,-258.17 631.06,-249.53 620.88,-252.46 624.93,-258.17"/>
</g>
<!-- node24 -->
<g id="node33" class="node">
<title>node24</title>
<polygon fill="none" stroke="black" points="825.11,-302.54 825.11,-317.46 792.83,-328 747.17,-328 714.89,-317.46 714.89,-302.54 747.17,-292 792.83,-292 825.11,-302.54"/>
<text text-anchor="middle" x="770" y="-306.9" font-family="Times New Roman,serif" font-size="12.00">MultiplexerLib</text>
</g>
<!-- node23&#45;&gt;node24 -->
<g id="edge42" class="edge">
<title>node23&#45;&gt;node24</title>
<path fill="none" stroke="black" stroke-dasharray="1,5" d="M770,-386.94C770,-373.39 770,-354.18 770,-338.47"/>
<polygon fill="black" stroke="black" points="773.5,-338.26 770,-328.26 766.5,-338.26 773.5,-338.26"/>
</g>
<!-- node24&#45;&gt;node5 -->
<g id="edge40" class="edge">
<title>node24&#45;&gt;node5</title>
<path fill="none" stroke="black" d="M802.2,-294.97C828.43,-283.55 865.57,-267.37 893.57,-255.18"/>
<polygon fill="black" stroke="black" points="895.29,-258.24 903.06,-251.04 892.5,-251.83 895.29,-258.24"/>
</g>
<!-- node24&#45;&gt;node11 -->
<g id="edge41" class="edge">
<title>node24&#45;&gt;node11</title>
<path fill="none" stroke="black" d="M777.75,-291.81C781.48,-283.53 786.04,-273.41 790.19,-264.19"/>
<polygon fill="black" stroke="black" points="793.41,-265.58 794.33,-255.03 787.03,-262.71 793.41,-265.58"/>
</g>
<!-- node25 -->
<g id="node34" class="node">
<title>node25</title>
<polygon fill="none" stroke="black" points="1371.81,-219.05 1373.66,-219.15 1375.5,-219.3 1377.31,-219.49 1379.09,-219.74 1380.82,-220.03 1382.51,-220.36 1384.15,-220.75 1385.72,-221.18 1387.22,-221.65 1388.66,-222.16 1390.02,-222.71 1391.29,-223.31 1392.48,-223.94 1393.58,-224.61 1394.59,-225.31 1395.5,-226.04 1396.32,-226.8 1397.04,-227.59 1397.66,-228.41 1398.18,-229.25 1398.6,-230.11 1398.92,-230.99 1399.15,-231.89 1399.28,-232.8 1399.31,-233.72 1399.26,-234.65 1399.11,-235.59 1398.88,-236.53 1398.56,-237.47 1398.16,-238.41 1397.69,-239.35 1397.15,-240.28 1396.53,-241.2 1395.86,-242.11 1395.12,-243.01 1394.33,-243.89 1393.48,-244.75 1392.59,-245.59 1391.66,-246.41 1390.68,-247.2 1389.67,-247.96 1388.62,-248.69 1387.55,-249.39 1386.45,-250.06 1385.32,-250.69 1384.18,-251.29 1383.02,-251.84 1381.84,-252.35 1380.65,-252.82 1379.45,-253.25 1378.24,-253.64 1377.02,-253.97 1375.8,-254.26 1374.57,-254.51 1373.33,-254.7 1372.1,-254.85 1370.86,-254.95 1369.62,-255 1368.38,-255 1367.14,-254.95 1365.9,-254.85 1364.67,-254.7 1363.43,-254.51 1362.2,-254.26 1360.98,-253.97 1359.76,-253.64 1358.55,-253.25 1357.35,-252.82 1356.16,-252.35 1354.98,-251.84 1353.82,-251.29 1352.68,-250.69 1351.55,-250.06 1350.45,-249.39 1349.38,-248.69 1348.33,-247.96 1347.32,-247.2 1346.34,-246.41 1345.41,-245.59 1344.52,-244.75 1343.67,-243.89 1342.88,-243.01 1342.14,-242.11 1341.47,-241.2 1340.85,-240.28 1340.31,-239.35 1339.84,-238.41 1339.44,-237.47 1339.12,-236.53 1338.89,-235.59 1338.74,-234.65 1338.69,-233.72 1338.72,-232.8 1338.85,-231.89 1339.08,-230.99 1339.4,-230.11 1339.82,-229.25 1340.34,-228.41 1340.96,-227.59 1341.68,-226.8 1342.5,-226.04 1343.41,-225.31 1344.42,-224.61 1345.52,-223.94 1346.71,-223.31 1347.98,-222.71 1349.34,-222.16 1350.78,-221.65 1352.28,-221.18 1353.85,-220.75 1355.49,-220.36 1357.18,-220.03 1358.91,-219.74 1360.69,-219.49 1362.5,-219.3 1364.34,-219.15 1366.19,-219.05 1368.06,-219 1369.94,-219 1371.81,-219.05"/>
<text text-anchor="middle" x="1369" y="-233.9" font-family="Times New Roman,serif" font-size="12.00">Parser</text>
</g>
<!-- node26 -->
<g id="node35" class="node">
<title>node26</title>
<polygon fill="none" stroke="black" points="1409.79,-156.54 1409.79,-171.46 1385.9,-182 1352.1,-182 1328.21,-171.46 1328.21,-156.54 1352.1,-146 1385.9,-146 1409.79,-156.54"/>
<text text-anchor="middle" x="1369" y="-160.9" font-family="Times New Roman,serif" font-size="12.00">ParserLib</text>
</g>
<!-- node25&#45;&gt;node26 -->
<g id="edge44" class="edge">
<title>node25&#45;&gt;node26</title>
<path fill="none" stroke="black" stroke-dasharray="1,5" d="M1369,-218.81C1369,-210.79 1369,-201.05 1369,-192.07"/>
<polygon fill="black" stroke="black" points="1372.5,-192.03 1369,-182.03 1365.5,-192.03 1372.5,-192.03"/>
</g>
<!-- node26&#45;&gt;node3 -->
<g id="edge43" class="edge">
<title>node26&#45;&gt;node3</title>
<path fill="none" stroke="black" d="M1346.06,-148.46C1330.59,-138.65 1309.86,-125.51 1292.3,-114.37"/>
<polygon fill="black" stroke="black" points="1293.76,-111.16 1283.44,-108.76 1290.01,-117.07 1293.76,-111.16"/>
</g>
<!-- node27 -->
<g id="node36" class="node">
<title>node27</title>
<polygon fill="none" stroke="black" points="1155.6,-387.05 1157.98,-387.15 1160.33,-387.3 1162.65,-387.49 1164.93,-387.74 1167.16,-388.03 1169.32,-388.36 1171.42,-388.75 1173.43,-389.18 1175.36,-389.65 1177.2,-390.16 1178.94,-390.71 1180.57,-391.31 1182.1,-391.94 1183.51,-392.61 1184.8,-393.31 1185.97,-394.04 1187.02,-394.8 1187.94,-395.59 1188.74,-396.41 1189.4,-397.25 1189.95,-398.11 1190.36,-398.99 1190.65,-399.89 1190.81,-400.8 1190.86,-401.72 1190.78,-402.65 1190.6,-403.59 1190.3,-404.53 1189.89,-405.47 1189.38,-406.41 1188.78,-407.35 1188.08,-408.28 1187.3,-409.2 1186.43,-410.11 1185.48,-411.01 1184.47,-411.89 1183.39,-412.75 1182.24,-413.59 1181.04,-414.41 1179.79,-415.2 1178.49,-415.96 1177.15,-416.69 1175.77,-417.39 1174.36,-418.06 1172.92,-418.69 1171.46,-419.29 1169.97,-419.84 1168.46,-420.35 1166.94,-420.82 1165.4,-421.25 1163.84,-421.64 1162.28,-421.97 1160.71,-422.26 1159.14,-422.51 1157.56,-422.7 1155.97,-422.85 1154.38,-422.95 1152.79,-423 1151.21,-423 1149.62,-422.95 1148.03,-422.85 1146.44,-422.7 1144.86,-422.51 1143.29,-422.26 1141.72,-421.97 1140.16,-421.64 1138.6,-421.25 1137.06,-420.82 1135.54,-420.35 1134.03,-419.84 1132.54,-419.29 1131.08,-418.69 1129.64,-418.06 1128.23,-417.39 1126.85,-416.69 1125.51,-415.96 1124.21,-415.2 1122.96,-414.41 1121.76,-413.59 1120.61,-412.75 1119.53,-411.89 1118.52,-411.01 1117.57,-410.11 1116.7,-409.2 1115.92,-408.28 1115.22,-407.35 1114.62,-406.41 1114.11,-405.47 1113.7,-404.53 1113.4,-403.59 1113.22,-402.65 1113.14,-401.72 1113.19,-400.8 1113.35,-399.89 1113.64,-398.99 1114.05,-398.11 1114.6,-397.25 1115.26,-396.41 1116.06,-395.59 1116.98,-394.8 1118.03,-394.04 1119.2,-393.31 1120.49,-392.61 1121.9,-391.94 1123.43,-391.31 1125.06,-390.71 1126.8,-390.16 1128.64,-389.65 1130.57,-389.18 1132.58,-388.75 1134.68,-388.36 1136.84,-388.03 1139.07,-387.74 1141.35,-387.49 1143.67,-387.3 1146.02,-387.15 1148.4,-387.05 1150.8,-387 1153.2,-387 1155.6,-387.05"/>
<text text-anchor="middle" x="1152" y="-401.9" font-family="Times New Roman,serif" font-size="12.00">Renderer</text>
</g>
<!-- node27&#45;&gt;node7 -->
<g id="edge46" class="edge">
<title>node27&#45;&gt;node7</title>
<path fill="none" stroke="black" stroke-dasharray="1,5" d="M1126.85,-390.08C1099.27,-374.81 1054.69,-350.13 1022.66,-332.4"/>
<polygon fill="black" stroke="black" points="1024.02,-329.15 1013.58,-327.37 1020.63,-335.28 1024.02,-329.15"/>
</g>
<!-- node27&#45;&gt;node12 -->
<g id="edge45" class="edge">
<title>node27&#45;&gt;node12</title>
<path fill="none" stroke="black" stroke-dasharray="1,5" d="M1175.88,-389.67C1200.97,-374.62 1240.76,-350.74 1269.93,-333.24"/>
<polygon fill="black" stroke="black" points="1271.85,-336.17 1278.62,-328.03 1268.24,-330.17 1271.85,-336.17"/>
</g>
</g>
</svg>
