<?xml version="1.0" encoding="UTF-8" standalone="no"?>
<!DOCTYPE svg PUBLIC "-//W3C//DTD SVG 1.1//EN"
 "http://www.w3.org/Graphics/SVG/1.1/DTD/svg11.dtd">
<!-- Generated by graphviz version 2.30.1 (20180413.0232)
 -->
<!-- Title: TMIV Pages: 1 -->
<svg width="2487pt" height="837pt"
 viewBox="0.00 0.00 2487.00 837.00" xmlns="http://www.w3.org/2000/svg" xmlns:xlink="http://www.w3.org/1999/xlink">
<g id="graph0" class="graph" transform="scale(1 1) rotate(0) translate(4 833)">
<title>TMIV</title>
<polygon fill="white" stroke="white" points="-4,5 -4,-833 2484,-833 2484,5 -4,5"/>
<g id="clust1" class="cluster"><title>clusterLegend</title>
<polygon fill="none" stroke="black" points="8,-548 8,-821 637,-821 637,-548 8,-548"/>
<text text-anchor="middle" x="322.5" y="-805.8" font-family="Times,serif" font-size="14.00">Legend</text>
</g>
<!-- legendNode0 -->
<g id="node1" class="node"><title>legendNode0</title>
<polygon fill="none" stroke="black" points="339.008,-754.049 342.324,-754.148 345.605,-754.295 348.839,-754.491 352.011,-754.735 355.111,-755.027 358.124,-755.364 361.041,-755.748 363.848,-756.176 366.537,-756.647 369.097,-757.161 371.519,-757.715 373.796,-758.308 375.92,-758.939 377.885,-759.605 379.685,-760.306 381.316,-761.039 382.775,-761.801 384.059,-762.592 385.166,-763.408 386.095,-764.248 386.848,-765.109 387.424,-765.989 387.826,-766.886 388.056,-767.797 388.118,-768.719 388.016,-769.65 387.754,-770.587 387.338,-771.529 386.773,-772.471 386.066,-773.413 385.224,-774.35 384.252,-775.281 383.158,-776.203 381.95,-777.114 380.635,-778.011 379.22,-778.891 377.712,-779.752 376.118,-780.592 374.447,-781.408 372.704,-782.199 370.896,-782.961 369.03,-783.694 367.112,-784.395 365.147,-785.061 363.141,-785.692 361.099,-786.285 359.026,-786.839 356.925,-787.353 354.801,-787.824 352.657,-788.252 350.496,-788.636 348.322,-788.973 346.136,-789.265 343.941,-789.509 341.739,-789.705 339.531,-789.852 337.32,-789.951 335.107,-790 332.893,-790 330.68,-789.951 328.469,-789.852 326.261,-789.705 324.059,-789.509 321.864,-789.265 319.678,-788.973 317.504,-788.636 315.343,-788.252 313.199,-787.824 311.075,-787.353 308.974,-786.839 306.901,-786.285 304.859,-785.692 302.853,-785.061 300.888,-784.395 298.97,-783.694 297.104,-782.961 295.296,-782.199 293.553,-781.408 291.882,-780.592 290.288,-779.752 288.78,-778.891 287.365,-778.011 286.05,-777.114 284.842,-776.203 283.748,-775.281 282.776,-774.35 281.934,-773.413 281.227,-772.471 280.662,-771.529 280.246,-770.587 279.984,-769.65 279.882,-768.719 279.944,-767.797 280.174,-766.886 280.576,-765.989 281.152,-765.109 281.905,-764.248 282.834,-763.408 283.941,-762.592 285.225,-761.801 286.684,-761.039 288.315,-760.306 290.115,-759.605 292.08,-758.939 294.204,-758.308 296.481,-757.715 298.903,-757.161 301.463,-756.647 304.152,-756.176 306.959,-755.748 309.876,-755.364 312.889,-755.027 315.989,-754.735 319.161,-754.491 322.395,-754.295 325.676,-754.148 328.992,-754.049 332.328,-754 335.672,-754 339.008,-754.049"/>
<text text-anchor="middle" x="334" y="-768.9" font-family="Times,serif" font-size="12.00">Executable</text>
</g>
<!-- legendNode1 -->
<g id="node2" class="node"><title>legendNode1</title>
<polygon fill="none" stroke="black" points="149.947,-670.544 149.947,-685.456 110.73,-696 55.2699,-696 16.0535,-685.456 16.0535,-670.544 55.2699,-660 110.73,-660 149.947,-670.544"/>
<text text-anchor="middle" x="83" y="-674.9" font-family="Times,serif" font-size="12.00">Static Library</text>
</g>
<!-- legendNode0&#45;&gt;legendNode1 -->
<g id="edge1" class="edge"><title>legendNode0&#45;&gt;legendNode1</title>
<path fill="none" stroke="black" d="M297.234,-757.524C253.284,-741.415 179.609,-714.41 131.152,-696.649"/>
<polygon fill="black" stroke="black" points="132.108,-693.272 121.514,-693.117 129.699,-699.844 132.108,-693.272"/>
</g>
<!-- legendNode2 -->
<g id="node3" class="node"><title>legendNode2</title>
<polygon fill="none" stroke="black" points="318.96,-670.544 318.96,-685.456 276.221,-696 215.779,-696 173.04,-685.456 173.04,-670.544 215.779,-660 276.221,-660 318.96,-670.544"/>
<polygon fill="none" stroke="black" points="322.942,-667.408 322.942,-688.592 276.703,-700 215.297,-700 169.058,-688.592 169.058,-667.408 215.297,-656 276.703,-656 322.942,-667.408"/>
<text text-anchor="middle" x="246" y="-674.9" font-family="Times,serif" font-size="12.00">Shared Library</text>
</g>
<!-- legendNode0&#45;&gt;legendNode2 -->
<g id="edge2" class="edge"><title>legendNode0&#45;&gt;legendNode2</title>
<path fill="none" stroke="black" d="M318.267,-754.552C305.777,-741.494 288.016,-722.925 273.227,-707.465"/>
<polygon fill="black" stroke="black" points="275.684,-704.97 266.242,-700.163 270.625,-709.808 275.684,-704.97"/>
</g>
<!-- legendNode3 -->
<g id="node4" class="node"><title>legendNode3</title>
<polygon fill="none" stroke="black" points="496.491,-670.544 496.491,-685.456 453.441,-696 392.559,-696 349.509,-685.456 349.509,-670.544 392.559,-660 453.441,-660 496.491,-670.544"/>
<polygon fill="none" stroke="black" points="500.466,-667.401 500.466,-688.599 453.918,-700 392.082,-700 345.534,-688.599 345.534,-667.401 392.082,-656 453.918,-656 500.466,-667.401"/>
<polygon fill="none" stroke="black" points="504.44,-664.258 504.44,-691.742 454.394,-704 391.606,-704 341.56,-691.742 341.56,-664.258 391.606,-652 454.394,-652 504.44,-664.258"/>
<text text-anchor="middle" x="423" y="-674.9" font-family="Times,serif" font-size="12.00">Module Library</text>
</g>
<!-- legendNode0&#45;&gt;legendNode3 -->
<!-- legendNode7 -->
<g id="node8" class="node"><title>legendNode7</title>
<polygon fill="none" stroke="black" points="629,-696 523,-696 523,-660 629,-660 629,-696"/>
<text text-anchor="middle" x="576" y="-674.9" font-family="Times,serif" font-size="12.00">Custom Target</text>
</g>
<!-- legendNode0&#45;&gt;legendNode7 -->
<!-- legendNode4 -->
<g id="node5" class="node"><title>legendNode4</title>
<polygon fill="none" stroke="black" points="200.105,-579.562 108,-592 15.8953,-579.562 51.0762,-559.438 164.924,-559.438 200.105,-579.562"/>
<text text-anchor="middle" x="108" y="-570.9" font-family="Times,serif" font-size="12.00">Interface Library</text>
</g>
<!-- legendNode1&#45;&gt;legendNode4 -->
<g id="edge4" class="edge"><title>legendNode1&#45;&gt;legendNode4</title>
<path fill="none" stroke="black" stroke-dasharray="5,2" d="M87.2409,-659.697C91.1486,-643.754 97.0055,-619.857 101.503,-601.508"/>
<polygon fill="black" stroke="black" points="104.923,-602.255 103.905,-591.709 98.1246,-600.589 104.923,-602.255"/>
<text text-anchor="middle" x="130.5" y="-622.3" font-family="Times,serif" font-size="14.00">Interface</text>
</g>
<!-- legendNode5 -->
<g id="node6" class="node"><title>legendNode5</title>
<polygon fill="none" stroke="black" points="367.454,-574 330.227,-592 255.773,-592 218.546,-574 255.773,-556 330.227,-556 367.454,-574"/>
<text text-anchor="middle" x="293" y="-570.9" font-family="Times,serif" font-size="12.00">Object Library</text>
</g>
<!-- legendNode2&#45;&gt;legendNode5 -->
<g id="edge5" class="edge"><title>legendNode2&#45;&gt;legendNode5</title>
<path fill="none" stroke="black" stroke-dasharray="1,5" d="M255.738,-655.866C263.021,-640.061 273.026,-618.349 280.835,-601.402"/>
<polygon fill="black" stroke="black" points="284.135,-602.602 285.142,-592.055 277.778,-599.672 284.135,-602.602"/>
<text text-anchor="middle" x="299" y="-622.3" font-family="Times,serif" font-size="14.00">Private</text>
</g>
<!-- legendNode6 -->
<g id="node7" class="node"><title>legendNode6</title>
<polygon fill="none" stroke="black" points="554.584,-569.995 537.831,-585.223 470,-592 402.169,-585.223 385.416,-569.995 432.357,-557.783 507.643,-557.783 554.584,-569.995"/>
<text text-anchor="middle" x="470" y="-570.9" font-family="Times,serif" font-size="12.00">Unknown Library</text>
</g>
<!-- legendNode3&#45;&gt;legendNode6 -->
<g id="edge6" class="edge"><title>legendNode3&#45;&gt;legendNode6</title>
<path fill="none" stroke="black" d="M434.618,-651.787C441.822,-636.153 451.047,-616.132 458.271,-600.454"/>
<polygon fill="black" stroke="black" points="461.468,-601.878 462.475,-591.331 455.111,-598.949 461.468,-601.878"/>
</g>
<!-- node0 -->
<g id="node9" class="node"><title>node0</title>
<polygon fill="none" stroke="black" points="2228.45,-563.212 2228.45,-584.788 2159.06,-600.045 2060.94,-600.045 1991.55,-584.788 1991.55,-563.212 2060.94,-547.955 2159.06,-547.955 2228.45,-563.212"/>
<text text-anchor="middle" x="2110" y="-577.4" font-family="Times,serif" font-size="12.00">AggregatorLib</text>
<text text-anchor="middle" x="2110" y="-564.4" font-family="Times,serif" font-size="12.00">(TMIV::AggregatorLib)</text>
</g>
<!-- node1 -->
<g id="node10" class="node"><title>node1</title>
<polygon fill="none" stroke="black" points="2007.08,-105.212 2007.08,-126.788 1944.94,-142.045 1857.06,-142.045 1794.92,-126.788 1794.92,-105.212 1857.06,-89.955 1944.94,-89.955 2007.08,-105.212"/>
<text text-anchor="middle" x="1901" y="-119.4" font-family="Times,serif" font-size="12.00">CommonLib</text>
<text text-anchor="middle" x="1901" y="-106.4" font-family="Times,serif" font-size="12.00">(TMIV::CommonLib)</text>
</g>
<!-- node0&#45;&gt;node1 -->
<g id="edge9" class="edge"><title>node0&#45;&gt;node1</title>
<path fill="none" stroke="black" d="M2208.8,-558.845C2248.92,-546.972 2286,-525.141 2286,-485 2286,-485 2286,-485 2286,-205 2286,-149.26 2130.7,-128.826 2017.36,-121.335"/>
<polygon fill="black" stroke="black" points="2017.42,-117.832 2007.22,-120.692 2016.98,-124.818 2017.42,-117.832"/>
</g>
<!-- node2 -->
<g id="node11" class="node"><title>node2</title>
<polygon fill="none" stroke="black" points="1957.46,-15.2118 1957.46,-36.7882 1924.38,-52.045 1877.62,-52.045 1844.54,-36.7882 1844.54,-15.2118 1877.62,0.0449662 1924.38,0.0449662 1957.46,-15.2118"/>
<text text-anchor="middle" x="1901" y="-29.4" font-family="Times,serif" font-size="12.00">fmt</text>
<text text-anchor="middle" x="1901" y="-16.4" font-family="Times,serif" font-size="12.00">(fmt::fmt)</text>
</g>
<!-- node1&#45;&gt;node2 -->
<g id="edge8" class="edge"><title>node1&#45;&gt;node2</title>
<path fill="none" stroke="black" d="M1901,-89.5468C1901,-80.9903 1901,-71.2885 1901,-62.1229"/>
<polygon fill="black" stroke="black" points="1904.5,-62.0921 1901,-52.0921 1897.5,-62.0922 1904.5,-62.0921"/>
</g>
<!-- node3 -->
<g id="node12" class="node"><title>node3</title>
<polygon fill="none" stroke="black" points="2198.05,-278.049 2202.05,-278.148 2206.01,-278.295 2209.91,-278.491 2213.74,-278.735 2217.49,-279.027 2221.12,-279.364 2224.64,-279.748 2228.03,-280.176 2231.28,-280.647 2234.37,-281.161 2237.3,-281.715 2240.04,-282.308 2242.61,-282.939 2244.98,-283.605 2247.15,-284.306 2249.12,-285.039 2250.88,-285.801 2252.43,-286.592 2253.77,-287.408 2254.89,-288.248 2255.8,-289.109 2256.5,-289.989 2256.98,-290.886 2257.26,-291.797 2257.33,-292.719 2257.21,-293.65 2256.89,-294.587 2256.39,-295.529 2255.71,-296.471 2254.86,-297.413 2253.84,-298.35 2252.67,-299.281 2251.35,-300.203 2249.89,-301.114 2248.3,-302.011 2246.59,-302.891 2244.77,-303.752 2242.85,-304.592 2240.83,-305.408 2238.73,-306.199 2236.54,-306.961 2234.29,-307.694 2231.97,-308.395 2229.6,-309.061 2227.18,-309.692 2224.72,-310.285 2222.21,-310.839 2219.68,-311.353 2217.11,-311.824 2214.52,-312.252 2211.92,-312.636 2209.29,-312.973 2206.65,-313.265 2204,-313.509 2201.34,-313.705 2198.68,-313.852 2196.01,-313.951 2193.34,-314 2190.66,-314 2187.99,-313.951 2185.32,-313.852 2182.66,-313.705 2180,-313.509 2177.35,-313.265 2174.71,-312.973 2172.08,-312.636 2169.48,-312.252 2166.89,-311.824 2164.32,-311.353 2161.79,-310.839 2159.28,-310.285 2156.82,-309.692 2154.4,-309.061 2152.03,-308.395 2149.71,-307.694 2147.46,-306.961 2145.27,-306.199 2143.17,-305.408 2141.15,-304.592 2139.23,-303.752 2137.41,-302.891 2135.7,-302.011 2134.11,-301.114 2132.65,-300.203 2131.33,-299.281 2130.16,-298.35 2129.14,-297.413 2128.29,-296.471 2127.61,-295.529 2127.11,-294.587 2126.79,-293.65 2126.67,-292.719 2126.74,-291.797 2127.02,-290.886 2127.5,-289.989 2128.2,-289.109 2129.11,-288.248 2130.23,-287.408 2131.57,-286.592 2133.12,-285.801 2134.88,-285.039 2136.85,-284.306 2139.02,-283.605 2141.39,-282.939 2143.96,-282.308 2146.7,-281.715 2149.63,-281.161 2152.72,-280.647 2155.97,-280.176 2159.36,-279.748 2162.88,-279.364 2166.51,-279.027 2170.26,-278.735 2174.09,-278.491 2177.99,-278.295 2181.95,-278.148 2185.95,-278.049 2189.98,-278 2194.02,-278 2198.05,-278.049"/>
<text text-anchor="middle" x="2192" y="-292.9" font-family="Times,serif" font-size="12.00">BitrateReport</text>
</g>
<!-- node4 -->
<g id="node13" class="node"><title>node4</title>
<polygon fill="none" stroke="black" points="2028.23,-195.212 2028.23,-216.788 1953.7,-232.045 1848.3,-232.045 1773.77,-216.788 1773.77,-195.212 1848.3,-179.955 1953.7,-179.955 2028.23,-195.212"/>
<text text-anchor="middle" x="1901" y="-209.4" font-family="Times,serif" font-size="12.00">MivBitstreamLib</text>
<text text-anchor="middle" x="1901" y="-196.4" font-family="Times,serif" font-size="12.00">(TMIV::MivBitstreamLib)</text>
</g>
<!-- node3&#45;&gt;node4 -->
<g id="edge11" class="edge"><title>node3&#45;&gt;node4</title>
<path fill="none" stroke="black" stroke-dasharray="1,5" d="M2167.75,-278.724C2152.36,-269.08 2131.71,-257.345 2112,-250 2081.28,-238.554 2046.86,-229.904 2014.86,-223.478"/>
<polygon fill="black" stroke="black" points="2015.51,-220.037 2005.02,-221.554 2014.16,-226.907 2015.51,-220.037"/>
</g>
<!-- node4&#45;&gt;node1 -->
<g id="edge10" class="edge"><title>node4&#45;&gt;node1</title>
<path fill="none" stroke="black" d="M1901,-179.547C1901,-170.99 1901,-161.289 1901,-152.123"/>
<polygon fill="black" stroke="black" points="1904.5,-152.092 1901,-142.092 1897.5,-152.092 1904.5,-152.092"/>
</g>
<!-- node5 -->
<g id="node14" class="node"><title>node5</title>
<polygon fill="none" stroke="black" points="1841.01,-399.251 1737,-419.936 1632.99,-399.251 1672.72,-365.781 1801.28,-365.781 1841.01,-399.251"/>
<text text-anchor="middle" x="1737" y="-393.4" font-family="Times,serif" font-size="12.00">Catch2</text>
<text text-anchor="middle" x="1737" y="-380.4" font-family="Times,serif" font-size="12.00">(Catch2::Catch2)</text>
</g>
<!-- node6 -->
<g id="node15" class="node"><title>node6</title>
<polygon fill="none" stroke="black" points="1341.73,-466.049 1345.52,-466.148 1349.28,-466.295 1352.98,-466.491 1356.61,-466.735 1360.15,-467.027 1363.6,-467.364 1366.94,-467.748 1370.15,-468.176 1373.23,-468.647 1376.16,-469.161 1378.93,-469.715 1381.53,-470.308 1383.96,-470.939 1386.21,-471.605 1388.27,-472.306 1390.14,-473.039 1391.81,-473.801 1393.27,-474.592 1394.54,-475.408 1395.6,-476.248 1396.47,-477.109 1397.12,-477.989 1397.58,-478.886 1397.85,-479.797 1397.92,-480.719 1397.8,-481.65 1397.5,-482.587 1397.03,-483.529 1396.38,-484.471 1395.57,-485.413 1394.61,-486.35 1393.5,-487.281 1392.24,-488.203 1390.86,-489.114 1389.36,-490.011 1387.74,-490.891 1386.01,-491.752 1384.19,-492.592 1382.28,-493.408 1380.28,-494.199 1378.21,-494.961 1376.08,-495.694 1373.88,-496.395 1371.64,-497.061 1369.34,-497.692 1367.01,-498.285 1364.63,-498.839 1362.23,-499.353 1359.8,-499.824 1357.35,-500.252 1354.87,-500.636 1352.39,-500.973 1349.89,-501.265 1347.37,-501.509 1344.85,-501.705 1342.33,-501.852 1339.8,-501.951 1337.27,-502 1334.73,-502 1332.2,-501.951 1329.67,-501.852 1327.15,-501.705 1324.63,-501.509 1322.11,-501.265 1319.61,-500.973 1317.13,-500.636 1314.65,-500.252 1312.2,-499.824 1309.77,-499.353 1307.37,-498.839 1304.99,-498.285 1302.66,-497.692 1300.36,-497.061 1298.12,-496.395 1295.92,-495.694 1293.79,-494.961 1291.72,-494.199 1289.72,-493.408 1287.81,-492.592 1285.99,-491.752 1284.26,-490.891 1282.64,-490.011 1281.14,-489.114 1279.76,-488.203 1278.5,-487.281 1277.39,-486.35 1276.43,-485.413 1275.62,-484.471 1274.97,-483.529 1274.5,-482.587 1274.2,-481.65 1274.08,-480.719 1274.15,-479.797 1274.42,-478.886 1274.88,-477.989 1275.53,-477.109 1276.4,-476.248 1277.46,-475.408 1278.73,-474.592 1280.19,-473.801 1281.86,-473.039 1283.73,-472.306 1285.79,-471.605 1288.04,-470.939 1290.47,-470.308 1293.07,-469.715 1295.84,-469.161 1298.77,-468.647 1301.85,-468.176 1305.06,-467.748 1308.4,-467.364 1311.85,-467.027 1315.39,-466.735 1319.02,-466.491 1322.72,-466.295 1326.48,-466.148 1330.27,-466.049 1334.09,-466 1337.91,-466 1341.73,-466.049"/>
<text text-anchor="middle" x="1336" y="-480.9" font-family="Times,serif" font-size="12.00">CommonTest</text>
</g>
<!-- node6&#45;&gt;node5 -->
<g id="edge12" class="edge"><title>node6&#45;&gt;node5</title>
<path fill="none" stroke="black" stroke-dasharray="1,5" d="M1373.76,-468.614C1384.7,-464.797 1396.73,-460.928 1408,-458 1502.34,-433.491 1528.72,-440.575 1624,-420 1637.46,-417.093 1651.74,-413.684 1665.46,-410.246"/>
<polygon fill="black" stroke="black" points="1666.5,-413.594 1675.33,-407.743 1664.78,-406.809 1666.5,-413.594"/>
</g>
<!-- node6&#45;&gt;node1 -->
<g id="edge13" class="edge"><title>node6&#45;&gt;node1</title>
<path fill="none" stroke="black" stroke-dasharray="1,5" d="M1307.56,-467.298C1283.19,-451.523 1252,-424.74 1252,-391 1252,-391 1252,-391 1252,-205 1252,-151.861 1598.06,-129.405 1784.78,-121.156"/>
<polygon fill="black" stroke="black" points="1785.08,-124.646 1794.92,-120.715 1784.78,-117.653 1785.08,-124.646"/>
</g>
<!-- node7 -->
<g id="node16" class="node"><title>node7</title>
<polygon fill="none" stroke="black" points="694.106,-556.049 696.824,-556.148 699.514,-556.295 702.165,-556.491 704.766,-556.735 707.307,-557.027 709.778,-557.364 712.168,-557.748 714.47,-558.176 716.674,-558.647 718.773,-559.161 720.759,-559.715 722.625,-560.308 724.367,-560.939 725.977,-561.605 727.453,-562.306 728.791,-563.039 729.987,-563.801 731.039,-564.592 731.947,-565.408 732.709,-566.248 733.326,-567.109 733.798,-567.989 734.127,-568.886 734.316,-569.797 734.367,-570.719 734.283,-571.65 734.068,-572.587 733.727,-573.529 733.264,-574.471 732.685,-575.413 731.994,-576.35 731.198,-577.281 730.301,-578.203 729.311,-579.114 728.232,-580.011 727.072,-580.891 725.836,-581.752 724.53,-582.592 723.159,-583.408 721.73,-584.199 720.248,-584.961 718.718,-585.694 717.146,-586.395 715.535,-587.061 713.891,-587.692 712.216,-588.285 710.517,-588.839 708.794,-589.353 707.053,-589.824 705.295,-590.252 703.524,-590.636 701.741,-590.973 699.949,-591.265 698.15,-591.509 696.345,-591.705 694.535,-591.852 692.722,-591.951 690.908,-592 689.092,-592 687.278,-591.951 685.465,-591.852 683.655,-591.705 681.85,-591.509 680.051,-591.265 678.259,-590.973 676.476,-590.636 674.705,-590.252 672.947,-589.824 671.206,-589.353 669.483,-588.839 667.784,-588.285 666.109,-587.692 664.465,-587.061 662.854,-586.395 661.282,-585.694 659.752,-584.961 658.27,-584.199 656.841,-583.408 655.47,-582.592 654.164,-581.752 652.928,-580.891 651.768,-580.011 650.689,-579.114 649.699,-578.203 648.802,-577.281 648.006,-576.35 647.315,-575.413 646.736,-574.471 646.273,-573.529 645.932,-572.587 645.717,-571.65 645.633,-570.719 645.684,-569.797 645.873,-568.886 646.202,-567.989 646.674,-567.109 647.291,-566.248 648.053,-565.408 648.961,-564.592 650.013,-563.801 651.209,-563.039 652.547,-562.306 654.023,-561.605 655.633,-560.939 657.375,-560.308 659.241,-559.715 661.227,-559.161 663.326,-558.647 665.53,-558.176 667.832,-557.748 670.222,-557.364 672.693,-557.027 675.234,-556.735 677.835,-556.491 680.486,-556.295 683.176,-556.148 685.894,-556.049 688.63,-556 691.37,-556 694.106,-556.049"/>
<text text-anchor="middle" x="690" y="-570.9" font-family="Times,serif" font-size="12.00">Decoder</text>
</g>
<!-- node8 -->
<g id="node17" class="node"><title>node8</title>
<polygon fill="none" stroke="black" points="911.135,-379.212 911.135,-400.788 850.134,-416.045 763.866,-416.045 702.865,-400.788 702.865,-379.212 763.866,-363.955 850.134,-363.955 911.135,-379.212"/>
<text text-anchor="middle" x="807" y="-393.4" font-family="Times,serif" font-size="12.00">DecoderLib</text>
<text text-anchor="middle" x="807" y="-380.4" font-family="Times,serif" font-size="12.00">(TMIV::DecoderLib)</text>
</g>
<!-- node7&#45;&gt;node8 -->
<g id="edge25" class="edge"><title>node7&#45;&gt;node8</title>
<path fill="none" stroke="black" stroke-dasharray="1,5" d="M690.216,-555.97C691.276,-532.179 696.056,-488.492 716,-458 725.338,-443.724 738.831,-431.416 752.579,-421.386"/>
<polygon fill="black" stroke="black" points="754.923,-424.019 761.138,-415.439 750.929,-418.271 754.923,-424.019"/>
</g>
<!-- node17 -->
<g id="node26" class="node"><title>node17</title>
<polygon fill="none" stroke="black" points="876.159,-473.212 876.159,-494.788 832.132,-510.045 769.868,-510.045 725.841,-494.788 725.841,-473.212 769.868,-457.955 832.132,-457.955 876.159,-473.212"/>
<text text-anchor="middle" x="801" y="-487.4" font-family="Times,serif" font-size="12.00">IOLib</text>
<text text-anchor="middle" x="801" y="-474.4" font-family="Times,serif" font-size="12.00">(TMIV::IOLib)</text>
</g>
<!-- node7&#45;&gt;node17 -->
<g id="edge27" class="edge"><title>node7&#45;&gt;node17</title>
<path fill="none" stroke="black" stroke-dasharray="1,5" d="M709.845,-557.267C723.992,-546.051 743.5,-530.585 760.84,-516.838"/>
<polygon fill="black" stroke="black" points="763.484,-519.209 769.145,-510.254 759.135,-513.724 763.484,-519.209"/>
</g>
<!-- node10 -->
<g id="node19" class="node"><title>node10</title>
<polygon fill="none" stroke="black" points="1120.17,-285.212 1120.17,-306.788 1043.92,-322.045 936.082,-322.045 859.831,-306.788 859.831,-285.212 936.082,-269.955 1043.92,-269.955 1120.17,-285.212"/>
<text text-anchor="middle" x="990" y="-299.4" font-family="Times,serif" font-size="12.00">VideoDecoderLib</text>
<text text-anchor="middle" x="990" y="-286.4" font-family="Times,serif" font-size="12.00">(TMIV::VideoDecoderLib)</text>
</g>
<!-- node8&#45;&gt;node10 -->
<g id="edge21" class="edge"><title>node8&#45;&gt;node10</title>
<path fill="none" stroke="black" d="M854.603,-365.068C877.892,-353.36 906.153,-339.153 930.818,-326.753"/>
<polygon fill="black" stroke="black" points="932.715,-329.716 940.078,-322.098 929.571,-323.462 932.715,-329.716"/>
</g>
<!-- node9 -->
<g id="node18" class="node"><title>node9</title>
<polygon fill="none" stroke="black" points="1255.38,-473.212 1255.38,-494.788 1192.48,-510.045 1103.52,-510.045 1040.62,-494.788 1040.62,-473.212 1103.52,-457.955 1192.48,-457.955 1255.38,-473.212"/>
<text text-anchor="middle" x="1148" y="-487.4" font-family="Times,serif" font-size="12.00">RendererLib</text>
<text text-anchor="middle" x="1148" y="-474.4" font-family="Times,serif" font-size="12.00">(TMIV::RendererLib)</text>
</g>
<!-- node9&#45;&gt;node8 -->
<g id="edge14" class="edge"><title>node9&#45;&gt;node8</title>
<path fill="none" stroke="black" d="M1077.76,-464.049C1021.91,-448.983 943.814,-427.912 885.837,-412.27"/>
<polygon fill="black" stroke="black" points="886.551,-408.837 875.985,-409.612 884.728,-415.596 886.551,-408.837"/>
</g>
<!-- node14 -->
<g id="node23" class="node"><title>node14</title>
<polygon fill="none" stroke="black" points="1223.39,-211.562 1130,-224 1036.61,-211.562 1072.28,-191.438 1187.72,-191.438 1223.39,-211.562"/>
<text text-anchor="middle" x="1130" y="-202.9" font-family="Times,serif" font-size="12.00">Threads::Threads</text>
</g>
<!-- node9&#45;&gt;node14 -->
<g id="edge22" class="edge"><title>node9&#45;&gt;node14</title>
<path fill="none" stroke="black" stroke-dasharray="1,5" d="M1146.34,-457.529C1142.94,-405.468 1135.24,-287.291 1131.76,-233.979"/>
<polygon fill="black" stroke="black" points="1135.25,-233.678 1131.1,-223.927 1128.26,-234.134 1135.25,-233.678"/>
</g>
<!-- node16 -->
<g id="node25" class="node"><title>node16</title>
<polygon fill="none" stroke="black" points="1615.17,-379.212 1615.17,-400.788 1538.92,-416.045 1431.08,-416.045 1354.83,-400.788 1354.83,-379.212 1431.08,-363.955 1538.92,-363.955 1615.17,-379.212"/>
<text text-anchor="middle" x="1485" y="-393.4" font-family="Times,serif" font-size="12.00">ViewingSpaceLib</text>
<text text-anchor="middle" x="1485" y="-380.4" font-family="Times,serif" font-size="12.00">(TMIV::ViewingSpaceLib)</text>
</g>
<!-- node9&#45;&gt;node16 -->
<g id="edge24" class="edge"><title>node9&#45;&gt;node16</title>
<path fill="none" stroke="black" d="M1217.83,-463.938C1270.48,-449.564 1342.98,-429.772 1399.17,-414.432"/>
<polygon fill="black" stroke="black" points="1400.38,-417.729 1409.11,-411.719 1398.54,-410.976 1400.38,-417.729"/>
</g>
<!-- node10&#45;&gt;node4 -->
<g id="edge15" class="edge"><title>node10&#45;&gt;node4</title>
<path fill="none" stroke="black" d="M1084.4,-278.022C1140.01,-268.553 1211.82,-257.243 1276,-250 1443.18,-231.133 1636.52,-219.367 1763.36,-213.009"/>
<polygon fill="black" stroke="black" points="1763.71,-216.496 1773.52,-212.504 1763.36,-209.505 1763.71,-216.496"/>
</g>
<!-- node11 -->
<g id="node20" class="node"><title>node11</title>
<polygon fill="none" stroke="black" points="544.319,-195.212 544.319,-216.788 479.696,-232.045 388.304,-232.045 323.681,-216.788 323.681,-195.212 388.304,-179.955 479.696,-179.955 544.319,-195.212"/>
<text text-anchor="middle" x="434" y="-209.4" font-family="Times,serif" font-size="12.00">TLibDecoder</text>
<text text-anchor="middle" x="434" y="-196.4" font-family="Times,serif" font-size="12.00">(TMIV::TLibDecoder)</text>
</g>
<!-- node10&#45;&gt;node11 -->
<g id="edge18" class="edge"><title>node10&#45;&gt;node11</title>
<path fill="none" stroke="black" stroke-dasharray="1,5" d="M880.138,-281.14C791.576,-269.491 663.956,-251.632 553,-232 543.256,-230.276 533.09,-228.345 522.984,-226.341"/>
<polygon fill="black" stroke="black" points="523.41,-222.856 512.916,-224.317 522.03,-229.719 523.41,-222.856"/>
</g>
<!-- node10&#45;&gt;node14 -->
<g id="edge20" class="edge"><title>node10&#45;&gt;node14</title>
<path fill="none" stroke="black" stroke-dasharray="1,5" d="M1030.12,-269.783C1051.94,-256.068 1078.53,-239.356 1098.78,-226.623"/>
<polygon fill="black" stroke="black" points="1100.72,-229.539 1107.32,-221.254 1096.99,-223.613 1100.72,-229.539"/>
</g>
<!-- node12 -->
<g id="node21" class="node"><title>node12</title>
<polygon fill="none" stroke="black" points="665.263,-105.212 665.263,-126.788 599.501,-142.045 506.499,-142.045 440.737,-126.788 440.737,-105.212 506.499,-89.955 599.501,-89.955 665.263,-105.212"/>
<text text-anchor="middle" x="553" y="-119.4" font-family="Times,serif" font-size="12.00">TLibCommon</text>
<text text-anchor="middle" x="553" y="-106.4" font-family="Times,serif" font-size="12.00">(TMIV::TLibCommon)</text>
</g>
<!-- node11&#45;&gt;node12 -->
<g id="edge17" class="edge"><title>node11&#45;&gt;node12</title>
<path fill="none" stroke="black" d="M468.101,-179.783C481.42,-169.933 496.831,-158.537 510.837,-148.18"/>
<polygon fill="black" stroke="black" points="512.935,-150.981 518.894,-142.221 508.773,-145.353 512.935,-150.981"/>
</g>
<!-- node13 -->
<g id="node22" class="node"><title>node13</title>
<polygon fill="none" stroke="black" points="634.342,-15.2118 634.342,-36.7882 586.693,-52.045 519.307,-52.045 471.658,-36.7882 471.658,-15.2118 519.307,0.0449662 586.693,0.0449662 634.342,-15.2118"/>
<text text-anchor="middle" x="553" y="-29.4" font-family="Times,serif" font-size="12.00">libmd5</text>
<text text-anchor="middle" x="553" y="-16.4" font-family="Times,serif" font-size="12.00">(TMIV::libmd5)</text>
</g>
<!-- node12&#45;&gt;node13 -->
<g id="edge16" class="edge"><title>node12&#45;&gt;node13</title>
<path fill="none" stroke="black" stroke-dasharray="1,5" d="M553,-89.5468C553,-80.9903 553,-71.2885 553,-62.1229"/>
<polygon fill="black" stroke="black" points="556.5,-62.0921 553,-52.0921 549.5,-62.0922 556.5,-62.0921"/>
</g>
<!-- node15 -->
<g id="node24" class="node"><title>node15</title>
<polygon fill="none" stroke="black" points="1176.19,-111.995 1167.04,-127.223 1130,-134 1092.96,-127.223 1083.81,-111.995 1109.44,-99.7826 1150.56,-99.7826 1176.19,-111.995"/>
<text text-anchor="middle" x="1130" y="-112.9" font-family="Times,serif" font-size="12.00">&#45;pthread</text>
</g>
<!-- node14&#45;&gt;node15 -->
<g id="edge19" class="edge"><title>node14&#45;&gt;node15</title>
<path fill="none" stroke="black" stroke-dasharray="5,2" d="M1130,-191.25C1130,-178.76 1130,-159.968 1130,-144.414"/>
<polygon fill="black" stroke="black" points="1133.5,-144.281 1130,-134.281 1126.5,-144.281 1133.5,-144.281"/>
</g>
<!-- node16&#45;&gt;node4 -->
<g id="edge23" class="edge"><title>node16&#45;&gt;node4</title>
<path fill="none" stroke="black" d="M1541.54,-364.265C1618.07,-330.783 1754.35,-271.161 1835.33,-235.732"/>
<polygon fill="black" stroke="black" points="1837.16,-238.75 1844.92,-231.535 1834.36,-232.337 1837.16,-238.75"/>
</g>
<!-- node17&#45;&gt;node8 -->
<g id="edge26" class="edge"><title>node17&#45;&gt;node8</title>
<path fill="none" stroke="black" d="M802.64,-457.861C803.274,-448.125 804.013,-436.807 804.699,-426.282"/>
<polygon fill="black" stroke="black" points="808.204,-426.316 805.362,-416.109 801.219,-425.86 808.204,-426.316"/>
</g>
<!-- node18 -->
<g id="node27" class="node"><title>node18</title>
<polygon fill="none" stroke="black" points="1482.55,-466.049 1486.22,-466.148 1489.86,-466.295 1493.44,-466.491 1496.96,-466.735 1500.39,-467.027 1503.73,-467.364 1506.96,-467.748 1510.08,-468.176 1513.05,-468.647 1515.89,-469.161 1518.58,-469.715 1521.1,-470.308 1523.45,-470.939 1525.63,-471.605 1527.62,-472.306 1529.43,-473.039 1531.05,-473.801 1532.47,-474.592 1533.7,-475.408 1534.73,-476.248 1535.56,-477.109 1536.2,-477.989 1536.64,-478.886 1536.9,-479.797 1536.97,-480.719 1536.86,-481.65 1536.57,-482.587 1536.1,-483.529 1535.48,-484.471 1534.7,-485.413 1533.76,-486.35 1532.68,-487.281 1531.47,-488.203 1530.13,-489.114 1528.68,-490.011 1527.11,-490.891 1525.44,-491.752 1523.67,-492.592 1521.82,-493.408 1519.89,-494.199 1517.89,-494.961 1515.82,-495.694 1513.69,-496.395 1511.51,-497.061 1509.29,-497.692 1507.03,-498.285 1504.73,-498.839 1502.4,-499.353 1500.05,-499.824 1497.67,-500.252 1495.28,-500.636 1492.87,-500.973 1490.45,-501.265 1488.02,-501.509 1485.58,-501.705 1483.13,-501.852 1480.68,-501.951 1478.23,-502 1475.77,-502 1473.32,-501.951 1470.87,-501.852 1468.42,-501.705 1465.98,-501.509 1463.55,-501.265 1461.13,-500.973 1458.72,-500.636 1456.33,-500.252 1453.95,-499.824 1451.6,-499.353 1449.27,-498.839 1446.97,-498.285 1444.71,-497.692 1442.49,-497.061 1440.31,-496.395 1438.18,-495.694 1436.11,-494.961 1434.11,-494.199 1432.18,-493.408 1430.33,-492.592 1428.56,-491.752 1426.89,-490.891 1425.32,-490.011 1423.87,-489.114 1422.53,-488.203 1421.32,-487.281 1420.24,-486.35 1419.3,-485.413 1418.52,-484.471 1417.9,-483.529 1417.43,-482.587 1417.14,-481.65 1417.03,-480.719 1417.1,-479.797 1417.36,-478.886 1417.8,-477.989 1418.44,-477.109 1419.27,-476.248 1420.3,-475.408 1421.53,-474.592 1422.95,-473.801 1424.57,-473.039 1426.38,-472.306 1428.37,-471.605 1430.55,-470.939 1432.9,-470.308 1435.42,-469.715 1438.11,-469.161 1440.95,-468.647 1443.92,-468.176 1447.04,-467.748 1450.27,-467.364 1453.61,-467.027 1457.04,-466.735 1460.56,-466.491 1464.14,-466.295 1467.78,-466.148 1471.45,-466.049 1475.15,-466 1478.85,-466 1482.55,-466.049"/>
<text text-anchor="middle" x="1477" y="-480.9" font-family="Times,serif" font-size="12.00">DecoderTest</text>
</g>
<!-- node18&#45;&gt;node5 -->
<g id="edge28" class="edge"><title>node18&#45;&gt;node5</title>
<path fill="none" stroke="black" stroke-dasharray="1,5" d="M1515.87,-469.088C1526,-465.47 1536.91,-461.582 1547,-458 1589.51,-442.913 1637.42,-426.021 1674.49,-412.973"/>
<polygon fill="black" stroke="black" points="1675.88,-416.193 1684.15,-409.572 1673.56,-409.59 1675.88,-416.193"/>
</g>
<!-- node18&#45;&gt;node8 -->
<g id="edge29" class="edge"><title>node18&#45;&gt;node8</title>
<path fill="none" stroke="black" stroke-dasharray="1,5" d="M1441.92,-468.419C1430.92,-464.406 1418.61,-460.48 1407,-458 1194.69,-412.648 1134.17,-455.562 920,-420 908.215,-418.043 895.861,-415.448 883.827,-412.614"/>
<polygon fill="black" stroke="black" points="884.357,-409.141 873.814,-410.185 882.707,-415.944 884.357,-409.141"/>
</g>
<!-- node19 -->
<g id="node28" class="node"><title>node19</title>
<polygon fill="none" stroke="black" points="1614.28,-563.212 1614.28,-584.788 1516.87,-600.045 1379.13,-600.045 1281.72,-584.788 1281.72,-563.212 1379.13,-547.955 1516.87,-547.955 1614.28,-563.212"/>
<text text-anchor="middle" x="1448" y="-577.4" font-family="Times,serif" font-size="12.00">DepthQualityAssessorLib</text>
<text text-anchor="middle" x="1448" y="-564.4" font-family="Times,serif" font-size="12.00">(TMIV::DepthQualityAssessorLib)</text>
</g>
<!-- node19&#45;&gt;node9 -->
<g id="edge30" class="edge"><title>node19&#45;&gt;node9</title>
<path fill="none" stroke="black" d="M1368,-549.533C1323.62,-536.516 1268.71,-520.408 1224.85,-507.542"/>
<polygon fill="black" stroke="black" points="1225.67,-504.137 1215.09,-504.681 1223.7,-510.854 1225.67,-504.137"/>
</g>
<!-- node20 -->
<g id="node29" class="node"><title>node20</title>
<polygon fill="none" stroke="black" points="1015.11,-754.049 1017.82,-754.148 1020.51,-754.295 1023.16,-754.491 1025.77,-754.735 1028.31,-755.027 1030.78,-755.364 1033.17,-755.748 1035.47,-756.176 1037.67,-756.647 1039.77,-757.161 1041.76,-757.715 1043.63,-758.308 1045.37,-758.939 1046.98,-759.605 1048.45,-760.306 1049.79,-761.039 1050.99,-761.801 1052.04,-762.592 1052.95,-763.408 1053.71,-764.248 1054.33,-765.109 1054.8,-765.989 1055.13,-766.886 1055.32,-767.797 1055.37,-768.719 1055.28,-769.65 1055.07,-770.587 1054.73,-771.529 1054.26,-772.471 1053.68,-773.413 1052.99,-774.35 1052.2,-775.281 1051.3,-776.203 1050.31,-777.114 1049.23,-778.011 1048.07,-778.891 1046.84,-779.752 1045.53,-780.592 1044.16,-781.408 1042.73,-782.199 1041.25,-782.961 1039.72,-783.694 1038.15,-784.395 1036.54,-785.061 1034.89,-785.692 1033.22,-786.285 1031.52,-786.839 1029.79,-787.353 1028.05,-787.824 1026.3,-788.252 1024.52,-788.636 1022.74,-788.973 1020.95,-789.265 1019.15,-789.509 1017.34,-789.705 1015.53,-789.852 1013.72,-789.951 1011.91,-790 1010.09,-790 1008.28,-789.951 1006.47,-789.852 1004.66,-789.705 1002.85,-789.509 1001.05,-789.265 999.259,-788.973 997.476,-788.636 995.705,-788.252 993.947,-787.824 992.206,-787.353 990.483,-786.839 988.784,-786.285 987.109,-785.692 985.465,-785.061 983.854,-784.395 982.282,-783.694 980.752,-782.961 979.27,-782.199 977.841,-781.408 976.47,-780.592 975.164,-779.752 973.928,-778.891 972.768,-778.011 971.689,-777.114 970.699,-776.203 969.802,-775.281 969.006,-774.35 968.315,-773.413 967.736,-772.471 967.273,-771.529 966.932,-770.587 966.717,-769.65 966.633,-768.719 966.684,-767.797 966.873,-766.886 967.202,-765.989 967.674,-765.109 968.291,-764.248 969.053,-763.408 969.961,-762.592 971.013,-761.801 972.209,-761.039 973.547,-760.306 975.023,-759.605 976.633,-758.939 978.375,-758.308 980.241,-757.715 982.227,-757.161 984.326,-756.647 986.53,-756.176 988.832,-755.748 991.222,-755.364 993.693,-755.027 996.234,-754.735 998.835,-754.491 1001.49,-754.295 1004.18,-754.148 1006.89,-754.049 1009.63,-754 1012.37,-754 1015.11,-754.049"/>
<text text-anchor="middle" x="1011" y="-768.9" font-family="Times,serif" font-size="12.00">Encoder</text>
</g>
<!-- node21 -->
<g id="node30" class="node"><title>node21</title>
<polygon fill="none" stroke="black" points="1834.13,-667.212 1834.13,-688.788 1773.13,-704.045 1686.87,-704.045 1625.87,-688.788 1625.87,-667.212 1686.87,-651.955 1773.13,-651.955 1834.13,-667.212"/>
<text text-anchor="middle" x="1730" y="-681.4" font-family="Times,serif" font-size="12.00">EncoderLib</text>
<text text-anchor="middle" x="1730" y="-668.4" font-family="Times,serif" font-size="12.00">(TMIV::EncoderLib)</text>
</g>
<!-- node20&#45;&gt;node21 -->
<g id="edge41" class="edge"><title>node20&#45;&gt;node21</title>
<path fill="none" stroke="black" stroke-dasharray="1,5" d="M1034.3,-755.858C1043.51,-750.59 1054.41,-745.203 1065,-742 1164.96,-711.773 1453.42,-692.895 1615.67,-684.358"/>
<polygon fill="black" stroke="black" points="1615.89,-687.852 1625.69,-683.836 1615.52,-680.861 1615.89,-687.852"/>
</g>
<!-- node20&#45;&gt;node17 -->
<g id="edge42" class="edge"><title>node20&#45;&gt;node17</title>
<path fill="none" stroke="black" stroke-dasharray="1,5" d="M979.764,-757.805C929.535,-734.566 832.915,-681 798,-600 787.188,-574.917 788.784,-543.813 792.617,-520.28"/>
<polygon fill="black" stroke="black" points="796.072,-520.841 794.432,-510.374 789.187,-519.58 796.072,-520.841"/>
</g>
<!-- node21&#45;&gt;node0 -->
<g id="edge31" class="edge"><title>node21&#45;&gt;node0</title>
<path fill="none" stroke="black" d="M1799.26,-658.41C1863.22,-641.24 1958.36,-615.702 2026.51,-597.412"/>
<polygon fill="black" stroke="black" points="2027.61,-600.74 2036.36,-594.767 2025.79,-593.98 2027.61,-600.74"/>
</g>
<!-- node21&#45;&gt;node19 -->
<g id="edge32" class="edge"><title>node21&#45;&gt;node19</title>
<path fill="none" stroke="black" d="M1671.23,-655.742C1629.33,-640.588 1572.55,-620.05 1526.74,-603.481"/>
<polygon fill="black" stroke="black" points="1527.74,-600.119 1517.14,-600.009 1525.35,-606.701 1527.74,-600.119"/>
</g>
<!-- node22 -->
<g id="node31" class="node"><title>node22</title>
<polygon fill="none" stroke="black" points="2218.05,-379.212 2218.05,-400.788 2127.23,-416.045 1998.77,-416.045 1907.95,-400.788 1907.95,-379.212 1998.77,-363.955 2127.23,-363.955 2218.05,-379.212"/>
<text text-anchor="middle" x="2063" y="-393.4" font-family="Times,serif" font-size="12.00">GeometryQuantizerLib</text>
<text text-anchor="middle" x="2063" y="-380.4" font-family="Times,serif" font-size="12.00">(TMIV::GeometryQuantizerLib)</text>
</g>
<!-- node21&#45;&gt;node22 -->
<g id="edge34" class="edge"><title>node21&#45;&gt;node22</title>
<path fill="none" stroke="black" d="M1834.05,-676.515C1967.01,-673.427 2186.11,-659.202 2237,-600 2281.78,-547.911 2226.02,-505.079 2176,-458 2161.08,-443.956 2142.72,-431.518 2125.16,-421.287"/>
<polygon fill="black" stroke="black" points="2126.5,-418.026 2116.08,-416.142 2123.05,-424.116 2126.5,-418.026"/>
</g>
<!-- node23 -->
<g id="node32" class="node"><title>node23</title>
<polygon fill="none" stroke="black" points="2479.3,-563.212 2479.3,-584.788 2422.3,-600.045 2341.7,-600.045 2284.7,-584.788 2284.7,-563.212 2341.7,-547.955 2422.3,-547.955 2479.3,-563.212"/>
<text text-anchor="middle" x="2382" y="-577.4" font-family="Times,serif" font-size="12.00">PackerLib</text>
<text text-anchor="middle" x="2382" y="-564.4" font-family="Times,serif" font-size="12.00">(TMIV::PackerLib)</text>
</g>
<!-- node21&#45;&gt;node23 -->
<g id="edge36" class="edge"><title>node21&#45;&gt;node23</title>
<path fill="none" stroke="black" d="M1834.15,-673.757C1967.79,-668.725 2191.8,-657.111 2271,-634 2293.25,-627.508 2316.13,-616.251 2335.3,-605.299"/>
<polygon fill="black" stroke="black" points="2337.26,-608.213 2344.12,-600.139 2333.72,-602.172 2337.26,-608.213"/>
</g>
<!-- node24 -->
<g id="node33" class="node"><title>node24</title>
<polygon fill="none" stroke="black" points="1827.3,-563.212 1827.3,-584.788 1770.3,-600.045 1689.7,-600.045 1632.7,-584.788 1632.7,-563.212 1689.7,-547.955 1770.3,-547.955 1827.3,-563.212"/>
<text text-anchor="middle" x="1730" y="-577.4" font-family="Times,serif" font-size="12.00">PrunerLib</text>
<text text-anchor="middle" x="1730" y="-564.4" font-family="Times,serif" font-size="12.00">(TMIV::PrunerLib)</text>
</g>
<!-- node21&#45;&gt;node24 -->
<g id="edge38" class="edge"><title>node21&#45;&gt;node24</title>
<path fill="none" stroke="black" d="M1730,-651.787C1730,-639.282 1730,-623.97 1730,-610.318"/>
<polygon fill="black" stroke="black" points="1733.5,-610.277 1730,-600.277 1726.5,-610.277 1733.5,-610.277"/>
</g>
<!-- node25 -->
<g id="node34" class="node"><title>node25</title>
<polygon fill="none" stroke="black" points="1263.26,-563.212 1263.26,-584.788 1185.2,-600.045 1074.8,-600.045 996.739,-584.788 996.739,-563.212 1074.8,-547.955 1185.2,-547.955 1263.26,-563.212"/>
<text text-anchor="middle" x="1130" y="-577.4" font-family="Times,serif" font-size="12.00">ViewOptimizerLib</text>
<text text-anchor="middle" x="1130" y="-564.4" font-family="Times,serif" font-size="12.00">(TMIV::ViewOptimizerLib)</text>
</g>
<!-- node21&#45;&gt;node25 -->
<g id="edge40" class="edge"><title>node21&#45;&gt;node25</title>
<path fill="none" stroke="black" d="M1643.44,-662.652C1551.32,-647.334 1401.32,-622.255 1272,-600 1260.44,-598.01 1248.35,-595.911 1236.31,-593.809"/>
<polygon fill="black" stroke="black" points="1236.68,-590.32 1226.23,-592.045 1235.47,-597.215 1236.68,-590.32"/>
</g>
<!-- node22&#45;&gt;node4 -->
<g id="edge33" class="edge"><title>node22&#45;&gt;node4</title>
<path fill="none" stroke="black" d="M2048.09,-363.802C2032.56,-338.626 2006.67,-299.522 1979,-270 1968.55,-258.855 1956.11,-247.949 1944.25,-238.426"/>
<polygon fill="black" stroke="black" points="1946.2,-235.503 1936.18,-232.069 1941.87,-241.004 1946.2,-235.503"/>
</g>
<!-- node23&#45;&gt;node4 -->
<g id="edge35" class="edge"><title>node23&#45;&gt;node4</title>
<path fill="none" stroke="black" d="M2370.16,-547.786C2348.12,-503.499 2296.66,-411.56 2227,-360 2185.43,-329.228 2164.42,-342.662 2117,-322 2085.61,-308.324 2008.13,-266.284 1955.03,-237.017"/>
<polygon fill="black" stroke="black" points="1956.52,-233.841 1946.08,-232.073 1953.14,-239.97 1956.52,-233.841"/>
</g>
<!-- node24&#45;&gt;node9 -->
<g id="edge37" class="edge"><title>node24&#45;&gt;node9</title>
<path fill="none" stroke="black" d="M1660.9,-555.536C1648.34,-552.739 1635.32,-550.085 1623,-548 1465.24,-521.302 1423.01,-535.196 1265,-510 1254.9,-508.389 1244.35,-506.472 1233.9,-504.427"/>
<polygon fill="black" stroke="black" points="1234.43,-500.963 1223.94,-502.433 1233.06,-507.827 1234.43,-500.963"/>
</g>
<!-- node25&#45;&gt;node9 -->
<g id="edge39" class="edge"><title>node25&#45;&gt;node9</title>
<path fill="none" stroke="black" d="M1135.21,-547.547C1136.96,-538.99 1138.94,-529.289 1140.82,-520.123"/>
<polygon fill="black" stroke="black" points="1144.29,-520.591 1142.87,-510.092 1137.43,-519.188 1144.29,-520.591"/>
</g>
<!-- node26 -->
<g id="node35" class="node"><title>node26</title>
<polygon fill="none" stroke="black" points="2072.65,-466.049 2079.05,-466.148 2085.37,-466.295 2091.61,-466.491 2097.72,-466.735 2103.7,-467.027 2109.51,-467.364 2115.13,-467.748 2120.55,-468.176 2125.73,-468.647 2130.66,-469.161 2135.33,-469.715 2139.72,-470.308 2143.82,-470.939 2147.61,-471.605 2151.08,-472.306 2154.22,-473.039 2157.03,-473.801 2159.51,-474.592 2161.64,-475.408 2163.44,-476.248 2164.89,-477.109 2166,-477.989 2166.77,-478.886 2167.22,-479.797 2167.34,-480.719 2167.14,-481.65 2166.63,-482.587 2165.83,-483.529 2164.74,-484.471 2163.38,-485.413 2161.76,-486.35 2159.88,-487.281 2157.77,-488.203 2155.44,-489.114 2152.91,-490.011 2150.18,-490.891 2147.27,-491.752 2144.2,-492.592 2140.98,-493.408 2137.62,-494.199 2134.13,-494.961 2130.54,-495.694 2126.84,-496.395 2123.05,-497.061 2119.18,-497.692 2115.25,-498.285 2111.25,-498.839 2107.2,-499.353 2103.1,-499.824 2098.97,-500.252 2094.8,-500.636 2090.61,-500.973 2086.4,-501.265 2082.17,-501.509 2077.92,-501.705 2073.66,-501.852 2069.4,-501.951 2065.13,-502 2060.87,-502 2056.6,-501.951 2052.34,-501.852 2048.08,-501.705 2043.83,-501.509 2039.6,-501.265 2035.39,-500.973 2031.2,-500.636 2027.03,-500.252 2022.9,-499.824 2018.8,-499.353 2014.75,-498.839 2010.75,-498.285 2006.82,-497.692 2002.95,-497.061 1999.16,-496.395 1995.46,-495.694 1991.87,-494.961 1988.38,-494.199 1985.02,-493.408 1981.8,-492.592 1978.73,-491.752 1975.82,-490.891 1973.09,-490.011 1970.56,-489.114 1968.23,-488.203 1966.12,-487.281 1964.24,-486.35 1962.62,-485.413 1961.26,-484.471 1960.17,-483.529 1959.37,-482.587 1958.86,-481.65 1958.66,-480.719 1958.78,-479.797 1959.23,-478.886 1960,-477.989 1961.11,-477.109 1962.56,-476.248 1964.36,-475.408 1966.49,-474.592 1968.97,-473.801 1971.78,-473.039 1974.92,-472.306 1978.39,-471.605 1982.18,-470.939 1986.28,-470.308 1990.67,-469.715 1995.34,-469.161 2000.27,-468.647 2005.45,-468.176 2010.87,-467.748 2016.49,-467.364 2022.3,-467.027 2028.28,-466.735 2034.39,-466.491 2040.63,-466.295 2046.95,-466.148 2053.35,-466.049 2059.78,-466 2066.22,-466 2072.65,-466.049"/>
<text text-anchor="middle" x="2063" y="-480.9" font-family="Times,serif" font-size="12.00">GeometryQuantizerTest</text>
</g>
<!-- node26&#45;&gt;node5 -->
<g id="edge43" class="edge"><title>node26&#45;&gt;node5</title>
<path fill="none" stroke="black" stroke-dasharray="1,5" d="M2009.17,-467.808C1953.92,-452.217 1867.71,-427.887 1807.15,-410.797"/>
<polygon fill="black" stroke="black" points="1807.86,-407.36 1797.28,-408.012 1805.96,-414.097 1807.86,-407.36"/>
</g>
<!-- node26&#45;&gt;node22 -->
<g id="edge44" class="edge"><title>node26&#45;&gt;node22</title>
<path fill="none" stroke="black" stroke-dasharray="1,5" d="M2063,-465.696C2063,-454.688 2063,-440.031 2063,-426.617"/>
<polygon fill="black" stroke="black" points="2066.5,-426.219 2063,-416.219 2059.5,-426.219 2066.5,-426.219"/>
</g>
<!-- node27 -->
<g id="node36" class="node"><title>node27</title>
<polygon fill="none" stroke="black" points="1866.44,-466.049 1871.37,-466.148 1876.25,-466.295 1881.06,-466.491 1885.78,-466.735 1890.38,-467.027 1894.86,-467.364 1899.2,-467.748 1903.37,-468.176 1907.37,-468.647 1911.17,-469.161 1914.78,-469.715 1918.16,-470.308 1921.32,-470.939 1924.24,-471.605 1926.91,-472.306 1929.34,-473.039 1931.51,-473.801 1933.42,-474.592 1935.06,-475.408 1936.44,-476.248 1937.56,-477.109 1938.42,-477.989 1939.02,-478.886 1939.36,-479.797 1939.45,-480.719 1939.3,-481.65 1938.91,-482.587 1938.29,-483.529 1937.45,-484.471 1936.4,-485.413 1935.15,-486.35 1933.7,-487.281 1932.08,-488.203 1930.28,-489.114 1928.33,-490.011 1926.22,-490.891 1923.98,-491.752 1921.61,-492.592 1919.13,-493.408 1916.54,-494.199 1913.85,-494.961 1911.08,-495.694 1908.22,-496.395 1905.3,-497.061 1902.32,-497.692 1899.29,-498.285 1896.2,-498.839 1893.08,-499.353 1889.92,-499.824 1886.74,-500.252 1883.52,-500.636 1880.29,-500.973 1877.04,-501.265 1873.78,-501.509 1870.5,-501.705 1867.22,-501.852 1863.94,-501.951 1860.65,-502 1857.35,-502 1854.06,-501.951 1850.78,-501.852 1847.5,-501.705 1844.22,-501.509 1840.96,-501.265 1837.71,-500.973 1834.48,-500.636 1831.26,-500.252 1828.08,-499.824 1824.92,-499.353 1821.8,-498.839 1818.71,-498.285 1815.68,-497.692 1812.7,-497.061 1809.78,-496.395 1806.92,-495.694 1804.15,-494.961 1801.46,-494.199 1798.87,-493.408 1796.39,-492.592 1794.02,-491.752 1791.78,-490.891 1789.67,-490.011 1787.72,-489.114 1785.92,-488.203 1784.3,-487.281 1782.85,-486.35 1781.6,-485.413 1780.55,-484.471 1779.71,-483.529 1779.09,-482.587 1778.7,-481.65 1778.55,-480.719 1778.64,-479.797 1778.98,-478.886 1779.58,-477.989 1780.44,-477.109 1781.56,-476.248 1782.94,-475.408 1784.58,-474.592 1786.49,-473.801 1788.66,-473.039 1791.09,-472.306 1793.76,-471.605 1796.68,-470.939 1799.84,-470.308 1803.22,-469.715 1806.83,-469.161 1810.63,-468.647 1814.63,-468.176 1818.8,-467.748 1823.14,-467.364 1827.62,-467.027 1832.22,-466.735 1836.94,-466.491 1841.75,-466.295 1846.63,-466.148 1851.56,-466.049 1856.52,-466 1861.48,-466 1866.44,-466.049"/>
<text text-anchor="middle" x="1859" y="-480.9" font-family="Times,serif" font-size="12.00">MivBitstreamTest</text>
</g>
<!-- node27&#45;&gt;node5 -->
<g id="edge45" class="edge"><title>node27&#45;&gt;node5</title>
<path fill="none" stroke="black" stroke-dasharray="1,5" d="M1836.91,-466.339C1819.89,-453.505 1795.93,-435.442 1775.75,-420.22"/>
<polygon fill="black" stroke="black" points="1777.74,-417.337 1767.65,-414.111 1773.52,-422.926 1777.74,-417.337"/>
</g>
<!-- node27&#45;&gt;node4 -->
<g id="edge46" class="edge"><title>node27&#45;&gt;node4</title>
<path fill="none" stroke="black" stroke-dasharray="1,5" d="M1860.94,-465.822C1865.11,-429.537 1875.6,-342.469 1888,-270 1889.56,-260.882 1891.47,-251.069 1893.34,-241.966"/>
<polygon fill="black" stroke="black" points="1896.79,-242.569 1895.42,-232.064 1889.94,-241.133 1896.79,-242.569"/>
</g>
<!-- node28 -->
<g id="node37" class="node"><title>node28</title>
<polygon fill="none" stroke="black" points="890.188,-556.049 893.623,-556.148 897.023,-556.295 900.373,-556.491 903.66,-556.735 906.871,-557.027 909.994,-557.364 913.015,-557.748 915.924,-558.176 918.709,-558.647 921.362,-559.161 923.871,-559.715 926.23,-560.308 928.43,-560.939 930.466,-561.605 932.331,-562.306 934.021,-563.039 935.533,-563.801 936.863,-564.592 938.009,-565.408 938.973,-566.248 939.752,-567.109 940.349,-567.989 940.765,-568.886 941.004,-569.797 941.068,-570.719 940.962,-571.65 940.691,-572.587 940.26,-573.529 939.675,-574.471 938.943,-575.413 938.069,-576.35 937.063,-577.281 935.93,-578.203 934.678,-579.114 933.316,-580.011 931.849,-580.891 930.287,-581.752 928.636,-582.592 926.904,-583.408 925.099,-584.199 923.226,-584.961 921.293,-585.694 919.305,-586.395 917.27,-587.061 915.191,-587.692 913.076,-588.285 910.928,-588.839 908.751,-589.353 906.551,-589.824 904.329,-590.252 902.091,-590.636 899.838,-590.973 897.573,-591.265 895.299,-591.509 893.018,-591.705 890.731,-591.852 888.44,-591.951 886.147,-592 883.853,-592 881.56,-591.951 879.269,-591.852 876.982,-591.705 874.701,-591.509 872.427,-591.265 870.162,-590.973 867.909,-590.636 865.671,-590.252 863.449,-589.824 861.249,-589.353 859.072,-588.839 856.924,-588.285 854.809,-587.692 852.73,-587.061 850.695,-586.395 848.707,-585.694 846.774,-584.961 844.901,-584.199 843.096,-583.408 841.364,-582.592 839.713,-581.752 838.151,-580.891 836.684,-580.011 835.322,-579.114 834.07,-578.203 832.937,-577.281 831.931,-576.35 831.057,-575.413 830.325,-574.471 829.74,-573.529 829.309,-572.587 829.038,-571.65 828.932,-570.719 828.996,-569.797 829.235,-568.886 829.651,-567.989 830.248,-567.109 831.027,-566.248 831.991,-565.408 833.137,-564.592 834.467,-563.801 835.979,-563.039 837.669,-562.306 839.534,-561.605 841.57,-560.939 843.77,-560.308 846.129,-559.715 848.638,-559.161 851.291,-558.647 854.076,-558.176 856.985,-557.748 860.006,-557.364 863.129,-557.027 866.34,-556.735 869.627,-556.491 872.977,-556.295 876.377,-556.148 879.812,-556.049 883.268,-556 886.732,-556 890.188,-556.049"/>
<text text-anchor="middle" x="885" y="-570.9" font-family="Times,serif" font-size="12.00">Multiplexer</text>
</g>
<!-- node28&#45;&gt;node17 -->
<g id="edge47" class="edge"><title>node28&#45;&gt;node17</title>
<path fill="none" stroke="black" stroke-dasharray="1,5" d="M869.2,-556.448C858.792,-545.544 844.808,-530.894 832.213,-517.7"/>
<polygon fill="black" stroke="black" points="834.432,-514.955 824.995,-510.138 829.369,-519.788 834.432,-514.955"/>
</g>
<!-- node28&#45;&gt;node4 -->
<g id="edge48" class="edge"><title>node28&#45;&gt;node4</title>
<path fill="none" stroke="black" stroke-dasharray="1,5" d="M901.943,-556.175C927.733,-531.423 979.317,-485.196 1031,-458 1285.21,-324.228 1619.79,-253.541 1790.48,-224.038"/>
<polygon fill="black" stroke="black" points="1791.22,-227.462 1800.48,-222.324 1790.03,-220.563 1791.22,-227.462"/>
</g>
<!-- node29 -->
<g id="node38" class="node"><title>node29</title>
<polygon fill="none" stroke="black" points="1937.38,-278.049 1939.62,-278.148 1941.84,-278.295 1944.03,-278.491 1946.17,-278.735 1948.26,-279.027 1950.3,-279.364 1952.27,-279.748 1954.17,-280.176 1955.98,-280.647 1957.71,-281.161 1959.35,-281.715 1960.89,-282.308 1962.32,-282.939 1963.65,-283.605 1964.87,-284.306 1965.97,-285.039 1966.96,-285.801 1967.82,-286.592 1968.57,-287.408 1969.2,-288.248 1969.71,-289.109 1970.1,-289.989 1970.37,-290.886 1970.52,-291.797 1970.57,-292.719 1970.5,-293.65 1970.32,-294.587 1970.04,-295.529 1969.66,-296.471 1969.18,-297.413 1968.61,-298.35 1967.95,-299.281 1967.22,-300.203 1966.4,-301.114 1965.51,-302.011 1964.55,-302.891 1963.54,-303.752 1962.46,-304.592 1961.33,-305.408 1960.15,-306.199 1958.93,-306.961 1957.67,-307.694 1956.37,-308.395 1955.05,-309.061 1953.69,-309.692 1952.31,-310.285 1950.91,-310.839 1949.49,-311.353 1948.05,-311.824 1946.61,-312.252 1945.15,-312.636 1943.68,-312.973 1942.2,-313.265 1940.72,-313.509 1939.23,-313.705 1937.74,-313.852 1936.24,-313.951 1934.75,-314 1933.25,-314 1931.76,-313.951 1930.26,-313.852 1928.77,-313.705 1927.28,-313.509 1925.8,-313.265 1924.32,-312.973 1922.85,-312.636 1921.39,-312.252 1919.95,-311.824 1918.51,-311.353 1917.09,-310.839 1915.69,-310.285 1914.31,-309.692 1912.95,-309.061 1911.63,-308.395 1910.33,-307.694 1909.07,-306.961 1907.85,-306.199 1906.67,-305.408 1905.54,-304.592 1904.46,-303.752 1903.45,-302.891 1902.49,-302.011 1901.6,-301.114 1900.78,-300.203 1900.05,-299.281 1899.39,-298.35 1898.82,-297.413 1898.34,-296.471 1897.96,-295.529 1897.68,-294.587 1897.5,-293.65 1897.43,-292.719 1897.48,-291.797 1897.63,-290.886 1897.9,-289.989 1898.29,-289.109 1898.8,-288.248 1899.43,-287.408 1900.18,-286.592 1901.04,-285.801 1902.03,-285.039 1903.13,-284.306 1904.35,-283.605 1905.68,-282.939 1907.11,-282.308 1908.65,-281.715 1910.29,-281.161 1912.02,-280.647 1913.83,-280.176 1915.73,-279.748 1917.7,-279.364 1919.74,-279.027 1921.83,-278.735 1923.97,-278.491 1926.16,-278.295 1928.38,-278.148 1930.62,-278.049 1932.87,-278 1935.13,-278 1937.38,-278.049"/>
<text text-anchor="middle" x="1934" y="-292.9" font-family="Times,serif" font-size="12.00">Parser</text>
</g>
<!-- node29&#45;&gt;node4 -->
<g id="edge49" class="edge"><title>node29&#45;&gt;node4</title>
<path fill="none" stroke="black" stroke-dasharray="1,5" d="M1927.64,-278.033C1923.79,-267.786 1918.75,-254.346 1914.09,-241.917"/>
<polygon fill="black" stroke="black" points="1917.26,-240.381 1910.47,-232.247 1910.7,-242.839 1917.26,-240.381"/>
</g>
<!-- node30 -->
<g id="node39" class="node"><title>node30</title>
<polygon fill="none" stroke="black" points="973.376,-660.049 976.273,-660.148 979.14,-660.295 981.965,-660.491 984.738,-660.735 987.446,-661.027 990.079,-661.364 992.627,-661.748 995.08,-662.176 997.429,-662.647 999.666,-663.161 1001.78,-663.715 1003.77,-664.308 1005.63,-664.939 1007.34,-665.605 1008.92,-666.306 1010.34,-667.039 1011.62,-667.801 1012.74,-668.592 1013.71,-669.408 1014.52,-670.248 1015.18,-671.109 1015.68,-671.989 1016.03,-672.886 1016.23,-673.797 1016.29,-674.719 1016.2,-675.65 1015.97,-676.587 1015.6,-677.529 1015.11,-678.471 1014.49,-679.413 1013.76,-680.35 1012.91,-681.281 1011.95,-682.203 1010.9,-683.114 1009.75,-684.011 1008.51,-684.891 1007.19,-685.752 1005.8,-686.592 1004.34,-687.408 1002.82,-688.199 1001.24,-688.961 999.608,-689.694 997.932,-690.395 996.215,-691.061 994.462,-691.692 992.678,-692.285 990.866,-692.839 989.031,-693.353 987.175,-693.824 985.302,-694.252 983.414,-694.636 981.514,-694.973 979.604,-695.265 977.686,-695.509 975.762,-695.705 973.833,-695.852 971.901,-695.951 969.967,-696 968.033,-696 966.099,-695.951 964.167,-695.852 962.238,-695.705 960.314,-695.509 958.396,-695.265 956.486,-694.973 954.586,-694.636 952.698,-694.252 950.825,-693.824 948.969,-693.353 947.134,-692.839 945.322,-692.285 943.538,-691.692 941.785,-691.061 940.068,-690.395 938.392,-689.694 936.762,-688.961 935.182,-688.199 933.659,-687.408 932.199,-686.592 930.807,-685.752 929.489,-684.891 928.252,-684.011 927.103,-683.114 926.048,-682.203 925.092,-681.281 924.243,-680.35 923.507,-679.413 922.889,-678.471 922.396,-677.529 922.032,-676.587 921.804,-675.65 921.714,-674.719 921.768,-673.797 921.97,-672.886 922.321,-671.989 922.824,-671.109 923.482,-670.248 924.294,-669.408 925.261,-668.592 926.383,-667.801 927.657,-667.039 929.083,-666.306 930.656,-665.605 932.372,-664.939 934.228,-664.308 936.218,-663.715 938.334,-663.161 940.571,-662.647 942.92,-662.176 945.373,-661.748 947.921,-661.364 950.554,-661.027 953.262,-660.735 956.035,-660.491 958.86,-660.295 961.727,-660.148 964.624,-660.049 967.539,-660 970.461,-660 973.376,-660.049"/>
<text text-anchor="middle" x="969" y="-674.9" font-family="Times,serif" font-size="12.00">Renderer</text>
</g>
<!-- node30&#45;&gt;node19 -->
<g id="edge50" class="edge"><title>node30&#45;&gt;node19</title>
<path fill="none" stroke="black" stroke-dasharray="1,5" d="M1011.93,-667.858C1085.34,-652.226 1237.08,-619.913 1340.72,-597.844"/>
<polygon fill="black" stroke="black" points="1341.54,-601.248 1350.6,-595.742 1340.09,-594.401 1341.54,-601.248"/>
</g>
<!-- node30&#45;&gt;node17 -->
<g id="edge51" class="edge"><title>node30&#45;&gt;node17</title>
<path fill="none" stroke="black" stroke-dasharray="1,5" d="M927.756,-666.818C893.366,-656.094 845.946,-635.677 820,-600 803.412,-577.19 799.254,-545.13 798.909,-520.654"/>
<polygon fill="black" stroke="black" points="802.411,-520.363 798.978,-510.34 795.411,-520.316 802.411,-520.363"/>
</g>
<!-- node30&#45;&gt;node9 -->
<g id="edge52" class="edge"><title>node30&#45;&gt;node9</title>
<path fill="none" stroke="black" stroke-dasharray="1,5" d="M966.518,-659.869C963.617,-632.992 962.103,-580.624 988,-548 1004.54,-527.163 1028.95,-513.199 1053.75,-503.847"/>
<polygon fill="black" stroke="black" points="1055,-507.119 1063.26,-500.485 1052.67,-500.519 1055,-507.119"/>
</g>
<!-- node31 -->
<g id="node40" class="node"><title>node31</title>
<polygon fill="none" stroke="black" points="1914.96,-556.049 1918.9,-556.148 1922.8,-556.295 1926.65,-556.491 1930.42,-556.735 1934.11,-557.027 1937.69,-557.364 1941.16,-557.748 1944.5,-558.176 1947.7,-558.647 1950.74,-559.161 1953.63,-559.715 1956.33,-560.308 1958.86,-560.939 1961.2,-561.605 1963.34,-562.306 1965.28,-563.039 1967.01,-563.801 1968.54,-564.592 1969.86,-565.408 1970.96,-566.248 1971.86,-567.109 1972.54,-567.989 1973.02,-568.886 1973.29,-569.797 1973.37,-570.719 1973.25,-571.65 1972.93,-572.587 1972.44,-573.529 1971.77,-574.471 1970.93,-575.413 1969.93,-576.35 1968.77,-577.281 1967.47,-578.203 1966.03,-579.114 1964.47,-580.011 1962.78,-580.891 1960.99,-581.752 1959.1,-582.592 1957.11,-583.408 1955.03,-584.199 1952.88,-584.961 1950.67,-585.694 1948.38,-586.395 1946.05,-587.061 1943.66,-587.692 1941.23,-588.285 1938.77,-588.839 1936.27,-589.353 1933.74,-589.824 1931.19,-590.252 1928.62,-590.636 1926.03,-590.973 1923.43,-591.265 1920.82,-591.509 1918.2,-591.705 1915.58,-591.852 1912.95,-591.951 1910.32,-592 1907.68,-592 1905.05,-591.951 1902.42,-591.852 1899.8,-591.705 1897.18,-591.509 1894.57,-591.265 1891.97,-590.973 1889.38,-590.636 1886.81,-590.252 1884.26,-589.824 1881.73,-589.353 1879.23,-588.839 1876.77,-588.285 1874.34,-587.692 1871.95,-587.061 1869.62,-586.395 1867.33,-585.694 1865.12,-584.961 1862.97,-584.199 1860.89,-583.408 1858.9,-582.592 1857.01,-581.752 1855.22,-580.891 1853.53,-580.011 1851.97,-579.114 1850.53,-578.203 1849.23,-577.281 1848.07,-576.35 1847.07,-575.413 1846.23,-574.471 1845.56,-573.529 1845.07,-572.587 1844.75,-571.65 1844.63,-570.719 1844.71,-569.797 1844.98,-568.886 1845.46,-567.989 1846.14,-567.109 1847.04,-566.248 1848.14,-565.408 1849.46,-564.592 1850.99,-563.801 1852.72,-563.039 1854.66,-562.306 1856.8,-561.605 1859.14,-560.939 1861.67,-560.308 1864.37,-559.715 1867.26,-559.161 1870.3,-558.647 1873.5,-558.176 1876.84,-557.748 1880.31,-557.364 1883.89,-557.027 1887.58,-556.735 1891.35,-556.491 1895.2,-556.295 1899.1,-556.148 1903.04,-556.049 1907.01,-556 1910.99,-556 1914.96,-556.049"/>
<text text-anchor="middle" x="1909" y="-570.9" font-family="Times,serif" font-size="12.00">RendererTest</text>
</g>
<!-- node31&#45;&gt;node5 -->
<g id="edge53" class="edge"><title>node31&#45;&gt;node5</title>
<path fill="none" stroke="black" stroke-dasharray="1,5" d="M1867.77,-558.917C1831.52,-545.761 1782.48,-525.829 1769,-510 1750.05,-487.738 1742.21,-455.329 1739.02,-429.952"/>
<polygon fill="black" stroke="black" points="1742.49,-429.482 1737.95,-419.909 1735.53,-430.223 1742.49,-429.482"/>
</g>
<!-- node31&#45;&gt;node9 -->
<g id="edge54" class="edge"><title>node31&#45;&gt;node9</title>
<path fill="none" stroke="black" stroke-dasharray="1,5" d="M1872.01,-558.223C1860.63,-554.253 1847.95,-550.4 1836,-548 1586.64,-497.92 1516.9,-545.109 1265,-510 1254.53,-508.54 1243.59,-506.672 1232.79,-504.616"/>
<polygon fill="black" stroke="black" points="1233.42,-501.172 1222.93,-502.681 1232.07,-508.041 1233.42,-501.172"/>
</g>
<!-- node32 -->
<g id="node41" class="node"><title>node32</title>
<polygon fill="none" stroke="black" points="305.355,-195.212 305.355,-216.788 237.782,-232.045 142.218,-232.045 74.6445,-216.788 74.6445,-195.212 142.218,-179.955 237.782,-179.955 305.355,-195.212"/>
<text text-anchor="middle" x="190" y="-209.4" font-family="Times,serif" font-size="12.00">TAppCommon</text>
<text text-anchor="middle" x="190" y="-196.4" font-family="Times,serif" font-size="12.00">(TMIV::TAppCommon)</text>
</g>
<!-- node32&#45;&gt;node12 -->
<g id="edge55" class="edge"><title>node32&#45;&gt;node12</title>
<path fill="none" stroke="black" d="M266.539,-186.445C325.257,-172.21 406.305,-152.563 467.211,-137.797"/>
<polygon fill="black" stroke="black" points="468.294,-141.136 477.188,-135.379 466.645,-134.333 468.294,-141.136"/>
</g>
<!-- node33 -->
<g id="node42" class="node"><title>node33</title>
<polygon fill="none" stroke="black" points="439.955,-278.049 443.898,-278.148 447.799,-278.295 451.645,-278.491 455.417,-278.735 459.103,-279.027 462.686,-279.364 466.154,-279.748 469.492,-280.176 472.69,-280.647 475.734,-281.161 478.614,-281.715 481.321,-282.308 483.847,-282.939 486.183,-283.605 488.324,-284.306 490.264,-285.039 491.998,-285.801 493.525,-286.592 494.841,-287.408 495.947,-288.248 496.841,-289.109 497.526,-289.989 498.004,-290.886 498.278,-291.797 498.352,-292.719 498.23,-293.65 497.919,-294.587 497.424,-295.529 496.753,-296.471 495.912,-297.413 494.91,-298.35 493.755,-299.281 492.455,-300.203 491.018,-301.114 489.454,-302.011 487.771,-302.891 485.978,-303.752 484.083,-304.592 482.095,-305.408 480.023,-306.199 477.873,-306.961 475.654,-307.694 473.373,-308.395 471.037,-309.061 468.652,-309.692 466.224,-310.285 463.758,-310.839 461.26,-311.353 458.734,-311.824 456.185,-312.252 453.616,-312.636 451.03,-312.973 448.431,-313.265 445.821,-313.509 443.202,-313.705 440.578,-313.852 437.948,-313.951 435.316,-314 432.684,-314 430.052,-313.951 427.422,-313.852 424.798,-313.705 422.179,-313.509 419.569,-313.265 416.97,-312.973 414.384,-312.636 411.815,-312.252 409.266,-311.824 406.74,-311.353 404.242,-310.839 401.776,-310.285 399.348,-309.692 396.963,-309.061 394.627,-308.395 392.346,-307.694 390.127,-306.961 387.977,-306.199 385.905,-305.408 383.917,-304.592 382.022,-303.752 380.229,-302.891 378.546,-302.011 376.982,-301.114 375.545,-300.203 374.245,-299.281 373.09,-298.35 372.088,-297.413 371.247,-296.471 370.576,-295.529 370.081,-294.587 369.77,-293.65 369.648,-292.719 369.722,-291.797 369.996,-290.886 370.474,-289.989 371.159,-289.109 372.053,-288.248 373.159,-287.408 374.475,-286.592 376.002,-285.801 377.736,-285.039 379.676,-284.306 381.817,-283.605 384.153,-282.939 386.679,-282.308 389.386,-281.715 392.266,-281.161 395.31,-280.647 398.508,-280.176 401.846,-279.748 405.314,-279.364 408.897,-279.027 412.583,-278.735 416.355,-278.491 420.201,-278.295 424.102,-278.148 428.045,-278.049 432.012,-278 435.988,-278 439.955,-278.049"/>
<text text-anchor="middle" x="434" y="-292.9" font-family="Times,serif" font-size="12.00">TAppDecoder</text>
</g>
<!-- node33&#45;&gt;node32 -->
<g id="edge56" class="edge"><title>node33&#45;&gt;node32</title>
<path fill="none" stroke="black" stroke-dasharray="1,5" d="M394.526,-280.763C358.538,-267.784 304.514,-248.3 261.026,-232.616"/>
<polygon fill="black" stroke="black" points="261.946,-229.227 251.352,-229.127 259.571,-235.812 261.946,-229.227"/>
</g>
<!-- node33&#45;&gt;node11 -->
<g id="edge57" class="edge"><title>node33&#45;&gt;node11</title>
<path fill="none" stroke="black" stroke-dasharray="1,5" d="M434,-277.614C434,-267.619 434,-254.689 434,-242.629"/>
<polygon fill="black" stroke="black" points="437.5,-242.352 434,-232.352 430.5,-242.352 437.5,-242.352"/>
</g>
<!-- node34 -->
<g id="node43" class="node"><title>node34</title>
<polygon fill="none" stroke="black" points="779.523,-195.212 779.523,-216.788 715.952,-232.045 626.048,-232.045 562.477,-216.788 562.477,-195.212 626.048,-179.955 715.952,-179.955 779.523,-195.212"/>
<text text-anchor="middle" x="671" y="-209.4" font-family="Times,serif" font-size="12.00">TLibVideoIO</text>
<text text-anchor="middle" x="671" y="-196.4" font-family="Times,serif" font-size="12.00">(TMIV::TLibVideoIO)</text>
</g>
<!-- node33&#45;&gt;node34 -->
<g id="edge59" class="edge"><title>node33&#45;&gt;node34</title>
<path fill="none" stroke="black" stroke-dasharray="1,5" d="M472.87,-280.567C507.958,-267.539 560.381,-248.074 602.491,-232.438"/>
<polygon fill="black" stroke="black" points="603.974,-235.621 612.13,-228.859 601.537,-229.059 603.974,-235.621"/>
</g>
<!-- node34&#45;&gt;node12 -->
<g id="edge58" class="edge"><title>node34&#45;&gt;node12</title>
<path fill="none" stroke="black" d="M637.186,-179.783C624.102,-170.025 608.983,-158.75 595.199,-148.47"/>
<polygon fill="black" stroke="black" points="596.928,-145.394 586.819,-142.221 592.743,-151.005 596.928,-145.394"/>
</g>
<!-- node35 -->
<g id="node44" class="node"><title>node35</title>
<polygon fill="none" stroke="black" points="676.955,-278.049 680.898,-278.148 684.799,-278.295 688.645,-278.491 692.417,-278.735 696.103,-279.027 699.686,-279.364 703.154,-279.748 706.492,-280.176 709.69,-280.647 712.734,-281.161 715.614,-281.715 718.321,-282.308 720.847,-282.939 723.183,-283.605 725.324,-284.306 727.264,-285.039 728.998,-285.801 730.525,-286.592 731.841,-287.408 732.947,-288.248 733.841,-289.109 734.526,-289.989 735.004,-290.886 735.278,-291.797 735.352,-292.719 735.23,-293.65 734.919,-294.587 734.424,-295.529 733.753,-296.471 732.912,-297.413 731.91,-298.35 730.755,-299.281 729.455,-300.203 728.018,-301.114 726.454,-302.011 724.771,-302.891 722.978,-303.752 721.083,-304.592 719.095,-305.408 717.023,-306.199 714.873,-306.961 712.654,-307.694 710.373,-308.395 708.037,-309.061 705.652,-309.692 703.224,-310.285 700.758,-310.839 698.26,-311.353 695.734,-311.824 693.185,-312.252 690.616,-312.636 688.03,-312.973 685.431,-313.265 682.821,-313.509 680.202,-313.705 677.578,-313.852 674.948,-313.951 672.316,-314 669.684,-314 667.052,-313.951 664.422,-313.852 661.798,-313.705 659.179,-313.509 656.569,-313.265 653.97,-312.973 651.384,-312.636 648.815,-312.252 646.266,-311.824 643.74,-311.353 641.242,-310.839 638.776,-310.285 636.348,-309.692 633.963,-309.061 631.627,-308.395 629.346,-307.694 627.127,-306.961 624.977,-306.199 622.905,-305.408 620.917,-304.592 619.022,-303.752 617.229,-302.891 615.546,-302.011 613.982,-301.114 612.545,-300.203 611.245,-299.281 610.09,-298.35 609.088,-297.413 608.247,-296.471 607.576,-295.529 607.081,-294.587 606.77,-293.65 606.648,-292.719 606.722,-291.797 606.996,-290.886 607.474,-289.989 608.159,-289.109 609.053,-288.248 610.159,-287.408 611.475,-286.592 613.002,-285.801 614.736,-285.039 616.676,-284.306 618.817,-283.605 621.153,-282.939 623.679,-282.308 626.386,-281.715 629.266,-281.161 632.31,-280.647 635.508,-280.176 638.846,-279.748 642.314,-279.364 645.897,-279.027 649.583,-278.735 653.355,-278.491 657.201,-278.295 661.102,-278.148 665.045,-278.049 669.012,-278 672.988,-278 676.955,-278.049"/>
<text text-anchor="middle" x="671" y="-292.9" font-family="Times,serif" font-size="12.00">TAppEncoder</text>
</g>
<!-- node35&#45;&gt;node32 -->
<g id="edge60" class="edge"><title>node35&#45;&gt;node32</title>
<path fill="none" stroke="black" stroke-dasharray="1,5" d="M613.896,-285.297C543.521,-273.247 420.319,-251.848 315,-232 304.864,-230.09 294.276,-228.047 283.736,-225.982"/>
<polygon fill="black" stroke="black" points="284.149,-222.496 273.662,-224 282.798,-229.365 284.149,-222.496"/>
</g>
<!-- node36 -->
<g id="node45" class="node"><title>node36</title>
<polygon fill="none" stroke="black" points="1018.32,-195.212 1018.32,-216.788 953.696,-232.045 862.304,-232.045 797.681,-216.788 797.681,-195.212 862.304,-179.955 953.696,-179.955 1018.32,-195.212"/>
<text text-anchor="middle" x="908" y="-209.4" font-family="Times,serif" font-size="12.00">TLibEncoder</text>
<text text-anchor="middle" x="908" y="-196.4" font-family="Times,serif" font-size="12.00">(TMIV::TLibEncoder)</text>
</g>
<!-- node35&#45;&gt;node36 -->
<g id="edge62" class="edge"><title>node35&#45;&gt;node36</title>
<path fill="none" stroke="black" stroke-dasharray="1,5" d="M709.87,-280.567C744.836,-267.584 797.017,-248.209 839.052,-232.601"/>
<polygon fill="black" stroke="black" points="840.521,-235.789 848.677,-229.027 838.084,-229.227 840.521,-235.789"/>
</g>
<!-- node35&#45;&gt;node34 -->
<g id="edge63" class="edge"><title>node35&#45;&gt;node34</title>
<path fill="none" stroke="black" stroke-dasharray="1,5" d="M671,-277.614C671,-267.619 671,-254.689 671,-242.629"/>
<polygon fill="black" stroke="black" points="674.5,-242.352 671,-232.352 667.5,-242.352 674.5,-242.352"/>
</g>
<!-- node36&#45;&gt;node12 -->
<g id="edge61" class="edge"><title>node36&#45;&gt;node12</title>
<path fill="none" stroke="black" d="M833.58,-186.552C776.38,-172.373 697.324,-152.776 637.702,-137.997"/>
<polygon fill="black" stroke="black" points="638.481,-134.584 627.932,-135.575 636.796,-141.378 638.481,-134.584"/>
</g>
<!-- node37 -->
<g id="node46" class="node"><title>node37</title>
<polygon fill="none" stroke="black" points="1002.14,-372.049 1006.2,-372.148 1010.22,-372.295 1014.18,-372.491 1018.07,-372.735 1021.86,-373.027 1025.56,-373.364 1029.13,-373.748 1032.57,-374.176 1035.86,-374.647 1039,-375.161 1041.97,-375.715 1044.76,-376.308 1047.36,-376.939 1049.76,-377.605 1051.97,-378.306 1053.97,-379.039 1055.76,-379.801 1057.33,-380.592 1058.69,-381.408 1059.82,-382.248 1060.75,-383.109 1061.45,-383.989 1061.94,-384.886 1062.23,-385.797 1062.3,-386.719 1062.18,-387.65 1061.86,-388.587 1061.35,-389.529 1060.65,-390.471 1059.79,-391.413 1058.76,-392.35 1057.57,-393.281 1056.23,-394.203 1054.75,-395.114 1053.13,-396.011 1051.4,-396.891 1049.55,-397.752 1047.6,-398.592 1045.55,-399.408 1043.42,-400.199 1041.2,-400.961 1038.92,-401.694 1036.57,-402.395 1034.16,-403.061 1031.7,-403.692 1029.2,-404.285 1026.66,-404.839 1024.09,-405.353 1021.48,-405.824 1018.86,-406.252 1016.21,-406.636 1013.55,-406.973 1010.87,-407.265 1008.18,-407.509 1005.48,-407.705 1002.78,-407.852 1000.07,-407.951 997.356,-408 994.644,-408 991.932,-407.951 989.223,-407.852 986.519,-407.705 983.821,-407.509 981.132,-407.265 978.454,-406.973 975.79,-406.636 973.142,-406.252 970.516,-405.824 967.914,-405.353 965.34,-404.839 962.8,-404.285 960.298,-403.692 957.84,-403.061 955.433,-402.395 953.083,-401.694 950.797,-400.961 948.582,-400.199 946.447,-399.408 944.399,-398.592 942.447,-397.752 940.6,-396.891 938.866,-396.011 937.254,-395.114 935.774,-394.203 934.434,-393.281 933.244,-392.35 932.211,-391.413 931.345,-390.471 930.654,-389.529 930.144,-388.587 929.823,-387.65 929.698,-386.719 929.774,-385.797 930.056,-384.886 930.548,-383.989 931.254,-383.109 932.176,-382.248 933.315,-381.408 934.671,-380.592 936.244,-379.801 938.031,-379.039 940.03,-378.306 942.235,-377.605 944.642,-376.939 947.244,-376.308 950.034,-375.715 953.002,-375.161 956.138,-374.647 959.432,-374.176 962.872,-373.748 966.444,-373.364 970.136,-373.027 973.934,-372.735 977.821,-372.491 981.782,-372.295 985.803,-372.148 989.865,-372.049 993.952,-372 998.048,-372 1002.14,-372.049"/>
<text text-anchor="middle" x="996" y="-386.9" font-family="Times,serif" font-size="12.00">VideoDecoder</text>
</g>
<!-- node37&#45;&gt;node10 -->
<g id="edge64" class="edge"><title>node37&#45;&gt;node10</title>
<path fill="none" stroke="black" stroke-dasharray="1,5" d="M994.871,-371.696C994.146,-360.579 993.179,-345.741 992.297,-332.219"/>
<polygon fill="black" stroke="black" points="995.788,-331.97 991.645,-322.219 988.803,-332.426 995.788,-331.97"/>
</g>
<!-- node38 -->
<g id="node47" class="node"><title>node38</title>
<polygon fill="none" stroke="black" points="1646.67,-466.049 1651.75,-466.148 1656.77,-466.295 1661.73,-466.491 1666.59,-466.735 1671.33,-467.027 1675.95,-467.364 1680.41,-467.748 1684.71,-468.176 1688.83,-468.647 1692.75,-469.161 1696.46,-469.715 1699.95,-470.308 1703.2,-470.939 1706.21,-471.605 1708.97,-472.306 1711.47,-473.039 1713.7,-473.801 1715.67,-474.592 1717.36,-475.408 1718.79,-476.248 1719.94,-477.109 1720.82,-477.989 1721.44,-478.886 1721.79,-479.797 1721.89,-480.719 1721.73,-481.65 1721.33,-482.587 1720.69,-483.529 1719.83,-484.471 1718.74,-485.413 1717.45,-486.35 1715.96,-487.281 1714.29,-488.203 1712.44,-489.114 1710.42,-490.011 1708.26,-490.891 1705.95,-491.752 1703.51,-492.592 1700.95,-493.408 1698.28,-494.199 1695.51,-494.961 1692.65,-495.694 1689.71,-496.395 1686.7,-497.061 1683.63,-497.692 1680.5,-498.285 1677.33,-498.839 1674.11,-499.353 1670.86,-499.824 1667.57,-500.252 1664.27,-500.636 1660.94,-500.973 1657.59,-501.265 1654.23,-501.509 1650.85,-501.705 1647.47,-501.852 1644.09,-501.951 1640.7,-502 1637.3,-502 1633.91,-501.951 1630.53,-501.852 1627.15,-501.705 1623.77,-501.509 1620.41,-501.265 1617.06,-500.973 1613.73,-500.636 1610.43,-500.252 1607.14,-499.824 1603.89,-499.353 1600.67,-498.839 1597.5,-498.285 1594.37,-497.692 1591.3,-497.061 1588.29,-496.395 1585.35,-495.694 1582.49,-494.961 1579.72,-494.199 1577.05,-493.408 1574.49,-492.592 1572.05,-491.752 1569.74,-490.891 1567.58,-490.011 1565.56,-489.114 1563.71,-488.203 1562.04,-487.281 1560.55,-486.35 1559.26,-485.413 1558.17,-484.471 1557.31,-483.529 1556.67,-482.587 1556.27,-481.65 1556.11,-480.719 1556.21,-479.797 1556.56,-478.886 1557.18,-477.989 1558.06,-477.109 1559.21,-476.248 1560.64,-475.408 1562.33,-474.592 1564.3,-473.801 1566.53,-473.039 1569.03,-472.306 1571.79,-471.605 1574.8,-470.939 1578.05,-470.308 1581.54,-469.715 1585.25,-469.161 1589.17,-468.647 1593.29,-468.176 1597.59,-467.748 1602.05,-467.364 1606.67,-467.027 1611.41,-466.735 1616.27,-466.491 1621.23,-466.295 1626.25,-466.148 1631.33,-466.049 1636.44,-466 1641.56,-466 1646.67,-466.049"/>
<text text-anchor="middle" x="1639" y="-480.9" font-family="Times,serif" font-size="12.00">ViewingSpaceTest</text>
</g>
<!-- node38&#45;&gt;node5 -->
<g id="edge65" class="edge"><title>node38&#45;&gt;node5</title>
<path fill="none" stroke="black" stroke-dasharray="1,5" d="M1656.97,-466.126C1670.08,-453.822 1688.22,-436.795 1703.91,-422.062"/>
<polygon fill="black" stroke="black" points="1706.49,-424.44 1711.39,-415.044 1701.7,-419.337 1706.49,-424.44"/>
</g>
<!-- node38&#45;&gt;node16 -->
<g id="edge66" class="edge"><title>node38&#45;&gt;node16</title>
<path fill="none" stroke="black" stroke-dasharray="1,5" d="M1611.47,-466.552C1590.5,-454.023 1561.03,-436.421 1535.82,-421.359"/>
<polygon fill="black" stroke="black" points="1537.48,-418.274 1527.1,-416.15 1533.89,-424.283 1537.48,-418.274"/>
</g>
<!-- node39 -->
<g id="node48" class="node"><title>node39</title>
<polygon fill="none" stroke="black" points="1334.35,-781.251 1204,-801.936 1073.65,-781.251 1123.44,-747.781 1284.56,-747.781 1334.35,-781.251"/>
<text text-anchor="middle" x="1204" y="-775.4" font-family="Times,serif" font-size="12.00">fmt&#45;header&#45;only</text>
<text text-anchor="middle" x="1204" y="-762.4" font-family="Times,serif" font-size="12.00">(fmt::fmt&#45;header&#45;only)</text>
</g>
</g>
</svg>
