<?xml version="1.0" encoding="UTF-8" standalone="no"?>
<!DOCTYPE svg PUBLIC "-//W3C//DTD SVG 1.1//EN"
 "http://www.w3.org/Graphics/SVG/1.1/DTD/svg11.dtd">
<!-- Generated by graphviz version 2.50.0 (20211204.2007)
 -->
<!-- Title: TMIV Pages: 1 -->
<svg width="2048pt" height="551pt"
 viewBox="0.00 0.00 2047.96 551.00" xmlns="http://www.w3.org/2000/svg" xmlns:xlink="http://www.w3.org/1999/xlink">
<g id="graph0" class="graph" transform="scale(1 1) rotate(0) translate(4 547)">
<title>TMIV</title>
<polygon fill="white" stroke="transparent" points="-4,4 -4,-547 2043.96,-547 2043.96,4 -4,4"/>
<g id="clust1" class="cluster">
<title>clusterLegend</title>
<polygon fill="none" stroke="black" points="8,-284 8,-535 521,-535 521,-284 8,-284"/>
<text text-anchor="middle" x="264.5" y="-519.8" font-family="Times New Roman,serif" font-size="14.00">Legend</text>
</g>
<!-- legendNode0 -->
<g id="node1" class="node">
<title>legendNode0</title>
<polygon fill="none" stroke="black" points="274.98,-468.05 277.62,-468.15 280.23,-468.3 282.8,-468.49 285.32,-468.74 287.79,-469.03 290.18,-469.36 292.5,-469.75 294.74,-470.18 296.87,-470.65 298.91,-471.16 300.84,-471.71 302.65,-472.31 304.34,-472.94 305.9,-473.61 307.33,-474.31 308.63,-475.04 309.79,-475.8 310.81,-476.59 311.69,-477.41 312.43,-478.25 313.03,-479.11 313.48,-479.99 313.8,-480.89 313.99,-481.8 314.04,-482.72 313.95,-483.65 313.75,-484.59 313.41,-485.53 312.97,-486.47 312.4,-487.41 311.73,-488.35 310.96,-489.28 310.09,-490.2 309.13,-491.11 308.08,-492.01 306.96,-492.89 305.76,-493.75 304.49,-494.59 303.16,-495.41 301.78,-496.2 300.34,-496.96 298.86,-497.69 297.33,-498.39 295.77,-499.06 294.17,-499.69 292.55,-500.29 290.9,-500.84 289.23,-501.35 287.54,-501.82 285.84,-502.25 284.12,-502.64 282.39,-502.97 280.65,-503.26 278.91,-503.51 277.15,-503.7 275.4,-503.85 273.64,-503.95 271.88,-504 270.12,-504 268.36,-503.95 266.6,-503.85 264.85,-503.7 263.09,-503.51 261.35,-503.26 259.61,-502.97 257.88,-502.64 256.16,-502.25 254.46,-501.82 252.77,-501.35 251.1,-500.84 249.45,-500.29 247.83,-499.69 246.23,-499.06 244.67,-498.39 243.14,-497.69 241.66,-496.96 240.22,-496.2 238.84,-495.41 237.51,-494.59 236.24,-493.75 235.04,-492.89 233.92,-492.01 232.87,-491.11 231.91,-490.2 231.04,-489.28 230.27,-488.35 229.6,-487.41 229.03,-486.47 228.59,-485.53 228.25,-484.59 228.05,-483.65 227.96,-482.72 228.01,-481.8 228.2,-480.89 228.52,-479.99 228.97,-479.11 229.57,-478.25 230.31,-477.41 231.19,-476.59 232.21,-475.8 233.37,-475.04 234.67,-474.31 236.1,-473.61 237.66,-472.94 239.35,-472.31 241.16,-471.71 243.09,-471.16 245.13,-470.65 247.26,-470.18 249.5,-469.75 251.82,-469.36 254.21,-469.03 256.68,-468.74 259.2,-468.49 261.77,-468.3 264.38,-468.15 267.02,-468.05 269.67,-468 272.33,-468 274.98,-468.05"/>
<text text-anchor="middle" x="271" y="-482.9" font-family="Times New Roman,serif" font-size="12.00">Executable</text>
</g>
<!-- legendNode1 -->
<g id="node2" class="node">
<title>legendNode1</title>
<polygon fill="none" stroke="black" points="119.94,-397.54 119.94,-412.46 89.52,-423 46.48,-423 16.06,-412.46 16.06,-397.54 46.48,-387 89.52,-387 119.94,-397.54"/>
<text text-anchor="middle" x="68" y="-401.9" font-family="Times New Roman,serif" font-size="12.00">Static Library</text>
</g>
<!-- legendNode0&#45;&gt;legendNode1 -->
<g id="edge1" class="edge">
<title>legendNode0&#45;&gt;legendNode1</title>
<path fill="none" stroke="black" d="M237.91,-472.69C209.07,-461.9 166.16,-445.68 129,-431 122.71,-428.51 116.07,-425.84 109.57,-423.2"/>
<polygon fill="black" stroke="black" points="110.81,-419.93 100.23,-419.39 108.16,-426.41 110.81,-419.93"/>
</g>
<!-- legendNode2 -->
<g id="node3" class="node">
<title>legendNode2</title>
<polygon fill="none" stroke="black" points="255.76,-397.54 255.76,-412.46 222.51,-423 175.49,-423 142.24,-412.46 142.24,-397.54 175.49,-387 222.51,-387 255.76,-397.54"/>
<polygon fill="none" stroke="black" points="259.77,-394.62 259.77,-415.38 223.13,-427 174.87,-427 138.23,-415.38 138.23,-394.62 174.87,-383 223.13,-383 259.77,-394.62"/>
<text text-anchor="middle" x="199" y="-401.9" font-family="Times New Roman,serif" font-size="12.00">Shared Library</text>
</g>
<!-- legendNode0&#45;&gt;legendNode2 -->
<g id="edge2" class="edge">
<title>legendNode0&#45;&gt;legendNode2</title>
<path fill="none" stroke="black" d="M256.08,-468.63C247.18,-458.86 235.62,-446.18 225.24,-434.79"/>
<polygon fill="black" stroke="black" points="227.6,-432.19 218.28,-427.16 222.43,-436.9 227.6,-432.19"/>
</g>
<!-- legendNode3 -->
<g id="node4" class="node">
<title>legendNode3</title>
<polygon fill="none" stroke="black" points="402.75,-397.54 402.75,-412.46 368.34,-423 319.66,-423 285.25,-412.46 285.25,-397.54 319.66,-387 368.34,-387 402.75,-397.54"/>
<polygon fill="none" stroke="black" points="406.76,-394.59 406.76,-415.41 368.94,-427 319.06,-427 281.24,-415.41 281.24,-394.59 319.06,-383 368.94,-383 406.76,-394.59"/>
<polygon fill="none" stroke="black" points="410.77,-391.63 410.77,-418.37 369.54,-431 318.46,-431 277.23,-418.37 277.23,-391.63 318.46,-379 369.54,-379 410.77,-391.63"/>
<text text-anchor="middle" x="344" y="-401.9" font-family="Times New Roman,serif" font-size="12.00">Module Library</text>
</g>
<!-- legendNode0&#45;&gt;legendNode3 -->
<!-- legendNode7 -->
<g id="node8" class="node">
<title>legendNode7</title>
<polygon fill="none" stroke="black" points="513,-423 429,-423 429,-387 513,-387 513,-423"/>
<text text-anchor="middle" x="471" y="-401.9" font-family="Times New Roman,serif" font-size="12.00">Custom Target</text>
</g>
<!-- legendNode0&#45;&gt;legendNode7 -->
<!-- legendNode4 -->
<g id="node5" class="node">
<title>legendNode4</title>
<polygon fill="none" stroke="black" points="156.01,-315.56 86,-328 15.99,-315.56 42.73,-295.44 129.27,-295.44 156.01,-315.56"/>
<text text-anchor="middle" x="86" y="-306.9" font-family="Times New Roman,serif" font-size="12.00">Interface Library</text>
</g>
<!-- legendNode1&#45;&gt;legendNode4 -->
<g id="edge4" class="edge">
<title>legendNode1&#45;&gt;legendNode4</title>
<path fill="none" stroke="black" stroke-dasharray="5,2" d="M71.3,-386.94C73.96,-373.22 77.74,-353.7 80.8,-337.88"/>
<polygon fill="black" stroke="black" points="84.32,-338.12 82.78,-327.64 77.44,-336.79 84.32,-338.12"/>
<text text-anchor="middle" x="104.5" y="-349.8" font-family="Times New Roman,serif" font-size="14.00">Interface</text>
</g>
<!-- legendNode5 -->
<g id="node6" class="node">
<title>legendNode5</title>
<polygon fill="none" stroke="black" points="293.92,-310 263.96,-328 204.04,-328 174.08,-310 204.04,-292 263.96,-292 293.92,-310"/>
<text text-anchor="middle" x="234" y="-306.9" font-family="Times New Roman,serif" font-size="12.00">Object Library</text>
</g>
<!-- legendNode2&#45;&gt;legendNode5 -->
<g id="edge5" class="edge">
<title>legendNode2&#45;&gt;legendNode5</title>
<path fill="none" stroke="black" stroke-dasharray="1,5" d="M206.94,-382.9C211.99,-369.49 218.57,-352.01 223.97,-337.64"/>
<polygon fill="black" stroke="black" points="227.25,-338.88 227.49,-328.28 220.7,-336.41 227.25,-338.88"/>
<text text-anchor="middle" x="240.5" y="-349.8" font-family="Times New Roman,serif" font-size="14.00">Private</text>
</g>
<!-- legendNode6 -->
<g id="node7" class="node">
<title>legendNode6</title>
<polygon fill="none" stroke="black" points="444.05,-305.99 430.97,-321.22 378,-328 325.03,-321.22 311.95,-305.99 348.6,-293.78 407.4,-293.78 444.05,-305.99"/>
<text text-anchor="middle" x="378" y="-306.9" font-family="Times New Roman,serif" font-size="12.00">Unknown Library</text>
</g>
<!-- legendNode3&#45;&gt;legendNode6 -->
<g id="edge6" class="edge">
<title>legendNode3&#45;&gt;legendNode6</title>
<path fill="none" stroke="black" d="M353.29,-378.59C358.01,-365.69 363.73,-350.04 368.48,-337.05"/>
<polygon fill="black" stroke="black" points="371.89,-337.9 372.04,-327.31 365.32,-335.5 371.89,-337.9"/>
</g>
<!-- node0 -->
<g id="node9" class="node">
<title>node0</title>
<polygon fill="none" stroke="black" points="639.11,-302.54 639.11,-317.46 606.83,-328 561.17,-328 528.89,-317.46 528.89,-302.54 561.17,-292 606.83,-292 639.11,-302.54"/>
<text text-anchor="middle" x="584" y="-306.9" font-family="Times New Roman,serif" font-size="12.00">AggregatorLib</text>
</g>
<!-- node1 -->
<g id="node10" class="node">
<title>node1</title>
<polygon fill="none" stroke="black" points="1418.11,-10.54 1418.11,-25.46 1389.34,-36 1348.66,-36 1319.89,-25.46 1319.89,-10.54 1348.66,0 1389.34,0 1418.11,-10.54"/>
<text text-anchor="middle" x="1369" y="-14.9" font-family="Times New Roman,serif" font-size="12.00">CommonLib</text>
</g>
<!-- node0&#45;&gt;node1 -->
<g id="edge8" class="edge">
<title>node0&#45;&gt;node1</title>
<path fill="none" stroke="black" d="M592.83,-291.99C599.31,-277.91 607,-257.18 607,-238 607,-238 607,-238 607,-90 607,-19.5 1130.83,-17.1 1309.85,-18.34"/>
<polygon fill="black" stroke="black" points="1309.86,-21.84 1319.88,-18.41 1309.91,-14.84 1309.86,-21.84"/>
</g>
<!-- node2 -->
<g id="node11" class="node">
<title>node2</title>
<polygon fill="none" stroke="black" points="1452.74,-146.05 1455.89,-146.15 1458.99,-146.3 1462.06,-146.49 1465.06,-146.74 1468,-147.03 1470.85,-147.36 1473.62,-147.75 1476.28,-148.18 1478.82,-148.65 1481.25,-149.16 1483.54,-149.71 1485.7,-150.31 1487.71,-150.94 1489.57,-151.61 1491.28,-152.31 1492.82,-153.04 1494.21,-153.8 1495.42,-154.59 1496.47,-155.41 1497.35,-156.25 1498.06,-157.11 1498.61,-157.99 1498.99,-158.89 1499.21,-159.8 1499.27,-160.72 1499.17,-161.65 1498.92,-162.59 1498.53,-163.53 1497.99,-164.47 1497.32,-165.41 1496.53,-166.35 1495.61,-167.28 1494.57,-168.2 1493.43,-169.11 1492.18,-170.01 1490.84,-170.89 1489.41,-171.75 1487.9,-172.59 1486.32,-173.41 1484.67,-174.2 1482.95,-174.96 1481.19,-175.69 1479.37,-176.39 1477.51,-177.06 1475.61,-177.69 1473.67,-178.29 1471.71,-178.84 1469.72,-179.35 1467.71,-179.82 1465.67,-180.25 1463.63,-180.64 1461.57,-180.97 1459.5,-181.26 1457.42,-181.51 1455.33,-181.7 1453.24,-181.85 1451.15,-181.95 1449.05,-182 1446.95,-182 1444.85,-181.95 1442.76,-181.85 1440.67,-181.7 1438.58,-181.51 1436.5,-181.26 1434.43,-180.97 1432.37,-180.64 1430.33,-180.25 1428.29,-179.82 1426.28,-179.35 1424.29,-178.84 1422.33,-178.29 1420.39,-177.69 1418.49,-177.06 1416.63,-176.39 1414.81,-175.69 1413.05,-174.96 1411.33,-174.2 1409.68,-173.41 1408.1,-172.59 1406.59,-171.75 1405.16,-170.89 1403.82,-170.01 1402.57,-169.11 1401.43,-168.2 1400.39,-167.28 1399.47,-166.35 1398.68,-165.41 1398.01,-164.47 1397.47,-163.53 1397.08,-162.59 1396.83,-161.65 1396.73,-160.72 1396.79,-159.8 1397.01,-158.89 1397.39,-157.99 1397.94,-157.11 1398.65,-156.25 1399.53,-155.41 1400.58,-154.59 1401.79,-153.8 1403.18,-153.04 1404.72,-152.31 1406.43,-151.61 1408.29,-150.94 1410.3,-150.31 1412.46,-149.71 1414.75,-149.16 1417.18,-148.65 1419.72,-148.18 1422.38,-147.75 1425.15,-147.36 1428,-147.03 1430.94,-146.74 1433.94,-146.49 1437.01,-146.3 1440.11,-146.15 1443.26,-146.05 1446.42,-146 1449.58,-146 1452.74,-146.05"/>
<text text-anchor="middle" x="1448" y="-160.9" font-family="Times New Roman,serif" font-size="12.00">BitrateReport</text>
</g>
<!-- node3 -->
<g id="node12" class="node">
<title>node3</title>
<polygon fill="none" stroke="black" points="1430.1,-83.54 1430.1,-98.46 1394.31,-109 1343.69,-109 1307.9,-98.46 1307.9,-83.54 1343.69,-73 1394.31,-73 1430.1,-83.54"/>
<text text-anchor="middle" x="1369" y="-87.9" font-family="Times New Roman,serif" font-size="12.00">MivBitstreamLib</text>
</g>
<!-- node2&#45;&gt;node3 -->
<g id="edge10" class="edge">
<title>node2&#45;&gt;node3</title>
<path fill="none" stroke="black" stroke-dasharray="1,5" d="M1429.68,-146.53C1419.53,-137.41 1406.74,-125.91 1395.51,-115.83"/>
<polygon fill="black" stroke="black" points="1397.83,-113.2 1388.05,-109.12 1393.15,-118.41 1397.83,-113.2"/>
</g>
<!-- node3&#45;&gt;node1 -->
<g id="edge9" class="edge">
<title>node3&#45;&gt;node1</title>
<path fill="none" stroke="black" d="M1369,-72.81C1369,-64.79 1369,-55.05 1369,-46.07"/>
<polygon fill="black" stroke="black" points="1372.5,-46.03 1369,-36.03 1365.5,-46.03 1372.5,-46.03"/>
</g>
<!-- node4 -->
<g id="node13" class="node">
<title>node4</title>
<polygon fill="none" stroke="black" points="1732.42,-387.05 1734.68,-387.15 1736.92,-387.3 1739.12,-387.49 1741.29,-387.74 1743.4,-388.03 1745.46,-388.36 1747.45,-388.75 1749.37,-389.18 1751.2,-389.65 1752.95,-390.16 1754.6,-390.71 1756.15,-391.31 1757.6,-391.94 1758.94,-392.61 1760.17,-393.31 1761.28,-394.04 1762.28,-394.8 1763.15,-395.59 1763.91,-396.41 1764.54,-397.25 1765.06,-398.11 1765.45,-398.99 1765.72,-399.89 1765.88,-400.8 1765.92,-401.72 1765.85,-402.65 1765.68,-403.59 1765.39,-404.53 1765.01,-405.47 1764.52,-406.41 1763.95,-407.35 1763.29,-408.28 1762.54,-409.2 1761.72,-410.11 1760.82,-411.01 1759.85,-411.89 1758.82,-412.75 1757.74,-413.59 1756.6,-414.41 1755.41,-415.2 1754.17,-415.96 1752.9,-416.69 1751.59,-417.39 1750.25,-418.06 1748.88,-418.69 1747.49,-419.29 1746.07,-419.84 1744.64,-420.35 1743.19,-420.82 1741.73,-421.25 1740.26,-421.64 1738.77,-421.97 1737.28,-422.26 1735.78,-422.51 1734.28,-422.7 1732.77,-422.85 1731.27,-422.95 1729.76,-423 1728.24,-423 1726.73,-422.95 1725.23,-422.85 1723.72,-422.7 1722.22,-422.51 1720.72,-422.26 1719.23,-421.97 1717.74,-421.64 1716.27,-421.25 1714.81,-420.82 1713.36,-420.35 1711.93,-419.84 1710.51,-419.29 1709.12,-418.69 1707.75,-418.06 1706.41,-417.39 1705.1,-416.69 1703.83,-415.96 1702.59,-415.2 1701.4,-414.41 1700.26,-413.59 1699.18,-412.75 1698.15,-411.89 1697.18,-411.01 1696.28,-410.11 1695.46,-409.2 1694.71,-408.28 1694.05,-407.35 1693.48,-406.41 1692.99,-405.47 1692.61,-404.53 1692.32,-403.59 1692.15,-402.65 1692.08,-401.72 1692.12,-400.8 1692.28,-399.89 1692.55,-398.99 1692.94,-398.11 1693.46,-397.25 1694.09,-396.41 1694.85,-395.59 1695.72,-394.8 1696.72,-394.04 1697.83,-393.31 1699.06,-392.61 1700.4,-391.94 1701.85,-391.31 1703.4,-390.71 1705.05,-390.16 1706.8,-389.65 1708.63,-389.18 1710.55,-388.75 1712.54,-388.36 1714.6,-388.03 1716.71,-387.74 1718.88,-387.49 1721.08,-387.3 1723.32,-387.15 1725.58,-387.05 1727.86,-387 1730.14,-387 1732.42,-387.05"/>
<text text-anchor="middle" x="1729" y="-401.9" font-family="Times New Roman,serif" font-size="12.00">Decoder</text>
</g>
<!-- node5 -->
<g id="node14" class="node">
<title>node5</title>
<polygon fill="none" stroke="black" points="1670.12,-229.54 1670.12,-244.46 1642.52,-255 1603.48,-255 1575.88,-244.46 1575.88,-229.54 1603.48,-219 1642.52,-219 1670.12,-229.54"/>
<text text-anchor="middle" x="1623" y="-233.9" font-family="Times New Roman,serif" font-size="12.00">DecoderLib</text>
</g>
<!-- node4&#45;&gt;node5 -->
<g id="edge13" class="edge">
<title>node4&#45;&gt;node5</title>
<path fill="none" stroke="black" stroke-dasharray="1,5" d="M1725.93,-386.98C1720.38,-360.19 1706.5,-307.7 1678,-273 1673.11,-267.05 1666.93,-261.79 1660.5,-257.27"/>
<polygon fill="black" stroke="black" points="1661.96,-254.05 1651.66,-251.58 1658.17,-259.93 1661.96,-254.05"/>
</g>
<!-- node7 -->
<g id="node16" class="node">
<title>node7</title>
<polygon fill="none" stroke="black" points="1636.1,-302.54 1636.1,-317.46 1597.96,-328 1544.04,-328 1505.9,-317.46 1505.9,-302.54 1544.04,-292 1597.96,-292 1636.1,-302.54"/>
<text text-anchor="middle" x="1571" y="-306.9" font-family="Times New Roman,serif" font-size="12.00">RendererFrontLib</text>
</g>
<!-- node4&#45;&gt;node7 -->
<g id="edge20" class="edge">
<title>node4&#45;&gt;node7</title>
<path fill="none" stroke="black" stroke-dasharray="1,5" d="M1705,-389.88C1679.34,-374.77 1638.31,-350.62 1608.4,-333.02"/>
<polygon fill="black" stroke="black" points="1609.9,-329.84 1599.51,-327.78 1606.35,-335.87 1609.9,-329.84"/>
</g>
<!-- node11 -->
<g id="node20" class="node">
<title>node11</title>
<polygon fill="none" stroke="black" points="2039.93,-229.54 2039.93,-244.46 2001.31,-255 1946.69,-255 1908.07,-244.46 1908.07,-229.54 1946.69,-219 2001.31,-219 2039.93,-229.54"/>
<text text-anchor="middle" x="1974" y="-233.9" font-family="Times New Roman,serif" font-size="12.00">VideoDecoderLib</text>
</g>
<!-- node4&#45;&gt;node11 -->
<g id="edge22" class="edge">
<title>node4&#45;&gt;node11</title>
<path fill="none" stroke="black" stroke-dasharray="1,5" d="M1757.91,-392.01C1768.3,-387.79 1780.14,-383.08 1791,-379 1855.34,-354.81 1887.1,-375.27 1937,-328 1954.57,-311.36 1964.06,-285.16 1969.01,-265.31"/>
<polygon fill="black" stroke="black" points="1972.48,-265.84 1971.27,-255.31 1965.65,-264.3 1972.48,-265.84"/>
</g>
<!-- node6 -->
<g id="node15" class="node">
<title>node6</title>
<polygon fill="none" stroke="black" points="1627.11,-156.54 1627.11,-171.46 1594.83,-182 1549.17,-182 1516.89,-171.46 1516.89,-156.54 1549.17,-146 1594.83,-146 1627.11,-156.54"/>
<text text-anchor="middle" x="1572" y="-160.9" font-family="Times New Roman,serif" font-size="12.00">PtlCheckerLib</text>
</g>
<!-- node5&#45;&gt;node6 -->
<g id="edge12" class="edge">
<title>node5&#45;&gt;node6</title>
<path fill="none" stroke="black" d="M1610.65,-218.81C1604.52,-210.27 1596.98,-199.77 1590.19,-190.32"/>
<polygon fill="black" stroke="black" points="1592.91,-188.11 1584.23,-182.03 1587.22,-192.19 1592.91,-188.11"/>
</g>
<!-- node6&#45;&gt;node3 -->
<g id="edge11" class="edge">
<title>node6&#45;&gt;node3</title>
<path fill="none" stroke="black" d="M1535.71,-150.31C1502.56,-138.71 1453.32,-121.49 1416.94,-108.77"/>
<polygon fill="black" stroke="black" points="1417.64,-105.3 1407.05,-105.31 1415.33,-111.91 1417.64,-105.3"/>
</g>
<!-- node8 -->
<g id="node17" class="node">
<title>node8</title>
<polygon fill="none" stroke="black" points="1557.14,-229.54 1557.14,-244.46 1540.07,-255 1515.93,-255 1498.86,-244.46 1498.86,-229.54 1515.93,-219 1540.07,-219 1557.14,-229.54"/>
<text text-anchor="middle" x="1528" y="-233.9" font-family="Times New Roman,serif" font-size="12.00">IOLib</text>
</g>
<!-- node7&#45;&gt;node8 -->
<g id="edge15" class="edge">
<title>node7&#45;&gt;node8</title>
<path fill="none" stroke="black" d="M1560.59,-291.81C1555.47,-283.35 1549.19,-272.98 1543.51,-263.61"/>
<polygon fill="black" stroke="black" points="1546.49,-261.77 1538.31,-255.03 1540.5,-265.4 1546.49,-261.77"/>
</g>
<!-- node9 -->
<g id="node18" class="node">
<title>node9</title>
<polygon fill="none" stroke="black" points="1161.11,-229.54 1161.11,-244.46 1132.34,-255 1091.66,-255 1062.89,-244.46 1062.89,-229.54 1091.66,-219 1132.34,-219 1161.11,-229.54"/>
<text text-anchor="middle" x="1112" y="-233.9" font-family="Times New Roman,serif" font-size="12.00">RendererLib</text>
</g>
<!-- node7&#45;&gt;node9 -->
<g id="edge19" class="edge">
<title>node7&#45;&gt;node9</title>
<path fill="none" stroke="black" stroke-dasharray="1,5" d="M1533.78,-294.75C1522.15,-290.75 1509.17,-286.75 1497,-284 1383.5,-258.34 1247.73,-246.36 1171.52,-241.28"/>
<polygon fill="black" stroke="black" points="1171.38,-237.77 1161.17,-240.61 1170.92,-244.75 1171.38,-237.77"/>
</g>
<!-- node8&#45;&gt;node3 -->
<g id="edge14" class="edge">
<title>node8&#45;&gt;node3</title>
<path fill="none" stroke="black" d="M1498.65,-232.88C1466.58,-227.86 1416.04,-214.93 1388,-182 1373.32,-164.76 1369.08,-139.02 1368.21,-119.48"/>
<polygon fill="black" stroke="black" points="1371.7,-119.29 1368.03,-109.35 1364.7,-119.41 1371.7,-119.29"/>
</g>
<!-- node9&#45;&gt;node3 -->
<g id="edge16" class="edge">
<title>node9&#45;&gt;node3</title>
<path fill="none" stroke="black" d="M1117.41,-218.66C1124.69,-198.2 1139.62,-164.62 1164,-146 1202.32,-116.74 1255.1,-103.28 1297.51,-97.12"/>
<polygon fill="black" stroke="black" points="1298.05,-100.58 1307.49,-95.77 1297.12,-93.64 1298.05,-100.58"/>
</g>
<!-- node10 -->
<g id="node19" class="node">
<title>node10</title>
<polygon fill="none" stroke="black" points="1302.76,-156.54 1302.76,-171.46 1264.83,-182 1211.17,-182 1173.24,-171.46 1173.24,-156.54 1211.17,-146 1264.83,-146 1302.76,-156.54"/>
<text text-anchor="middle" x="1238" y="-160.9" font-family="Times New Roman,serif" font-size="12.00">ViewingSpaceLib</text>
</g>
<!-- node9&#45;&gt;node10 -->
<g id="edge18" class="edge">
<title>node9&#45;&gt;node10</title>
<path fill="none" stroke="black" stroke-dasharray="1,5" d="M1138.41,-221.12C1156.19,-211.1 1179.9,-197.74 1199.73,-186.56"/>
<polygon fill="black" stroke="black" points="1201.54,-189.56 1208.54,-181.6 1198.11,-183.46 1201.54,-189.56"/>
</g>
<!-- node10&#45;&gt;node3 -->
<g id="edge17" class="edge">
<title>node10&#45;&gt;node3</title>
<path fill="none" stroke="black" d="M1268.05,-146.71C1286.66,-136.63 1310.72,-123.59 1330.69,-112.77"/>
<polygon fill="black" stroke="black" points="1332.41,-115.81 1339.54,-107.97 1329.08,-109.66 1332.41,-115.81"/>
</g>
<!-- node11&#45;&gt;node1 -->
<g id="edge21" class="edge">
<title>node11&#45;&gt;node1</title>
<path fill="none" stroke="black" d="M1961.48,-218.83C1945.8,-198.54 1917.09,-165.13 1885,-146 1736.57,-57.49 1529.09,-30.51 1428.44,-22.41"/>
<polygon fill="black" stroke="black" points="1428.7,-18.92 1418.46,-21.64 1428.16,-25.9 1428.7,-18.92"/>
</g>
<!-- node12 -->
<g id="node21" class="node">
<title>node12</title>
<polygon fill="none" stroke="black" points="1200.74,-302.54 1200.74,-317.46 1148.76,-328 1075.24,-328 1023.26,-317.46 1023.26,-302.54 1075.24,-292 1148.76,-292 1200.74,-302.54"/>
<text text-anchor="middle" x="1112" y="-306.9" font-family="Times New Roman,serif" font-size="12.00">DepthQualityAssessorLib</text>
</g>
<!-- node12&#45;&gt;node9 -->
<g id="edge23" class="edge">
<title>node12&#45;&gt;node9</title>
<path fill="none" stroke="black" stroke-dasharray="1,5" d="M1112,-291.81C1112,-283.79 1112,-274.05 1112,-265.07"/>
<polygon fill="black" stroke="black" points="1115.5,-265.03 1112,-255.03 1108.5,-265.03 1115.5,-265.03"/>
</g>
<!-- node13 -->
<g id="node22" class="node">
<title>node13</title>
<polygon fill="none" stroke="black" points="1110.34,-468.05 1112.55,-468.15 1114.74,-468.3 1116.9,-468.49 1119.02,-468.74 1121.09,-469.03 1123.1,-469.36 1125.04,-469.75 1126.92,-470.18 1128.71,-470.65 1130.42,-471.16 1132.04,-471.71 1133.56,-472.31 1134.97,-472.94 1136.28,-473.61 1137.48,-474.31 1138.57,-475.04 1139.55,-475.8 1140.4,-476.59 1141.14,-477.41 1141.76,-478.25 1142.26,-479.11 1142.65,-479.99 1142.92,-480.89 1143.07,-481.8 1143.11,-482.72 1143.04,-483.65 1142.87,-484.59 1142.59,-485.53 1142.21,-486.47 1141.74,-487.41 1141.18,-488.35 1140.53,-489.28 1139.8,-490.2 1139,-491.11 1138.12,-492.01 1137.17,-492.89 1136.17,-493.75 1135.1,-494.59 1133.99,-495.41 1132.83,-496.2 1131.62,-496.96 1130.37,-497.69 1129.09,-498.39 1127.78,-499.06 1126.45,-499.69 1125.08,-500.29 1123.7,-500.84 1122.3,-501.35 1120.88,-501.82 1119.45,-502.25 1118.01,-502.64 1116.56,-502.97 1115.1,-503.26 1113.63,-503.51 1112.16,-503.7 1110.69,-503.85 1109.22,-503.95 1107.74,-504 1106.26,-504 1104.78,-503.95 1103.31,-503.85 1101.84,-503.7 1100.37,-503.51 1098.9,-503.26 1097.44,-502.97 1095.99,-502.64 1094.55,-502.25 1093.12,-501.82 1091.7,-501.35 1090.3,-500.84 1088.92,-500.29 1087.55,-499.69 1086.22,-499.06 1084.91,-498.39 1083.63,-497.69 1082.38,-496.96 1081.17,-496.2 1080.01,-495.41 1078.9,-494.59 1077.83,-493.75 1076.83,-492.89 1075.88,-492.01 1075,-491.11 1074.2,-490.2 1073.47,-489.28 1072.82,-488.35 1072.26,-487.41 1071.79,-486.47 1071.41,-485.53 1071.13,-484.59 1070.96,-483.65 1070.89,-482.72 1070.93,-481.8 1071.08,-480.89 1071.35,-479.99 1071.74,-479.11 1072.24,-478.25 1072.86,-477.41 1073.6,-476.59 1074.45,-475.8 1075.43,-475.04 1076.52,-474.31 1077.72,-473.61 1079.03,-472.94 1080.44,-472.31 1081.96,-471.71 1083.58,-471.16 1085.29,-470.65 1087.08,-470.18 1088.96,-469.75 1090.9,-469.36 1092.91,-469.03 1094.98,-468.74 1097.1,-468.49 1099.26,-468.3 1101.45,-468.15 1103.66,-468.05 1105.88,-468 1108.12,-468 1110.34,-468.05"/>
<text text-anchor="middle" x="1107" y="-482.9" font-family="Times New Roman,serif" font-size="12.00">Encoder</text>
</g>
<!-- node13&#45;&gt;node0 -->
<g id="edge24" class="edge">
<title>node13&#45;&gt;node0</title>
<path fill="none" stroke="black" stroke-dasharray="1,5" d="M1071.74,-478.87C1033.72,-472.17 971.46,-460.92 918,-450 880.07,-442.25 869.56,-443.71 833,-431 754.17,-403.6 667.54,-358.05 620.08,-331.65"/>
<polygon fill="black" stroke="black" points="621.56,-328.47 611.12,-326.64 618.14,-334.58 621.56,-328.47"/>
</g>
<!-- node13&#45;&gt;node8 -->
<g id="edge38" class="edge">
<title>node13&#45;&gt;node8</title>
<path fill="none" stroke="black" stroke-dasharray="1,5" d="M1142.65,-485.58C1213.11,-485.56 1374.1,-479.66 1498,-431 1572.25,-401.84 1608.18,-398.77 1645,-328 1654.03,-310.65 1656.16,-300.06 1645,-284 1623.89,-253.63 1601.3,-268.84 1567,-255 1564.8,-254.11 1562.55,-253.18 1560.28,-252.23"/>
<polygon fill="black" stroke="black" points="1561.58,-248.98 1551.01,-248.28 1558.83,-255.42 1561.58,-248.98"/>
</g>
<!-- node13&#45;&gt;node9 -->
<g id="edge41" class="edge">
<title>node13&#45;&gt;node9</title>
<path fill="none" stroke="black" stroke-dasharray="1,5" d="M1122.39,-468.8C1146.63,-442.04 1192.74,-385.78 1210,-328 1215.6,-309.26 1220.49,-300.51 1210,-284 1199.71,-267.8 1182.04,-257.21 1164.52,-250.33"/>
<polygon fill="black" stroke="black" points="1165.44,-246.94 1154.84,-246.87 1163.08,-253.53 1165.44,-246.94"/>
</g>
<!-- node13&#45;&gt;node12 -->
<g id="edge25" class="edge">
<title>node13&#45;&gt;node12</title>
<path fill="none" stroke="black" stroke-dasharray="1,5" d="M1107.49,-468C1108.35,-437.85 1110.17,-374.79 1111.21,-338.43"/>
<polygon fill="black" stroke="black" points="1114.72,-338.17 1111.51,-328.07 1107.72,-337.96 1114.72,-338.17"/>
</g>
<!-- node14 -->
<g id="node23" class="node">
<title>node14</title>
<polygon fill="none" stroke="black" points="990.78,-397.54 990.78,-412.46 963.38,-423 924.62,-423 897.22,-412.46 897.22,-397.54 924.62,-387 963.38,-387 990.78,-397.54"/>
<text text-anchor="middle" x="944" y="-401.9" font-family="Times New Roman,serif" font-size="12.00">EncoderLib</text>
</g>
<!-- node13&#45;&gt;node14 -->
<g id="edge37" class="edge">
<title>node13&#45;&gt;node14</title>
<path fill="none" stroke="black" stroke-dasharray="1,5" d="M1080.45,-472.13C1053.59,-459.11 1011.82,-438.87 981.57,-424.21"/>
<polygon fill="black" stroke="black" points="982.71,-420.87 972.18,-419.66 979.65,-427.17 982.71,-420.87"/>
</g>
<!-- node15 -->
<g id="node24" class="node">
<title>node15</title>
<polygon fill="none" stroke="black" points="1380.79,-302.54 1380.79,-317.46 1355.72,-328 1320.28,-328 1295.21,-317.46 1295.21,-302.54 1320.28,-292 1355.72,-292 1380.79,-302.54"/>
<text text-anchor="middle" x="1338" y="-306.9" font-family="Times New Roman,serif" font-size="12.00">PackerLib</text>
</g>
<!-- node13&#45;&gt;node15 -->
<g id="edge39" class="edge">
<title>node13&#45;&gt;node15</title>
<path fill="none" stroke="black" stroke-dasharray="1,5" d="M1143.19,-481.45C1200.28,-475.03 1307.2,-459.47 1331,-431 1352.39,-405.42 1349.8,-365.02 1344.84,-338.27"/>
<polygon fill="black" stroke="black" points="1348.25,-337.48 1342.79,-328.4 1341.4,-338.9 1348.25,-337.48"/>
</g>
<!-- node16 -->
<g id="node25" class="node">
<title>node16</title>
<polygon fill="none" stroke="black" points="967.12,-302.54 967.12,-317.46 943.03,-328 908.97,-328 884.88,-317.46 884.88,-302.54 908.97,-292 943.03,-292 967.12,-302.54"/>
<text text-anchor="middle" x="926" y="-306.9" font-family="Times New Roman,serif" font-size="12.00">PrunerLib</text>
</g>
<!-- node13&#45;&gt;node16 -->
<g id="edge40" class="edge">
<title>node13&#45;&gt;node16</title>
<path fill="none" stroke="black" stroke-dasharray="1,5" d="M1091.23,-469.01C1070.52,-448.09 1032.92,-410.41 1000,-379 984.24,-363.96 966.24,-347.41 951.95,-334.41"/>
<polygon fill="black" stroke="black" points="954.18,-331.71 944.42,-327.58 949.48,-336.89 954.18,-331.71"/>
</g>
<!-- node17 -->
<g id="node26" class="node">
<title>node17</title>
<polygon fill="none" stroke="black" points="866.76,-302.54 866.76,-317.46 827.65,-328 772.35,-328 733.24,-317.46 733.24,-302.54 772.35,-292 827.65,-292 866.76,-302.54"/>
<text text-anchor="middle" x="800" y="-306.9" font-family="Times New Roman,serif" font-size="12.00">ViewOptimizerLib</text>
</g>
<!-- node13&#45;&gt;node17 -->
<g id="edge42" class="edge">
<title>node13&#45;&gt;node17</title>
<path fill="none" stroke="black" stroke-dasharray="1,5" d="M1070.62,-483.54C1024.52,-480.1 944.3,-468.69 888,-431 852.86,-407.47 826.67,-364.97 812.36,-337.38"/>
<polygon fill="black" stroke="black" points="815.42,-335.66 807.8,-328.29 809.16,-338.8 815.42,-335.66"/>
</g>
<!-- node14&#45;&gt;node0 -->
<g id="edge26" class="edge">
<title>node14&#45;&gt;node0</title>
<path fill="none" stroke="black" stroke-dasharray="1,5" d="M905.81,-394.14C840.92,-377.37 709.04,-343.3 635.86,-324.4"/>
<polygon fill="black" stroke="black" points="636.49,-320.95 625.94,-321.83 634.74,-327.72 636.49,-320.95"/>
</g>
<!-- node14&#45;&gt;node3 -->
<g id="edge28" class="edge">
<title>node14&#45;&gt;node3</title>
<path fill="none" stroke="black" d="M907.36,-393.4C853.37,-377.44 755.44,-347.08 724,-328 694.17,-309.89 667,-308.9 667,-274 667,-274 667,-274 667,-163 667,-100.1 1118.86,-92.43 1297.53,-91.85"/>
<polygon fill="black" stroke="black" points="1297.63,-95.35 1307.62,-91.83 1297.62,-88.35 1297.63,-95.35"/>
</g>
<!-- node14&#45;&gt;node9 -->
<g id="edge33" class="edge">
<title>node14&#45;&gt;node9</title>
<path fill="none" stroke="black" stroke-dasharray="1,5" d="M950.21,-386.72C960.13,-361.25 981.79,-313.46 1014,-284 1028.74,-270.52 1048.14,-260.3 1065.79,-252.96"/>
<polygon fill="black" stroke="black" points="1067.36,-256.1 1075.37,-249.17 1064.78,-249.59 1067.36,-256.1"/>
</g>
<!-- node14&#45;&gt;node12 -->
<g id="edge27" class="edge">
<title>node14&#45;&gt;node12</title>
<path fill="none" stroke="black" stroke-dasharray="1,5" d="M970.25,-389.47C997.55,-374.36 1040.62,-350.52 1072.12,-333.07"/>
<polygon fill="black" stroke="black" points="1074.03,-336.02 1081.09,-328.11 1070.64,-329.89 1074.03,-336.02"/>
</g>
<!-- node14&#45;&gt;node15 -->
<g id="edge30" class="edge">
<title>node14&#45;&gt;node15</title>
<path fill="none" stroke="black" stroke-dasharray="1,5" d="M983.58,-394.66C1056.6,-377.42 1212.2,-340.69 1290.67,-322.17"/>
<polygon fill="black" stroke="black" points="1291.83,-325.49 1300.76,-319.79 1290.22,-318.68 1291.83,-325.49"/>
</g>
<!-- node14&#45;&gt;node16 -->
<g id="edge32" class="edge">
<title>node14&#45;&gt;node16</title>
<path fill="none" stroke="black" stroke-dasharray="1,5" d="M940.7,-386.94C938.08,-373.39 934.36,-354.18 931.32,-338.47"/>
<polygon fill="black" stroke="black" points="934.68,-337.42 929.34,-328.26 927.81,-338.75 934.68,-337.42"/>
</g>
<!-- node14&#45;&gt;node17 -->
<g id="edge36" class="edge">
<title>node14&#45;&gt;node17</title>
<path fill="none" stroke="black" stroke-dasharray="1,5" d="M936.26,-386.75C929.66,-373.84 919,-356.65 905,-346 892.52,-336.5 877.32,-329.51 862.41,-324.38"/>
<polygon fill="black" stroke="black" points="863.27,-320.98 852.68,-321.27 861.14,-327.65 863.27,-320.98"/>
</g>
<!-- node15&#45;&gt;node3 -->
<g id="edge29" class="edge">
<title>node15&#45;&gt;node3</title>
<path fill="none" stroke="black" d="M1340.43,-291.97C1345.78,-254.51 1358.62,-164.68 1365.11,-119.26"/>
<polygon fill="black" stroke="black" points="1368.59,-119.64 1366.54,-109.25 1361.66,-118.65 1368.59,-119.64"/>
</g>
<!-- node16&#45;&gt;node9 -->
<g id="edge31" class="edge">
<title>node16&#45;&gt;node9</title>
<path fill="none" stroke="black" stroke-dasharray="1,5" d="M946.51,-293.32C956.49,-286.3 968.91,-278.4 981,-273 1005.16,-262.2 1033.37,-254.13 1057.41,-248.49"/>
<polygon fill="black" stroke="black" points="1058.46,-251.84 1067.43,-246.21 1056.91,-245.01 1058.46,-251.84"/>
</g>
<!-- node17&#45;&gt;node3 -->
<g id="edge34" class="edge">
<title>node17&#45;&gt;node3</title>
<path fill="none" stroke="black" d="M827.43,-291.73C889.17,-253.89 1044.94,-164.06 1189,-127 1227.16,-117.18 1270.5,-108.68 1305.09,-102.51"/>
<polygon fill="black" stroke="black" points="1305.83,-105.93 1315.07,-100.75 1304.61,-99.04 1305.83,-105.93"/>
</g>
<!-- node17&#45;&gt;node9 -->
<g id="edge35" class="edge">
<title>node17&#45;&gt;node9</title>
<path fill="none" stroke="black" stroke-dasharray="1,5" d="M839.17,-295.08C850.92,-291.18 863.9,-287.16 876,-284 936.52,-268.21 1007.05,-255.15 1055.13,-247.03"/>
<polygon fill="black" stroke="black" points="1055.76,-250.47 1065.04,-245.37 1054.6,-243.57 1055.76,-250.47"/>
</g>
<!-- node18 -->
<g id="node27" class="node">
<title>node18</title>
<polygon fill="none" stroke="black" points="1734.95,-219.05 1737.57,-219.15 1740.16,-219.3 1742.71,-219.49 1745.22,-219.74 1747.67,-220.03 1750.04,-220.36 1752.35,-220.75 1754.56,-221.18 1756.69,-221.65 1758.71,-222.16 1760.62,-222.71 1762.42,-223.31 1764.09,-223.94 1765.64,-224.61 1767.07,-225.31 1768.35,-226.04 1769.51,-226.8 1770.52,-227.59 1771.39,-228.41 1772.13,-229.25 1772.72,-230.11 1773.18,-230.99 1773.49,-231.89 1773.67,-232.8 1773.72,-233.72 1773.64,-234.65 1773.44,-235.59 1773.11,-236.53 1772.66,-237.47 1772.1,-238.41 1771.44,-239.35 1770.67,-240.28 1769.81,-241.2 1768.85,-242.11 1767.82,-243.01 1766.7,-243.89 1765.51,-244.75 1764.25,-245.59 1762.93,-246.41 1761.55,-247.2 1760.13,-247.96 1758.65,-248.69 1757.14,-249.39 1755.59,-250.06 1754.01,-250.69 1752.39,-251.29 1750.76,-251.84 1749.1,-252.35 1747.42,-252.82 1745.73,-253.25 1744.02,-253.64 1742.31,-253.97 1740.58,-254.26 1738.85,-254.51 1737.11,-254.7 1735.37,-254.85 1733.62,-254.95 1731.87,-255 1730.13,-255 1728.38,-254.95 1726.63,-254.85 1724.89,-254.7 1723.15,-254.51 1721.42,-254.26 1719.69,-253.97 1717.98,-253.64 1716.27,-253.25 1714.58,-252.82 1712.9,-252.35 1711.24,-251.84 1709.61,-251.29 1707.99,-250.69 1706.41,-250.06 1704.86,-249.39 1703.35,-248.69 1701.87,-247.96 1700.45,-247.2 1699.07,-246.41 1697.75,-245.59 1696.49,-244.75 1695.3,-243.89 1694.18,-243.01 1693.15,-242.11 1692.19,-241.2 1691.33,-240.28 1690.56,-239.35 1689.9,-238.41 1689.34,-237.47 1688.89,-236.53 1688.56,-235.59 1688.36,-234.65 1688.28,-233.72 1688.33,-232.8 1688.51,-231.89 1688.82,-230.99 1689.28,-230.11 1689.87,-229.25 1690.61,-228.41 1691.48,-227.59 1692.49,-226.8 1693.65,-226.04 1694.93,-225.31 1696.36,-224.61 1697.91,-223.94 1699.58,-223.31 1701.38,-222.71 1703.29,-222.16 1705.31,-221.65 1707.44,-221.18 1709.65,-220.75 1711.96,-220.36 1714.33,-220.03 1716.78,-219.74 1719.29,-219.49 1721.84,-219.3 1724.43,-219.15 1727.05,-219.05 1729.68,-219 1732.32,-219 1734.95,-219.05"/>
<text text-anchor="middle" x="1731" y="-233.9" font-family="Times New Roman,serif" font-size="12.00">GaInserter</text>
</g>
<!-- node19 -->
<g id="node28" class="node">
<title>node19</title>
<polygon fill="none" stroke="black" points="1752.11,-156.54 1752.11,-171.46 1721,-182 1677,-182 1645.89,-171.46 1645.89,-156.54 1677,-146 1721,-146 1752.11,-156.54"/>
<text text-anchor="middle" x="1699" y="-160.9" font-family="Times New Roman,serif" font-size="12.00">GaInserterLib</text>
</g>
<!-- node18&#45;&gt;node19 -->
<g id="edge44" class="edge">
<title>node18&#45;&gt;node19</title>
<path fill="none" stroke="black" stroke-dasharray="1,5" d="M1723.42,-219.17C1719.69,-210.9 1715.1,-200.72 1710.92,-191.44"/>
<polygon fill="black" stroke="black" points="1714.05,-189.88 1706.75,-182.2 1707.67,-192.75 1714.05,-189.88"/>
</g>
<!-- node19&#45;&gt;node3 -->
<g id="edge43" class="edge">
<title>node19&#45;&gt;node3</title>
<path fill="none" stroke="black" d="M1659.44,-151.91C1651.69,-149.86 1643.61,-147.79 1636,-146 1565.95,-129.48 1484.82,-113.52 1430.55,-103.29"/>
<polygon fill="black" stroke="black" points="1430.87,-99.79 1420.4,-101.38 1429.58,-106.67 1430.87,-99.79"/>
</g>
<!-- node20 -->
<g id="node29" class="node">
<title>node20</title>
<polygon fill="none" stroke="black" points="823.49,-468.05 826.46,-468.15 829.41,-468.3 832.3,-468.49 835.15,-468.74 837.93,-469.03 840.63,-469.36 843.25,-469.75 845.76,-470.18 848.17,-470.65 850.47,-471.16 852.64,-471.71 854.68,-472.31 856.59,-472.94 858.35,-473.61 859.96,-474.31 861.42,-475.04 862.73,-475.8 863.88,-476.59 864.88,-477.41 865.71,-478.25 866.38,-479.11 866.9,-479.99 867.26,-480.89 867.47,-481.8 867.52,-482.72 867.43,-483.65 867.2,-484.59 866.82,-485.53 866.32,-486.47 865.68,-487.41 864.93,-488.35 864.06,-489.28 863.08,-490.2 861.99,-491.11 860.81,-492.01 859.54,-492.89 858.19,-493.75 856.76,-494.59 855.27,-495.41 853.7,-496.2 852.08,-496.96 850.41,-497.69 848.69,-498.39 846.93,-499.06 845.13,-499.69 843.3,-500.29 841.44,-500.84 839.56,-501.35 837.65,-501.82 835.73,-502.25 833.79,-502.64 831.84,-502.97 829.88,-503.26 827.91,-503.51 825.94,-503.7 823.96,-503.85 821.98,-503.95 819.99,-504 818.01,-504 816.02,-503.95 814.04,-503.85 812.06,-503.7 810.09,-503.51 808.12,-503.26 806.16,-502.97 804.21,-502.64 802.27,-502.25 800.35,-501.82 798.44,-501.35 796.56,-500.84 794.7,-500.29 792.87,-499.69 791.07,-499.06 789.31,-498.39 787.59,-497.69 785.92,-496.96 784.3,-496.2 782.73,-495.41 781.24,-494.59 779.81,-493.75 778.46,-492.89 777.19,-492.01 776.01,-491.11 774.92,-490.2 773.94,-489.28 773.07,-488.35 772.32,-487.41 771.68,-486.47 771.18,-485.53 770.8,-484.59 770.57,-483.65 770.48,-482.72 770.53,-481.8 770.74,-480.89 771.1,-479.99 771.62,-479.11 772.29,-478.25 773.12,-477.41 774.12,-476.59 775.27,-475.8 776.58,-475.04 778.04,-474.31 779.65,-473.61 781.41,-472.94 783.32,-472.31 785.36,-471.71 787.53,-471.16 789.83,-470.65 792.24,-470.18 794.75,-469.75 797.37,-469.36 800.07,-469.03 802.85,-468.74 805.7,-468.49 808.59,-468.3 811.54,-468.15 814.51,-468.05 817.5,-468 820.5,-468 823.49,-468.05"/>
<text text-anchor="middle" x="819" y="-482.9" font-family="Times New Roman,serif" font-size="12.00">MpiEncoder</text>
</g>
<!-- node20&#45;&gt;node0 -->
<g id="edge45" class="edge">
<title>node20&#45;&gt;node0</title>
<path fill="none" stroke="black" stroke-dasharray="1,5" d="M771.23,-479.43C745.75,-474.69 714.82,-465.98 691,-450 647.91,-421.1 614.78,-369.1 597.44,-337.55"/>
<polygon fill="black" stroke="black" points="600.38,-335.62 592.57,-328.46 594.21,-338.93 600.38,-335.62"/>
</g>
<!-- node20&#45;&gt;node9 -->
<g id="edge52" class="edge">
<title>node20&#45;&gt;node9</title>
<path fill="none" stroke="black" stroke-dasharray="1,5" d="M800.29,-468.91C759.99,-432.38 672.6,-341.85 724,-284 745.42,-259.89 949.23,-246.21 1052.55,-240.77"/>
<polygon fill="black" stroke="black" points="1053.02,-244.25 1062.83,-240.24 1052.66,-237.26 1053.02,-244.25"/>
</g>
<!-- node20&#45;&gt;node12 -->
<g id="edge46" class="edge">
<title>node20&#45;&gt;node12</title>
<path fill="none" stroke="black" stroke-dasharray="1,5" d="M865.66,-478.08C903.97,-470.81 958.47,-456.74 1000,-431 1040,-406.21 1074.99,-363.47 1094.8,-336.25"/>
<polygon fill="black" stroke="black" points="1097.73,-338.18 1100.69,-328.01 1092.03,-334.11 1097.73,-338.18"/>
</g>
<!-- node20&#45;&gt;node14 -->
<g id="edge47" class="edge">
<title>node20&#45;&gt;node14</title>
<path fill="none" stroke="black" stroke-dasharray="1,5" d="M843.4,-469.58C862.67,-457.4 889.76,-440.28 910.97,-426.87"/>
<polygon fill="black" stroke="black" points="913.08,-429.68 919.66,-421.38 909.34,-423.76 913.08,-429.68"/>
</g>
<!-- node20&#45;&gt;node15 -->
<g id="edge50" class="edge">
<title>node20&#45;&gt;node15</title>
<path fill="none" stroke="black" stroke-dasharray="1,5" d="M867,-479.67C988.18,-466.21 1296.95,-431.85 1298,-431 1325.72,-408.55 1334.37,-366.28 1336.99,-338.37"/>
<polygon fill="black" stroke="black" points="1340.5,-338.33 1337.74,-328.1 1333.52,-337.82 1340.5,-338.33"/>
</g>
<!-- node20&#45;&gt;node16 -->
<g id="edge51" class="edge">
<title>node20&#45;&gt;node16</title>
<path fill="none" stroke="black" stroke-dasharray="1,5" d="M829.45,-468C848.23,-437.46 887.78,-373.15 909.99,-337.03"/>
<polygon fill="black" stroke="black" points="913.25,-338.42 915.5,-328.07 907.28,-334.75 913.25,-338.42"/>
</g>
<!-- node20&#45;&gt;node17 -->
<g id="edge53" class="edge">
<title>node20&#45;&gt;node17</title>
<path fill="none" stroke="black" stroke-dasharray="1,5" d="M804.54,-468.28C800.67,-462.82 797.01,-456.47 795,-450 783.4,-412.57 788.51,-366.74 793.81,-338.2"/>
<polygon fill="black" stroke="black" points="797.29,-338.66 795.82,-328.17 790.43,-337.29 797.29,-338.66"/>
</g>
<!-- node21 -->
<g id="node30" class="node">
<title>node21</title>
<polygon fill="none" stroke="black" points="1487.79,-302.54 1487.79,-317.46 1461.55,-328 1424.45,-328 1398.21,-317.46 1398.21,-302.54 1424.45,-292 1461.55,-292 1487.79,-302.54"/>
<text text-anchor="middle" x="1443" y="-306.9" font-family="Times New Roman,serif" font-size="12.00">MpiPcsLib</text>
</g>
<!-- node20&#45;&gt;node21 -->
<g id="edge49" class="edge">
<title>node20&#45;&gt;node21</title>
<path fill="none" stroke="black" stroke-dasharray="1,5" d="M867.46,-481.74C986.44,-473.46 1286.25,-450.89 1327,-431 1370.47,-409.78 1406.57,-365.21 1426.43,-336.76"/>
<polygon fill="black" stroke="black" points="1429.56,-338.38 1432.3,-328.14 1423.78,-334.44 1429.56,-338.38"/>
</g>
<!-- node21&#45;&gt;node8 -->
<g id="edge48" class="edge">
<title>node21&#45;&gt;node8</title>
<path fill="none" stroke="black" d="M1463.14,-292.17C1475.14,-282.15 1490.47,-269.35 1503.21,-258.71"/>
<polygon fill="black" stroke="black" points="1505.72,-261.17 1511.15,-252.08 1501.23,-255.8 1505.72,-261.17"/>
</g>
<!-- node22 -->
<g id="node31" class="node">
<title>node22</title>
<polygon fill="none" stroke="black" points="1458.16,-387.05 1460.26,-387.15 1462.33,-387.3 1464.37,-387.49 1466.38,-387.74 1468.33,-388.03 1470.24,-388.36 1472.08,-388.75 1473.85,-389.18 1475.55,-389.65 1477.17,-390.16 1478.7,-390.71 1480.13,-391.31 1481.47,-391.94 1482.72,-392.61 1483.85,-393.31 1484.88,-394.04 1485.8,-394.8 1486.61,-395.59 1487.31,-396.41 1487.9,-397.25 1488.38,-398.11 1488.74,-398.99 1488.99,-399.89 1489.14,-400.8 1489.18,-401.72 1489.11,-402.65 1488.95,-403.59 1488.69,-404.53 1488.33,-405.47 1487.88,-406.41 1487.35,-407.35 1486.74,-408.28 1486.05,-409.2 1485.28,-410.11 1484.45,-411.01 1483.56,-411.89 1482.61,-412.75 1481.6,-413.59 1480.54,-414.41 1479.44,-415.2 1478.3,-415.96 1477.12,-416.69 1475.91,-417.39 1474.67,-418.06 1473.4,-418.69 1472.11,-419.29 1470.81,-419.84 1469.48,-420.35 1468.14,-420.82 1466.78,-421.25 1465.42,-421.64 1464.05,-421.97 1462.66,-422.26 1461.28,-422.51 1459.89,-422.7 1458.49,-422.85 1457.1,-422.95 1455.7,-423 1454.3,-423 1452.9,-422.95 1451.51,-422.85 1450.11,-422.7 1448.72,-422.51 1447.34,-422.26 1445.95,-421.97 1444.58,-421.64 1443.22,-421.25 1441.86,-420.82 1440.52,-420.35 1439.19,-419.84 1437.89,-419.29 1436.6,-418.69 1435.33,-418.06 1434.09,-417.39 1432.88,-416.69 1431.7,-415.96 1430.56,-415.2 1429.46,-414.41 1428.4,-413.59 1427.39,-412.75 1426.44,-411.89 1425.55,-411.01 1424.72,-410.11 1423.95,-409.2 1423.26,-408.28 1422.65,-407.35 1422.12,-406.41 1421.67,-405.47 1421.31,-404.53 1421.05,-403.59 1420.89,-402.65 1420.82,-401.72 1420.86,-400.8 1421.01,-399.89 1421.26,-398.99 1421.62,-398.11 1422.1,-397.25 1422.69,-396.41 1423.39,-395.59 1424.2,-394.8 1425.12,-394.04 1426.15,-393.31 1427.28,-392.61 1428.53,-391.94 1429.87,-391.31 1431.3,-390.71 1432.83,-390.16 1434.45,-389.65 1436.15,-389.18 1437.92,-388.75 1439.76,-388.36 1441.67,-388.03 1443.62,-387.74 1445.63,-387.49 1447.67,-387.3 1449.74,-387.15 1451.84,-387.05 1453.94,-387 1456.06,-387 1458.16,-387.05"/>
<text text-anchor="middle" x="1455" y="-401.9" font-family="Times New Roman,serif" font-size="12.00">MpiPcs</text>
</g>
<!-- node22&#45;&gt;node21 -->
<g id="edge54" class="edge">
<title>node22&#45;&gt;node21</title>
<path fill="none" stroke="black" stroke-dasharray="1,5" d="M1452.8,-386.94C1451.05,-373.39 1448.57,-354.18 1446.54,-338.47"/>
<polygon fill="black" stroke="black" points="1449.98,-337.73 1445.23,-328.26 1443.04,-338.63 1449.98,-337.73"/>
</g>
<!-- node23 -->
<g id="node32" class="node">
<title>node23</title>
<polygon fill="none" stroke="black" points="1849.13,-387.05 1851.87,-387.15 1854.58,-387.3 1857.24,-387.49 1859.86,-387.74 1862.42,-388.03 1864.91,-388.36 1867.31,-388.75 1869.63,-389.18 1871.85,-389.65 1873.96,-390.16 1875.96,-390.71 1877.84,-391.31 1879.59,-391.94 1881.21,-392.61 1882.7,-393.31 1884.04,-394.04 1885.25,-394.8 1886.31,-395.59 1887.22,-396.41 1887.99,-397.25 1888.61,-398.11 1889.08,-398.99 1889.42,-399.89 1889.61,-400.8 1889.66,-401.72 1889.57,-402.65 1889.36,-403.59 1889.01,-404.53 1888.55,-405.47 1887.96,-406.41 1887.27,-407.35 1886.47,-408.28 1885.56,-409.2 1884.57,-410.11 1883.48,-411.01 1882.31,-411.89 1881.07,-412.75 1879.75,-413.59 1878.38,-414.41 1876.94,-415.2 1875.45,-415.96 1873.91,-416.69 1872.32,-417.39 1870.7,-418.06 1869.05,-418.69 1867.36,-419.29 1865.65,-419.84 1863.92,-420.35 1862.16,-420.82 1860.4,-421.25 1858.61,-421.64 1856.82,-421.97 1855.01,-422.26 1853.2,-422.51 1851.39,-422.7 1849.56,-422.85 1847.74,-422.95 1845.91,-423 1844.09,-423 1842.26,-422.95 1840.44,-422.85 1838.61,-422.7 1836.8,-422.51 1834.99,-422.26 1833.18,-421.97 1831.39,-421.64 1829.6,-421.25 1827.84,-420.82 1826.08,-420.35 1824.35,-419.84 1822.64,-419.29 1820.95,-418.69 1819.3,-418.06 1817.68,-417.39 1816.09,-416.69 1814.55,-415.96 1813.06,-415.2 1811.62,-414.41 1810.25,-413.59 1808.93,-412.75 1807.69,-411.89 1806.52,-411.01 1805.43,-410.11 1804.44,-409.2 1803.53,-408.28 1802.73,-407.35 1802.04,-406.41 1801.45,-405.47 1800.99,-404.53 1800.64,-403.59 1800.43,-402.65 1800.34,-401.72 1800.39,-400.8 1800.58,-399.89 1800.92,-398.99 1801.39,-398.11 1802.01,-397.25 1802.78,-396.41 1803.69,-395.59 1804.75,-394.8 1805.96,-394.04 1807.3,-393.31 1808.79,-392.61 1810.41,-391.94 1812.16,-391.31 1814.04,-390.71 1816.04,-390.16 1818.15,-389.65 1820.37,-389.18 1822.69,-388.75 1825.09,-388.36 1827.58,-388.03 1830.14,-387.74 1832.76,-387.49 1835.42,-387.3 1838.13,-387.15 1840.87,-387.05 1843.62,-387 1846.38,-387 1849.13,-387.05"/>
<text text-anchor="middle" x="1845" y="-401.9" font-family="Times New Roman,serif" font-size="12.00">Multiplexer</text>
</g>
<!-- node23&#45;&gt;node5 -->
<g id="edge55" class="edge">
<title>node23&#45;&gt;node5</title>
<path fill="none" stroke="black" stroke-dasharray="1,5" d="M1838.26,-387.03C1827.09,-361.07 1802.34,-311.62 1766,-284 1761.91,-280.89 1708.72,-264.19 1668.39,-251.81"/>
<polygon fill="black" stroke="black" points="1669.3,-248.42 1658.72,-248.84 1667.25,-255.12 1669.3,-248.42"/>
</g>
<!-- node23&#45;&gt;node8 -->
<g id="edge56" class="edge">
<title>node23&#45;&gt;node8</title>
<path fill="none" stroke="black" stroke-dasharray="1,5" d="M1829.43,-387.56C1801.45,-359.12 1739.56,-301.13 1675,-273 1630.39,-253.56 1613.66,-268.83 1567,-255 1564.58,-254.28 1562.12,-253.46 1559.66,-252.56"/>
<polygon fill="black" stroke="black" points="1560.92,-249.29 1550.33,-248.85 1558.33,-255.8 1560.92,-249.29"/>
</g>
<!-- node23&#45;&gt;node11 -->
<g id="edge61" class="edge">
<title>node23&#45;&gt;node11</title>
<path fill="none" stroke="black" stroke-dasharray="1,5" d="M1881.56,-392.56C1911.01,-381.24 1950.59,-360.78 1970,-328 1981.11,-309.24 1981.3,-284.22 1979.18,-265.32"/>
<polygon fill="black" stroke="black" points="1982.62,-264.68 1977.77,-255.27 1975.69,-265.65 1982.62,-264.68"/>
</g>
<!-- node24 -->
<g id="node33" class="node">
<title>node24</title>
<polygon fill="none" stroke="black" points="1928.11,-302.54 1928.11,-317.46 1895.83,-328 1850.17,-328 1817.89,-317.46 1817.89,-302.54 1850.17,-292 1895.83,-292 1928.11,-302.54"/>
<text text-anchor="middle" x="1873" y="-306.9" font-family="Times New Roman,serif" font-size="12.00">MultiplexerLib</text>
</g>
<!-- node23&#45;&gt;node24 -->
<g id="edge60" class="edge">
<title>node23&#45;&gt;node24</title>
<path fill="none" stroke="black" stroke-dasharray="1,5" d="M1850.14,-386.94C1854.25,-373.26 1860.11,-353.81 1864.87,-338.02"/>
<polygon fill="black" stroke="black" points="1868.27,-338.85 1867.8,-328.26 1861.57,-336.83 1868.27,-338.85"/>
</g>
<!-- node24&#45;&gt;node3 -->
<g id="edge58" class="edge">
<title>node24&#45;&gt;node3</title>
<path fill="none" stroke="black" d="M1877.95,-291.92C1886.4,-258.8 1899.22,-185.62 1861,-146 1832.35,-116.31 1569.8,-100.78 1440.41,-94.87"/>
<polygon fill="black" stroke="black" points="1440.34,-91.36 1430.19,-94.41 1440.03,-98.35 1440.34,-91.36"/>
</g>
<!-- node24&#45;&gt;node5 -->
<g id="edge57" class="edge">
<title>node24&#45;&gt;node5</title>
<path fill="none" stroke="black" stroke-dasharray="1,5" d="M1847.05,-292.79C1834.48,-285.65 1818.92,-277.81 1804,-273 1750.58,-255.77 1733.79,-267.19 1679,-255 1675.15,-254.14 1671.18,-253.16 1667.21,-252.1"/>
<polygon fill="black" stroke="black" points="1668.01,-248.68 1657.43,-249.35 1666.11,-255.42 1668.01,-248.68"/>
</g>
<!-- node24&#45;&gt;node11 -->
<g id="edge59" class="edge">
<title>node24&#45;&gt;node11</title>
<path fill="none" stroke="black" stroke-dasharray="1,5" d="M1896.94,-292.17C1910.2,-282.85 1926.88,-271.12 1941.33,-260.97"/>
<polygon fill="black" stroke="black" points="1943.37,-263.81 1949.53,-255.2 1939.34,-258.09 1943.37,-263.81"/>
</g>
<!-- node25 -->
<g id="node34" class="node">
<title>node25</title>
<polygon fill="none" stroke="black" points="1824.81,-219.05 1826.66,-219.15 1828.5,-219.3 1830.31,-219.49 1832.09,-219.74 1833.82,-220.03 1835.51,-220.36 1837.15,-220.75 1838.72,-221.18 1840.22,-221.65 1841.66,-222.16 1843.02,-222.71 1844.29,-223.31 1845.48,-223.94 1846.58,-224.61 1847.59,-225.31 1848.5,-226.04 1849.32,-226.8 1850.04,-227.59 1850.66,-228.41 1851.18,-229.25 1851.6,-230.11 1851.92,-230.99 1852.15,-231.89 1852.28,-232.8 1852.31,-233.72 1852.26,-234.65 1852.11,-235.59 1851.88,-236.53 1851.56,-237.47 1851.16,-238.41 1850.69,-239.35 1850.15,-240.28 1849.53,-241.2 1848.86,-242.11 1848.12,-243.01 1847.33,-243.89 1846.48,-244.75 1845.59,-245.59 1844.66,-246.41 1843.68,-247.2 1842.67,-247.96 1841.62,-248.69 1840.55,-249.39 1839.45,-250.06 1838.32,-250.69 1837.18,-251.29 1836.02,-251.84 1834.84,-252.35 1833.65,-252.82 1832.45,-253.25 1831.24,-253.64 1830.02,-253.97 1828.8,-254.26 1827.57,-254.51 1826.33,-254.7 1825.1,-254.85 1823.86,-254.95 1822.62,-255 1821.38,-255 1820.14,-254.95 1818.9,-254.85 1817.67,-254.7 1816.43,-254.51 1815.2,-254.26 1813.98,-253.97 1812.76,-253.64 1811.55,-253.25 1810.35,-252.82 1809.16,-252.35 1807.98,-251.84 1806.82,-251.29 1805.68,-250.69 1804.55,-250.06 1803.45,-249.39 1802.38,-248.69 1801.33,-247.96 1800.32,-247.2 1799.34,-246.41 1798.41,-245.59 1797.52,-244.75 1796.67,-243.89 1795.88,-243.01 1795.14,-242.11 1794.47,-241.2 1793.85,-240.28 1793.31,-239.35 1792.84,-238.41 1792.44,-237.47 1792.12,-236.53 1791.89,-235.59 1791.74,-234.65 1791.69,-233.72 1791.72,-232.8 1791.85,-231.89 1792.08,-230.99 1792.4,-230.11 1792.82,-229.25 1793.34,-228.41 1793.96,-227.59 1794.68,-226.8 1795.5,-226.04 1796.41,-225.31 1797.42,-224.61 1798.52,-223.94 1799.71,-223.31 1800.98,-222.71 1802.34,-222.16 1803.78,-221.65 1805.28,-221.18 1806.85,-220.75 1808.49,-220.36 1810.18,-220.03 1811.91,-219.74 1813.69,-219.49 1815.5,-219.3 1817.34,-219.15 1819.19,-219.05 1821.06,-219 1822.94,-219 1824.81,-219.05"/>
<text text-anchor="middle" x="1822" y="-233.9" font-family="Times New Roman,serif" font-size="12.00">Parser</text>
</g>
<!-- node26 -->
<g id="node35" class="node">
<title>node26</title>
<polygon fill="none" stroke="black" points="1851.79,-156.54 1851.79,-171.46 1827.9,-182 1794.1,-182 1770.21,-171.46 1770.21,-156.54 1794.1,-146 1827.9,-146 1851.79,-156.54"/>
<text text-anchor="middle" x="1811" y="-160.9" font-family="Times New Roman,serif" font-size="12.00">ParserLib</text>
</g>
<!-- node25&#45;&gt;node26 -->
<g id="edge63" class="edge">
<title>node25&#45;&gt;node26</title>
<path fill="none" stroke="black" stroke-dasharray="1,5" d="M1819.34,-218.81C1818.09,-210.79 1816.58,-201.05 1815.19,-192.07"/>
<polygon fill="black" stroke="black" points="1818.63,-191.38 1813.64,-182.03 1811.71,-192.45 1818.63,-191.38"/>
</g>
<!-- node26&#45;&gt;node3 -->
<g id="edge62" class="edge">
<title>node26&#45;&gt;node3</title>
<path fill="none" stroke="black" d="M1780.86,-151.72C1774.38,-149.59 1767.51,-147.54 1761,-146 1650.79,-119.93 1519.97,-105.04 1440.79,-97.75"/>
<polygon fill="black" stroke="black" points="1440.71,-94.23 1430.44,-96.81 1440.08,-101.2 1440.71,-94.23"/>
</g>
<!-- node27 -->
<g id="node36" class="node">
<title>node27</title>
<polygon fill="none" stroke="black" points="1253.6,-387.05 1255.98,-387.15 1258.33,-387.3 1260.65,-387.49 1262.93,-387.74 1265.16,-388.03 1267.32,-388.36 1269.42,-388.75 1271.43,-389.18 1273.36,-389.65 1275.2,-390.16 1276.94,-390.71 1278.57,-391.31 1280.1,-391.94 1281.51,-392.61 1282.8,-393.31 1283.97,-394.04 1285.02,-394.8 1285.94,-395.59 1286.74,-396.41 1287.4,-397.25 1287.95,-398.11 1288.36,-398.99 1288.65,-399.89 1288.81,-400.8 1288.86,-401.72 1288.78,-402.65 1288.6,-403.59 1288.3,-404.53 1287.89,-405.47 1287.38,-406.41 1286.78,-407.35 1286.08,-408.28 1285.3,-409.2 1284.43,-410.11 1283.48,-411.01 1282.47,-411.89 1281.39,-412.75 1280.24,-413.59 1279.04,-414.41 1277.79,-415.2 1276.49,-415.96 1275.15,-416.69 1273.77,-417.39 1272.36,-418.06 1270.92,-418.69 1269.46,-419.29 1267.97,-419.84 1266.46,-420.35 1264.94,-420.82 1263.4,-421.25 1261.84,-421.64 1260.28,-421.97 1258.71,-422.26 1257.14,-422.51 1255.56,-422.7 1253.97,-422.85 1252.38,-422.95 1250.79,-423 1249.21,-423 1247.62,-422.95 1246.03,-422.85 1244.44,-422.7 1242.86,-422.51 1241.29,-422.26 1239.72,-421.97 1238.16,-421.64 1236.6,-421.25 1235.06,-420.82 1233.54,-420.35 1232.03,-419.84 1230.54,-419.29 1229.08,-418.69 1227.64,-418.06 1226.23,-417.39 1224.85,-416.69 1223.51,-415.96 1222.21,-415.2 1220.96,-414.41 1219.76,-413.59 1218.61,-412.75 1217.53,-411.89 1216.52,-411.01 1215.57,-410.11 1214.7,-409.2 1213.92,-408.28 1213.22,-407.35 1212.62,-406.41 1212.11,-405.47 1211.7,-404.53 1211.4,-403.59 1211.22,-402.65 1211.14,-401.72 1211.19,-400.8 1211.35,-399.89 1211.64,-398.99 1212.05,-398.11 1212.6,-397.25 1213.26,-396.41 1214.06,-395.59 1214.98,-394.8 1216.03,-394.04 1217.2,-393.31 1218.49,-392.61 1219.9,-391.94 1221.43,-391.31 1223.06,-390.71 1224.8,-390.16 1226.64,-389.65 1228.57,-389.18 1230.58,-388.75 1232.68,-388.36 1234.84,-388.03 1237.07,-387.74 1239.35,-387.49 1241.67,-387.3 1244.02,-387.15 1246.4,-387.05 1248.8,-387 1251.2,-387 1253.6,-387.05"/>
<text text-anchor="middle" x="1250" y="-401.9" font-family="Times New Roman,serif" font-size="12.00">Renderer</text>
</g>
<!-- node27&#45;&gt;node7 -->
<g id="edge65" class="edge">
<title>node27&#45;&gt;node7</title>
<path fill="none" stroke="black" stroke-dasharray="1,5" d="M1284.35,-394.05C1340.35,-377.82 1451.69,-345.57 1517.92,-326.38"/>
<polygon fill="black" stroke="black" points="1519.12,-329.67 1527.75,-323.53 1517.17,-322.95 1519.12,-329.67"/>
</g>
<!-- node27&#45;&gt;node10 -->
<g id="edge66" class="edge">
<title>node27&#45;&gt;node10</title>
<path fill="none" stroke="black" stroke-dasharray="1,5" d="M1249.14,-386.81C1247.08,-345.81 1241.87,-242.02 1239.37,-192.33"/>
<polygon fill="black" stroke="black" points="1242.85,-191.84 1238.86,-182.03 1235.86,-192.2 1242.85,-191.84"/>
</g>
<!-- node27&#45;&gt;node12 -->
<g id="edge64" class="edge">
<title>node27&#45;&gt;node12</title>
<path fill="none" stroke="black" stroke-dasharray="1,5" d="M1228.13,-389.26C1206.01,-374.35 1171.5,-351.1 1145.85,-333.81"/>
<polygon fill="black" stroke="black" points="1147.76,-330.88 1137.51,-328.19 1143.85,-336.69 1147.76,-330.88"/>
</g>
</g>
</svg>
