<?xml version="1.0" encoding="UTF-8" standalone="no"?>
<!DOCTYPE svg PUBLIC "-//W3C//DTD SVG 1.1//EN"
 "http://www.w3.org/Graphics/SVG/1.1/DTD/svg11.dtd">
<!-- Generated by graphviz version 2.50.0 (20211204.2007)
 -->
<!-- Title: TMIV Pages: 1 -->
<svg width="2132pt" height="551pt"
 viewBox="0.00 0.00 2132.00 551.00" xmlns="http://www.w3.org/2000/svg" xmlns:xlink="http://www.w3.org/1999/xlink">
<g id="graph0" class="graph" transform="scale(1 1) rotate(0) translate(4 547)">
<title>TMIV</title>
<polygon fill="white" stroke="transparent" points="-4,4 -4,-547 2128,-547 2128,4 -4,4"/>
<g id="clust1" class="cluster">
<title>clusterLegend</title>
<polygon fill="none" stroke="black" points="8,-284 8,-535 521,-535 521,-284 8,-284"/>
<text text-anchor="middle" x="264.5" y="-519.8" font-family="Times New Roman,serif" font-size="14.00">Legend</text>
</g>
<!-- legendNode0 -->
<g id="node1" class="node">
<title>legendNode0</title>
<polygon fill="none" stroke="black" points="274.98,-468.05 277.62,-468.15 280.23,-468.3 282.8,-468.49 285.32,-468.74 287.79,-469.03 290.18,-469.36 292.5,-469.75 294.74,-470.18 296.87,-470.65 298.91,-471.16 300.84,-471.71 302.65,-472.31 304.34,-472.94 305.9,-473.61 307.33,-474.31 308.63,-475.04 309.79,-475.8 310.81,-476.59 311.69,-477.41 312.43,-478.25 313.03,-479.11 313.48,-479.99 313.8,-480.89 313.99,-481.8 314.04,-482.72 313.95,-483.65 313.75,-484.59 313.41,-485.53 312.97,-486.47 312.4,-487.41 311.73,-488.35 310.96,-489.28 310.09,-490.2 309.13,-491.11 308.08,-492.01 306.96,-492.89 305.76,-493.75 304.49,-494.59 303.16,-495.41 301.78,-496.2 300.34,-496.96 298.86,-497.69 297.33,-498.39 295.77,-499.06 294.17,-499.69 292.55,-500.29 290.9,-500.84 289.23,-501.35 287.54,-501.82 285.84,-502.25 284.12,-502.64 282.39,-502.97 280.65,-503.26 278.91,-503.51 277.15,-503.7 275.4,-503.85 273.64,-503.95 271.88,-504 270.12,-504 268.36,-503.95 266.6,-503.85 264.85,-503.7 263.09,-503.51 261.35,-503.26 259.61,-502.97 257.88,-502.64 256.16,-502.25 254.46,-501.82 252.77,-501.35 251.1,-500.84 249.45,-500.29 247.83,-499.69 246.23,-499.06 244.67,-498.39 243.14,-497.69 241.66,-496.96 240.22,-496.2 238.84,-495.41 237.51,-494.59 236.24,-493.75 235.04,-492.89 233.92,-492.01 232.87,-491.11 231.91,-490.2 231.04,-489.28 230.27,-488.35 229.6,-487.41 229.03,-486.47 228.59,-485.53 228.25,-484.59 228.05,-483.65 227.96,-482.72 228.01,-481.8 228.2,-480.89 228.52,-479.99 228.97,-479.11 229.57,-478.25 230.31,-477.41 231.19,-476.59 232.21,-475.8 233.37,-475.04 234.67,-474.31 236.1,-473.61 237.66,-472.94 239.35,-472.31 241.16,-471.71 243.09,-471.16 245.13,-470.65 247.26,-470.18 249.5,-469.75 251.82,-469.36 254.21,-469.03 256.68,-468.74 259.2,-468.49 261.77,-468.3 264.38,-468.15 267.02,-468.05 269.67,-468 272.33,-468 274.98,-468.05"/>
<text text-anchor="middle" x="271" y="-482.9" font-family="Times New Roman,serif" font-size="12.00">Executable</text>
</g>
<!-- legendNode1 -->
<g id="node2" class="node">
<title>legendNode1</title>
<polygon fill="none" stroke="black" points="119.94,-397.54 119.94,-412.46 89.52,-423 46.48,-423 16.06,-412.46 16.06,-397.54 46.48,-387 89.52,-387 119.94,-397.54"/>
<text text-anchor="middle" x="68" y="-401.9" font-family="Times New Roman,serif" font-size="12.00">Static Library</text>
</g>
<!-- legendNode0&#45;&gt;legendNode1 -->
<g id="edge1" class="edge">
<title>legendNode0&#45;&gt;legendNode1</title>
<path fill="none" stroke="black" d="M237.91,-472.69C209.07,-461.9 166.16,-445.68 129,-431 122.71,-428.51 116.07,-425.84 109.57,-423.2"/>
<polygon fill="black" stroke="black" points="110.81,-419.93 100.23,-419.39 108.16,-426.41 110.81,-419.93"/>
</g>
<!-- legendNode2 -->
<g id="node3" class="node">
<title>legendNode2</title>
<polygon fill="none" stroke="black" points="255.76,-397.54 255.76,-412.46 222.51,-423 175.49,-423 142.24,-412.46 142.24,-397.54 175.49,-387 222.51,-387 255.76,-397.54"/>
<polygon fill="none" stroke="black" points="259.77,-394.62 259.77,-415.38 223.13,-427 174.87,-427 138.23,-415.38 138.23,-394.62 174.87,-383 223.13,-383 259.77,-394.62"/>
<text text-anchor="middle" x="199" y="-401.9" font-family="Times New Roman,serif" font-size="12.00">Shared Library</text>
</g>
<!-- legendNode0&#45;&gt;legendNode2 -->
<g id="edge2" class="edge">
<title>legendNode0&#45;&gt;legendNode2</title>
<path fill="none" stroke="black" d="M256.08,-468.63C247.18,-458.86 235.62,-446.18 225.24,-434.79"/>
<polygon fill="black" stroke="black" points="227.6,-432.19 218.28,-427.16 222.43,-436.9 227.6,-432.19"/>
</g>
<!-- legendNode3 -->
<g id="node4" class="node">
<title>legendNode3</title>
<polygon fill="none" stroke="black" points="402.75,-397.54 402.75,-412.46 368.34,-423 319.66,-423 285.25,-412.46 285.25,-397.54 319.66,-387 368.34,-387 402.75,-397.54"/>
<polygon fill="none" stroke="black" points="406.76,-394.59 406.76,-415.41 368.94,-427 319.06,-427 281.24,-415.41 281.24,-394.59 319.06,-383 368.94,-383 406.76,-394.59"/>
<polygon fill="none" stroke="black" points="410.77,-391.63 410.77,-418.37 369.54,-431 318.46,-431 277.23,-418.37 277.23,-391.63 318.46,-379 369.54,-379 410.77,-391.63"/>
<text text-anchor="middle" x="344" y="-401.9" font-family="Times New Roman,serif" font-size="12.00">Module Library</text>
</g>
<!-- legendNode0&#45;&gt;legendNode3 -->
<!-- legendNode7 -->
<g id="node8" class="node">
<title>legendNode7</title>
<polygon fill="none" stroke="black" points="513,-423 429,-423 429,-387 513,-387 513,-423"/>
<text text-anchor="middle" x="471" y="-401.9" font-family="Times New Roman,serif" font-size="12.00">Custom Target</text>
</g>
<!-- legendNode0&#45;&gt;legendNode7 -->
<!-- legendNode4 -->
<g id="node5" class="node">
<title>legendNode4</title>
<polygon fill="none" stroke="black" points="156.01,-315.56 86,-328 15.99,-315.56 42.73,-295.44 129.27,-295.44 156.01,-315.56"/>
<text text-anchor="middle" x="86" y="-306.9" font-family="Times New Roman,serif" font-size="12.00">Interface Library</text>
</g>
<!-- legendNode1&#45;&gt;legendNode4 -->
<g id="edge4" class="edge">
<title>legendNode1&#45;&gt;legendNode4</title>
<path fill="none" stroke="black" stroke-dasharray="5,2" d="M71.3,-386.94C73.96,-373.22 77.74,-353.7 80.8,-337.88"/>
<polygon fill="black" stroke="black" points="84.32,-338.12 82.78,-327.64 77.44,-336.79 84.32,-338.12"/>
<text text-anchor="middle" x="104.5" y="-349.8" font-family="Times New Roman,serif" font-size="14.00">Interface</text>
</g>
<!-- legendNode5 -->
<g id="node6" class="node">
<title>legendNode5</title>
<polygon fill="none" stroke="black" points="293.92,-310 263.96,-328 204.04,-328 174.08,-310 204.04,-292 263.96,-292 293.92,-310"/>
<text text-anchor="middle" x="234" y="-306.9" font-family="Times New Roman,serif" font-size="12.00">Object Library</text>
</g>
<!-- legendNode2&#45;&gt;legendNode5 -->
<g id="edge5" class="edge">
<title>legendNode2&#45;&gt;legendNode5</title>
<path fill="none" stroke="black" stroke-dasharray="1,5" d="M206.94,-382.9C211.99,-369.49 218.57,-352.01 223.97,-337.64"/>
<polygon fill="black" stroke="black" points="227.25,-338.88 227.49,-328.28 220.7,-336.41 227.25,-338.88"/>
<text text-anchor="middle" x="240.5" y="-349.8" font-family="Times New Roman,serif" font-size="14.00">Private</text>
</g>
<!-- legendNode6 -->
<g id="node7" class="node">
<title>legendNode6</title>
<polygon fill="none" stroke="black" points="444.05,-305.99 430.97,-321.22 378,-328 325.03,-321.22 311.95,-305.99 348.6,-293.78 407.4,-293.78 444.05,-305.99"/>
<text text-anchor="middle" x="378" y="-306.9" font-family="Times New Roman,serif" font-size="12.00">Unknown Library</text>
</g>
<!-- legendNode3&#45;&gt;legendNode6 -->
<g id="edge6" class="edge">
<title>legendNode3&#45;&gt;legendNode6</title>
<path fill="none" stroke="black" d="M353.29,-378.59C358.01,-365.69 363.73,-350.04 368.48,-337.05"/>
<polygon fill="black" stroke="black" points="371.89,-337.9 372.04,-327.31 365.32,-335.5 371.89,-337.9"/>
</g>
<!-- node0 -->
<g id="node9" class="node">
<title>node0</title>
<polygon fill="none" stroke="black" points="2071.11,-302.54 2071.11,-317.46 2038.83,-328 1993.17,-328 1960.89,-317.46 1960.89,-302.54 1993.17,-292 2038.83,-292 2071.11,-302.54"/>
<text text-anchor="middle" x="2016" y="-306.9" font-family="Times New Roman,serif" font-size="12.00">AggregatorLib</text>
</g>
<!-- node1 -->
<g id="node10" class="node">
<title>node1</title>
<polygon fill="none" stroke="black" points="1483.11,-10.54 1483.11,-25.46 1454.34,-36 1413.66,-36 1384.89,-25.46 1384.89,-10.54 1413.66,0 1454.34,0 1483.11,-10.54"/>
<text text-anchor="middle" x="1434" y="-14.9" font-family="Times New Roman,serif" font-size="12.00">CommonLib</text>
</g>
<!-- node0&#45;&gt;node1 -->
<g id="edge8" class="edge">
<title>node0&#45;&gt;node1</title>
<path fill="none" stroke="black" d="M2059.62,-298.78C2089.59,-288.87 2124,-270.42 2124,-238 2124,-238 2124,-238 2124,-90 2124,-26.86 1660.87,-19.52 1493.47,-18.93"/>
<polygon fill="black" stroke="black" points="1493.36,-15.43 1483.35,-18.9 1493.34,-22.43 1493.36,-15.43"/>
</g>
<!-- node2 -->
<g id="node11" class="node">
<title>node2</title>
<polygon fill="none" stroke="black" points="1914.74,-146.05 1917.89,-146.15 1920.99,-146.3 1924.06,-146.49 1927.06,-146.74 1930,-147.03 1932.85,-147.36 1935.62,-147.75 1938.28,-148.18 1940.82,-148.65 1943.25,-149.16 1945.54,-149.71 1947.7,-150.31 1949.71,-150.94 1951.57,-151.61 1953.28,-152.31 1954.82,-153.04 1956.21,-153.8 1957.42,-154.59 1958.47,-155.41 1959.35,-156.25 1960.06,-157.11 1960.61,-157.99 1960.99,-158.89 1961.21,-159.8 1961.27,-160.72 1961.17,-161.65 1960.92,-162.59 1960.53,-163.53 1959.99,-164.47 1959.32,-165.41 1958.53,-166.35 1957.61,-167.28 1956.57,-168.2 1955.43,-169.11 1954.18,-170.01 1952.84,-170.89 1951.41,-171.75 1949.9,-172.59 1948.32,-173.41 1946.67,-174.2 1944.95,-174.96 1943.19,-175.69 1941.37,-176.39 1939.51,-177.06 1937.61,-177.69 1935.67,-178.29 1933.71,-178.84 1931.72,-179.35 1929.71,-179.82 1927.67,-180.25 1925.63,-180.64 1923.57,-180.97 1921.5,-181.26 1919.42,-181.51 1917.33,-181.7 1915.24,-181.85 1913.15,-181.95 1911.05,-182 1908.95,-182 1906.85,-181.95 1904.76,-181.85 1902.67,-181.7 1900.58,-181.51 1898.5,-181.26 1896.43,-180.97 1894.37,-180.64 1892.33,-180.25 1890.29,-179.82 1888.28,-179.35 1886.29,-178.84 1884.33,-178.29 1882.39,-177.69 1880.49,-177.06 1878.63,-176.39 1876.81,-175.69 1875.05,-174.96 1873.33,-174.2 1871.68,-173.41 1870.1,-172.59 1868.59,-171.75 1867.16,-170.89 1865.82,-170.01 1864.57,-169.11 1863.43,-168.2 1862.39,-167.28 1861.47,-166.35 1860.68,-165.41 1860.01,-164.47 1859.47,-163.53 1859.08,-162.59 1858.83,-161.65 1858.73,-160.72 1858.79,-159.8 1859.01,-158.89 1859.39,-157.99 1859.94,-157.11 1860.65,-156.25 1861.53,-155.41 1862.58,-154.59 1863.79,-153.8 1865.18,-153.04 1866.72,-152.31 1868.43,-151.61 1870.29,-150.94 1872.3,-150.31 1874.46,-149.71 1876.75,-149.16 1879.18,-148.65 1881.72,-148.18 1884.38,-147.75 1887.15,-147.36 1890,-147.03 1892.94,-146.74 1895.94,-146.49 1899.01,-146.3 1902.11,-146.15 1905.26,-146.05 1908.42,-146 1911.58,-146 1914.74,-146.05"/>
<text text-anchor="middle" x="1910" y="-160.9" font-family="Times New Roman,serif" font-size="12.00">BitrateReport</text>
</g>
<!-- node3 -->
<g id="node12" class="node">
<title>node3</title>
<polygon fill="none" stroke="black" points="1495.1,-83.54 1495.1,-98.46 1459.31,-109 1408.69,-109 1372.9,-98.46 1372.9,-83.54 1408.69,-73 1459.31,-73 1495.1,-83.54"/>
<text text-anchor="middle" x="1434" y="-87.9" font-family="Times New Roman,serif" font-size="12.00">MivBitstreamLib</text>
</g>
<!-- node2&#45;&gt;node3 -->
<g id="edge10" class="edge">
<title>node2&#45;&gt;node3</title>
<path fill="none" stroke="black" stroke-dasharray="1,5" d="M1887.29,-147.32C1875.27,-139.83 1859.93,-131.54 1845,-127 1783.48,-108.28 1606.02,-98.6 1505.56,-94.49"/>
<polygon fill="black" stroke="black" points="1505.62,-90.99 1495.49,-94.09 1505.34,-97.98 1505.62,-90.99"/>
</g>
<!-- node3&#45;&gt;node1 -->
<g id="edge9" class="edge">
<title>node3&#45;&gt;node1</title>
<path fill="none" stroke="black" d="M1434,-72.81C1434,-64.79 1434,-55.05 1434,-46.07"/>
<polygon fill="black" stroke="black" points="1437.5,-46.03 1434,-36.03 1430.5,-46.03 1437.5,-46.03"/>
</g>
<!-- node4 -->
<g id="node13" class="node">
<title>node4</title>
<polygon fill="none" stroke="black" points="900.42,-387.05 902.68,-387.15 904.92,-387.3 907.12,-387.49 909.29,-387.74 911.4,-388.03 913.46,-388.36 915.45,-388.75 917.37,-389.18 919.2,-389.65 920.95,-390.16 922.6,-390.71 924.15,-391.31 925.6,-391.94 926.94,-392.61 928.17,-393.31 929.28,-394.04 930.28,-394.8 931.15,-395.59 931.91,-396.41 932.54,-397.25 933.06,-398.11 933.45,-398.99 933.72,-399.89 933.88,-400.8 933.92,-401.72 933.85,-402.65 933.68,-403.59 933.39,-404.53 933.01,-405.47 932.52,-406.41 931.95,-407.35 931.29,-408.28 930.54,-409.2 929.72,-410.11 928.82,-411.01 927.85,-411.89 926.82,-412.75 925.74,-413.59 924.6,-414.41 923.41,-415.2 922.17,-415.96 920.9,-416.69 919.59,-417.39 918.25,-418.06 916.88,-418.69 915.49,-419.29 914.07,-419.84 912.64,-420.35 911.19,-420.82 909.73,-421.25 908.26,-421.64 906.77,-421.97 905.28,-422.26 903.78,-422.51 902.28,-422.7 900.77,-422.85 899.27,-422.95 897.76,-423 896.24,-423 894.73,-422.95 893.23,-422.85 891.72,-422.7 890.22,-422.51 888.72,-422.26 887.23,-421.97 885.74,-421.64 884.27,-421.25 882.81,-420.82 881.36,-420.35 879.93,-419.84 878.51,-419.29 877.12,-418.69 875.75,-418.06 874.41,-417.39 873.1,-416.69 871.83,-415.96 870.59,-415.2 869.4,-414.41 868.26,-413.59 867.18,-412.75 866.15,-411.89 865.18,-411.01 864.28,-410.11 863.46,-409.2 862.71,-408.28 862.05,-407.35 861.48,-406.41 860.99,-405.47 860.61,-404.53 860.32,-403.59 860.15,-402.65 860.08,-401.72 860.12,-400.8 860.28,-399.89 860.55,-398.99 860.94,-398.11 861.46,-397.25 862.09,-396.41 862.85,-395.59 863.72,-394.8 864.72,-394.04 865.83,-393.31 867.06,-392.61 868.4,-391.94 869.85,-391.31 871.4,-390.71 873.05,-390.16 874.8,-389.65 876.63,-389.18 878.55,-388.75 880.54,-388.36 882.6,-388.03 884.71,-387.74 886.88,-387.49 889.08,-387.3 891.32,-387.15 893.58,-387.05 895.86,-387 898.14,-387 900.42,-387.05"/>
<text text-anchor="middle" x="897" y="-401.9" font-family="Times New Roman,serif" font-size="12.00">Decoder</text>
</g>
<!-- node5 -->
<g id="node14" class="node">
<title>node5</title>
<polygon fill="none" stroke="black" points="906.12,-229.54 906.12,-244.46 878.52,-255 839.48,-255 811.88,-244.46 811.88,-229.54 839.48,-219 878.52,-219 906.12,-229.54"/>
<text text-anchor="middle" x="859" y="-233.9" font-family="Times New Roman,serif" font-size="12.00">DecoderLib</text>
</g>
<!-- node4&#45;&gt;node5 -->
<g id="edge13" class="edge">
<title>node4&#45;&gt;node5</title>
<path fill="none" stroke="black" stroke-dasharray="1,5" d="M894.96,-386.79C891.71,-361.51 884.54,-312.99 873,-273 872.2,-270.23 871.26,-267.38 870.26,-264.55"/>
<polygon fill="black" stroke="black" points="873.52,-263.29 866.68,-255.21 866.99,-265.8 873.52,-263.29"/>
</g>
<!-- node7 -->
<g id="node16" class="node">
<title>node7</title>
<polygon fill="none" stroke="black" points="1239.1,-302.54 1239.1,-317.46 1200.96,-328 1147.04,-328 1108.9,-317.46 1108.9,-302.54 1147.04,-292 1200.96,-292 1239.1,-302.54"/>
<text text-anchor="middle" x="1174" y="-306.9" font-family="Times New Roman,serif" font-size="12.00">RendererFrontLib</text>
</g>
<!-- node4&#45;&gt;node7 -->
<g id="edge20" class="edge">
<title>node4&#45;&gt;node7</title>
<path fill="none" stroke="black" stroke-dasharray="1,5" d="M928.51,-393.42C976.36,-377.36 1067.79,-346.66 1124.55,-327.6"/>
<polygon fill="black" stroke="black" points="1125.68,-330.92 1134.04,-324.41 1123.45,-324.28 1125.68,-330.92"/>
</g>
<!-- node11 -->
<g id="node20" class="node">
<title>node11</title>
<polygon fill="none" stroke="black" points="725.93,-229.54 725.93,-244.46 687.31,-255 632.69,-255 594.07,-244.46 594.07,-229.54 632.69,-219 687.31,-219 725.93,-229.54"/>
<text text-anchor="middle" x="660" y="-233.9" font-family="Times New Roman,serif" font-size="12.00">VideoDecoderLib</text>
</g>
<!-- node4&#45;&gt;node11 -->
<g id="edge22" class="edge">
<title>node4&#45;&gt;node11</title>
<path fill="none" stroke="black" stroke-dasharray="1,5" d="M862.45,-395.86C784.26,-377.37 600.17,-333.35 596,-328 583.98,-312.57 587.08,-301.4 596,-284 601.07,-274.12 609.35,-265.88 618.31,-259.23"/>
<polygon fill="black" stroke="black" points="620.34,-262.09 626.65,-253.58 616.41,-256.29 620.34,-262.09"/>
</g>
<!-- node6 -->
<g id="node15" class="node">
<title>node6</title>
<polygon fill="none" stroke="black" points="1000.11,-156.54 1000.11,-171.46 967.83,-182 922.17,-182 889.89,-171.46 889.89,-156.54 922.17,-146 967.83,-146 1000.11,-156.54"/>
<text text-anchor="middle" x="945" y="-160.9" font-family="Times New Roman,serif" font-size="12.00">PtlCheckerLib</text>
</g>
<!-- node5&#45;&gt;node6 -->
<g id="edge12" class="edge">
<title>node5&#45;&gt;node6</title>
<path fill="none" stroke="black" d="M879.38,-219.17C890.36,-210.11 904.08,-198.78 916.14,-188.82"/>
<polygon fill="black" stroke="black" points="918.68,-191.26 924.17,-182.2 914.23,-185.87 918.68,-191.26"/>
</g>
<!-- node6&#45;&gt;node3 -->
<g id="edge11" class="edge">
<title>node6&#45;&gt;node3</title>
<path fill="none" stroke="black" d="M994.54,-154.68C1040.09,-147.13 1109.52,-135.85 1170,-127 1236.29,-117.3 1312.13,-107.37 1365.46,-100.57"/>
<polygon fill="black" stroke="black" points="1366,-104.03 1375.48,-99.3 1365.12,-97.09 1366,-104.03"/>
</g>
<!-- node8 -->
<g id="node17" class="node">
<title>node8</title>
<polygon fill="none" stroke="black" points="1110.14,-229.54 1110.14,-244.46 1093.07,-255 1068.93,-255 1051.86,-244.46 1051.86,-229.54 1068.93,-219 1093.07,-219 1110.14,-229.54"/>
<text text-anchor="middle" x="1081" y="-233.9" font-family="Times New Roman,serif" font-size="12.00">IOLib</text>
</g>
<!-- node7&#45;&gt;node8 -->
<g id="edge15" class="edge">
<title>node7&#45;&gt;node8</title>
<path fill="none" stroke="black" d="M1151.49,-291.81C1138.13,-281.62 1121.14,-268.65 1107.19,-257.99"/>
<polygon fill="black" stroke="black" points="1109.02,-254.99 1098.95,-251.71 1104.78,-260.56 1109.02,-254.99"/>
</g>
<!-- node9 -->
<g id="node18" class="node">
<title>node9</title>
<polygon fill="none" stroke="black" points="1575.11,-229.54 1575.11,-244.46 1546.34,-255 1505.66,-255 1476.89,-244.46 1476.89,-229.54 1505.66,-219 1546.34,-219 1575.11,-229.54"/>
<text text-anchor="middle" x="1526" y="-233.9" font-family="Times New Roman,serif" font-size="12.00">RendererLib</text>
</g>
<!-- node7&#45;&gt;node9 -->
<g id="edge19" class="edge">
<title>node7&#45;&gt;node9</title>
<path fill="none" stroke="black" stroke-dasharray="1,5" d="M1211.68,-294.96C1223.22,-291.02 1236.03,-286.99 1248,-284 1322.39,-265.41 1409.91,-252.34 1466.58,-245"/>
<polygon fill="black" stroke="black" points="1467.32,-248.43 1476.8,-243.69 1466.43,-241.49 1467.32,-248.43"/>
</g>
<!-- node8&#45;&gt;node3 -->
<g id="edge14" class="edge">
<title>node8&#45;&gt;node3</title>
<path fill="none" stroke="black" d="M1100.56,-223.39C1136.13,-200.97 1214.34,-154.01 1286,-127 1313.27,-116.72 1344.55,-108.8 1371.3,-103.11"/>
<polygon fill="black" stroke="black" points="1372.23,-106.49 1381.31,-101.04 1370.81,-99.64 1372.23,-106.49"/>
</g>
<!-- node9&#45;&gt;node3 -->
<g id="edge16" class="edge">
<title>node9&#45;&gt;node3</title>
<path fill="none" stroke="black" d="M1526.17,-218.71C1525.59,-199.51 1522.25,-168.29 1508,-146 1499.51,-132.72 1486.5,-121.63 1473.74,-113.02"/>
<polygon fill="black" stroke="black" points="1475.32,-109.88 1465.01,-107.46 1471.56,-115.78 1475.32,-109.88"/>
</g>
<!-- node10 -->
<g id="node19" class="node">
<title>node10</title>
<polygon fill="none" stroke="black" points="1498.76,-156.54 1498.76,-171.46 1460.83,-182 1407.17,-182 1369.24,-171.46 1369.24,-156.54 1407.17,-146 1460.83,-146 1498.76,-156.54"/>
<text text-anchor="middle" x="1434" y="-160.9" font-family="Times New Roman,serif" font-size="12.00">ViewingSpaceLib</text>
</g>
<!-- node9&#45;&gt;node10 -->
<g id="edge18" class="edge">
<title>node9&#45;&gt;node10</title>
<path fill="none" stroke="black" stroke-dasharray="1,5" d="M1504.2,-219.17C1492.34,-210.02 1477.49,-198.56 1464.5,-188.54"/>
<polygon fill="black" stroke="black" points="1466.34,-185.54 1456.29,-182.2 1462.06,-191.08 1466.34,-185.54"/>
</g>
<!-- node10&#45;&gt;node3 -->
<g id="edge17" class="edge">
<title>node10&#45;&gt;node3</title>
<path fill="none" stroke="black" d="M1434,-145.81C1434,-137.79 1434,-128.05 1434,-119.07"/>
<polygon fill="black" stroke="black" points="1437.5,-119.03 1434,-109.03 1430.5,-119.03 1437.5,-119.03"/>
</g>
<!-- node11&#45;&gt;node1 -->
<g id="edge21" class="edge">
<title>node11&#45;&gt;node1</title>
<path fill="none" stroke="black" d="M669.7,-218.67C684.56,-193.89 715.47,-148.89 755,-127 861.56,-67.98 1229.81,-34.42 1374.73,-23.24"/>
<polygon fill="black" stroke="black" points="1375.07,-26.72 1384.78,-22.47 1374.54,-19.74 1375.07,-26.72"/>
</g>
<!-- node12 -->
<g id="node21" class="node">
<title>node12</title>
<polygon fill="none" stroke="black" points="786.49,-292.05 789.46,-292.15 792.41,-292.3 795.3,-292.49 798.15,-292.74 800.93,-293.03 803.63,-293.36 806.25,-293.75 808.76,-294.18 811.17,-294.65 813.47,-295.16 815.64,-295.71 817.68,-296.31 819.59,-296.94 821.35,-297.61 822.96,-298.31 824.42,-299.04 825.73,-299.8 826.88,-300.59 827.88,-301.41 828.71,-302.25 829.38,-303.11 829.9,-303.99 830.26,-304.89 830.47,-305.8 830.52,-306.72 830.43,-307.65 830.2,-308.59 829.82,-309.53 829.32,-310.47 828.68,-311.41 827.93,-312.35 827.06,-313.28 826.08,-314.2 824.99,-315.11 823.81,-316.01 822.54,-316.89 821.19,-317.75 819.76,-318.59 818.27,-319.41 816.7,-320.2 815.08,-320.96 813.41,-321.69 811.69,-322.39 809.93,-323.06 808.13,-323.69 806.3,-324.29 804.44,-324.84 802.56,-325.35 800.65,-325.82 798.73,-326.25 796.79,-326.64 794.84,-326.97 792.88,-327.26 790.91,-327.51 788.94,-327.7 786.96,-327.85 784.98,-327.95 782.99,-328 781.01,-328 779.02,-327.95 777.04,-327.85 775.06,-327.7 773.09,-327.51 771.12,-327.26 769.16,-326.97 767.21,-326.64 765.27,-326.25 763.35,-325.82 761.44,-325.35 759.56,-324.84 757.7,-324.29 755.87,-323.69 754.07,-323.06 752.31,-322.39 750.59,-321.69 748.92,-320.96 747.3,-320.2 745.73,-319.41 744.24,-318.59 742.81,-317.75 741.46,-316.89 740.19,-316.01 739.01,-315.11 737.92,-314.2 736.94,-313.28 736.07,-312.35 735.32,-311.41 734.68,-310.47 734.18,-309.53 733.8,-308.59 733.57,-307.65 733.48,-306.72 733.53,-305.8 733.74,-304.89 734.1,-303.99 734.62,-303.11 735.29,-302.25 736.12,-301.41 737.12,-300.59 738.27,-299.8 739.58,-299.04 741.04,-298.31 742.65,-297.61 744.41,-296.94 746.32,-296.31 748.36,-295.71 750.53,-295.16 752.83,-294.65 755.24,-294.18 757.75,-293.75 760.37,-293.36 763.07,-293.03 765.85,-292.74 768.7,-292.49 771.59,-292.3 774.54,-292.15 777.51,-292.05 780.5,-292 783.5,-292 786.49,-292.05"/>
<text text-anchor="middle" x="782" y="-306.9" font-family="Times New Roman,serif" font-size="12.00">DecoderLog</text>
</g>
<!-- node12&#45;&gt;node5 -->
<g id="edge23" class="edge">
<title>node12&#45;&gt;node5</title>
<path fill="none" stroke="black" stroke-dasharray="1,5" d="M799.79,-292.62C806.17,-286.75 813.41,-280.08 820,-274 824.15,-270.17 828.55,-266.12 832.83,-262.16"/>
<polygon fill="black" stroke="black" points="835.38,-264.57 840.36,-255.22 830.63,-259.43 835.38,-264.57"/>
</g>
<!-- node12&#45;&gt;node11 -->
<g id="edge24" class="edge">
<title>node12&#45;&gt;node11</title>
<path fill="none" stroke="black" stroke-dasharray="1,5" d="M756.13,-293.94C739.1,-284.03 716.53,-270.9 697.54,-259.85"/>
<polygon fill="black" stroke="black" points="699.23,-256.78 688.83,-254.78 695.71,-262.83 699.23,-256.78"/>
</g>
<!-- node13 -->
<g id="node22" class="node">
<title>node13</title>
<polygon fill="none" stroke="black" points="1614.74,-302.54 1614.74,-317.46 1562.76,-328 1489.24,-328 1437.26,-317.46 1437.26,-302.54 1489.24,-292 1562.76,-292 1614.74,-302.54"/>
<text text-anchor="middle" x="1526" y="-306.9" font-family="Times New Roman,serif" font-size="12.00">DepthQualityAssessorLib</text>
</g>
<!-- node13&#45;&gt;node9 -->
<g id="edge25" class="edge">
<title>node13&#45;&gt;node9</title>
<path fill="none" stroke="black" stroke-dasharray="1,5" d="M1526,-291.81C1526,-283.79 1526,-274.05 1526,-265.07"/>
<polygon fill="black" stroke="black" points="1529.5,-265.03 1526,-255.03 1522.5,-265.03 1529.5,-265.03"/>
</g>
<!-- node14 -->
<g id="node23" class="node">
<title>node14</title>
<polygon fill="none" stroke="black" points="1758.34,-468.05 1760.55,-468.15 1762.74,-468.3 1764.9,-468.49 1767.02,-468.74 1769.09,-469.03 1771.1,-469.36 1773.04,-469.75 1774.92,-470.18 1776.71,-470.65 1778.42,-471.16 1780.04,-471.71 1781.56,-472.31 1782.97,-472.94 1784.28,-473.61 1785.48,-474.31 1786.57,-475.04 1787.55,-475.8 1788.4,-476.59 1789.14,-477.41 1789.76,-478.25 1790.26,-479.11 1790.65,-479.99 1790.92,-480.89 1791.07,-481.8 1791.11,-482.72 1791.04,-483.65 1790.87,-484.59 1790.59,-485.53 1790.21,-486.47 1789.74,-487.41 1789.18,-488.35 1788.53,-489.28 1787.8,-490.2 1787,-491.11 1786.12,-492.01 1785.17,-492.89 1784.17,-493.75 1783.1,-494.59 1781.99,-495.41 1780.83,-496.2 1779.62,-496.96 1778.37,-497.69 1777.09,-498.39 1775.78,-499.06 1774.45,-499.69 1773.08,-500.29 1771.7,-500.84 1770.3,-501.35 1768.88,-501.82 1767.45,-502.25 1766.01,-502.64 1764.56,-502.97 1763.1,-503.26 1761.63,-503.51 1760.16,-503.7 1758.69,-503.85 1757.22,-503.95 1755.74,-504 1754.26,-504 1752.78,-503.95 1751.31,-503.85 1749.84,-503.7 1748.37,-503.51 1746.9,-503.26 1745.44,-502.97 1743.99,-502.64 1742.55,-502.25 1741.12,-501.82 1739.7,-501.35 1738.3,-500.84 1736.92,-500.29 1735.55,-499.69 1734.22,-499.06 1732.91,-498.39 1731.63,-497.69 1730.38,-496.96 1729.17,-496.2 1728.01,-495.41 1726.9,-494.59 1725.83,-493.75 1724.83,-492.89 1723.88,-492.01 1723,-491.11 1722.2,-490.2 1721.47,-489.28 1720.82,-488.35 1720.26,-487.41 1719.79,-486.47 1719.41,-485.53 1719.13,-484.59 1718.96,-483.65 1718.89,-482.72 1718.93,-481.8 1719.08,-480.89 1719.35,-479.99 1719.74,-479.11 1720.24,-478.25 1720.86,-477.41 1721.6,-476.59 1722.45,-475.8 1723.43,-475.04 1724.52,-474.31 1725.72,-473.61 1727.03,-472.94 1728.44,-472.31 1729.96,-471.71 1731.58,-471.16 1733.29,-470.65 1735.08,-470.18 1736.96,-469.75 1738.9,-469.36 1740.91,-469.03 1742.98,-468.74 1745.1,-468.49 1747.26,-468.3 1749.45,-468.15 1751.66,-468.05 1753.88,-468 1756.12,-468 1758.34,-468.05"/>
<text text-anchor="middle" x="1755" y="-482.9" font-family="Times New Roman,serif" font-size="12.00">Encoder</text>
</g>
<!-- node14&#45;&gt;node0 -->
<g id="edge26" class="edge">
<title>node14&#45;&gt;node0</title>
<path fill="none" stroke="black" stroke-dasharray="1,5" d="M1783.19,-473C1805.72,-462.94 1837.77,-447.6 1864,-431 1910.49,-401.59 1959.64,-360.75 1989.06,-335.11"/>
<polygon fill="black" stroke="black" points="1991.61,-337.53 1996.82,-328.3 1987,-332.27 1991.61,-337.53"/>
</g>
<!-- node14&#45;&gt;node8 -->
<g id="edge40" class="edge">
<title>node14&#45;&gt;node8</title>
<path fill="none" stroke="black" stroke-dasharray="1,5" d="M1718.96,-481.54C1617.68,-471.71 1335.22,-443.5 1295,-431 1201.4,-401.9 1159.04,-406.24 1100,-328 1086.43,-310.01 1082.04,-284.52 1080.84,-265.25"/>
<polygon fill="black" stroke="black" points="1084.33,-264.86 1080.46,-255 1077.34,-265.12 1084.33,-264.86"/>
</g>
<!-- node14&#45;&gt;node9 -->
<g id="edge43" class="edge">
<title>node14&#45;&gt;node9</title>
<path fill="none" stroke="black" stroke-dasharray="1,5" d="M1789.77,-478.14C1891.64,-456.68 2176.28,-386.07 2080,-284 2042.12,-243.84 1638.39,-264.44 1584,-255 1579.81,-254.27 1575.5,-253.35 1571.2,-252.31"/>
<polygon fill="black" stroke="black" points="1571.84,-248.86 1561.28,-249.72 1570.07,-255.64 1571.84,-248.86"/>
</g>
<!-- node14&#45;&gt;node13 -->
<g id="edge27" class="edge">
<title>node14&#45;&gt;node13</title>
<path fill="none" stroke="black" stroke-dasharray="1,5" d="M1719.42,-479.82C1685.41,-473.34 1634.25,-459.43 1599,-431 1568.37,-406.29 1547.35,-365.05 1535.99,-337.93"/>
<polygon fill="black" stroke="black" points="1539.09,-336.27 1532.11,-328.3 1532.6,-338.88 1539.09,-336.27"/>
</g>
<!-- node15 -->
<g id="node24" class="node">
<title>node15</title>
<polygon fill="none" stroke="black" points="1701.78,-397.54 1701.78,-412.46 1674.38,-423 1635.62,-423 1608.22,-412.46 1608.22,-397.54 1635.62,-387 1674.38,-387 1701.78,-397.54"/>
<text text-anchor="middle" x="1655" y="-401.9" font-family="Times New Roman,serif" font-size="12.00">EncoderLib</text>
</g>
<!-- node14&#45;&gt;node15 -->
<g id="edge39" class="edge">
<title>node14&#45;&gt;node15</title>
<path fill="none" stroke="black" stroke-dasharray="1,5" d="M1745.17,-468.42C1740.76,-461.87 1735.17,-454.59 1729,-449 1718.47,-439.46 1705.48,-431.05 1693.34,-424.25"/>
<polygon fill="black" stroke="black" points="1694.74,-421.03 1684.27,-419.38 1691.42,-427.2 1694.74,-421.03"/>
</g>
<!-- node16 -->
<g id="node25" class="node">
<title>node16</title>
<polygon fill="none" stroke="black" points="1342.79,-302.54 1342.79,-317.46 1317.72,-328 1282.28,-328 1257.21,-317.46 1257.21,-302.54 1282.28,-292 1317.72,-292 1342.79,-302.54"/>
<text text-anchor="middle" x="1300" y="-306.9" font-family="Times New Roman,serif" font-size="12.00">PackerLib</text>
</g>
<!-- node14&#45;&gt;node16 -->
<g id="edge41" class="edge">
<title>node14&#45;&gt;node16</title>
<path fill="none" stroke="black" stroke-dasharray="1,5" d="M1719.45,-479.01C1672.84,-471.3 1588.47,-457.85 1516,-449 1473.46,-443.81 1355.84,-459.69 1324,-431 1298.5,-408.02 1295.63,-366.26 1296.98,-338.57"/>
<polygon fill="black" stroke="black" points="1300.49,-338.58 1297.7,-328.36 1293.5,-338.09 1300.49,-338.58"/>
</g>
<!-- node17 -->
<g id="node26" class="node">
<title>node17</title>
<polygon fill="none" stroke="black" points="1753.12,-302.54 1753.12,-317.46 1729.03,-328 1694.97,-328 1670.88,-317.46 1670.88,-302.54 1694.97,-292 1729.03,-292 1753.12,-302.54"/>
<text text-anchor="middle" x="1712" y="-306.9" font-family="Times New Roman,serif" font-size="12.00">PrunerLib</text>
</g>
<!-- node14&#45;&gt;node17 -->
<g id="edge42" class="edge">
<title>node14&#45;&gt;node17</title>
<path fill="none" stroke="black" stroke-dasharray="1,5" d="M1750.8,-468C1743.32,-437.72 1727.63,-374.25 1718.66,-337.96"/>
<polygon fill="black" stroke="black" points="1722.02,-336.94 1716.22,-328.07 1715.22,-338.62 1722.02,-336.94"/>
</g>
<!-- node18 -->
<g id="node27" class="node">
<title>node18</title>
<polygon fill="none" stroke="black" points="1942.76,-302.54 1942.76,-317.46 1903.65,-328 1848.35,-328 1809.24,-317.46 1809.24,-302.54 1848.35,-292 1903.65,-292 1942.76,-302.54"/>
<text text-anchor="middle" x="1876" y="-306.9" font-family="Times New Roman,serif" font-size="12.00">ViewOptimizerLib</text>
</g>
<!-- node14&#45;&gt;node18 -->
<g id="edge44" class="edge">
<title>node14&#45;&gt;node18</title>
<path fill="none" stroke="black" stroke-dasharray="1,5" d="M1766.38,-468.63C1787.48,-438.29 1832.8,-373.12 1858.06,-336.8"/>
<polygon fill="black" stroke="black" points="1861.19,-338.43 1864.02,-328.22 1855.44,-334.43 1861.19,-338.43"/>
</g>
<!-- node15&#45;&gt;node0 -->
<g id="edge28" class="edge">
<title>node15&#45;&gt;node0</title>
<path fill="none" stroke="black" stroke-dasharray="1,5" d="M1687.59,-391.85C1723.5,-378.87 1783.17,-358.48 1836,-346 1886.77,-334 1900.94,-338.71 1952,-328 1956.61,-327.03 1961.38,-325.94 1966.15,-324.79"/>
<polygon fill="black" stroke="black" points="1967.02,-328.18 1975.87,-322.35 1965.32,-321.39 1967.02,-328.18"/>
</g>
<!-- node15&#45;&gt;node3 -->
<g id="edge30" class="edge">
<title>node15&#45;&gt;node3</title>
<path fill="none" stroke="black" d="M1655.9,-386.85C1656.26,-360.64 1652.79,-310.87 1624,-284 1572.44,-235.88 1533.25,-281.75 1468,-255 1414.39,-233.02 1387.17,-233.17 1360,-182 1352.5,-167.87 1352.75,-160.26 1360,-146 1367.08,-132.06 1379.64,-120.86 1392.42,-112.36"/>
<polygon fill="black" stroke="black" points="1394.58,-115.14 1401.24,-106.9 1390.9,-109.19 1394.58,-115.14"/>
</g>
<!-- node15&#45;&gt;node9 -->
<g id="edge35" class="edge">
<title>node15&#45;&gt;node9</title>
<path fill="none" stroke="black" stroke-dasharray="1,5" d="M1666.59,-386.79C1676.08,-373.9 1690.58,-356.72 1707,-346 1728.54,-331.95 1746.9,-348.82 1762,-328 1773.48,-312.17 1774.67,-298.9 1762,-284 1736.04,-253.47 1623.08,-263.88 1584,-255 1580.08,-254.11 1576.04,-253.11 1572,-252.04"/>
<polygon fill="black" stroke="black" points="1572.59,-248.58 1562.02,-249.31 1570.74,-255.33 1572.59,-248.58"/>
</g>
<!-- node15&#45;&gt;node13 -->
<g id="edge29" class="edge">
<title>node15&#45;&gt;node13</title>
<path fill="none" stroke="black" stroke-dasharray="1,5" d="M1632.82,-388.01C1612.17,-373.12 1581.13,-350.75 1557.83,-333.95"/>
<polygon fill="black" stroke="black" points="1559.79,-331.05 1549.63,-328.04 1555.7,-336.72 1559.79,-331.05"/>
</g>
<!-- node15&#45;&gt;node16 -->
<g id="edge32" class="edge">
<title>node15&#45;&gt;node16</title>
<path fill="none" stroke="black" stroke-dasharray="1,5" d="M1617.01,-394.05C1551.29,-376.83 1416.63,-341.55 1345.83,-323.01"/>
<polygon fill="black" stroke="black" points="1346.42,-319.54 1335.86,-320.4 1344.65,-326.32 1346.42,-319.54"/>
</g>
<!-- node15&#45;&gt;node17 -->
<g id="edge34" class="edge">
<title>node15&#45;&gt;node17</title>
<path fill="none" stroke="black" stroke-dasharray="1,5" d="M1661.53,-386.86C1666.4,-374.96 1673.64,-358.98 1682,-346 1684.18,-342.61 1686.66,-339.21 1689.24,-335.92"/>
<polygon fill="black" stroke="black" points="1692.06,-338 1695.75,-328.07 1686.67,-333.54 1692.06,-338"/>
</g>
<!-- node15&#45;&gt;node18 -->
<g id="edge38" class="edge">
<title>node15&#45;&gt;node18</title>
<path fill="none" stroke="black" stroke-dasharray="1,5" d="M1673.2,-386.87C1687.97,-373.85 1709.91,-356.45 1732,-346 1739.92,-342.25 1780.17,-332.59 1816.11,-324.36"/>
<polygon fill="black" stroke="black" points="1817.13,-327.72 1826.1,-322.08 1815.57,-320.89 1817.13,-327.72"/>
</g>
<!-- node16&#45;&gt;node3 -->
<g id="edge31" class="edge">
<title>node16&#45;&gt;node3</title>
<path fill="none" stroke="black" d="M1297.14,-291.85C1292.27,-256.53 1286.52,-174.97 1327,-127 1336.93,-115.24 1350.87,-107.4 1365.42,-102.18"/>
<polygon fill="black" stroke="black" points="1366.57,-105.49 1375.04,-99.12 1364.45,-98.82 1366.57,-105.49"/>
</g>
<!-- node17&#45;&gt;node9 -->
<g id="edge33" class="edge">
<title>node17&#45;&gt;node9</title>
<path fill="none" stroke="black" stroke-dasharray="1,5" d="M1685.07,-296.18C1676.2,-292.12 1666.25,-287.72 1657,-284 1628.86,-272.69 1596.75,-261.39 1571.35,-252.82"/>
<polygon fill="black" stroke="black" points="1572.22,-249.42 1561.62,-249.55 1569.99,-256.05 1572.22,-249.42"/>
</g>
<!-- node18&#45;&gt;node3 -->
<g id="edge36" class="edge">
<title>node18&#45;&gt;node3</title>
<path fill="none" stroke="black" d="M1870.84,-291.77C1859.68,-257.7 1829.85,-181.94 1776,-146 1732.84,-117.19 1592.32,-102.68 1505.41,-96.28"/>
<polygon fill="black" stroke="black" points="1505.57,-92.79 1495.35,-95.56 1505.07,-99.77 1505.57,-92.79"/>
</g>
<!-- node18&#45;&gt;node9 -->
<g id="edge37" class="edge">
<title>node18&#45;&gt;node9</title>
<path fill="none" stroke="black" stroke-dasharray="1,5" d="M1844.92,-292.86C1829.43,-285.56 1810.16,-277.55 1792,-273 1701.99,-250.44 1675.19,-272.13 1584,-255 1579.82,-254.22 1575.52,-253.25 1571.23,-252.19"/>
<polygon fill="black" stroke="black" points="1571.87,-248.74 1561.31,-249.56 1570.08,-255.51 1571.87,-248.74"/>
</g>
<!-- node19 -->
<g id="node28" class="node">
<title>node19</title>
<polygon fill="none" stroke="black" points="1639.95,-219.05 1642.57,-219.15 1645.16,-219.3 1647.71,-219.49 1650.22,-219.74 1652.67,-220.03 1655.04,-220.36 1657.35,-220.75 1659.56,-221.18 1661.69,-221.65 1663.71,-222.16 1665.62,-222.71 1667.42,-223.31 1669.09,-223.94 1670.64,-224.61 1672.07,-225.31 1673.35,-226.04 1674.51,-226.8 1675.52,-227.59 1676.39,-228.41 1677.13,-229.25 1677.72,-230.11 1678.18,-230.99 1678.49,-231.89 1678.67,-232.8 1678.72,-233.72 1678.64,-234.65 1678.44,-235.59 1678.11,-236.53 1677.66,-237.47 1677.1,-238.41 1676.44,-239.35 1675.67,-240.28 1674.81,-241.2 1673.85,-242.11 1672.82,-243.01 1671.7,-243.89 1670.51,-244.75 1669.25,-245.59 1667.93,-246.41 1666.55,-247.2 1665.13,-247.96 1663.65,-248.69 1662.14,-249.39 1660.59,-250.06 1659.01,-250.69 1657.39,-251.29 1655.76,-251.84 1654.1,-252.35 1652.42,-252.82 1650.73,-253.25 1649.02,-253.64 1647.31,-253.97 1645.58,-254.26 1643.85,-254.51 1642.11,-254.7 1640.37,-254.85 1638.62,-254.95 1636.87,-255 1635.13,-255 1633.38,-254.95 1631.63,-254.85 1629.89,-254.7 1628.15,-254.51 1626.42,-254.26 1624.69,-253.97 1622.98,-253.64 1621.27,-253.25 1619.58,-252.82 1617.9,-252.35 1616.24,-251.84 1614.61,-251.29 1612.99,-250.69 1611.41,-250.06 1609.86,-249.39 1608.35,-248.69 1606.87,-247.96 1605.45,-247.2 1604.07,-246.41 1602.75,-245.59 1601.49,-244.75 1600.3,-243.89 1599.18,-243.01 1598.15,-242.11 1597.19,-241.2 1596.33,-240.28 1595.56,-239.35 1594.9,-238.41 1594.34,-237.47 1593.89,-236.53 1593.56,-235.59 1593.36,-234.65 1593.28,-233.72 1593.33,-232.8 1593.51,-231.89 1593.82,-230.99 1594.28,-230.11 1594.87,-229.25 1595.61,-228.41 1596.48,-227.59 1597.49,-226.8 1598.65,-226.04 1599.93,-225.31 1601.36,-224.61 1602.91,-223.94 1604.58,-223.31 1606.38,-222.71 1608.29,-222.16 1610.31,-221.65 1612.44,-221.18 1614.65,-220.75 1616.96,-220.36 1619.33,-220.03 1621.78,-219.74 1624.29,-219.49 1626.84,-219.3 1629.43,-219.15 1632.05,-219.05 1634.68,-219 1637.32,-219 1639.95,-219.05"/>
<text text-anchor="middle" x="1636" y="-233.9" font-family="Times New Roman,serif" font-size="12.00">GaInserter</text>
</g>
<!-- node20 -->
<g id="node29" class="node">
<title>node20</title>
<polygon fill="none" stroke="black" points="1665.11,-156.54 1665.11,-171.46 1634,-182 1590,-182 1558.89,-171.46 1558.89,-156.54 1590,-146 1634,-146 1665.11,-156.54"/>
<text text-anchor="middle" x="1612" y="-160.9" font-family="Times New Roman,serif" font-size="12.00">GaInserterLib</text>
</g>
<!-- node19&#45;&gt;node20 -->
<g id="edge46" class="edge">
<title>node19&#45;&gt;node20</title>
<path fill="none" stroke="black" stroke-dasharray="1,5" d="M1630.19,-218.81C1627.45,-210.7 1624.11,-200.84 1621.05,-191.78"/>
<polygon fill="black" stroke="black" points="1624.27,-190.38 1617.76,-182.03 1617.64,-192.62 1624.27,-190.38"/>
</g>
<!-- node20&#45;&gt;node3 -->
<g id="edge45" class="edge">
<title>node20&#45;&gt;node3</title>
<path fill="none" stroke="black" d="M1584.47,-147.8C1571.5,-140.96 1555.68,-133.08 1541,-127 1523.33,-119.68 1503.53,-112.84 1485.81,-107.18"/>
<polygon fill="black" stroke="black" points="1486.8,-103.83 1476.21,-104.17 1484.7,-110.5 1486.8,-103.83"/>
</g>
<!-- node21 -->
<g id="node30" class="node">
<title>node21</title>
<polygon fill="none" stroke="black" points="1506.49,-468.05 1509.46,-468.15 1512.41,-468.3 1515.3,-468.49 1518.15,-468.74 1520.93,-469.03 1523.63,-469.36 1526.25,-469.75 1528.76,-470.18 1531.17,-470.65 1533.47,-471.16 1535.64,-471.71 1537.68,-472.31 1539.59,-472.94 1541.35,-473.61 1542.96,-474.31 1544.42,-475.04 1545.73,-475.8 1546.88,-476.59 1547.88,-477.41 1548.71,-478.25 1549.38,-479.11 1549.9,-479.99 1550.26,-480.89 1550.47,-481.8 1550.52,-482.72 1550.43,-483.65 1550.2,-484.59 1549.82,-485.53 1549.32,-486.47 1548.68,-487.41 1547.93,-488.35 1547.06,-489.28 1546.08,-490.2 1544.99,-491.11 1543.81,-492.01 1542.54,-492.89 1541.19,-493.75 1539.76,-494.59 1538.27,-495.41 1536.7,-496.2 1535.08,-496.96 1533.41,-497.69 1531.69,-498.39 1529.93,-499.06 1528.13,-499.69 1526.3,-500.29 1524.44,-500.84 1522.56,-501.35 1520.65,-501.82 1518.73,-502.25 1516.79,-502.64 1514.84,-502.97 1512.88,-503.26 1510.91,-503.51 1508.94,-503.7 1506.96,-503.85 1504.98,-503.95 1502.99,-504 1501.01,-504 1499.02,-503.95 1497.04,-503.85 1495.06,-503.7 1493.09,-503.51 1491.12,-503.26 1489.16,-502.97 1487.21,-502.64 1485.27,-502.25 1483.35,-501.82 1481.44,-501.35 1479.56,-500.84 1477.7,-500.29 1475.87,-499.69 1474.07,-499.06 1472.31,-498.39 1470.59,-497.69 1468.92,-496.96 1467.3,-496.2 1465.73,-495.41 1464.24,-494.59 1462.81,-493.75 1461.46,-492.89 1460.19,-492.01 1459.01,-491.11 1457.92,-490.2 1456.94,-489.28 1456.07,-488.35 1455.32,-487.41 1454.68,-486.47 1454.18,-485.53 1453.8,-484.59 1453.57,-483.65 1453.48,-482.72 1453.53,-481.8 1453.74,-480.89 1454.1,-479.99 1454.62,-479.11 1455.29,-478.25 1456.12,-477.41 1457.12,-476.59 1458.27,-475.8 1459.58,-475.04 1461.04,-474.31 1462.65,-473.61 1464.41,-472.94 1466.32,-472.31 1468.36,-471.71 1470.53,-471.16 1472.83,-470.65 1475.24,-470.18 1477.75,-469.75 1480.37,-469.36 1483.07,-469.03 1485.85,-468.74 1488.7,-468.49 1491.59,-468.3 1494.54,-468.15 1497.51,-468.05 1500.5,-468 1503.5,-468 1506.49,-468.05"/>
<text text-anchor="middle" x="1502" y="-482.9" font-family="Times New Roman,serif" font-size="12.00">MpiEncoder</text>
</g>
<!-- node21&#45;&gt;node0 -->
<g id="edge47" class="edge">
<title>node21&#45;&gt;node0</title>
<path fill="none" stroke="black" stroke-dasharray="1,5" d="M1546.81,-476.52C1582.64,-469.65 1634.12,-459.57 1679,-450 1716.01,-442.11 1726.43,-443.91 1762,-431 1809.83,-413.64 1818.09,-400.95 1864,-379 1900.83,-361.39 1943.28,-342.51 1973.94,-329.13"/>
<polygon fill="black" stroke="black" points="1975.69,-332.19 1983.46,-324.99 1972.9,-325.77 1975.69,-332.19"/>
</g>
<!-- node21&#45;&gt;node9 -->
<g id="edge54" class="edge">
<title>node21&#45;&gt;node9</title>
<path fill="none" stroke="black" stroke-dasharray="1,5" d="M1486.49,-468.56C1454.71,-432.84 1388.42,-346.3 1428,-284 1438.29,-267.8 1455.96,-257.21 1473.48,-250.33"/>
<polygon fill="black" stroke="black" points="1474.92,-253.53 1483.16,-246.87 1472.56,-246.94 1474.92,-253.53"/>
</g>
<!-- node21&#45;&gt;node13 -->
<g id="edge48" class="edge">
<title>node21&#45;&gt;node13</title>
<path fill="none" stroke="black" stroke-dasharray="1,5" d="M1504.2,-467.73C1506.9,-446.74 1511.64,-410.25 1516,-379 1517.88,-365.56 1520.06,-350.65 1521.9,-338.22"/>
<polygon fill="black" stroke="black" points="1525.41,-338.44 1523.42,-328.04 1518.49,-337.41 1525.41,-338.44"/>
</g>
<!-- node21&#45;&gt;node15 -->
<g id="edge49" class="edge">
<title>node21&#45;&gt;node15</title>
<path fill="none" stroke="black" stroke-dasharray="1,5" d="M1530.42,-470.33C1555.31,-457.47 1591.62,-438.72 1618.63,-424.78"/>
<polygon fill="black" stroke="black" points="1620.48,-427.76 1627.76,-420.06 1617.27,-421.54 1620.48,-427.76"/>
</g>
<!-- node21&#45;&gt;node16 -->
<g id="edge52" class="edge">
<title>node21&#45;&gt;node16</title>
<path fill="none" stroke="black" stroke-dasharray="1,5" d="M1454.22,-479.54C1398.31,-472.05 1310.83,-456.54 1291,-431 1270.44,-404.51 1279.2,-364.07 1288.59,-337.58"/>
<polygon fill="black" stroke="black" points="1291.89,-338.76 1292.16,-328.17 1285.34,-336.28 1291.89,-338.76"/>
</g>
<!-- node21&#45;&gt;node17 -->
<g id="edge53" class="edge">
<title>node21&#45;&gt;node17</title>
<path fill="none" stroke="black" stroke-dasharray="1,5" d="M1514.84,-468.18C1532.29,-446.03 1565.21,-406.64 1599,-379 1622.99,-359.38 1653.2,-341.49 1676.34,-329"/>
<polygon fill="black" stroke="black" points="1678.28,-331.93 1685.48,-324.15 1675,-325.75 1678.28,-331.93"/>
</g>
<!-- node21&#45;&gt;node18 -->
<g id="edge55" class="edge">
<title>node21&#45;&gt;node18</title>
<path fill="none" stroke="black" stroke-dasharray="1,5" d="M1548.97,-478.06C1592.51,-470.45 1658.3,-455.87 1711,-431 1739.34,-417.63 1807.31,-365.43 1846.6,-334.45"/>
<polygon fill="black" stroke="black" points="1848.85,-337.13 1854.53,-328.19 1844.51,-331.64 1848.85,-337.13"/>
</g>
<!-- node22 -->
<g id="node31" class="node">
<title>node22</title>
<polygon fill="none" stroke="black" points="1052.79,-302.54 1052.79,-317.46 1026.55,-328 989.45,-328 963.21,-317.46 963.21,-302.54 989.45,-292 1026.55,-292 1052.79,-302.54"/>
<text text-anchor="middle" x="1008" y="-306.9" font-family="Times New Roman,serif" font-size="12.00">MpiPcsLib</text>
</g>
<!-- node21&#45;&gt;node22 -->
<g id="edge51" class="edge">
<title>node21&#45;&gt;node22</title>
<path fill="none" stroke="black" stroke-dasharray="1,5" d="M1453.26,-482.76C1338.28,-477.01 1057.43,-460.12 1027,-431 1002.38,-407.44 1001.27,-365.82 1003.8,-338.33"/>
<polygon fill="black" stroke="black" points="1007.3,-338.53 1004.95,-328.2 1000.34,-337.74 1007.3,-338.53"/>
</g>
<!-- node22&#45;&gt;node8 -->
<g id="edge50" class="edge">
<title>node22&#45;&gt;node8</title>
<path fill="none" stroke="black" d="M1025.67,-291.81C1035.45,-282.3 1047.71,-270.38 1058.21,-260.17"/>
<polygon fill="black" stroke="black" points="1060.75,-262.58 1065.47,-253.1 1055.87,-257.56 1060.75,-262.58"/>
</g>
<!-- node23 -->
<g id="node32" class="node">
<title>node23</title>
<polygon fill="none" stroke="black" points="1073.16,-387.05 1075.26,-387.15 1077.33,-387.3 1079.37,-387.49 1081.38,-387.74 1083.33,-388.03 1085.24,-388.36 1087.08,-388.75 1088.85,-389.18 1090.55,-389.65 1092.17,-390.16 1093.7,-390.71 1095.13,-391.31 1096.47,-391.94 1097.72,-392.61 1098.85,-393.31 1099.88,-394.04 1100.8,-394.8 1101.61,-395.59 1102.31,-396.41 1102.9,-397.25 1103.38,-398.11 1103.74,-398.99 1103.99,-399.89 1104.14,-400.8 1104.18,-401.72 1104.11,-402.65 1103.95,-403.59 1103.69,-404.53 1103.33,-405.47 1102.88,-406.41 1102.35,-407.35 1101.74,-408.28 1101.05,-409.2 1100.28,-410.11 1099.45,-411.01 1098.56,-411.89 1097.61,-412.75 1096.6,-413.59 1095.54,-414.41 1094.44,-415.2 1093.3,-415.96 1092.12,-416.69 1090.91,-417.39 1089.67,-418.06 1088.4,-418.69 1087.11,-419.29 1085.81,-419.84 1084.48,-420.35 1083.14,-420.82 1081.78,-421.25 1080.42,-421.64 1079.05,-421.97 1077.66,-422.26 1076.28,-422.51 1074.89,-422.7 1073.49,-422.85 1072.1,-422.95 1070.7,-423 1069.3,-423 1067.9,-422.95 1066.51,-422.85 1065.11,-422.7 1063.72,-422.51 1062.34,-422.26 1060.95,-421.97 1059.58,-421.64 1058.22,-421.25 1056.86,-420.82 1055.52,-420.35 1054.19,-419.84 1052.89,-419.29 1051.6,-418.69 1050.33,-418.06 1049.09,-417.39 1047.88,-416.69 1046.7,-415.96 1045.56,-415.2 1044.46,-414.41 1043.4,-413.59 1042.39,-412.75 1041.44,-411.89 1040.55,-411.01 1039.72,-410.11 1038.95,-409.2 1038.26,-408.28 1037.65,-407.35 1037.12,-406.41 1036.67,-405.47 1036.31,-404.53 1036.05,-403.59 1035.89,-402.65 1035.82,-401.72 1035.86,-400.8 1036.01,-399.89 1036.26,-398.99 1036.62,-398.11 1037.1,-397.25 1037.69,-396.41 1038.39,-395.59 1039.2,-394.8 1040.12,-394.04 1041.15,-393.31 1042.28,-392.61 1043.53,-391.94 1044.87,-391.31 1046.3,-390.71 1047.83,-390.16 1049.45,-389.65 1051.15,-389.18 1052.92,-388.75 1054.76,-388.36 1056.67,-388.03 1058.62,-387.74 1060.63,-387.49 1062.67,-387.3 1064.74,-387.15 1066.84,-387.05 1068.94,-387 1071.06,-387 1073.16,-387.05"/>
<text text-anchor="middle" x="1070" y="-401.9" font-family="Times New Roman,serif" font-size="12.00">MpiPcs</text>
</g>
<!-- node23&#45;&gt;node22 -->
<g id="edge56" class="edge">
<title>node23&#45;&gt;node22</title>
<path fill="none" stroke="black" stroke-dasharray="1,5" d="M1058.92,-387.37C1049.51,-373.27 1035.87,-352.8 1025.07,-336.6"/>
<polygon fill="black" stroke="black" points="1027.87,-334.49 1019.41,-328.11 1022.04,-338.37 1027.87,-334.49"/>
</g>
<!-- node24 -->
<g id="node33" class="node">
<title>node24</title>
<polygon fill="none" stroke="black" points="740.13,-387.05 742.87,-387.15 745.58,-387.3 748.24,-387.49 750.86,-387.74 753.42,-388.03 755.91,-388.36 758.31,-388.75 760.63,-389.18 762.85,-389.65 764.96,-390.16 766.96,-390.71 768.84,-391.31 770.59,-391.94 772.21,-392.61 773.7,-393.31 775.04,-394.04 776.25,-394.8 777.31,-395.59 778.22,-396.41 778.99,-397.25 779.61,-398.11 780.08,-398.99 780.42,-399.89 780.61,-400.8 780.66,-401.72 780.57,-402.65 780.36,-403.59 780.01,-404.53 779.55,-405.47 778.96,-406.41 778.27,-407.35 777.47,-408.28 776.56,-409.2 775.57,-410.11 774.48,-411.01 773.31,-411.89 772.07,-412.75 770.75,-413.59 769.38,-414.41 767.94,-415.2 766.45,-415.96 764.91,-416.69 763.32,-417.39 761.7,-418.06 760.05,-418.69 758.36,-419.29 756.65,-419.84 754.92,-420.35 753.16,-420.82 751.4,-421.25 749.61,-421.64 747.82,-421.97 746.01,-422.26 744.2,-422.51 742.39,-422.7 740.56,-422.85 738.74,-422.95 736.91,-423 735.09,-423 733.26,-422.95 731.44,-422.85 729.61,-422.7 727.8,-422.51 725.99,-422.26 724.18,-421.97 722.39,-421.64 720.6,-421.25 718.84,-420.82 717.08,-420.35 715.35,-419.84 713.64,-419.29 711.95,-418.69 710.3,-418.06 708.68,-417.39 707.09,-416.69 705.55,-415.96 704.06,-415.2 702.62,-414.41 701.25,-413.59 699.93,-412.75 698.69,-411.89 697.52,-411.01 696.43,-410.11 695.44,-409.2 694.53,-408.28 693.73,-407.35 693.04,-406.41 692.45,-405.47 691.99,-404.53 691.64,-403.59 691.43,-402.65 691.34,-401.72 691.39,-400.8 691.58,-399.89 691.92,-398.99 692.39,-398.11 693.01,-397.25 693.78,-396.41 694.69,-395.59 695.75,-394.8 696.96,-394.04 698.3,-393.31 699.79,-392.61 701.41,-391.94 703.16,-391.31 705.04,-390.71 707.04,-390.16 709.15,-389.65 711.37,-389.18 713.69,-388.75 716.09,-388.36 718.58,-388.03 721.14,-387.74 723.76,-387.49 726.42,-387.3 729.13,-387.15 731.87,-387.05 734.62,-387 737.38,-387 740.13,-387.05"/>
<text text-anchor="middle" x="736" y="-401.9" font-family="Times New Roman,serif" font-size="12.00">Multiplexer</text>
</g>
<!-- node24&#45;&gt;node5 -->
<g id="edge57" class="edge">
<title>node24&#45;&gt;node5</title>
<path fill="none" stroke="black" stroke-dasharray="1,5" d="M765.36,-390.19C789.21,-377.42 821.79,-356.17 840,-328 852.09,-309.3 856.64,-284.28 858.29,-265.36"/>
<polygon fill="black" stroke="black" points="861.79,-265.5 858.94,-255.3 854.8,-265.05 861.79,-265.5"/>
</g>
<!-- node24&#45;&gt;node8 -->
<g id="edge58" class="edge">
<title>node24&#45;&gt;node8</title>
<path fill="none" stroke="black" stroke-dasharray="1,5" d="M767.75,-390.9C786.46,-382.87 810.42,-372.04 831,-361 887.84,-330.52 896.02,-312.25 954,-284 983.4,-269.67 1018.47,-257.3 1044.3,-249.01"/>
<polygon fill="black" stroke="black" points="1045.58,-252.27 1054.06,-245.93 1043.47,-245.6 1045.58,-252.27"/>
</g>
<!-- node24&#45;&gt;node11 -->
<g id="edge63" class="edge">
<title>node24&#45;&gt;node11</title>
<path fill="none" stroke="black" stroke-dasharray="1,5" d="M692.2,-398.27C650.97,-390.3 591.43,-371.54 563,-328 549.64,-307.53 548.95,-293 563,-273 570.23,-262.71 580.79,-255.43 592.31,-250.29"/>
<polygon fill="black" stroke="black" points="593.68,-253.51 601.71,-246.6 591.12,-246.99 593.68,-253.51"/>
</g>
<!-- node25 -->
<g id="node34" class="node">
<title>node25</title>
<polygon fill="none" stroke="black" points="715.11,-302.54 715.11,-317.46 682.83,-328 637.17,-328 604.89,-317.46 604.89,-302.54 637.17,-292 682.83,-292 715.11,-302.54"/>
<text text-anchor="middle" x="660" y="-306.9" font-family="Times New Roman,serif" font-size="12.00">MultiplexerLib</text>
</g>
<!-- node24&#45;&gt;node25 -->
<g id="edge62" class="edge">
<title>node24&#45;&gt;node25</title>
<path fill="none" stroke="black" stroke-dasharray="1,5" d="M722.41,-387.37C710.78,-373.14 693.85,-352.42 680.56,-336.15"/>
<polygon fill="black" stroke="black" points="683.02,-333.64 673.98,-328.11 677.6,-338.07 683.02,-333.64"/>
</g>
<!-- node25&#45;&gt;node3 -->
<g id="edge60" class="edge">
<title>node25&#45;&gt;node3</title>
<path fill="none" stroke="black" d="M683.72,-292.08C698.51,-281.49 717.92,-267.52 735,-255 800.31,-207.12 805.48,-175.23 881,-146 967.05,-112.69 1233.34,-99.01 1362.41,-94.22"/>
<polygon fill="black" stroke="black" points="1362.72,-97.71 1372.59,-93.85 1362.47,-90.72 1362.72,-97.71"/>
</g>
<!-- node25&#45;&gt;node5 -->
<g id="edge59" class="edge">
<title>node25&#45;&gt;node5</title>
<path fill="none" stroke="black" stroke-dasharray="1,5" d="M692.12,-294.97C702.18,-290.98 713.42,-286.93 724,-284 749.63,-276.9 757.63,-281.99 783,-274 796.65,-269.7 810.99,-263.42 823.49,-257.3"/>
<polygon fill="black" stroke="black" points="825.29,-260.31 832.64,-252.69 822.14,-254.06 825.29,-260.31"/>
</g>
<!-- node25&#45;&gt;node11 -->
<g id="edge61" class="edge">
<title>node25&#45;&gt;node11</title>
<path fill="none" stroke="black" stroke-dasharray="1,5" d="M660,-291.81C660,-283.79 660,-274.05 660,-265.07"/>
<polygon fill="black" stroke="black" points="663.5,-265.03 660,-255.03 656.5,-265.03 663.5,-265.03"/>
</g>
<!-- node26 -->
<g id="node35" class="node">
<title>node26</title>
<polygon fill="none" stroke="black" points="1729.81,-219.05 1731.66,-219.15 1733.5,-219.3 1735.31,-219.49 1737.09,-219.74 1738.82,-220.03 1740.51,-220.36 1742.15,-220.75 1743.72,-221.18 1745.22,-221.65 1746.66,-222.16 1748.02,-222.71 1749.29,-223.31 1750.48,-223.94 1751.58,-224.61 1752.59,-225.31 1753.5,-226.04 1754.32,-226.8 1755.04,-227.59 1755.66,-228.41 1756.18,-229.25 1756.6,-230.11 1756.92,-230.99 1757.15,-231.89 1757.28,-232.8 1757.31,-233.72 1757.26,-234.65 1757.11,-235.59 1756.88,-236.53 1756.56,-237.47 1756.16,-238.41 1755.69,-239.35 1755.15,-240.28 1754.53,-241.2 1753.86,-242.11 1753.12,-243.01 1752.33,-243.89 1751.48,-244.75 1750.59,-245.59 1749.66,-246.41 1748.68,-247.2 1747.67,-247.96 1746.62,-248.69 1745.55,-249.39 1744.45,-250.06 1743.32,-250.69 1742.18,-251.29 1741.02,-251.84 1739.84,-252.35 1738.65,-252.82 1737.45,-253.25 1736.24,-253.64 1735.02,-253.97 1733.8,-254.26 1732.57,-254.51 1731.33,-254.7 1730.1,-254.85 1728.86,-254.95 1727.62,-255 1726.38,-255 1725.14,-254.95 1723.9,-254.85 1722.67,-254.7 1721.43,-254.51 1720.2,-254.26 1718.98,-253.97 1717.76,-253.64 1716.55,-253.25 1715.35,-252.82 1714.16,-252.35 1712.98,-251.84 1711.82,-251.29 1710.68,-250.69 1709.55,-250.06 1708.45,-249.39 1707.38,-248.69 1706.33,-247.96 1705.32,-247.2 1704.34,-246.41 1703.41,-245.59 1702.52,-244.75 1701.67,-243.89 1700.88,-243.01 1700.14,-242.11 1699.47,-241.2 1698.85,-240.28 1698.31,-239.35 1697.84,-238.41 1697.44,-237.47 1697.12,-236.53 1696.89,-235.59 1696.74,-234.65 1696.69,-233.72 1696.72,-232.8 1696.85,-231.89 1697.08,-230.99 1697.4,-230.11 1697.82,-229.25 1698.34,-228.41 1698.96,-227.59 1699.68,-226.8 1700.5,-226.04 1701.41,-225.31 1702.42,-224.61 1703.52,-223.94 1704.71,-223.31 1705.98,-222.71 1707.34,-222.16 1708.78,-221.65 1710.28,-221.18 1711.85,-220.75 1713.49,-220.36 1715.18,-220.03 1716.91,-219.74 1718.69,-219.49 1720.5,-219.3 1722.34,-219.15 1724.19,-219.05 1726.06,-219 1727.94,-219 1729.81,-219.05"/>
<text text-anchor="middle" x="1727" y="-233.9" font-family="Times New Roman,serif" font-size="12.00">Parser</text>
</g>
<!-- node27 -->
<g id="node36" class="node">
<title>node27</title>
<polygon fill="none" stroke="black" points="1766.79,-156.54 1766.79,-171.46 1742.9,-182 1709.1,-182 1685.21,-171.46 1685.21,-156.54 1709.1,-146 1742.9,-146 1766.79,-156.54"/>
<text text-anchor="middle" x="1726" y="-160.9" font-family="Times New Roman,serif" font-size="12.00">ParserLib</text>
</g>
<!-- node26&#45;&gt;node27 -->
<g id="edge65" class="edge">
<title>node26&#45;&gt;node27</title>
<path fill="none" stroke="black" stroke-dasharray="1,5" d="M1726.76,-218.81C1726.64,-210.79 1726.51,-201.05 1726.38,-192.07"/>
<polygon fill="black" stroke="black" points="1729.88,-191.98 1726.24,-182.03 1722.88,-192.08 1729.88,-191.98"/>
</g>
<!-- node27&#45;&gt;node3 -->
<g id="edge64" class="edge">
<title>node27&#45;&gt;node3</title>
<path fill="none" stroke="black" d="M1694.8,-152.27C1687.98,-150.07 1680.78,-147.87 1674,-146 1613.26,-129.28 1542.84,-113.9 1494.05,-103.87"/>
<polygon fill="black" stroke="black" points="1494.48,-100.38 1483.98,-101.81 1493.08,-107.24 1494.48,-100.38"/>
</g>
<!-- node28 -->
<g id="node37" class="node">
<title>node28</title>
<polygon fill="none" stroke="black" points="1375.6,-387.05 1377.98,-387.15 1380.33,-387.3 1382.65,-387.49 1384.93,-387.74 1387.16,-388.03 1389.32,-388.36 1391.42,-388.75 1393.43,-389.18 1395.36,-389.65 1397.2,-390.16 1398.94,-390.71 1400.57,-391.31 1402.1,-391.94 1403.51,-392.61 1404.8,-393.31 1405.97,-394.04 1407.02,-394.8 1407.94,-395.59 1408.74,-396.41 1409.4,-397.25 1409.95,-398.11 1410.36,-398.99 1410.65,-399.89 1410.81,-400.8 1410.86,-401.72 1410.78,-402.65 1410.6,-403.59 1410.3,-404.53 1409.89,-405.47 1409.38,-406.41 1408.78,-407.35 1408.08,-408.28 1407.3,-409.2 1406.43,-410.11 1405.48,-411.01 1404.47,-411.89 1403.39,-412.75 1402.24,-413.59 1401.04,-414.41 1399.79,-415.2 1398.49,-415.96 1397.15,-416.69 1395.77,-417.39 1394.36,-418.06 1392.92,-418.69 1391.46,-419.29 1389.97,-419.84 1388.46,-420.35 1386.94,-420.82 1385.4,-421.25 1383.84,-421.64 1382.28,-421.97 1380.71,-422.26 1379.14,-422.51 1377.56,-422.7 1375.97,-422.85 1374.38,-422.95 1372.79,-423 1371.21,-423 1369.62,-422.95 1368.03,-422.85 1366.44,-422.7 1364.86,-422.51 1363.29,-422.26 1361.72,-421.97 1360.16,-421.64 1358.6,-421.25 1357.06,-420.82 1355.54,-420.35 1354.03,-419.84 1352.54,-419.29 1351.08,-418.69 1349.64,-418.06 1348.23,-417.39 1346.85,-416.69 1345.51,-415.96 1344.21,-415.2 1342.96,-414.41 1341.76,-413.59 1340.61,-412.75 1339.53,-411.89 1338.52,-411.01 1337.57,-410.11 1336.7,-409.2 1335.92,-408.28 1335.22,-407.35 1334.62,-406.41 1334.11,-405.47 1333.7,-404.53 1333.4,-403.59 1333.22,-402.65 1333.14,-401.72 1333.19,-400.8 1333.35,-399.89 1333.64,-398.99 1334.05,-398.11 1334.6,-397.25 1335.26,-396.41 1336.06,-395.59 1336.98,-394.8 1338.03,-394.04 1339.2,-393.31 1340.49,-392.61 1341.9,-391.94 1343.43,-391.31 1345.06,-390.71 1346.8,-390.16 1348.64,-389.65 1350.57,-389.18 1352.58,-388.75 1354.68,-388.36 1356.84,-388.03 1359.07,-387.74 1361.35,-387.49 1363.67,-387.3 1366.02,-387.15 1368.4,-387.05 1370.8,-387 1373.2,-387 1375.6,-387.05"/>
<text text-anchor="middle" x="1372" y="-401.9" font-family="Times New Roman,serif" font-size="12.00">Renderer</text>
</g>
<!-- node28&#45;&gt;node7 -->
<g id="edge67" class="edge">
<title>node28&#45;&gt;node7</title>
<path fill="none" stroke="black" stroke-dasharray="1,5" d="M1344.05,-390.87C1310.84,-375.27 1255.07,-349.08 1216.5,-330.96"/>
<polygon fill="black" stroke="black" points="1217.63,-327.62 1207.09,-326.54 1214.65,-333.96 1217.63,-327.62"/>
</g>
<!-- node28&#45;&gt;node10 -->
<g id="edge68" class="edge">
<title>node28&#45;&gt;node10</title>
<path fill="none" stroke="black" stroke-dasharray="1,5" d="M1376.46,-386.81C1387.12,-345.73 1414.13,-241.58 1426.99,-192.02"/>
<polygon fill="black" stroke="black" points="1430.46,-192.59 1429.58,-182.03 1423.68,-190.83 1430.46,-192.59"/>
</g>
<!-- node28&#45;&gt;node13 -->
<g id="edge66" class="edge">
<title>node28&#45;&gt;node13</title>
<path fill="none" stroke="black" stroke-dasharray="1,5" d="M1394.2,-389.32C1412.49,-377.36 1439.18,-360.19 1463,-346 1470.1,-341.77 1477.74,-337.39 1485.16,-333.22"/>
<polygon fill="black" stroke="black" points="1487.35,-336 1494.38,-328.08 1483.94,-329.89 1487.35,-336"/>
</g>
</g>
</svg>
