<?xml version="1.0" encoding="UTF-8" standalone="no"?>
<!DOCTYPE svg PUBLIC "-//W3C//DTD SVG 1.1//EN"
 "http://www.w3.org/Graphics/SVG/1.1/DTD/svg11.dtd">
<!-- Generated by graphviz version 2.44.1 (20200629.0846)
 -->
<!-- Title: TMIV Pages: 1 -->
<svg width="2495pt" height="739pt"
 viewBox="0.00 0.00 2495.22 739.42" xmlns="http://www.w3.org/2000/svg" xmlns:xlink="http://www.w3.org/1999/xlink">
<g id="graph0" class="graph" transform="scale(1 1) rotate(0) translate(4 735.42)">
<title>TMIV</title>
<polygon fill="white" stroke="transparent" points="-4,4 -4,-735.42 2491.22,-735.42 2491.22,4 -4,4"/>
<g id="clust1" class="cluster">
<title>clusterLegend</title>
<polygon fill="none" stroke="black" points="10.31,-452.64 10.31,-723.42 523.31,-723.42 523.31,-452.64 10.31,-452.64"/>
<text text-anchor="middle" x="266.81" y="-708.22" font-family="Times New Roman,serif" font-size="14.00">Legend</text>
</g>
<!-- legendNode0 -->
<g id="node1" class="node">
<title>legendNode0</title>
<polygon fill="none" stroke="black" points="277.3,-656.47 279.93,-656.57 282.54,-656.72 285.11,-656.91 287.64,-657.16 290.1,-657.45 292.5,-657.79 294.82,-658.17 297.05,-658.6 299.19,-659.07 301.22,-659.58 303.15,-660.14 304.96,-660.73 306.65,-661.36 308.21,-662.03 309.64,-662.73 310.94,-663.46 312.1,-664.22 313.12,-665.01 314,-665.83 314.74,-666.67 315.34,-667.53 315.8,-668.41 316.12,-669.31 316.3,-670.22 316.35,-671.14 316.27,-672.07 316.06,-673.01 315.73,-673.95 315.28,-674.89 314.72,-675.83 314.05,-676.77 313.27,-677.7 312.4,-678.62 311.44,-679.53 310.4,-680.43 309.27,-681.31 308.07,-682.17 306.81,-683.01 305.48,-683.83 304.09,-684.62 302.65,-685.38 301.17,-686.12 299.64,-686.82 298.08,-687.48 296.49,-688.11 294.86,-688.71 293.21,-689.26 291.54,-689.77 289.85,-690.25 288.15,-690.67 286.43,-691.06 284.7,-691.39 282.96,-691.69 281.22,-691.93 279.47,-692.13 277.71,-692.27 275.95,-692.37 274.19,-692.42 272.43,-692.42 270.67,-692.37 268.91,-692.27 267.16,-692.13 265.41,-691.93 263.66,-691.69 261.92,-691.39 260.2,-691.06 258.48,-690.67 256.77,-690.25 255.08,-689.77 253.41,-689.26 251.76,-688.71 250.14,-688.11 248.54,-687.48 246.98,-686.82 245.46,-686.12 243.97,-685.38 242.54,-684.62 241.15,-683.83 239.82,-683.01 238.55,-682.17 237.35,-681.31 236.23,-680.43 235.18,-679.53 234.22,-678.62 233.35,-677.7 232.58,-676.77 231.91,-675.83 231.35,-674.89 230.9,-673.95 230.57,-673.01 230.36,-672.07 230.28,-671.14 230.33,-670.22 230.51,-669.31 230.83,-668.41 231.29,-667.53 231.89,-666.67 232.63,-665.83 233.51,-665.01 234.53,-664.22 235.69,-663.46 236.98,-662.73 238.42,-662.03 239.98,-661.36 241.67,-660.73 243.48,-660.14 245.4,-659.58 247.44,-659.07 249.58,-658.6 251.81,-658.17 254.13,-657.79 256.53,-657.45 258.99,-657.16 261.51,-656.91 264.08,-656.72 266.69,-656.57 269.33,-656.47 271.98,-656.42 274.64,-656.42 277.3,-656.47"/>
<text text-anchor="middle" x="273.31" y="-671.32" font-family="Times New Roman,serif" font-size="12.00">Executable</text>
</g>
<!-- legendNode1 -->
<g id="node2" class="node">
<title>legendNode1</title>
<polygon fill="none" stroke="black" points="122.26,-574.23 122.26,-589.14 91.83,-599.68 48.8,-599.68 18.37,-589.14 18.37,-574.23 48.8,-563.68 91.83,-563.68 122.26,-574.23"/>
<text text-anchor="middle" x="70.31" y="-578.58" font-family="Times New Roman,serif" font-size="12.00">Static Library</text>
</g>
<!-- legendNode0&#45;&gt;legendNode1 -->
<g id="edge1" class="edge">
<title>legendNode0&#45;&gt;legendNode1</title>
<path fill="none" stroke="black" d="M243.36,-660.03C208.28,-644.35 150.01,-618.31 110.9,-600.82"/>
<polygon fill="black" stroke="black" points="111.95,-597.46 101.39,-596.57 109.09,-603.85 111.95,-597.46"/>
</g>
<!-- legendNode2 -->
<g id="node3" class="node">
<title>legendNode2</title>
<polygon fill="none" stroke="black" points="258.08,-574.23 258.08,-589.14 224.83,-599.68 177.8,-599.68 144.55,-589.14 144.55,-574.23 177.8,-563.68 224.83,-563.68 258.08,-574.23"/>
<polygon fill="none" stroke="black" points="262.09,-571.3 262.09,-592.06 225.45,-603.68 177.18,-603.68 140.54,-592.06 140.54,-571.3 177.18,-559.68 225.45,-559.68 262.09,-571.3"/>
<text text-anchor="middle" x="201.31" y="-578.58" font-family="Times New Roman,serif" font-size="12.00">Shared Library</text>
</g>
<!-- legendNode0&#45;&gt;legendNode2 -->
<g id="edge2" class="edge">
<title>legendNode0&#45;&gt;legendNode2</title>
<path fill="none" stroke="black" d="M260.11,-656.78C250.11,-644.17 236.12,-626.54 224.29,-611.64"/>
<polygon fill="black" stroke="black" points="226.94,-609.35 217.98,-603.69 221.46,-613.7 226.94,-609.35"/>
</g>
<!-- legendNode3 -->
<g id="node4" class="node">
<title>legendNode3</title>
<polygon fill="none" stroke="black" points="405.07,-574.23 405.07,-589.14 370.65,-599.68 321.98,-599.68 287.56,-589.14 287.56,-574.23 321.98,-563.68 370.65,-563.68 405.07,-574.23"/>
<polygon fill="none" stroke="black" points="409.08,-571.27 409.08,-592.09 371.25,-603.68 321.38,-603.68 283.55,-592.09 283.55,-571.27 321.38,-559.68 371.25,-559.68 409.08,-571.27"/>
<polygon fill="none" stroke="black" points="413.08,-568.31 413.08,-595.05 371.85,-607.68 320.77,-607.68 279.54,-595.05 279.54,-568.31 320.77,-555.68 371.85,-555.68 413.08,-568.31"/>
<text text-anchor="middle" x="346.31" y="-578.58" font-family="Times New Roman,serif" font-size="12.00">Module Library</text>
</g>
<!-- legendNode0&#45;&gt;legendNode3 -->
<!-- legendNode7 -->
<g id="node8" class="node">
<title>legendNode7</title>
<polygon fill="none" stroke="black" points="515.31,-599.68 431.31,-599.68 431.31,-563.68 515.31,-563.68 515.31,-599.68"/>
<text text-anchor="middle" x="473.31" y="-578.58" font-family="Times New Roman,serif" font-size="12.00">Custom Target</text>
</g>
<!-- legendNode0&#45;&gt;legendNode7 -->
<!-- legendNode4 -->
<g id="node5" class="node">
<title>legendNode4</title>
<polygon fill="none" stroke="black" points="158.32,-484.2 88.31,-496.64 18.31,-484.2 45.05,-464.07 131.58,-464.07 158.32,-484.2"/>
<text text-anchor="middle" x="88.31" y="-475.54" font-family="Times New Roman,serif" font-size="12.00">Interface Library</text>
</g>
<!-- legendNode1&#45;&gt;legendNode4 -->
<g id="edge4" class="edge">
<title>legendNode1&#45;&gt;legendNode4</title>
<path fill="none" stroke="black" stroke-dasharray="5,2" d="M73.37,-563.54C76.17,-547.82 80.36,-524.29 83.59,-506.15"/>
<polygon fill="black" stroke="black" points="87.06,-506.65 85.36,-496.19 80.16,-505.42 87.06,-506.65"/>
<text text-anchor="middle" x="105.81" y="-526.46" font-family="Times New Roman,serif" font-size="14.00">Interface</text>
</g>
<!-- legendNode5 -->
<g id="node6" class="node">
<title>legendNode5</title>
<polygon fill="none" stroke="black" points="296.23,-478.64 266.27,-496.64 206.35,-496.64 176.4,-478.64 206.35,-460.64 266.27,-460.64 296.23,-478.64"/>
<text text-anchor="middle" x="236.31" y="-475.54" font-family="Times New Roman,serif" font-size="12.00">Object Library</text>
</g>
<!-- legendNode2&#45;&gt;legendNode5 -->
<g id="edge5" class="edge">
<title>legendNode2&#45;&gt;legendNode5</title>
<path fill="none" stroke="black" stroke-dasharray="1,5" d="M208.74,-559.25C214.09,-543.8 221.34,-522.85 227.07,-506.32"/>
<polygon fill="black" stroke="black" points="230.44,-507.28 230.41,-496.68 223.83,-504.99 230.44,-507.28"/>
<text text-anchor="middle" x="240.81" y="-526.46" font-family="Times New Roman,serif" font-size="14.00">Private</text>
</g>
<!-- legendNode6 -->
<g id="node7" class="node">
<title>legendNode6</title>
<polygon fill="none" stroke="black" points="446.36,-474.63 433.28,-489.86 380.31,-496.64 327.34,-489.86 314.26,-474.63 350.92,-462.42 409.71,-462.42 446.36,-474.63"/>
<text text-anchor="middle" x="380.31" y="-475.54" font-family="Times New Roman,serif" font-size="12.00">Unknown Library</text>
</g>
<!-- legendNode3&#45;&gt;legendNode6 -->
<g id="edge6" class="edge">
<title>legendNode3&#45;&gt;legendNode6</title>
<path fill="none" stroke="black" d="M354.81,-555.44C359.89,-540.34 366.34,-521.18 371.48,-505.89"/>
<polygon fill="black" stroke="black" points="374.92,-506.63 374.8,-496.03 368.29,-504.4 374.92,-506.63"/>
</g>
<!-- node0 -->
<g id="node9" class="node">
<title>node0</title>
<polygon fill="none" stroke="black" points="2487.12,-467.85 2487.12,-489.42 2431.59,-504.68 2353.04,-504.68 2297.5,-489.42 2297.5,-467.85 2353.04,-452.59 2431.59,-452.59 2487.12,-467.85"/>
<text text-anchor="middle" x="2392.31" y="-482.04" font-family="Times New Roman,serif" font-size="12.00">AggregatorLib</text>
<text text-anchor="middle" x="2392.31" y="-469.04" font-family="Times New Roman,serif" font-size="12.00">(TMIV::AggregatorLib)</text>
</g>
<!-- node1 -->
<g id="node10" class="node">
<title>node1</title>
<polygon fill="none" stroke="black" points="2382.35,-104.28 2382.35,-125.86 2330.78,-141.11 2257.85,-141.11 2206.28,-125.86 2206.28,-104.28 2257.85,-89.02 2330.78,-89.02 2382.35,-104.28"/>
<text text-anchor="middle" x="2294.31" y="-118.47" font-family="Times New Roman,serif" font-size="12.00">CommonLib</text>
<text text-anchor="middle" x="2294.31" y="-105.47" font-family="Times New Roman,serif" font-size="12.00">(TMIV::CommonLib)</text>
</g>
<!-- node0&#45;&gt;node1 -->
<g id="edge9" class="edge">
<title>node0&#45;&gt;node1</title>
<path fill="none" stroke="black" d="M2378.72,-452.52C2370.78,-435.54 2362.31,-412.33 2362.31,-390.59 2362.31,-390.59 2362.31,-390.59 2362.31,-203.11 2362.31,-182.21 2349.99,-163.33 2335.83,-148.53"/>
<polygon fill="black" stroke="black" points="2337.91,-145.67 2328.31,-141.18 2333.01,-150.68 2337.91,-145.67"/>
</g>
<!-- node2 -->
<g id="node11" class="node">
<title>node2</title>
<polygon fill="none" stroke="black" points="2338.07,-15.23 2338.07,-36.81 2312.44,-52.07 2276.19,-52.07 2250.56,-36.81 2250.56,-15.23 2276.19,0.02 2312.44,0.02 2338.07,-15.23"/>
<text text-anchor="middle" x="2294.31" y="-29.42" font-family="Times New Roman,serif" font-size="12.00">fmt</text>
<text text-anchor="middle" x="2294.31" y="-16.42" font-family="Times New Roman,serif" font-size="12.00">(fmt::fmt)</text>
</g>
<!-- node1&#45;&gt;node2 -->
<g id="edge8" class="edge">
<title>node1&#45;&gt;node2</title>
<path fill="none" stroke="black" d="M2294.31,-88.89C2294.31,-80.59 2294.31,-71.2 2294.31,-62.29"/>
<polygon fill="black" stroke="black" points="2297.81,-62.14 2294.31,-52.14 2290.81,-62.14 2297.81,-62.14"/>
</g>
<!-- node3 -->
<g id="node12" class="node">
<title>node3</title>
<polygon fill="none" stroke="black" points="1222.06,-278.9 1225.2,-279 1228.31,-279.15 1231.37,-279.34 1234.38,-279.59 1237.31,-279.88 1240.17,-280.22 1242.93,-280.6 1245.59,-281.03 1248.14,-281.5 1250.56,-282.01 1252.86,-282.57 1255.01,-283.16 1257.03,-283.79 1258.89,-284.46 1260.59,-285.16 1262.14,-285.89 1263.52,-286.65 1264.74,-287.44 1265.78,-288.26 1266.67,-289.1 1267.38,-289.96 1267.92,-290.84 1268.3,-291.74 1268.52,-292.65 1268.58,-293.57 1268.48,-294.5 1268.24,-295.44 1267.84,-296.38 1267.31,-297.32 1266.64,-298.26 1265.84,-299.2 1264.92,-300.13 1263.88,-301.06 1262.74,-301.97 1261.49,-302.86 1260.15,-303.74 1258.72,-304.6 1257.21,-305.44 1255.63,-306.26 1253.98,-307.05 1252.27,-307.81 1250.5,-308.55 1248.68,-309.25 1246.82,-309.91 1244.92,-310.54 1242.99,-311.14 1241.02,-311.69 1239.03,-312.2 1237.02,-312.68 1234.99,-313.1 1232.94,-313.49 1230.88,-313.83 1228.81,-314.12 1226.73,-314.36 1224.64,-314.56 1222.55,-314.7 1220.46,-314.8 1218.36,-314.85 1216.26,-314.85 1214.17,-314.8 1212.07,-314.7 1209.98,-314.56 1207.9,-314.36 1205.82,-314.12 1203.75,-313.83 1201.69,-313.49 1199.64,-313.1 1197.61,-312.68 1195.6,-312.2 1193.61,-311.69 1191.64,-311.14 1189.71,-310.54 1187.81,-309.91 1185.95,-309.25 1184.13,-308.55 1182.36,-307.81 1180.65,-307.05 1179,-306.26 1177.41,-305.44 1175.9,-304.6 1174.47,-303.74 1173.13,-302.86 1171.89,-301.97 1170.74,-301.06 1169.71,-300.13 1168.79,-299.2 1167.99,-298.26 1167.32,-297.32 1166.78,-296.38 1166.39,-295.44 1166.14,-294.5 1166.05,-293.57 1166.1,-292.65 1166.32,-291.74 1166.7,-290.84 1167.25,-289.96 1167.96,-289.1 1168.84,-288.26 1169.89,-287.44 1171.11,-286.65 1172.49,-285.89 1174.03,-285.16 1175.74,-284.46 1177.6,-283.79 1179.61,-283.16 1181.77,-282.57 1184.06,-282.01 1186.49,-281.5 1189.04,-281.03 1191.7,-280.6 1194.46,-280.22 1197.31,-279.88 1200.25,-279.59 1203.26,-279.34 1206.32,-279.15 1209.43,-279 1212.57,-278.9 1215.73,-278.85 1218.9,-278.85 1222.06,-278.9"/>
<text text-anchor="middle" x="1217.31" y="-293.75" font-family="Times New Roman,serif" font-size="12.00">BitrateReport</text>
</g>
<!-- node4 -->
<g id="node13" class="node">
<title>node4</title>
<polygon fill="none" stroke="black" points="1358.93,-193.32 1358.93,-214.9 1298.82,-230.16 1213.81,-230.16 1153.69,-214.9 1153.69,-193.32 1213.81,-178.07 1298.82,-178.07 1358.93,-193.32"/>
<text text-anchor="middle" x="1256.31" y="-207.51" font-family="Times New Roman,serif" font-size="12.00">MivBitstreamLib</text>
<text text-anchor="middle" x="1256.31" y="-194.51" font-family="Times New Roman,serif" font-size="12.00">(TMIV::MivBitstreamLib)</text>
</g>
<!-- node3&#45;&gt;node4 -->
<g id="edge11" class="edge">
<title>node3&#45;&gt;node4</title>
<path fill="none" stroke="black" stroke-dasharray="1,5" d="M1224.65,-278.78C1229.37,-267.8 1235.68,-253.12 1241.42,-239.76"/>
<polygon fill="black" stroke="black" points="1244.74,-240.9 1245.47,-230.33 1238.31,-238.14 1244.74,-240.9"/>
</g>
<!-- node4&#45;&gt;node1 -->
<g id="edge10" class="edge">
<title>node4&#45;&gt;node1</title>
<path fill="none" stroke="black" d="M1359.16,-194.49C1559.5,-177.69 1999.63,-140.78 2196.16,-124.3"/>
<polygon fill="black" stroke="black" points="2196.52,-127.78 2206.19,-123.46 2195.93,-120.81 2196.52,-127.78"/>
</g>
<!-- node5 -->
<g id="node14" class="node">
<title>node5</title>
<polygon fill="none" stroke="black" points="1920.38,-306.1 1837.31,-326.79 1754.25,-306.1 1785.98,-272.63 1888.65,-272.63 1920.38,-306.1"/>
<text text-anchor="middle" x="1837.31" y="-300.25" font-family="Times New Roman,serif" font-size="12.00">Catch2</text>
<text text-anchor="middle" x="1837.31" y="-287.25" font-family="Times New Roman,serif" font-size="12.00">(Catch2::Catch2)</text>
</g>
<!-- node6 -->
<g id="node15" class="node">
<title>node6</title>
<polygon fill="none" stroke="black" points="2190.06,-371.64 2193.2,-371.74 2196.31,-371.89 2199.37,-372.08 2202.38,-372.33 2205.31,-372.62 2208.17,-372.96 2210.93,-373.34 2213.59,-373.77 2216.14,-374.24 2218.56,-374.75 2220.86,-375.31 2223.01,-375.9 2225.03,-376.53 2226.89,-377.2 2228.59,-377.9 2230.14,-378.63 2231.52,-379.39 2232.74,-380.18 2233.78,-381 2234.67,-381.84 2235.38,-382.7 2235.92,-383.58 2236.3,-384.48 2236.52,-385.39 2236.58,-386.31 2236.48,-387.24 2236.24,-388.18 2235.84,-389.12 2235.31,-390.06 2234.64,-391 2233.84,-391.94 2232.92,-392.87 2231.88,-393.79 2230.74,-394.71 2229.49,-395.6 2228.15,-396.48 2226.72,-397.34 2225.21,-398.18 2223.63,-399 2221.98,-399.79 2220.27,-400.55 2218.5,-401.29 2216.68,-401.99 2214.82,-402.65 2212.92,-403.28 2210.99,-403.88 2209.02,-404.43 2207.03,-404.94 2205.02,-405.42 2202.99,-405.84 2200.94,-406.23 2198.88,-406.56 2196.81,-406.86 2194.73,-407.1 2192.64,-407.3 2190.55,-407.44 2188.46,-407.54 2186.36,-407.59 2184.26,-407.59 2182.17,-407.54 2180.07,-407.44 2177.98,-407.3 2175.9,-407.1 2173.82,-406.86 2171.75,-406.56 2169.69,-406.23 2167.64,-405.84 2165.61,-405.42 2163.6,-404.94 2161.61,-404.43 2159.64,-403.88 2157.71,-403.28 2155.81,-402.65 2153.95,-401.99 2152.13,-401.29 2150.36,-400.55 2148.65,-399.79 2147,-399 2145.41,-398.18 2143.9,-397.34 2142.47,-396.48 2141.13,-395.6 2139.89,-394.71 2138.74,-393.79 2137.71,-392.87 2136.79,-391.94 2135.99,-391 2135.32,-390.06 2134.78,-389.12 2134.39,-388.18 2134.14,-387.24 2134.05,-386.31 2134.1,-385.39 2134.32,-384.48 2134.7,-383.58 2135.25,-382.7 2135.96,-381.84 2136.84,-381 2137.89,-380.18 2139.11,-379.39 2140.49,-378.63 2142.03,-377.9 2143.74,-377.2 2145.6,-376.53 2147.61,-375.9 2149.77,-375.31 2152.06,-374.75 2154.49,-374.24 2157.04,-373.77 2159.7,-373.34 2162.46,-372.96 2165.31,-372.62 2168.25,-372.33 2171.26,-372.08 2174.32,-371.89 2177.43,-371.74 2180.57,-371.64 2183.73,-371.59 2186.9,-371.59 2190.06,-371.64"/>
<text text-anchor="middle" x="2185.31" y="-386.49" font-family="Times New Roman,serif" font-size="12.00">CommonTest</text>
</g>
<!-- node6&#45;&gt;node1 -->
<g id="edge13" class="edge">
<title>node6&#45;&gt;node1</title>
<path fill="none" stroke="black" stroke-dasharray="1,5" d="M2192.13,-371.54C2209.71,-327.59 2256.84,-209.75 2280.45,-150.74"/>
<polygon fill="black" stroke="black" points="2283.83,-151.7 2284.3,-141.11 2277.33,-149.1 2283.83,-151.7"/>
</g>
<!-- node6&#45;&gt;node5 -->
<g id="edge12" class="edge">
<title>node6&#45;&gt;node5</title>
<path fill="none" stroke="black" stroke-dasharray="1,5" d="M2150.39,-374.97C2139.28,-370.95 2126.88,-366.77 2115.31,-363.57 2034.08,-341.1 2010.99,-347.38 1929.31,-326.57 1918.76,-323.88 1907.63,-320.7 1896.89,-317.46"/>
<polygon fill="black" stroke="black" points="1897.76,-314.06 1887.17,-314.47 1895.7,-320.76 1897.76,-314.06"/>
</g>
<!-- node7 -->
<g id="node16" class="node">
<title>node7</title>
<polygon fill="none" stroke="black" points="1035.73,-563.73 1037.99,-563.83 1040.23,-563.98 1042.44,-564.17 1044.6,-564.42 1046.72,-564.71 1048.77,-565.05 1050.76,-565.43 1052.68,-565.86 1054.51,-566.33 1056.26,-566.84 1057.91,-567.4 1059.47,-567.99 1060.91,-568.62 1062.26,-569.29 1063.48,-569.99 1064.6,-570.72 1065.59,-571.48 1066.47,-572.27 1067.22,-573.09 1067.86,-573.93 1068.37,-574.79 1068.76,-575.67 1069.04,-576.57 1069.2,-577.48 1069.24,-578.4 1069.17,-579.33 1068.99,-580.27 1068.71,-581.21 1068.32,-582.15 1067.84,-583.09 1067.26,-584.03 1066.6,-584.96 1065.85,-585.88 1065.03,-586.8 1064.13,-587.69 1063.17,-588.57 1062.14,-589.43 1061.05,-590.27 1059.91,-591.09 1058.72,-591.88 1057.49,-592.64 1056.21,-593.38 1054.91,-594.08 1053.56,-594.74 1052.2,-595.37 1050.8,-595.97 1049.39,-596.52 1047.95,-597.03 1046.51,-597.51 1045.04,-597.93 1043.57,-598.32 1042.09,-598.65 1040.59,-598.95 1039.1,-599.19 1037.59,-599.39 1036.09,-599.53 1034.58,-599.63 1033.07,-599.68 1031.56,-599.68 1030.05,-599.63 1028.54,-599.53 1027.03,-599.39 1025.53,-599.19 1024.03,-598.95 1022.54,-598.65 1021.06,-598.32 1019.58,-597.93 1018.12,-597.51 1016.67,-597.03 1015.24,-596.52 1013.82,-595.97 1012.43,-595.37 1011.06,-594.74 1009.72,-594.08 1008.41,-593.38 1007.14,-592.64 1005.91,-591.88 1004.72,-591.09 1003.58,-590.27 1002.49,-589.43 1001.46,-588.57 1000.49,-587.69 999.6,-586.8 998.77,-585.88 998.03,-584.96 997.36,-584.03 996.79,-583.09 996.31,-582.15 995.92,-581.21 995.64,-580.27 995.46,-579.33 995.39,-578.4 995.43,-577.48 995.59,-576.57 995.86,-575.67 996.26,-574.79 996.77,-573.93 997.4,-573.09 998.16,-572.27 999.03,-571.48 1000.03,-570.72 1001.14,-569.99 1002.37,-569.29 1003.71,-568.62 1005.16,-567.99 1006.71,-567.4 1008.37,-566.84 1010.11,-566.33 1011.95,-565.86 1013.86,-565.43 1015.85,-565.05 1017.91,-564.71 1020.02,-564.42 1022.19,-564.17 1024.4,-563.98 1026.63,-563.83 1028.9,-563.73 1031.17,-563.68 1033.45,-563.68 1035.73,-563.73"/>
<text text-anchor="middle" x="1032.31" y="-578.58" font-family="Times New Roman,serif" font-size="12.00">Decoder</text>
</g>
<!-- node8 -->
<g id="node17" class="node">
<title>node8</title>
<polygon fill="none" stroke="black" points="869.79,-467.85 869.79,-489.42 819.13,-504.68 747.5,-504.68 696.84,-489.42 696.84,-467.85 747.5,-452.59 819.13,-452.59 869.79,-467.85"/>
<text text-anchor="middle" x="783.31" y="-482.04" font-family="Times New Roman,serif" font-size="12.00">DecoderLib</text>
<text text-anchor="middle" x="783.31" y="-469.04" font-family="Times New Roman,serif" font-size="12.00">(TMIV::DecoderLib)</text>
</g>
<!-- node7&#45;&gt;node8 -->
<g id="edge20" class="edge">
<title>node7&#45;&gt;node8</title>
<path fill="none" stroke="black" stroke-dasharray="1,5" d="M1002.77,-568.69C963.8,-552.88 894.27,-524.66 843.9,-504.22"/>
<polygon fill="black" stroke="black" points="844.99,-500.89 834.41,-500.37 842.36,-507.38 844.99,-500.89"/>
</g>
<!-- node14 -->
<g id="node23" class="node">
<title>node14</title>
<polygon fill="none" stroke="black" points="1209.62,-467.85 1209.62,-489.42 1146.76,-504.68 1057.87,-504.68 995.01,-489.42 995.01,-467.85 1057.87,-452.59 1146.76,-452.59 1209.62,-467.85"/>
<text text-anchor="middle" x="1102.31" y="-482.04" font-family="Times New Roman,serif" font-size="12.00">RendererFrontLib</text>
<text text-anchor="middle" x="1102.31" y="-469.04" font-family="Times New Roman,serif" font-size="12.00">(TMIV::RendererFrontLib)</text>
</g>
<!-- node7&#45;&gt;node14 -->
<g id="edge27" class="edge">
<title>node7&#45;&gt;node14</title>
<path fill="none" stroke="black" stroke-dasharray="1,5" d="M1043.87,-564C1053.4,-550.25 1067.2,-530.32 1079.01,-513.28"/>
<polygon fill="black" stroke="black" points="1082.15,-514.89 1084.96,-504.68 1076.39,-510.91 1082.15,-514.89"/>
</g>
<!-- node9 -->
<g id="node18" class="node">
<title>node9</title>
<polygon fill="none" stroke="black" points="810.62,-378.8 810.62,-400.38 747.76,-415.64 658.87,-415.64 596.01,-400.38 596.01,-378.8 658.87,-363.55 747.76,-363.55 810.62,-378.8"/>
<text text-anchor="middle" x="703.31" y="-392.99" font-family="Times New Roman,serif" font-size="12.00">VideoDecoderLib</text>
<text text-anchor="middle" x="703.31" y="-379.99" font-family="Times New Roman,serif" font-size="12.00">(TMIV::VideoDecoderLib)</text>
</g>
<!-- node8&#45;&gt;node9 -->
<g id="edge19" class="edge">
<title>node8&#45;&gt;node9</title>
<path fill="none" stroke="black" d="M760.17,-452.46C751.8,-443.35 742.22,-432.92 733.34,-423.26"/>
<polygon fill="black" stroke="black" points="735.74,-420.71 726.4,-415.71 730.59,-425.44 735.74,-420.71"/>
</g>
<!-- node9&#45;&gt;node4 -->
<g id="edge14" class="edge">
<title>node9&#45;&gt;node4</title>
<path fill="none" stroke="black" d="M753.52,-364.76C821.85,-333.3 948.65,-278.38 1062.31,-248.13 1096.45,-239.05 1134.32,-230.35 1167.48,-223.18"/>
<polygon fill="black" stroke="black" points="1168.56,-226.52 1177.61,-221 1167.09,-219.68 1168.56,-226.52"/>
</g>
<!-- node10 -->
<g id="node19" class="node">
<title>node10</title>
<polygon fill="none" stroke="black" points="794.47,-286.06 794.47,-307.64 741.07,-322.9 665.55,-322.9 612.16,-307.64 612.16,-286.06 665.55,-270.81 741.07,-270.81 794.47,-286.06"/>
<text text-anchor="middle" x="703.31" y="-300.25" font-family="Times New Roman,serif" font-size="12.00">TLibDecoder</text>
<text text-anchor="middle" x="703.31" y="-287.25" font-family="Times New Roman,serif" font-size="12.00">(TMIV::TLibDecoder)</text>
</g>
<!-- node9&#45;&gt;node10 -->
<g id="edge17" class="edge">
<title>node9&#45;&gt;node10</title>
<path fill="none" stroke="black" stroke-dasharray="1,5" d="M703.31,-363.32C703.31,-353.97 703.31,-343.21 703.31,-333.14"/>
<polygon fill="black" stroke="black" points="706.81,-332.99 703.31,-322.99 699.81,-332.99 706.81,-332.99"/>
</g>
<!-- node13 -->
<g id="node22" class="node">
<title>node13</title>
<polygon fill="none" stroke="black" points="1468.39,-302.41 1396.31,-314.85 1324.24,-302.41 1351.77,-282.29 1440.86,-282.29 1468.39,-302.41"/>
<text text-anchor="middle" x="1396.31" y="-293.75" font-family="Times New Roman,serif" font-size="12.00">Threads::Threads</text>
</g>
<!-- node9&#45;&gt;node13 -->
<g id="edge18" class="edge">
<title>node9&#45;&gt;node13</title>
<path fill="none" stroke="black" stroke-dasharray="1,5" d="M802.56,-376.76C838.96,-372.5 880.49,-367.72 918.31,-363.57 1077.76,-346.07 1119.22,-353.67 1277.31,-326.57 1301,-322.51 1326.98,-316.43 1348.61,-310.91"/>
<polygon fill="black" stroke="black" points="1349.73,-314.24 1358.53,-308.34 1347.97,-307.46 1349.73,-314.24"/>
</g>
<!-- node11 -->
<g id="node20" class="node">
<title>node11</title>
<polygon fill="none" stroke="black" points="435.56,-193.32 435.56,-214.9 380.94,-230.16 303.69,-230.16 249.06,-214.9 249.06,-193.32 303.69,-178.07 380.94,-178.07 435.56,-193.32"/>
<text text-anchor="middle" x="342.31" y="-207.51" font-family="Times New Roman,serif" font-size="12.00">TLibCommon</text>
<text text-anchor="middle" x="342.31" y="-194.51" font-family="Times New Roman,serif" font-size="12.00">(TMIV::TLibCommon)</text>
</g>
<!-- node10&#45;&gt;node11 -->
<g id="edge16" class="edge">
<title>node10&#45;&gt;node11</title>
<path fill="none" stroke="black" d="M641.56,-277.63C628.93,-274.05 615.72,-270.39 603.31,-267.13 543.32,-251.4 475.12,-235.25 423.48,-223.38"/>
<polygon fill="black" stroke="black" points="424.24,-219.96 413.71,-221.14 422.67,-226.79 424.24,-219.96"/>
</g>
<!-- node12 -->
<g id="node21" class="node">
<title>node12</title>
<polygon fill="none" stroke="black" points="410.55,-104.28 410.55,-125.86 370.58,-141.11 314.05,-141.11 274.08,-125.86 274.08,-104.28 314.05,-89.02 370.58,-89.02 410.55,-104.28"/>
<text text-anchor="middle" x="342.31" y="-118.47" font-family="Times New Roman,serif" font-size="12.00">libmd5</text>
<text text-anchor="middle" x="342.31" y="-105.47" font-family="Times New Roman,serif" font-size="12.00">(TMIV::libmd5)</text>
</g>
<!-- node11&#45;&gt;node12 -->
<g id="edge15" class="edge">
<title>node11&#45;&gt;node12</title>
<path fill="none" stroke="black" stroke-dasharray="1,5" d="M342.31,-177.94C342.31,-169.63 342.31,-160.24 342.31,-151.33"/>
<polygon fill="black" stroke="black" points="345.81,-151.19 342.31,-141.19 338.81,-151.19 345.81,-151.19"/>
</g>
<!-- node15 -->
<g id="node24" class="node">
<title>node15</title>
<polygon fill="none" stroke="black" points="1058.96,-378.8 1058.96,-400.38 1020.5,-415.64 966.12,-415.64 927.67,-400.38 927.67,-378.8 966.12,-363.55 1020.5,-363.55 1058.96,-378.8"/>
<text text-anchor="middle" x="993.31" y="-392.99" font-family="Times New Roman,serif" font-size="12.00">IOLib</text>
<text text-anchor="middle" x="993.31" y="-379.99" font-family="Times New Roman,serif" font-size="12.00">(TMIV::IOLib)</text>
</g>
<!-- node14&#45;&gt;node15 -->
<g id="edge22" class="edge">
<title>node14&#45;&gt;node15</title>
<path fill="none" stroke="black" d="M1070.79,-452.46C1058.61,-442.74 1044.57,-431.52 1031.81,-421.33"/>
<polygon fill="black" stroke="black" points="1033.64,-418.32 1023.64,-414.81 1029.27,-423.79 1033.64,-418.32"/>
</g>
<!-- node16 -->
<g id="node25" class="node">
<title>node16</title>
<polygon fill="none" stroke="black" points="1507.35,-378.8 1507.35,-400.38 1455.78,-415.64 1382.85,-415.64 1331.28,-400.38 1331.28,-378.8 1382.85,-363.55 1455.78,-363.55 1507.35,-378.8"/>
<text text-anchor="middle" x="1419.31" y="-392.99" font-family="Times New Roman,serif" font-size="12.00">RendererLib</text>
<text text-anchor="middle" x="1419.31" y="-379.99" font-family="Times New Roman,serif" font-size="12.00">(TMIV::RendererLib)</text>
</g>
<!-- node14&#45;&gt;node16 -->
<g id="edge26" class="edge">
<title>node14&#45;&gt;node16</title>
<path fill="none" stroke="black" d="M1171.88,-458.53C1223.59,-444.34 1293.97,-425.01 1346.45,-410.6"/>
<polygon fill="black" stroke="black" points="1347.65,-413.9 1356.36,-407.88 1345.79,-407.15 1347.65,-413.9"/>
</g>
<!-- node15&#45;&gt;node4 -->
<g id="edge21" class="edge">
<title>node15&#45;&gt;node4</title>
<path fill="none" stroke="black" d="M996.61,-363.5C1001.55,-336 1013.46,-292.45 1041.31,-267.13 1069.56,-241.46 1107.8,-226.36 1144.2,-217.5"/>
<polygon fill="black" stroke="black" points="1145.44,-220.8 1154.41,-215.16 1143.88,-213.98 1145.44,-220.8"/>
</g>
<!-- node16&#45;&gt;node13 -->
<g id="edge23" class="edge">
<title>node16&#45;&gt;node13</title>
<path fill="none" stroke="black" stroke-dasharray="1,5" d="M1412.91,-363.32C1409.81,-351.11 1406.1,-336.47 1402.97,-324.13"/>
<polygon fill="black" stroke="black" points="1406.36,-323.24 1400.51,-314.41 1399.57,-324.96 1406.36,-323.24"/>
</g>
<!-- node17 -->
<g id="node26" class="node">
<title>node17</title>
<polygon fill="none" stroke="black" points="1736.05,-286.06 1736.05,-307.64 1674.11,-322.9 1586.51,-322.9 1524.57,-307.64 1524.57,-286.06 1586.51,-270.81 1674.11,-270.81 1736.05,-286.06"/>
<text text-anchor="middle" x="1630.31" y="-300.25" font-family="Times New Roman,serif" font-size="12.00">ViewingSpaceLib</text>
<text text-anchor="middle" x="1630.31" y="-287.25" font-family="Times New Roman,serif" font-size="12.00">(TMIV::ViewingSpaceLib)</text>
</g>
<!-- node16&#45;&gt;node17 -->
<g id="edge25" class="edge">
<title>node16&#45;&gt;node17</title>
<path fill="none" stroke="black" d="M1468.78,-367.32C1498.26,-354.64 1535.95,-338.43 1567.51,-324.86"/>
<polygon fill="black" stroke="black" points="1569.29,-327.91 1577.09,-320.74 1566.52,-321.48 1569.29,-327.91"/>
</g>
<!-- node17&#45;&gt;node4 -->
<g id="edge24" class="edge">
<title>node17&#45;&gt;node4</title>
<path fill="none" stroke="black" d="M1578.86,-272.63C1557.94,-263.92 1533.31,-254.58 1510.31,-248.13 1462.57,-234.76 1408.54,-224.9 1362.62,-218.02"/>
<polygon fill="black" stroke="black" points="1363.06,-214.55 1352.65,-216.55 1362.04,-221.47 1363.06,-214.55"/>
</g>
<!-- node18 -->
<g id="node27" class="node">
<title>node18</title>
<polygon fill="none" stroke="black" points="1673.66,-467.85 1673.66,-489.42 1595.55,-504.68 1485.08,-504.68 1406.97,-489.42 1406.97,-467.85 1485.08,-452.59 1595.55,-452.59 1673.66,-467.85"/>
<text text-anchor="middle" x="1540.31" y="-482.04" font-family="Times New Roman,serif" font-size="12.00">DepthQualityAssessorLib</text>
<text text-anchor="middle" x="1540.31" y="-469.04" font-family="Times New Roman,serif" font-size="12.00">(TMIV::DepthQualityAssessorLib)</text>
</g>
<!-- node18&#45;&gt;node16 -->
<g id="edge28" class="edge">
<title>node18&#45;&gt;node16</title>
<path fill="none" stroke="black" d="M1505.32,-452.46C1492.02,-442.9 1476.72,-431.89 1462.74,-421.83"/>
<polygon fill="black" stroke="black" points="1464.39,-418.71 1454.23,-415.71 1460.31,-424.39 1464.39,-418.71"/>
</g>
<!-- node19 -->
<g id="node28" class="node">
<title>node19</title>
<polygon fill="none" stroke="black" points="963.65,-656.47 965.87,-656.57 968.06,-656.72 970.21,-656.91 972.33,-657.16 974.4,-657.45 976.41,-657.79 978.36,-658.17 980.23,-658.6 982.02,-659.07 983.73,-659.58 985.35,-660.14 986.87,-660.73 988.29,-661.36 989.6,-662.03 990.8,-662.73 991.89,-663.46 992.86,-664.22 993.72,-665.01 994.46,-665.83 995.08,-666.67 995.58,-667.53 995.96,-668.41 996.23,-669.31 996.38,-670.22 996.43,-671.14 996.36,-672.07 996.18,-673.01 995.9,-673.95 995.53,-674.89 995.06,-675.83 994.49,-676.77 993.85,-677.7 993.12,-678.62 992.31,-679.53 991.43,-680.43 990.49,-681.31 989.48,-682.17 988.42,-683.01 987.3,-683.83 986.14,-684.62 984.93,-685.38 983.69,-686.12 982.41,-686.82 981.1,-687.48 979.76,-688.11 978.4,-688.71 977.01,-689.26 975.61,-689.77 974.19,-690.25 972.76,-690.67 971.32,-691.06 969.87,-691.39 968.41,-691.69 966.95,-691.93 965.48,-692.13 964,-692.27 962.53,-692.37 961.05,-692.42 959.57,-692.42 958.1,-692.37 956.62,-692.27 955.15,-692.13 953.68,-691.93 952.22,-691.69 950.76,-691.39 949.31,-691.06 947.86,-690.67 946.43,-690.25 945.02,-689.77 943.61,-689.26 942.23,-688.71 940.87,-688.11 939.53,-687.48 938.22,-686.82 936.94,-686.12 935.69,-685.38 934.49,-684.62 933.32,-683.83 932.21,-683.01 931.15,-682.17 930.14,-681.31 929.19,-680.43 928.32,-679.53 927.51,-678.62 926.78,-677.7 926.13,-676.77 925.57,-675.83 925.1,-674.89 924.72,-673.95 924.44,-673.01 924.27,-672.07 924.2,-671.14 924.24,-670.22 924.4,-669.31 924.66,-668.41 925.05,-667.53 925.55,-666.67 926.17,-665.83 926.91,-665.01 927.77,-664.22 928.74,-663.46 929.83,-662.73 931.03,-662.03 932.34,-661.36 933.76,-660.73 935.28,-660.14 936.89,-659.58 938.6,-659.07 940.4,-658.6 942.27,-658.17 944.22,-657.79 946.23,-657.45 948.29,-657.16 950.41,-656.91 952.57,-656.72 954.76,-656.57 956.97,-656.47 959.2,-656.42 961.43,-656.42 963.65,-656.47"/>
<text text-anchor="middle" x="960.31" y="-671.32" font-family="Times New Roman,serif" font-size="12.00">Encoder</text>
</g>
<!-- node19&#45;&gt;node15 -->
<g id="edge40" class="edge">
<title>node19&#45;&gt;node15</title>
<path fill="none" stroke="black" stroke-dasharray="1,5" d="M928.04,-663.78C840.07,-635.93 607.88,-551.05 688.31,-452.61 702.8,-434.88 831.87,-413.43 917.4,-400.97"/>
<polygon fill="black" stroke="black" points="917.95,-404.43 927.34,-399.53 916.95,-397.5 917.95,-404.43"/>
</g>
<!-- node20 -->
<g id="node29" class="node">
<title>node20</title>
<polygon fill="none" stroke="black" points="1893.22,-570.89 1893.22,-592.47 1843.48,-607.73 1773.14,-607.73 1723.4,-592.47 1723.4,-570.89 1773.14,-555.64 1843.48,-555.64 1893.22,-570.89"/>
<text text-anchor="middle" x="1808.31" y="-585.08" font-family="Times New Roman,serif" font-size="12.00">EncoderLib</text>
<text text-anchor="middle" x="1808.31" y="-572.08" font-family="Times New Roman,serif" font-size="12.00">(TMIV::EncoderLib)</text>
</g>
<!-- node19&#45;&gt;node20 -->
<g id="edge39" class="edge">
<title>node19&#45;&gt;node20</title>
<path fill="none" stroke="black" stroke-dasharray="1,5" d="M979.39,-658.27C987.02,-653.03 996.16,-647.73 1005.31,-644.7 1117.21,-607.76 1416.85,-617.17 1534.31,-607.7 1593.8,-602.91 1660.49,-596.83 1713.19,-591.87"/>
<polygon fill="black" stroke="black" points="1713.57,-595.35 1723.19,-590.92 1712.91,-588.38 1713.57,-595.35"/>
</g>
<!-- node20&#45;&gt;node0 -->
<g id="edge29" class="edge">
<title>node20&#45;&gt;node0</title>
<path fill="none" stroke="black" d="M1893.57,-577.02C2010.07,-571.32 2212.59,-558.74 2283.31,-537.66 2304.68,-531.29 2326.67,-520.52 2345.25,-509.98"/>
<polygon fill="black" stroke="black" points="2347.2,-512.9 2354.09,-504.84 2343.68,-506.84 2347.2,-512.9"/>
</g>
<!-- node20&#45;&gt;node18 -->
<g id="edge30" class="edge">
<title>node20&#45;&gt;node18</title>
<path fill="none" stroke="black" d="M1788.25,-555.54C1777.59,-543.82 1763.56,-530.72 1748.31,-522.66 1724.07,-509.84 1696.36,-500.84 1669.24,-494.52"/>
<polygon fill="black" stroke="black" points="1669.8,-491.06 1659.28,-492.31 1668.29,-497.9 1669.8,-491.06"/>
</g>
<!-- node21 -->
<g id="node30" class="node">
<title>node21</title>
<polygon fill="none" stroke="black" points="2184.76,-286.06 2184.76,-307.64 2112.45,-322.9 2010.18,-322.9 1937.86,-307.64 1937.86,-286.06 2010.18,-270.81 2112.45,-270.81 2184.76,-286.06"/>
<text text-anchor="middle" x="2061.31" y="-300.25" font-family="Times New Roman,serif" font-size="12.00">GeometryQuantizerLib</text>
<text text-anchor="middle" x="2061.31" y="-287.25" font-family="Times New Roman,serif" font-size="12.00">(TMIV::GeometryQuantizerLib)</text>
</g>
<!-- node20&#45;&gt;node21 -->
<g id="edge32" class="edge">
<title>node20&#45;&gt;node21</title>
<path fill="none" stroke="black" d="M1893.48,-578.59C2008.86,-573.75 2205.6,-557.72 2250.31,-504.66 2263.18,-489.39 2259.4,-382.42 2245.31,-363.57 2227.87,-340.24 2201.43,-325.16 2173.98,-315.43"/>
<polygon fill="black" stroke="black" points="2174.84,-312.03 2164.25,-312.21 2172.64,-318.68 2174.84,-312.03"/>
</g>
<!-- node22 -->
<g id="node31" class="node">
<title>node22</title>
<polygon fill="none" stroke="black" points="1388.54,-467.85 1388.54,-489.42 1341.54,-504.68 1275.08,-504.68 1228.09,-489.42 1228.09,-467.85 1275.08,-452.59 1341.54,-452.59 1388.54,-467.85"/>
<text text-anchor="middle" x="1308.31" y="-482.04" font-family="Times New Roman,serif" font-size="12.00">PackerLib</text>
<text text-anchor="middle" x="1308.31" y="-469.04" font-family="Times New Roman,serif" font-size="12.00">(TMIV::PackerLib)</text>
</g>
<!-- node20&#45;&gt;node22 -->
<g id="edge34" class="edge">
<title>node20&#45;&gt;node22</title>
<path fill="none" stroke="black" d="M1731.2,-568.46C1648.48,-554.87 1513.46,-531.29 1398.31,-504.66 1391.25,-503.03 1383.91,-501.2 1376.61,-499.3"/>
<polygon fill="black" stroke="black" points="1377.27,-495.85 1366.7,-496.67 1375.47,-502.62 1377.27,-495.85"/>
</g>
<!-- node23 -->
<g id="node32" class="node">
<title>node23</title>
<polygon fill="none" stroke="black" points="1886.98,-467.85 1886.98,-489.42 1840.9,-504.68 1775.73,-504.68 1729.65,-489.42 1729.65,-467.85 1775.73,-452.59 1840.9,-452.59 1886.98,-467.85"/>
<text text-anchor="middle" x="1808.31" y="-482.04" font-family="Times New Roman,serif" font-size="12.00">PrunerLib</text>
<text text-anchor="middle" x="1808.31" y="-469.04" font-family="Times New Roman,serif" font-size="12.00">(TMIV::PrunerLib)</text>
</g>
<!-- node20&#45;&gt;node23 -->
<g id="edge36" class="edge">
<title>node20&#45;&gt;node23</title>
<path fill="none" stroke="black" d="M1808.31,-555.44C1808.31,-543.27 1808.31,-528.45 1808.31,-515.16"/>
<polygon fill="black" stroke="black" points="1811.81,-514.9 1808.31,-504.9 1804.81,-514.9 1811.81,-514.9"/>
</g>
<!-- node24 -->
<g id="node33" class="node">
<title>node24</title>
<polygon fill="none" stroke="black" points="2121.15,-467.85 2121.15,-489.42 2057.98,-504.68 1968.65,-504.68 1905.48,-489.42 1905.48,-467.85 1968.65,-452.59 2057.98,-452.59 2121.15,-467.85"/>
<text text-anchor="middle" x="2013.31" y="-482.04" font-family="Times New Roman,serif" font-size="12.00">ViewOptimizerLib</text>
<text text-anchor="middle" x="2013.31" y="-469.04" font-family="Times New Roman,serif" font-size="12.00">(TMIV::ViewOptimizerLib)</text>
</g>
<!-- node20&#45;&gt;node24 -->
<g id="edge38" class="edge">
<title>node20&#45;&gt;node24</title>
<path fill="none" stroke="black" d="M1853.3,-558.51C1883.23,-543.75 1922.83,-524.23 1955.15,-508.31"/>
<polygon fill="black" stroke="black" points="1957.07,-511.26 1964.49,-503.7 1953.97,-504.98 1957.07,-511.26"/>
</g>
<!-- node21&#45;&gt;node4 -->
<g id="edge31" class="edge">
<title>node21&#45;&gt;node4</title>
<path fill="none" stroke="black" d="M1981.33,-276.81C1964.24,-273.2 1946.23,-269.75 1929.31,-267.13 1733.65,-236.95 1503.55,-219.61 1369.41,-211.3"/>
<polygon fill="black" stroke="black" points="1369.32,-207.79 1359.12,-210.67 1368.89,-214.77 1369.32,-207.79"/>
</g>
<!-- node22&#45;&gt;node4 -->
<g id="edge33" class="edge">
<title>node22&#45;&gt;node4</title>
<path fill="none" stroke="black" d="M1306.08,-452.41C1302.23,-412.62 1293.18,-333.03 1277.31,-267.13 1275.15,-258.14 1272.24,-248.6 1269.27,-239.76"/>
<polygon fill="black" stroke="black" points="1272.53,-238.46 1265.94,-230.16 1265.91,-240.75 1272.53,-238.46"/>
</g>
<!-- node23&#45;&gt;node16 -->
<g id="edge35" class="edge">
<title>node23&#45;&gt;node16</title>
<path fill="none" stroke="black" d="M1740.57,-464.11C1681.27,-452.06 1592.87,-433.61 1516.31,-415.61 1508.81,-413.85 1501.01,-411.95 1493.22,-410.01"/>
<polygon fill="black" stroke="black" points="1493.95,-406.58 1483.39,-407.54 1492.24,-413.37 1493.95,-406.58"/>
</g>
<!-- node24&#45;&gt;node16 -->
<g id="edge37" class="edge">
<title>node24&#45;&gt;node16</title>
<path fill="none" stroke="black" d="M1937.39,-460.09C1923.77,-457.32 1909.66,-454.68 1896.31,-452.61 1728.63,-426.61 1683.42,-445.12 1516.31,-415.61 1508.13,-414.17 1499.62,-412.39 1491.19,-410.45"/>
<polygon fill="black" stroke="black" points="1491.89,-407.03 1481.36,-408.12 1490.28,-413.84 1491.89,-407.03"/>
</g>
<!-- node25 -->
<g id="node34" class="node">
<title>node25</title>
<polygon fill="none" stroke="black" points="2031.89,-371.64 2036.91,-371.74 2041.87,-371.89 2046.77,-372.08 2051.57,-372.33 2056.26,-372.62 2060.82,-372.96 2065.23,-373.34 2069.48,-373.77 2073.55,-374.24 2077.42,-374.75 2081.09,-375.31 2084.53,-375.9 2087.75,-376.53 2090.72,-377.2 2093.44,-377.9 2095.91,-378.63 2098.12,-379.39 2100.06,-380.18 2101.74,-381 2103.14,-381.84 2104.28,-382.7 2105.15,-383.58 2105.76,-384.48 2106.11,-385.39 2106.2,-386.31 2106.05,-387.24 2105.65,-388.18 2105.02,-389.12 2104.17,-390.06 2103.1,-391 2101.82,-391.94 2100.35,-392.87 2098.7,-393.79 2096.87,-394.71 2094.88,-395.6 2092.74,-396.48 2090.46,-397.34 2088.05,-398.18 2085.52,-399 2082.88,-399.79 2080.14,-400.55 2077.32,-401.29 2074.42,-401.99 2071.44,-402.65 2068.41,-403.28 2065.32,-403.88 2062.18,-404.43 2059,-404.94 2055.79,-405.42 2052.54,-405.84 2049.28,-406.23 2045.99,-406.56 2042.68,-406.86 2039.36,-407.1 2036.02,-407.3 2032.68,-407.44 2029.34,-407.54 2025.99,-407.59 2022.64,-407.59 2019.29,-407.54 2015.94,-407.44 2012.6,-407.3 2009.27,-407.1 2005.95,-406.86 2002.64,-406.56 1999.35,-406.23 1996.08,-405.84 1992.84,-405.42 1989.62,-404.94 1986.44,-404.43 1983.31,-403.88 1980.22,-403.28 1977.18,-402.65 1974.21,-401.99 1971.31,-401.29 1968.48,-400.55 1965.75,-399.79 1963.11,-399 1960.58,-398.18 1958.17,-397.34 1955.89,-396.48 1953.75,-395.6 1951.76,-394.71 1949.93,-393.79 1948.27,-392.87 1946.8,-391.94 1945.53,-391 1944.46,-390.06 1943.6,-389.12 1942.97,-388.18 1942.58,-387.24 1942.42,-386.31 1942.52,-385.39 1942.87,-384.48 1943.47,-383.58 1944.35,-382.7 1945.48,-381.84 1946.89,-381 1948.57,-380.18 1950.51,-379.39 1952.72,-378.63 1955.18,-377.9 1957.91,-377.2 1960.88,-376.53 1964.09,-375.9 1967.54,-375.31 1971.21,-374.75 1975.08,-374.24 1979.15,-373.77 1983.4,-373.34 1987.81,-372.96 1992.37,-372.62 1997.06,-372.33 2001.86,-372.08 2006.75,-371.89 2011.72,-371.74 2016.74,-371.64 2021.78,-371.59 2026.84,-371.59 2031.89,-371.64"/>
<text text-anchor="middle" x="2024.31" y="-386.49" font-family="Times New Roman,serif" font-size="12.00">GeometryQuantizerTest</text>
</g>
<!-- node25&#45;&gt;node5 -->
<g id="edge41" class="edge">
<title>node25&#45;&gt;node5</title>
<path fill="none" stroke="black" stroke-dasharray="1,5" d="M1991.31,-372.58C1962.08,-358.39 1919.02,-337.5 1885.86,-321.41"/>
<polygon fill="black" stroke="black" points="1887.32,-318.23 1876.79,-317.01 1884.26,-324.52 1887.32,-318.23"/>
</g>
<!-- node25&#45;&gt;node21 -->
<g id="edge42" class="edge">
<title>node25&#45;&gt;node21</title>
<path fill="none" stroke="black" stroke-dasharray="1,5" d="M2031.27,-371.52C2035.75,-360.54 2041.74,-345.86 2047.19,-332.5"/>
<polygon fill="black" stroke="black" points="2050.49,-333.65 2051.03,-323.07 2044.01,-331.01 2050.49,-333.65"/>
</g>
<!-- node26 -->
<g id="node35" class="node">
<title>node26</title>
<polygon fill="none" stroke="black" points="1595.21,-371.64 1599.11,-371.74 1602.97,-371.89 1606.77,-372.08 1610.51,-372.33 1614.15,-372.62 1617.7,-372.96 1621.13,-373.34 1624.43,-373.77 1627.6,-374.24 1630.61,-374.75 1633.46,-375.31 1636.14,-375.9 1638.64,-376.53 1640.95,-377.2 1643.07,-377.9 1644.99,-378.63 1646.71,-379.39 1648.22,-380.18 1649.52,-381 1650.61,-381.84 1651.5,-382.7 1652.18,-383.58 1652.65,-384.48 1652.92,-385.39 1652.99,-386.31 1652.87,-387.24 1652.56,-388.18 1652.07,-389.12 1651.41,-390.06 1650.58,-391 1649.59,-391.94 1648.44,-392.87 1647.16,-393.79 1645.74,-394.71 1644.19,-395.6 1642.52,-396.48 1640.75,-397.34 1638.87,-398.18 1636.91,-399 1634.86,-399.79 1632.73,-400.55 1630.53,-401.29 1628.28,-401.99 1625.96,-402.65 1623.6,-403.28 1621.2,-403.88 1618.76,-404.43 1616.29,-404.94 1613.79,-405.42 1611.27,-405.84 1608.72,-406.23 1606.17,-406.56 1603.59,-406.86 1601.01,-407.1 1598.42,-407.3 1595.82,-407.44 1593.22,-407.54 1590.62,-407.59 1588.01,-407.59 1585.41,-407.54 1582.8,-407.44 1580.21,-407.3 1577.62,-407.1 1575.03,-406.86 1572.46,-406.56 1569.9,-406.23 1567.36,-405.84 1564.84,-405.42 1562.34,-404.94 1559.87,-404.43 1557.43,-403.88 1555.02,-403.28 1552.66,-402.65 1550.35,-401.99 1548.09,-401.29 1545.9,-400.55 1543.77,-399.79 1541.72,-399 1539.75,-398.18 1537.88,-397.34 1536.1,-396.48 1534.44,-395.6 1532.89,-394.71 1531.47,-393.79 1530.18,-392.87 1529.04,-391.94 1528.05,-391 1527.22,-390.06 1526.55,-389.12 1526.06,-388.18 1525.75,-387.24 1525.63,-386.31 1525.71,-385.39 1525.98,-384.48 1526.45,-383.58 1527.13,-382.7 1528.01,-381.84 1529.11,-381 1530.41,-380.18 1531.92,-379.39 1533.64,-378.63 1535.56,-377.9 1537.68,-377.2 1539.99,-376.53 1542.49,-375.9 1545.17,-375.31 1548.02,-374.75 1551.03,-374.24 1554.19,-373.77 1557.5,-373.34 1560.93,-372.96 1564.47,-372.62 1568.12,-372.33 1571.85,-372.08 1575.66,-371.89 1579.52,-371.74 1583.42,-371.64 1587.35,-371.59 1591.28,-371.59 1595.21,-371.64"/>
<text text-anchor="middle" x="1589.31" y="-386.49" font-family="Times New Roman,serif" font-size="12.00">MivBitstreamTest</text>
</g>
<!-- node26&#45;&gt;node4 -->
<g id="edge44" class="edge">
<title>node26&#45;&gt;node4</title>
<path fill="none" stroke="black" stroke-dasharray="1,5" d="M1566.37,-372.28C1550.9,-360.61 1530.58,-343.94 1515.31,-326.57 1494.62,-303.02 1502.5,-285.8 1477.31,-267.13 1444.11,-242.53 1401.54,-227.68 1362.64,-218.72"/>
<polygon fill="black" stroke="black" points="1363.35,-215.29 1352.83,-216.57 1361.85,-222.13 1363.35,-215.29"/>
</g>
<!-- node26&#45;&gt;node5 -->
<g id="edge43" class="edge">
<title>node26&#45;&gt;node5</title>
<path fill="none" stroke="black" stroke-dasharray="1,5" d="M1628.34,-374.31C1669.21,-359.36 1733.83,-335.71 1780.4,-318.68"/>
<polygon fill="black" stroke="black" points="1781.86,-321.87 1790.05,-315.15 1779.45,-315.3 1781.86,-321.87"/>
</g>
<!-- node27 -->
<g id="node36" class="node">
<title>node27</title>
<polygon fill="none" stroke="black" points="936.45,-460.69 939.18,-460.78 941.89,-460.93 944.56,-461.13 947.18,-461.37 949.73,-461.66 952.22,-462 954.63,-462.38 956.94,-462.81 959.16,-463.28 961.27,-463.8 963.27,-464.35 965.15,-464.94 966.9,-465.58 968.53,-466.24 970.01,-466.94 971.36,-467.67 972.56,-468.44 973.62,-469.23 974.53,-470.04 975.3,-470.88 975.92,-471.75 976.4,-472.63 976.73,-473.52 976.92,-474.43 976.97,-475.36 976.89,-476.29 976.67,-477.22 976.33,-478.17 975.86,-479.11 975.28,-480.05 974.58,-480.99 973.78,-481.92 972.88,-482.84 971.88,-483.75 970.8,-484.65 969.63,-485.53 968.38,-486.39 967.07,-487.23 965.69,-488.04 964.25,-488.84 962.76,-489.6 961.22,-490.33 959.64,-491.03 958.01,-491.7 956.36,-492.33 954.67,-492.92 952.96,-493.48 951.23,-493.99 949.48,-494.46 947.71,-494.89 945.93,-495.27 944.13,-495.61 942.33,-495.9 940.52,-496.15 938.7,-496.34 936.88,-496.49 935.05,-496.59 933.23,-496.64 931.4,-496.64 929.57,-496.59 927.75,-496.49 925.93,-496.34 924.11,-496.15 922.3,-495.9 920.5,-495.61 918.7,-495.27 916.92,-494.89 915.15,-494.46 913.4,-493.99 911.66,-493.48 909.95,-492.92 908.27,-492.33 906.61,-491.7 904.99,-491.03 903.41,-490.33 901.87,-489.6 900.38,-488.84 898.94,-488.04 897.56,-487.23 896.24,-486.39 895,-485.53 893.83,-484.65 892.75,-483.75 891.75,-482.84 890.85,-481.92 890.05,-480.99 889.35,-480.05 888.77,-479.11 888.3,-478.17 887.96,-477.22 887.74,-476.29 887.66,-475.36 887.71,-474.43 887.9,-473.52 888.23,-472.63 888.7,-471.75 889.33,-470.88 890.09,-470.04 891.01,-469.23 892.07,-468.44 893.27,-467.67 894.62,-466.94 896.1,-466.24 897.72,-465.58 899.47,-464.94 901.35,-464.35 903.35,-463.8 905.46,-463.28 907.68,-462.81 910,-462.38 912.41,-462 914.89,-461.66 917.45,-461.37 920.07,-461.13 922.74,-460.93 925.44,-460.78 928.18,-460.69 930.93,-460.64 933.69,-460.64 936.45,-460.69"/>
<text text-anchor="middle" x="932.31" y="-475.54" font-family="Times New Roman,serif" font-size="12.00">Multiplexer</text>
</g>
<!-- node27&#45;&gt;node4 -->
<g id="edge46" class="edge">
<title>node27&#45;&gt;node4</title>
<path fill="none" stroke="black" stroke-dasharray="1,5" d="M962,-463.82C969.89,-460.16 978.42,-456.22 986.31,-452.61 1022.67,-435.99 1038.45,-442.2 1068.31,-415.61 1125.78,-364.46 1103.45,-322.07 1157.31,-267.13 1169.6,-254.61 1184.89,-243.46 1199.75,-234.2"/>
<polygon fill="black" stroke="black" points="1201.67,-237.13 1208.42,-228.96 1198.05,-231.13 1201.67,-237.13"/>
</g>
<!-- node27&#45;&gt;node15 -->
<g id="edge45" class="edge">
<title>node27&#45;&gt;node15</title>
<path fill="none" stroke="black" stroke-dasharray="1,5" d="M944.07,-460.85C951.33,-450.5 960.9,-436.84 969.67,-424.33"/>
<polygon fill="black" stroke="black" points="972.7,-426.1 975.58,-415.9 966.97,-422.08 972.7,-426.1"/>
</g>
<!-- node28 -->
<g id="node37" class="node">
<title>node28</title>
<polygon fill="none" stroke="black" points="1083.12,-278.9 1084.98,-279 1086.81,-279.15 1088.62,-279.34 1090.4,-279.59 1092.14,-279.88 1093.83,-280.22 1095.46,-280.6 1097.03,-281.03 1098.54,-281.5 1099.97,-282.01 1101.33,-282.57 1102.6,-283.16 1103.79,-283.79 1104.89,-284.46 1105.9,-285.16 1106.82,-285.89 1107.63,-286.65 1108.35,-287.44 1108.97,-288.26 1109.49,-289.1 1109.91,-289.96 1110.24,-290.84 1110.46,-291.74 1110.59,-292.65 1110.63,-293.57 1110.57,-294.5 1110.42,-295.44 1110.19,-296.38 1109.87,-297.32 1109.48,-298.26 1109,-299.2 1108.46,-300.13 1107.85,-301.06 1107.17,-301.97 1106.43,-302.86 1105.64,-303.74 1104.8,-304.6 1103.9,-305.44 1102.97,-306.26 1101.99,-307.05 1100.98,-307.81 1099.93,-308.55 1098.86,-309.25 1097.76,-309.91 1096.64,-310.54 1095.49,-311.14 1094.33,-311.69 1093.15,-312.2 1091.96,-312.68 1090.76,-313.1 1089.55,-313.49 1088.34,-313.83 1087.11,-314.12 1085.88,-314.36 1084.65,-314.56 1083.41,-314.7 1082.17,-314.8 1080.93,-314.85 1079.69,-314.85 1078.45,-314.8 1077.21,-314.7 1075.98,-314.56 1074.75,-314.36 1073.52,-314.12 1072.29,-313.83 1071.07,-313.49 1069.86,-313.1 1068.66,-312.68 1067.47,-312.2 1066.3,-311.69 1065.13,-311.14 1063.99,-310.54 1062.87,-309.91 1061.77,-309.25 1060.69,-308.55 1059.65,-307.81 1058.63,-307.05 1057.66,-306.26 1056.72,-305.44 1055.83,-304.6 1054.98,-303.74 1054.19,-302.86 1053.46,-301.97 1052.78,-301.06 1052.17,-300.13 1051.62,-299.2 1051.15,-298.26 1050.75,-297.32 1050.44,-296.38 1050.2,-295.44 1050.06,-294.5 1050,-293.57 1050.04,-292.65 1050.16,-291.74 1050.39,-290.84 1050.71,-289.96 1051.13,-289.1 1051.65,-288.26 1052.27,-287.44 1052.99,-286.65 1053.81,-285.89 1054.72,-285.16 1055.73,-284.46 1056.83,-283.79 1058.02,-283.16 1059.3,-282.57 1060.65,-282.01 1062.09,-281.5 1063.59,-281.03 1065.17,-280.6 1066.8,-280.22 1068.49,-279.88 1070.22,-279.59 1072,-279.34 1073.81,-279.15 1075.65,-279 1077.51,-278.9 1079.38,-278.85 1081.25,-278.85 1083.12,-278.9"/>
<text text-anchor="middle" x="1080.31" y="-293.75" font-family="Times New Roman,serif" font-size="12.00">Parser</text>
</g>
<!-- node28&#45;&gt;node4 -->
<g id="edge47" class="edge">
<title>node28&#45;&gt;node4</title>
<path fill="none" stroke="black" stroke-dasharray="1,5" d="M1091.75,-279.68C1099.8,-269.36 1111.41,-256.41 1124.31,-248.13 1138.81,-238.83 1155.5,-231.37 1172.03,-225.45"/>
<polygon fill="black" stroke="black" points="1173.4,-228.68 1181.73,-222.13 1171.14,-222.05 1173.4,-228.68"/>
</g>
<!-- node29 -->
<g id="node38" class="node">
<title>node29</title>
<polygon fill="none" stroke="black" points="1253.91,-563.73 1256.29,-563.83 1258.65,-563.98 1260.97,-564.17 1263.25,-564.42 1265.47,-564.71 1267.63,-565.05 1269.73,-565.43 1271.74,-565.86 1273.67,-566.33 1275.51,-566.84 1277.25,-567.4 1278.89,-567.99 1280.41,-568.62 1281.82,-569.29 1283.12,-569.99 1284.29,-570.72 1285.33,-571.48 1286.26,-572.27 1287.05,-573.09 1287.72,-573.93 1288.26,-574.79 1288.67,-575.67 1288.96,-576.57 1289.13,-577.48 1289.17,-578.4 1289.1,-579.33 1288.91,-580.27 1288.61,-581.21 1288.2,-582.15 1287.7,-583.09 1287.09,-584.03 1286.39,-584.96 1285.61,-585.88 1284.74,-586.8 1283.8,-587.69 1282.78,-588.57 1281.7,-589.43 1280.55,-590.27 1279.35,-591.09 1278.1,-591.88 1276.81,-592.64 1275.47,-593.38 1274.09,-594.08 1272.68,-594.74 1271.24,-595.37 1269.77,-595.97 1268.28,-596.52 1266.77,-597.03 1265.25,-597.51 1263.71,-597.93 1262.16,-598.32 1260.6,-598.65 1259.03,-598.95 1257.45,-599.19 1255.87,-599.39 1254.28,-599.53 1252.7,-599.63 1251.11,-599.68 1249.52,-599.68 1247.93,-599.63 1246.34,-599.53 1244.76,-599.39 1243.18,-599.19 1241.6,-598.95 1240.03,-598.65 1238.47,-598.32 1236.92,-597.93 1235.38,-597.51 1233.85,-597.03 1232.34,-596.52 1230.86,-595.97 1229.39,-595.37 1227.95,-594.74 1226.54,-594.08 1225.16,-593.38 1223.82,-592.64 1222.52,-591.88 1221.27,-591.09 1220.07,-590.27 1218.93,-589.43 1217.85,-588.57 1216.83,-587.69 1215.88,-586.8 1215.02,-585.88 1214.23,-584.96 1213.53,-584.03 1212.93,-583.09 1212.42,-582.15 1212.02,-581.21 1211.72,-580.27 1211.53,-579.33 1211.46,-578.4 1211.5,-577.48 1211.67,-576.57 1211.95,-575.67 1212.37,-574.79 1212.91,-573.93 1213.58,-573.09 1214.37,-572.27 1215.29,-571.48 1216.34,-570.72 1217.51,-569.99 1218.8,-569.29 1220.21,-568.62 1221.74,-567.99 1223.37,-567.4 1225.11,-566.84 1226.95,-566.33 1228.88,-565.86 1230.9,-565.43 1232.99,-565.05 1235.16,-564.71 1237.38,-564.42 1239.66,-564.17 1241.98,-563.98 1244.34,-563.83 1246.72,-563.73 1249.11,-563.68 1251.51,-563.68 1253.91,-563.73"/>
<text text-anchor="middle" x="1250.31" y="-578.58" font-family="Times New Roman,serif" font-size="12.00">Renderer</text>
</g>
<!-- node29&#45;&gt;node14 -->
<g id="edge49" class="edge">
<title>node29&#45;&gt;node14</title>
<path fill="none" stroke="black" stroke-dasharray="1,5" d="M1228.48,-565.77C1207.29,-551.31 1174.5,-528.92 1147.65,-510.59"/>
<polygon fill="black" stroke="black" points="1149.4,-507.55 1139.17,-504.8 1145.46,-513.33 1149.4,-507.55"/>
</g>
<!-- node29&#45;&gt;node18 -->
<g id="edge48" class="edge">
<title>node29&#45;&gt;node18</title>
<path fill="none" stroke="black" stroke-dasharray="1,5" d="M1282.46,-569.48C1326.11,-554.27 1405.48,-526.62 1464.68,-505.99"/>
<polygon fill="black" stroke="black" points="1466.07,-509.21 1474.36,-502.61 1463.77,-502.6 1466.07,-509.21"/>
</g>
<!-- node30 -->
<g id="node39" class="node">
<title>node30</title>
<polygon fill="none" stroke="black" points="1463.56,-563.73 1467.7,-563.83 1471.8,-563.98 1475.83,-564.17 1479.79,-564.42 1483.66,-564.71 1487.42,-565.05 1491.06,-565.43 1494.57,-565.86 1497.92,-566.33 1501.12,-566.84 1504.14,-567.4 1506.98,-567.99 1509.63,-568.62 1512.09,-569.29 1514.33,-569.99 1516.37,-570.72 1518.19,-571.48 1519.79,-572.27 1521.17,-573.09 1522.33,-573.93 1523.27,-574.79 1523.99,-575.67 1524.49,-576.57 1524.78,-577.48 1524.86,-578.4 1524.73,-579.33 1524.4,-580.27 1523.89,-581.21 1523.18,-582.15 1522.3,-583.09 1521.25,-584.03 1520.03,-584.96 1518.67,-585.88 1517.16,-586.8 1515.52,-587.69 1513.75,-588.57 1511.87,-589.43 1509.88,-590.27 1507.8,-591.09 1505.62,-591.88 1503.36,-592.64 1501.04,-593.38 1498.64,-594.08 1496.19,-594.74 1493.69,-595.37 1491.14,-595.97 1488.55,-596.52 1485.93,-597.03 1483.28,-597.51 1480.6,-597.93 1477.9,-598.32 1475.19,-598.65 1472.46,-598.95 1469.72,-599.19 1466.97,-599.39 1464.22,-599.53 1461.46,-599.63 1458.69,-599.68 1455.93,-599.68 1453.17,-599.63 1450.41,-599.53 1447.65,-599.39 1444.91,-599.19 1442.17,-598.95 1439.44,-598.65 1436.72,-598.32 1434.03,-597.93 1431.35,-597.51 1428.7,-597.03 1426.08,-596.52 1423.49,-595.97 1420.94,-595.37 1418.44,-594.74 1415.99,-594.08 1413.59,-593.38 1411.26,-592.64 1409.01,-591.88 1406.83,-591.09 1404.74,-590.27 1402.76,-589.43 1400.87,-588.57 1399.11,-587.69 1397.47,-586.8 1395.96,-585.88 1394.59,-584.96 1393.38,-584.03 1392.33,-583.09 1391.45,-582.15 1390.74,-581.21 1390.22,-580.27 1389.9,-579.33 1389.77,-578.4 1389.84,-577.48 1390.13,-576.57 1390.63,-575.67 1391.35,-574.79 1392.29,-573.93 1393.45,-573.09 1394.83,-572.27 1396.44,-571.48 1398.26,-570.72 1400.29,-569.99 1402.54,-569.29 1404.99,-568.62 1407.64,-567.99 1410.48,-567.4 1413.51,-566.84 1416.7,-566.33 1420.06,-565.86 1423.56,-565.43 1427.2,-565.05 1430.96,-564.71 1434.83,-564.42 1438.79,-564.17 1442.83,-563.98 1446.92,-563.83 1451.06,-563.73 1455.23,-563.68 1459.4,-563.68 1463.56,-563.73"/>
<text text-anchor="middle" x="1457.31" y="-578.58" font-family="Times New Roman,serif" font-size="12.00">RendererFrontTest</text>
</g>
<!-- node30&#45;&gt;node5 -->
<g id="edge50" class="edge">
<title>node30&#45;&gt;node5</title>
<path fill="none" stroke="black" stroke-dasharray="1,5" d="M1516.9,-570.88C1565.14,-560.66 1632.95,-540.88 1682.31,-504.66 1705.41,-487.72 1697.71,-470.2 1720.31,-452.61 1755.1,-425.55 1783.96,-449.36 1812.31,-415.61 1830.61,-393.84 1836.52,-361.95 1838.04,-336.84"/>
<polygon fill="black" stroke="black" points="1841.55,-336.68 1838.45,-326.55 1834.55,-336.4 1841.55,-336.68"/>
</g>
<!-- node30&#45;&gt;node14 -->
<g id="edge51" class="edge">
<title>node30&#45;&gt;node14</title>
<path fill="none" stroke="black" stroke-dasharray="1,5" d="M1410.54,-567.37C1351.92,-550.68 1250.61,-521.85 1180.21,-501.81"/>
<polygon fill="black" stroke="black" points="1181.07,-498.41 1170.49,-499.04 1179.15,-505.15 1181.07,-498.41"/>
</g>
<!-- node31 -->
<g id="node40" class="node">
<title>node31</title>
<polygon fill="none" stroke="black" points="2195.06,-460.69 2198.2,-460.78 2201.31,-460.93 2204.37,-461.13 2207.38,-461.37 2210.31,-461.66 2213.17,-462 2215.93,-462.38 2218.59,-462.81 2221.14,-463.28 2223.56,-463.8 2225.86,-464.35 2228.01,-464.94 2230.03,-465.58 2231.89,-466.24 2233.59,-466.94 2235.14,-467.67 2236.52,-468.44 2237.74,-469.23 2238.78,-470.04 2239.67,-470.88 2240.38,-471.75 2240.92,-472.63 2241.3,-473.52 2241.52,-474.43 2241.58,-475.36 2241.48,-476.29 2241.24,-477.22 2240.84,-478.17 2240.31,-479.11 2239.64,-480.05 2238.84,-480.99 2237.92,-481.92 2236.88,-482.84 2235.74,-483.75 2234.49,-484.65 2233.15,-485.53 2231.72,-486.39 2230.21,-487.23 2228.63,-488.04 2226.98,-488.84 2225.27,-489.6 2223.5,-490.33 2221.68,-491.03 2219.82,-491.7 2217.92,-492.33 2215.99,-492.92 2214.02,-493.48 2212.03,-493.99 2210.02,-494.46 2207.99,-494.89 2205.94,-495.27 2203.88,-495.61 2201.81,-495.9 2199.73,-496.15 2197.64,-496.34 2195.55,-496.49 2193.46,-496.59 2191.36,-496.64 2189.26,-496.64 2187.17,-496.59 2185.07,-496.49 2182.98,-496.34 2180.9,-496.15 2178.82,-495.9 2176.75,-495.61 2174.69,-495.27 2172.64,-494.89 2170.61,-494.46 2168.6,-493.99 2166.61,-493.48 2164.64,-492.92 2162.71,-492.33 2160.81,-491.7 2158.95,-491.03 2157.13,-490.33 2155.36,-489.6 2153.65,-488.84 2152,-488.04 2150.41,-487.23 2148.9,-486.39 2147.47,-485.53 2146.13,-484.65 2144.89,-483.75 2143.74,-482.84 2142.71,-481.92 2141.79,-480.99 2140.99,-480.05 2140.32,-479.11 2139.78,-478.17 2139.39,-477.22 2139.14,-476.29 2139.05,-475.36 2139.1,-474.43 2139.32,-473.52 2139.7,-472.63 2140.25,-471.75 2140.96,-470.88 2141.84,-470.04 2142.89,-469.23 2144.11,-468.44 2145.49,-467.67 2147.03,-466.94 2148.74,-466.24 2150.6,-465.58 2152.61,-464.94 2154.77,-464.35 2157.06,-463.8 2159.49,-463.28 2162.04,-462.81 2164.7,-462.38 2167.46,-462 2170.31,-461.66 2173.25,-461.37 2176.26,-461.13 2179.32,-460.93 2182.43,-460.78 2185.57,-460.69 2188.73,-460.64 2191.9,-460.64 2195.06,-460.69"/>
<text text-anchor="middle" x="2190.31" y="-475.54" font-family="Times New Roman,serif" font-size="12.00">RendererTest</text>
</g>
<!-- node31&#45;&gt;node5 -->
<g id="edge52" class="edge">
<title>node31&#45;&gt;node5</title>
<path fill="none" stroke="black" stroke-dasharray="1,5" d="M2159.31,-463.26C2150.12,-459.39 2139.94,-455.49 2130.31,-452.61 2044.96,-427.11 2009.89,-461.13 1933.31,-415.61 1899.7,-395.64 1872.82,-359.31 1856.15,-332.26"/>
<polygon fill="black" stroke="black" points="1859.04,-330.27 1850.9,-323.48 1853.03,-333.86 1859.04,-330.27"/>
</g>
<!-- node31&#45;&gt;node16 -->
<g id="edge53" class="edge">
<title>node31&#45;&gt;node16</title>
<path fill="none" stroke="black" stroke-dasharray="1,5" d="M2160.75,-463C2151.25,-458.93 2140.54,-454.98 2130.31,-452.61 2063.73,-437.19 1583.83,-426.25 1516.31,-415.61 1507.98,-414.3 1499.32,-412.59 1490.76,-410.67"/>
<polygon fill="black" stroke="black" points="1491.31,-407.2 1480.78,-408.34 1489.72,-414.02 1491.31,-407.2"/>
</g>
<!-- node32 -->
<g id="node41" class="node">
<title>node32</title>
<polygon fill="none" stroke="black" points="594.72,-286.06 594.72,-307.64 537.66,-322.9 456.97,-322.9 399.91,-307.64 399.91,-286.06 456.97,-270.81 537.66,-270.81 594.72,-286.06"/>
<text text-anchor="middle" x="497.31" y="-300.25" font-family="Times New Roman,serif" font-size="12.00">TAppCommon</text>
<text text-anchor="middle" x="497.31" y="-287.25" font-family="Times New Roman,serif" font-size="12.00">(TMIV::TAppCommon)</text>
</g>
<!-- node32&#45;&gt;node11 -->
<g id="edge54" class="edge">
<title>node32&#45;&gt;node11</title>
<path fill="none" stroke="black" d="M454.96,-271.06C435.67,-259.77 412.7,-246.32 392.55,-234.52"/>
<polygon fill="black" stroke="black" points="394.21,-231.44 383.81,-229.41 390.67,-237.48 394.21,-231.44"/>
</g>
<!-- node33 -->
<g id="node42" class="node">
<title>node33</title>
<polygon fill="none" stroke="black" points="502.34,-371.64 505.67,-371.74 508.96,-371.89 512.21,-372.08 515.39,-372.33 518.5,-372.62 521.53,-372.96 524.46,-373.34 527.27,-373.77 529.97,-374.24 532.54,-374.75 534.97,-375.31 537.26,-375.9 539.39,-376.53 541.36,-377.2 543.17,-377.9 544.81,-378.63 546.27,-379.39 547.56,-380.18 548.67,-381 549.61,-381.84 550.36,-382.7 550.94,-383.58 551.34,-384.48 551.57,-385.39 551.64,-386.31 551.53,-387.24 551.27,-388.18 550.85,-389.12 550.29,-390.06 549.58,-391 548.73,-391.94 547.76,-392.87 546.66,-393.79 545.45,-394.71 544.13,-395.6 542.7,-396.48 541.19,-397.34 539.59,-398.18 537.91,-399 536.16,-399.79 534.35,-400.55 532.48,-401.29 530.55,-401.99 528.58,-402.65 526.57,-403.28 524.52,-403.88 522.43,-404.43 520.33,-404.94 518.19,-405.42 516.04,-405.84 513.87,-406.23 511.69,-406.56 509.5,-406.86 507.29,-407.1 505.08,-407.3 502.87,-407.44 500.65,-407.54 498.42,-407.59 496.2,-407.59 493.98,-407.54 491.76,-407.44 489.54,-407.3 487.33,-407.1 485.13,-406.86 482.94,-406.56 480.75,-406.23 478.59,-405.84 476.43,-405.42 474.3,-404.94 472.19,-404.43 470.11,-403.88 468.06,-403.28 466.05,-402.65 464.08,-401.99 462.15,-401.29 460.28,-400.55 458.46,-399.79 456.71,-399 455.03,-398.18 453.44,-397.34 451.92,-396.48 450.5,-395.6 449.18,-394.71 447.97,-393.79 446.87,-392.87 445.9,-391.94 445.05,-391 444.34,-390.06 443.77,-389.12 443.36,-388.18 443.09,-387.24 442.99,-386.31 443.05,-385.39 443.28,-384.48 443.69,-383.58 444.27,-382.7 445.02,-381.84 445.95,-381 447.06,-380.18 448.35,-379.39 449.82,-378.63 451.45,-377.9 453.26,-377.2 455.23,-376.53 457.37,-375.9 459.65,-375.31 462.08,-374.75 464.65,-374.24 467.35,-373.77 470.17,-373.34 473.1,-372.96 476.12,-372.62 479.23,-372.33 482.42,-372.08 485.66,-371.89 488.96,-371.74 492.29,-371.64 495.64,-371.59 498.99,-371.59 502.34,-371.64"/>
<text text-anchor="middle" x="497.31" y="-386.49" font-family="Times New Roman,serif" font-size="12.00">TAppDecoder</text>
</g>
<!-- node33&#45;&gt;node10 -->
<g id="edge56" class="edge">
<title>node33&#45;&gt;node10</title>
<path fill="none" stroke="black" stroke-dasharray="1,5" d="M529.95,-374.21C560.7,-360.67 607.48,-340.07 644.69,-323.67"/>
<polygon fill="black" stroke="black" points="646.19,-326.84 653.93,-319.6 643.37,-320.43 646.19,-326.84"/>
</g>
<!-- node33&#45;&gt;node32 -->
<g id="edge55" class="edge">
<title>node33&#45;&gt;node32</title>
<path fill="none" stroke="black" stroke-dasharray="1,5" d="M497.31,-371.52C497.31,-360.75 497.31,-346.43 497.31,-333.28"/>
<polygon fill="black" stroke="black" points="500.81,-333.07 497.31,-323.07 493.81,-333.07 500.81,-333.07"/>
</g>
<!-- node34 -->
<g id="node43" class="node">
<title>node34</title>
<polygon fill="none" stroke="black" points="382,-286.06 382,-307.64 328.29,-322.9 252.33,-322.9 198.62,-307.64 198.62,-286.06 252.33,-270.81 328.29,-270.81 382,-286.06"/>
<text text-anchor="middle" x="290.31" y="-300.25" font-family="Times New Roman,serif" font-size="12.00">TLibVideoIO</text>
<text text-anchor="middle" x="290.31" y="-287.25" font-family="Times New Roman,serif" font-size="12.00">(TMIV::TLibVideoIO)</text>
</g>
<!-- node33&#45;&gt;node34 -->
<g id="edge58" class="edge">
<title>node33&#45;&gt;node34</title>
<path fill="none" stroke="black" stroke-dasharray="1,5" d="M464.51,-374.21C433.62,-360.67 386.62,-340.07 349.22,-323.67"/>
<polygon fill="black" stroke="black" points="350.5,-320.41 339.93,-319.6 347.69,-326.82 350.5,-320.41"/>
</g>
<!-- node34&#45;&gt;node11 -->
<g id="edge57" class="edge">
<title>node34&#45;&gt;node11</title>
<path fill="none" stroke="black" d="M304.8,-270.58C310.38,-260.84 316.84,-249.56 322.82,-239.14"/>
<polygon fill="black" stroke="black" points="325.97,-240.67 327.91,-230.25 319.9,-237.19 325.97,-240.67"/>
</g>
<!-- node35 -->
<g id="node44" class="node">
<title>node35</title>
<polygon fill="none" stroke="black" points="295.27,-371.64 298.54,-371.74 301.79,-371.89 304.99,-372.08 308.12,-372.33 311.19,-372.62 314.17,-372.96 317.05,-373.34 319.83,-373.77 322.49,-374.24 325.02,-374.75 327.41,-375.31 329.66,-375.9 331.76,-376.53 333.71,-377.2 335.49,-377.9 337.1,-378.63 338.54,-379.39 339.81,-380.18 340.91,-381 341.83,-381.84 342.57,-382.7 343.14,-383.58 343.54,-384.48 343.77,-385.39 343.83,-386.31 343.73,-387.24 343.47,-388.18 343.06,-389.12 342.5,-390.06 341.8,-391 340.96,-391.94 340,-392.87 338.92,-393.79 337.73,-394.71 336.43,-395.6 335.03,-396.48 333.54,-397.34 331.96,-398.18 330.31,-399 328.58,-399.79 326.8,-400.55 324.95,-401.29 323.06,-401.99 321.11,-402.65 319.13,-403.28 317.11,-403.88 315.06,-404.43 312.98,-404.94 310.88,-405.42 308.76,-405.84 306.63,-406.23 304.48,-406.56 302.31,-406.86 300.14,-407.1 297.97,-407.3 295.78,-407.44 293.6,-407.54 291.41,-407.59 289.22,-407.59 287.03,-407.54 284.84,-407.44 282.66,-407.3 280.48,-407.1 278.31,-406.86 276.15,-406.56 274,-406.23 271.86,-405.84 269.74,-405.42 267.64,-404.94 265.57,-404.43 263.52,-403.88 261.5,-403.28 259.51,-402.65 257.57,-401.99 255.67,-401.29 253.83,-400.55 252.04,-399.79 250.32,-399 248.67,-398.18 247.09,-397.34 245.6,-396.48 244.2,-395.6 242.9,-394.71 241.7,-393.79 240.62,-392.87 239.66,-391.94 238.83,-391 238.13,-390.06 237.57,-389.12 237.16,-388.18 236.9,-387.24 236.8,-386.31 236.86,-385.39 237.09,-384.48 237.49,-383.58 238.06,-382.7 238.8,-381.84 239.72,-381 240.81,-380.18 242.08,-379.39 243.53,-378.63 245.14,-377.9 246.92,-377.2 248.86,-376.53 250.96,-375.9 253.21,-375.31 255.61,-374.75 258.14,-374.24 260.8,-373.77 263.57,-373.34 266.46,-372.96 269.44,-372.62 272.5,-372.33 275.64,-372.08 278.84,-371.89 282.08,-371.74 285.36,-371.64 288.66,-371.59 291.97,-371.59 295.27,-371.64"/>
<text text-anchor="middle" x="290.31" y="-386.49" font-family="Times New Roman,serif" font-size="12.00">TAppEncoder</text>
</g>
<!-- node35&#45;&gt;node32 -->
<g id="edge59" class="edge">
<title>node35&#45;&gt;node32</title>
<path fill="none" stroke="black" stroke-dasharray="1,5" d="M323.11,-374.21C353.7,-360.81 400.05,-340.49 437.26,-324.18"/>
<polygon fill="black" stroke="black" points="438.75,-327.34 446.51,-320.12 435.94,-320.93 438.75,-327.34"/>
</g>
<!-- node35&#45;&gt;node34 -->
<g id="edge62" class="edge">
<title>node35&#45;&gt;node34</title>
<path fill="none" stroke="black" stroke-dasharray="1,5" d="M290.31,-371.52C290.31,-360.75 290.31,-346.43 290.31,-333.28"/>
<polygon fill="black" stroke="black" points="293.81,-333.07 290.31,-323.07 286.81,-333.07 293.81,-333.07"/>
</g>
<!-- node36 -->
<g id="node45" class="node">
<title>node36</title>
<polygon fill="none" stroke="black" points="180.44,-286.06 180.44,-307.64 127.65,-322.9 52.98,-322.9 0.19,-307.64 0.19,-286.06 52.98,-270.81 127.65,-270.81 180.44,-286.06"/>
<text text-anchor="middle" x="90.31" y="-300.25" font-family="Times New Roman,serif" font-size="12.00">TLibEncoder</text>
<text text-anchor="middle" x="90.31" y="-287.25" font-family="Times New Roman,serif" font-size="12.00">(TMIV::TLibEncoder)</text>
</g>
<!-- node35&#45;&gt;node36 -->
<g id="edge61" class="edge">
<title>node35&#45;&gt;node36</title>
<path fill="none" stroke="black" stroke-dasharray="1,5" d="M258.18,-374.01C228.58,-360.58 183.97,-340.34 148.17,-324.1"/>
<polygon fill="black" stroke="black" points="149.35,-320.79 138.8,-319.85 146.46,-327.17 149.35,-320.79"/>
</g>
<!-- node36&#45;&gt;node11 -->
<g id="edge60" class="edge">
<title>node36&#45;&gt;node11</title>
<path fill="none" stroke="black" d="M145.62,-275.94C184.25,-262.03 235.98,-243.4 276.7,-228.74"/>
<polygon fill="black" stroke="black" points="278.05,-231.97 286.27,-225.29 275.67,-225.39 278.05,-231.97"/>
</g>
<!-- node37 -->
<g id="node46" class="node">
<title>node37</title>
<polygon fill="none" stroke="black" points="591.42,-460.69 594.79,-460.78 598.14,-460.93 601.43,-461.13 604.66,-461.37 607.82,-461.66 610.89,-462 613.86,-462.38 616.72,-462.81 619.46,-463.28 622.07,-463.8 624.54,-464.35 626.86,-464.94 629.02,-465.58 631.02,-466.24 632.86,-466.94 634.52,-467.67 636,-468.44 637.31,-469.23 638.44,-470.04 639.39,-470.88 640.15,-471.75 640.74,-472.63 641.15,-473.52 641.38,-474.43 641.45,-475.36 641.34,-476.29 641.08,-477.22 640.65,-478.17 640.08,-479.11 639.36,-480.05 638.5,-480.99 637.51,-481.92 636.4,-482.84 635.16,-483.75 633.82,-484.65 632.38,-485.53 630.85,-486.39 629.22,-487.23 627.52,-488.04 625.74,-488.84 623.9,-489.6 622,-490.33 620.05,-491.03 618.05,-491.7 616,-492.33 613.92,-492.92 611.81,-493.48 609.67,-493.99 607.5,-494.46 605.32,-494.89 603.12,-495.27 600.9,-495.61 598.68,-495.9 596.44,-496.15 594.2,-496.34 591.95,-496.49 589.7,-496.59 587.44,-496.64 585.19,-496.64 582.93,-496.59 580.68,-496.49 578.43,-496.34 576.19,-496.15 573.95,-495.9 571.72,-495.61 569.51,-495.27 567.31,-494.89 565.12,-494.46 562.96,-493.99 560.82,-493.48 558.71,-492.92 556.62,-492.33 554.58,-491.7 552.58,-491.03 550.63,-490.33 548.72,-489.6 546.88,-488.84 545.11,-488.04 543.4,-487.23 541.78,-486.39 540.24,-485.53 538.8,-484.65 537.46,-483.75 536.23,-482.84 535.12,-481.92 534.13,-480.99 533.27,-480.05 532.55,-479.11 531.97,-478.17 531.55,-477.22 531.28,-476.29 531.18,-475.36 531.24,-474.43 531.48,-473.52 531.89,-472.63 532.47,-471.75 533.24,-470.88 534.19,-470.04 535.31,-469.23 536.62,-468.44 538.11,-467.67 539.77,-466.94 541.6,-466.24 543.61,-465.58 545.77,-464.94 548.09,-464.35 550.56,-463.8 553.17,-463.28 555.9,-462.81 558.76,-462.38 561.74,-462 564.81,-461.66 567.96,-461.37 571.2,-461.13 574.49,-460.93 577.83,-460.78 581.21,-460.69 584.61,-460.64 588.02,-460.64 591.42,-460.69"/>
<text text-anchor="middle" x="586.31" y="-475.54" font-family="Times New Roman,serif" font-size="12.00">VideoDecoder</text>
</g>
<!-- node37&#45;&gt;node9 -->
<g id="edge63" class="edge">
<title>node37&#45;&gt;node9</title>
<path fill="none" stroke="black" stroke-dasharray="1,5" d="M608.05,-461.47C622.95,-450.38 643.2,-435.32 661.2,-421.92"/>
<polygon fill="black" stroke="black" points="663.35,-424.69 669.28,-415.91 659.17,-419.07 663.35,-424.69"/>
</g>
<!-- node38 -->
<g id="node47" class="node">
<title>node38</title>
<polygon fill="none" stroke="black" points="1743.46,-371.64 1747.53,-371.74 1751.56,-371.89 1755.53,-372.08 1759.42,-372.33 1763.22,-372.62 1766.92,-372.96 1770.5,-373.34 1773.95,-373.77 1777.25,-374.24 1780.39,-374.75 1783.36,-375.31 1786.16,-375.9 1788.77,-376.53 1791.18,-377.2 1793.39,-377.9 1795.39,-378.63 1797.18,-379.39 1798.76,-380.18 1800.11,-381 1801.25,-381.84 1802.18,-382.7 1802.89,-383.58 1803.38,-384.48 1803.66,-385.39 1803.74,-386.31 1803.61,-387.24 1803.29,-388.18 1802.78,-389.12 1802.09,-390.06 1801.22,-391 1800.18,-391.94 1798.99,-392.87 1797.65,-393.79 1796.17,-394.71 1794.55,-395.6 1792.82,-396.48 1790.96,-397.34 1789.01,-398.18 1786.96,-399 1784.82,-399.79 1782.6,-400.55 1780.31,-401.29 1777.95,-401.99 1775.54,-402.65 1773.08,-403.28 1770.57,-403.88 1768.03,-404.43 1765.45,-404.94 1762.84,-405.42 1760.21,-405.84 1757.56,-406.23 1754.89,-406.56 1752.21,-406.86 1749.51,-407.1 1746.81,-407.3 1744.1,-407.44 1741.39,-407.54 1738.67,-407.59 1735.95,-407.59 1733.24,-407.54 1730.52,-407.44 1727.81,-407.3 1725.11,-407.1 1722.42,-406.86 1719.73,-406.56 1717.07,-406.23 1714.41,-405.84 1711.78,-405.42 1709.18,-404.94 1706.6,-404.43 1704.05,-403.88 1701.55,-403.28 1699.08,-402.65 1696.67,-401.99 1694.32,-401.29 1692.03,-400.55 1689.81,-399.79 1687.67,-399 1685.62,-398.18 1683.66,-397.34 1681.81,-396.48 1680.07,-395.6 1678.46,-394.71 1676.98,-393.79 1675.63,-392.87 1674.44,-391.94 1673.41,-391 1672.54,-390.06 1671.85,-389.12 1671.34,-388.18 1671.01,-387.24 1670.89,-386.31 1670.97,-385.39 1671.25,-384.48 1671.74,-383.58 1672.45,-382.7 1673.37,-381.84 1674.51,-381 1675.87,-380.18 1677.45,-379.39 1679.24,-378.63 1681.24,-377.9 1683.45,-377.2 1685.86,-376.53 1688.47,-375.9 1691.26,-375.31 1694.24,-374.75 1697.38,-374.24 1700.68,-373.77 1704.12,-373.34 1707.7,-372.96 1711.4,-372.62 1715.21,-372.33 1719.1,-372.08 1723.07,-371.89 1727.1,-371.74 1731.17,-371.64 1735.26,-371.59 1739.36,-371.59 1743.46,-371.64"/>
<text text-anchor="middle" x="1737.31" y="-386.49" font-family="Times New Roman,serif" font-size="12.00">ViewingSpaceTest</text>
</g>
<!-- node38&#45;&gt;node5 -->
<g id="edge64" class="edge">
<title>node38&#45;&gt;node5</title>
<path fill="none" stroke="black" stroke-dasharray="1,5" d="M1755.65,-371.95C1769.22,-359.64 1788.07,-342.53 1804.24,-327.86"/>
<polygon fill="black" stroke="black" points="1806.88,-330.19 1811.93,-320.88 1802.18,-325.01 1806.88,-330.19"/>
</g>
<!-- node38&#45;&gt;node17 -->
<g id="edge65" class="edge">
<title>node38&#45;&gt;node17</title>
<path fill="none" stroke="black" stroke-dasharray="1,5" d="M1717.69,-371.95C1703.79,-360.16 1684.72,-343.99 1667.94,-329.76"/>
<polygon fill="black" stroke="black" points="1669.81,-326.75 1659.91,-322.95 1665.28,-332.09 1669.81,-326.75"/>
</g>
<!-- node39 -->
<g id="node48" class="node">
<title>node39</title>
<polygon fill="none" stroke="black" points="1216.59,-683.67 1115.31,-704.36 1014.04,-683.67 1052.72,-650.2 1177.91,-650.2 1216.59,-683.67"/>
<text text-anchor="middle" x="1115.31" y="-677.82" font-family="Times New Roman,serif" font-size="12.00">fmt&#45;header&#45;only</text>
<text text-anchor="middle" x="1115.31" y="-664.82" font-family="Times New Roman,serif" font-size="12.00">(fmt::fmt&#45;header&#45;only)</text>
</g>
</g>
</svg>
