<?xml version="1.0" encoding="UTF-8" standalone="no"?>
<!DOCTYPE svg PUBLIC "-//W3C//DTD SVG 1.1//EN"
 "http://www.w3.org/Graphics/SVG/1.1/DTD/svg11.dtd">
<!-- Generated by graphviz version 2.50.0 (20211204.2007)
 -->
<!-- Title: TMIV Pages: 1 -->
<svg width="2394pt" height="809pt"
 viewBox="0.00 0.00 2393.91 809.36" xmlns="http://www.w3.org/2000/svg" xmlns:xlink="http://www.w3.org/1999/xlink">
<g id="graph0" class="graph" transform="scale(1 1) rotate(0) translate(4 805.36)">
<title>TMIV</title>
<polygon fill="white" stroke="transparent" points="-4,4 -4,-805.36 2389.91,-805.36 2389.91,4 -4,4"/>
<g id="clust1" class="cluster">
<title>clusterLegend</title>
<polygon fill="none" stroke="black" points="8,-534.29 8,-793.36 521,-793.36 521,-534.29 8,-534.29"/>
<text text-anchor="middle" x="264.5" y="-778.16" font-family="Times New Roman,serif" font-size="14.00">Legend</text>
</g>
<!-- legendNode0 -->
<g id="node1" class="node">
<title>legendNode0</title>
<polygon fill="none" stroke="black" points="274.98,-726.41 277.62,-726.51 280.23,-726.65 282.8,-726.85 285.32,-727.09 287.79,-727.39 290.18,-727.72 292.5,-728.11 294.74,-728.54 296.87,-729.01 298.91,-729.52 300.84,-730.07 302.65,-730.67 304.34,-731.3 305.9,-731.96 307.33,-732.67 308.63,-733.4 309.79,-734.16 310.81,-734.95 311.69,-735.77 312.43,-736.61 313.03,-737.47 313.48,-738.35 313.8,-739.25 313.99,-740.16 314.04,-741.08 313.95,-742.01 313.75,-742.95 313.41,-743.89 312.97,-744.83 312.4,-745.77 311.73,-746.71 310.96,-747.64 310.09,-748.56 309.13,-749.47 308.08,-750.37 306.96,-751.25 305.76,-752.11 304.49,-752.95 303.16,-753.77 301.78,-754.56 300.34,-755.32 298.86,-756.05 297.33,-756.75 295.77,-757.42 294.17,-758.05 292.55,-758.64 290.9,-759.2 289.23,-759.71 287.54,-760.18 285.84,-760.61 284.12,-761 282.39,-761.33 280.65,-761.62 278.91,-761.87 277.15,-762.06 275.4,-762.21 273.64,-762.31 271.88,-762.36 270.12,-762.36 268.36,-762.31 266.6,-762.21 264.85,-762.06 263.09,-761.87 261.35,-761.62 259.61,-761.33 257.88,-761 256.16,-760.61 254.46,-760.18 252.77,-759.71 251.1,-759.2 249.45,-758.64 247.83,-758.05 246.23,-757.42 244.67,-756.75 243.14,-756.05 241.66,-755.32 240.22,-754.56 238.84,-753.77 237.51,-752.95 236.24,-752.11 235.04,-751.25 233.92,-750.37 232.87,-749.47 231.91,-748.56 231.04,-747.64 230.27,-746.71 229.6,-745.77 229.03,-744.83 228.59,-743.89 228.25,-742.95 228.05,-742.01 227.96,-741.08 228.01,-740.16 228.2,-739.25 228.52,-738.35 228.97,-737.47 229.57,-736.61 230.31,-735.77 231.19,-734.95 232.21,-734.16 233.37,-733.4 234.67,-732.67 236.1,-731.96 237.66,-731.3 239.35,-730.67 241.16,-730.07 243.09,-729.52 245.13,-729.01 247.26,-728.54 249.5,-728.11 251.82,-727.72 254.21,-727.39 256.68,-727.09 259.2,-726.85 261.77,-726.65 264.38,-726.51 267.02,-726.41 269.67,-726.36 272.33,-726.36 274.98,-726.41"/>
<text text-anchor="middle" x="271" y="-741.26" font-family="Times New Roman,serif" font-size="12.00">Executable</text>
</g>
<!-- legendNode1 -->
<g id="node2" class="node">
<title>legendNode1</title>
<polygon fill="none" stroke="black" points="119.94,-655.88 119.94,-670.79 89.52,-681.34 46.48,-681.34 16.06,-670.79 16.06,-655.88 46.48,-645.34 89.52,-645.34 119.94,-655.88"/>
<text text-anchor="middle" x="68" y="-660.24" font-family="Times New Roman,serif" font-size="12.00">Static Library</text>
</g>
<!-- legendNode0&#45;&gt;legendNode1 -->
<g id="edge1" class="edge">
<title>legendNode0&#45;&gt;legendNode1</title>
<path fill="none" stroke="black" d="M237.91,-731.05C209.07,-720.26 166.16,-704.04 129,-689.36 122.71,-686.87 116.07,-684.2 109.57,-681.56"/>
<polygon fill="black" stroke="black" points="110.81,-678.28 100.23,-677.74 108.16,-684.76 110.81,-678.28"/>
</g>
<!-- legendNode2 -->
<g id="node3" class="node">
<title>legendNode2</title>
<polygon fill="none" stroke="black" points="255.76,-655.88 255.76,-670.79 222.51,-681.34 175.49,-681.34 142.24,-670.79 142.24,-655.88 175.49,-645.34 222.51,-645.34 255.76,-655.88"/>
<polygon fill="none" stroke="black" points="259.77,-652.96 259.77,-673.72 223.13,-685.34 174.87,-685.34 138.23,-673.72 138.23,-652.96 174.87,-641.34 223.13,-641.34 259.77,-652.96"/>
<text text-anchor="middle" x="199" y="-660.24" font-family="Times New Roman,serif" font-size="12.00">Shared Library</text>
</g>
<!-- legendNode0&#45;&gt;legendNode2 -->
<g id="edge2" class="edge">
<title>legendNode0&#45;&gt;legendNode2</title>
<path fill="none" stroke="black" d="M256.08,-726.99C247.18,-717.22 235.62,-704.53 225.24,-693.13"/>
<polygon fill="black" stroke="black" points="227.6,-690.53 218.28,-685.5 222.43,-695.25 227.6,-690.53"/>
</g>
<!-- legendNode3 -->
<g id="node4" class="node">
<title>legendNode3</title>
<polygon fill="none" stroke="black" points="402.75,-655.88 402.75,-670.79 368.34,-681.34 319.66,-681.34 285.25,-670.79 285.25,-655.88 319.66,-645.34 368.34,-645.34 402.75,-655.88"/>
<polygon fill="none" stroke="black" points="406.76,-652.92 406.76,-673.75 368.94,-685.34 319.06,-685.34 281.24,-673.75 281.24,-652.92 319.06,-641.34 368.94,-641.34 406.76,-652.92"/>
<polygon fill="none" stroke="black" points="410.77,-649.97 410.77,-676.71 369.54,-689.34 318.46,-689.34 277.23,-676.71 277.23,-649.97 318.46,-637.34 369.54,-637.34 410.77,-649.97"/>
<text text-anchor="middle" x="344" y="-660.24" font-family="Times New Roman,serif" font-size="12.00">Module Library</text>
</g>
<!-- legendNode0&#45;&gt;legendNode3 -->
<!-- legendNode7 -->
<g id="node8" class="node">
<title>legendNode7</title>
<polygon fill="none" stroke="black" points="513,-681.34 429,-681.34 429,-645.34 513,-645.34 513,-681.34"/>
<text text-anchor="middle" x="471" y="-660.24" font-family="Times New Roman,serif" font-size="12.00">Custom Target</text>
</g>
<!-- legendNode0&#45;&gt;legendNode7 -->
<!-- legendNode4 -->
<g id="node5" class="node">
<title>legendNode4</title>
<polygon fill="none" stroke="black" points="156.01,-565.85 86,-578.29 15.99,-565.85 42.73,-545.73 129.27,-545.73 156.01,-565.85"/>
<text text-anchor="middle" x="86" y="-557.19" font-family="Times New Roman,serif" font-size="12.00">Interface Library</text>
</g>
<!-- legendNode1&#45;&gt;legendNode4 -->
<g id="edge4" class="edge">
<title>legendNode1&#45;&gt;legendNode4</title>
<path fill="none" stroke="black" stroke-dasharray="5,2" d="M71.05,-645.2C73.85,-629.48 78.04,-605.95 81.28,-587.81"/>
<polygon fill="black" stroke="black" points="84.74,-588.3 83.05,-577.85 77.85,-587.08 84.74,-588.3"/>
<text text-anchor="middle" x="103.5" y="-608.11" font-family="Times New Roman,serif" font-size="14.00">Interface</text>
</g>
<!-- legendNode5 -->
<g id="node6" class="node">
<title>legendNode5</title>
<polygon fill="none" stroke="black" points="293.92,-560.29 263.96,-578.29 204.04,-578.29 174.08,-560.29 204.04,-542.29 263.96,-542.29 293.92,-560.29"/>
<text text-anchor="middle" x="234" y="-557.19" font-family="Times New Roman,serif" font-size="12.00">Object Library</text>
</g>
<!-- legendNode2&#45;&gt;legendNode5 -->
<g id="edge5" class="edge">
<title>legendNode2&#45;&gt;legendNode5</title>
<path fill="none" stroke="black" stroke-dasharray="1,5" d="M206.42,-640.91C211.77,-625.46 219.03,-604.51 224.76,-587.97"/>
<polygon fill="black" stroke="black" points="228.13,-588.93 228.09,-578.34 221.51,-586.64 228.13,-588.93"/>
<text text-anchor="middle" x="238.5" y="-608.11" font-family="Times New Roman,serif" font-size="14.00">Private</text>
</g>
<!-- legendNode6 -->
<g id="node7" class="node">
<title>legendNode6</title>
<polygon fill="none" stroke="black" points="444.05,-556.29 430.97,-571.51 378,-578.29 325.03,-571.51 311.95,-556.29 348.6,-544.07 407.4,-544.07 444.05,-556.29"/>
<text text-anchor="middle" x="378" y="-557.19" font-family="Times New Roman,serif" font-size="12.00">Unknown Library</text>
</g>
<!-- legendNode3&#45;&gt;legendNode6 -->
<g id="edge6" class="edge">
<title>legendNode3&#45;&gt;legendNode6</title>
<path fill="none" stroke="black" d="M352.49,-637.1C357.57,-622 364.02,-602.83 369.16,-587.55"/>
<polygon fill="black" stroke="black" points="372.61,-588.28 372.48,-577.69 365.98,-586.05 372.61,-588.28"/>
</g>
<!-- node0 -->
<g id="node9" class="node">
<title>node0</title>
<polygon fill="none" stroke="black" points="2385.81,-549.5 2385.81,-571.08 2330.27,-586.34 2251.73,-586.34 2196.19,-571.08 2196.19,-549.5 2251.73,-534.25 2330.27,-534.25 2385.81,-549.5"/>
<text text-anchor="middle" x="2291" y="-563.69" font-family="Times New Roman,serif" font-size="12.00">AggregatorLib</text>
<text text-anchor="middle" x="2291" y="-550.69" font-family="Times New Roman,serif" font-size="12.00">(TMIV::AggregatorLib)</text>
</g>
<!-- node1 -->
<g id="node10" class="node">
<title>node1</title>
<polygon fill="none" stroke="black" points="1591.03,-193.32 1591.03,-214.9 1539.47,-230.16 1466.53,-230.16 1414.97,-214.9 1414.97,-193.32 1466.53,-178.07 1539.47,-178.07 1591.03,-193.32"/>
<text text-anchor="middle" x="1503" y="-207.51" font-family="Times New Roman,serif" font-size="12.00">CommonLib</text>
<text text-anchor="middle" x="1503" y="-194.51" font-family="Times New Roman,serif" font-size="12.00">(TMIV::CommonLib)</text>
</g>
<!-- node0&#45;&gt;node1 -->
<g id="edge10" class="edge">
<title>node0&#45;&gt;node1</title>
<path fill="none" stroke="black" d="M2243.15,-536.42C2163.14,-498.3 1996.97,-419.69 1855,-356.18 1752.96,-310.53 1633.16,-259.7 1562.92,-230.17"/>
<polygon fill="black" stroke="black" points="1563.92,-226.79 1553.34,-226.15 1561.2,-233.25 1563.92,-226.79"/>
</g>
<!-- node2 -->
<g id="node11" class="node">
<title>node2</title>
<polygon fill="none" stroke="black" points="1984.07,-120.63 1912,-133.07 1839.93,-120.63 1867.46,-100.51 1956.54,-100.51 1984.07,-120.63"/>
<text text-anchor="middle" x="1912" y="-111.97" font-family="Times New Roman,serif" font-size="12.00">Threads::Threads</text>
</g>
<!-- node1&#45;&gt;node2 -->
<g id="edge8" class="edge">
<title>node1&#45;&gt;node2</title>
<path fill="none" stroke="black" stroke-dasharray="1,5" d="M1573.78,-188.05C1654.46,-170.88 1784.6,-143.18 1857.69,-127.63"/>
<polygon fill="black" stroke="black" points="1858.56,-131.02 1867.62,-125.51 1857.11,-124.17 1858.56,-131.02"/>
</g>
<!-- node3 -->
<g id="node12" class="node">
<title>node3</title>
<polygon fill="none" stroke="black" points="1546.75,-104.28 1546.75,-125.86 1521.12,-141.11 1484.88,-141.11 1459.25,-125.86 1459.25,-104.28 1484.88,-89.02 1521.12,-89.02 1546.75,-104.28"/>
<text text-anchor="middle" x="1503" y="-118.47" font-family="Times New Roman,serif" font-size="12.00">fmt</text>
<text text-anchor="middle" x="1503" y="-105.47" font-family="Times New Roman,serif" font-size="12.00">(fmt::fmt)</text>
</g>
<!-- node1&#45;&gt;node3 -->
<g id="edge9" class="edge">
<title>node1&#45;&gt;node3</title>
<path fill="none" stroke="black" d="M1503,-177.94C1503,-169.63 1503,-160.24 1503,-151.33"/>
<polygon fill="black" stroke="black" points="1506.5,-151.19 1503,-141.19 1499.5,-151.19 1506.5,-151.19"/>
</g>
<!-- node4 -->
<g id="node13" class="node">
<title>node4</title>
<polygon fill="none" stroke="black" points="1328.74,-364.25 1331.89,-364.35 1334.99,-364.5 1338.06,-364.69 1341.06,-364.94 1344,-365.23 1346.85,-365.57 1349.62,-365.95 1352.28,-366.38 1354.82,-366.85 1357.25,-367.36 1359.54,-367.92 1361.7,-368.51 1363.71,-369.14 1365.57,-369.81 1367.28,-370.51 1368.82,-371.24 1370.21,-372 1371.42,-372.79 1372.47,-373.61 1373.35,-374.45 1374.06,-375.31 1374.61,-376.19 1374.99,-377.09 1375.21,-378 1375.27,-378.92 1375.17,-379.85 1374.92,-380.79 1374.53,-381.73 1373.99,-382.67 1373.32,-383.62 1372.53,-384.55 1371.61,-385.48 1370.57,-386.41 1369.43,-387.32 1368.18,-388.21 1366.84,-389.09 1365.41,-389.95 1363.9,-390.79 1362.32,-391.61 1360.67,-392.4 1358.95,-393.16 1357.19,-393.9 1355.37,-394.6 1353.51,-395.26 1351.61,-395.89 1349.67,-396.49 1347.71,-397.04 1345.72,-397.56 1343.71,-398.03 1341.67,-398.45 1339.63,-398.84 1337.57,-399.18 1335.5,-399.47 1333.42,-399.71 1331.33,-399.91 1329.24,-400.05 1327.15,-400.15 1325.05,-400.2 1322.95,-400.2 1320.85,-400.15 1318.76,-400.05 1316.67,-399.91 1314.58,-399.71 1312.5,-399.47 1310.43,-399.18 1308.37,-398.84 1306.33,-398.45 1304.29,-398.03 1302.28,-397.56 1300.29,-397.04 1298.33,-396.49 1296.39,-395.89 1294.49,-395.26 1292.63,-394.6 1290.81,-393.9 1289.05,-393.16 1287.33,-392.4 1285.68,-391.61 1284.1,-390.79 1282.59,-389.95 1281.16,-389.09 1279.82,-388.21 1278.57,-387.32 1277.43,-386.41 1276.39,-385.48 1275.47,-384.55 1274.68,-383.62 1274.01,-382.67 1273.47,-381.73 1273.08,-380.79 1272.83,-379.85 1272.73,-378.92 1272.79,-378 1273.01,-377.09 1273.39,-376.19 1273.94,-375.31 1274.65,-374.45 1275.53,-373.61 1276.58,-372.79 1277.79,-372 1279.18,-371.24 1280.72,-370.51 1282.43,-369.81 1284.29,-369.14 1286.3,-368.51 1288.46,-367.92 1290.75,-367.36 1293.18,-366.85 1295.72,-366.38 1298.38,-365.95 1301.15,-365.57 1304,-365.23 1306.94,-364.94 1309.94,-364.69 1313.01,-364.5 1316.11,-364.35 1319.26,-364.25 1322.42,-364.2 1325.58,-364.2 1328.74,-364.25"/>
<text text-anchor="middle" x="1324" y="-379.1" font-family="Times New Roman,serif" font-size="12.00">BitrateReport</text>
</g>
<!-- node5 -->
<g id="node14" class="node">
<title>node5</title>
<polygon fill="none" stroke="black" points="1426.62,-282.37 1426.62,-303.95 1366.51,-319.2 1281.49,-319.2 1221.38,-303.95 1221.38,-282.37 1281.49,-267.11 1366.51,-267.11 1426.62,-282.37"/>
<text text-anchor="middle" x="1324" y="-296.56" font-family="Times New Roman,serif" font-size="12.00">MivBitstreamLib</text>
<text text-anchor="middle" x="1324" y="-283.56" font-family="Times New Roman,serif" font-size="12.00">(TMIV::MivBitstreamLib)</text>
</g>
<!-- node4&#45;&gt;node5 -->
<g id="edge12" class="edge">
<title>node4&#45;&gt;node5</title>
<path fill="none" stroke="black" stroke-dasharray="1,5" d="M1324,-364C1324,-354.12 1324,-341.33 1324,-329.4"/>
<polygon fill="black" stroke="black" points="1327.5,-329.23 1324,-319.23 1320.5,-329.23 1327.5,-329.23"/>
</g>
<!-- node5&#45;&gt;node1 -->
<g id="edge11" class="edge">
<title>node5&#45;&gt;node1</title>
<path fill="none" stroke="black" d="M1372.44,-268.6C1395.76,-257.26 1423.83,-243.61 1447.95,-231.88"/>
<polygon fill="black" stroke="black" points="1449.53,-235.01 1456.99,-227.49 1446.46,-228.71 1449.53,-235.01"/>
</g>
<!-- node6 -->
<g id="node15" class="node">
<title>node6</title>
<polygon fill="none" stroke="black" points="988.42,-645.39 990.68,-645.48 992.92,-645.63 995.12,-645.83 997.29,-646.07 999.4,-646.36 1001.46,-646.7 1003.45,-647.08 1005.37,-647.51 1007.2,-647.98 1008.95,-648.5 1010.6,-649.05 1012.15,-649.65 1013.6,-650.28 1014.94,-650.94 1016.17,-651.64 1017.28,-652.38 1018.28,-653.14 1019.15,-653.93 1019.91,-654.75 1020.54,-655.59 1021.06,-656.45 1021.45,-657.33 1021.72,-658.22 1021.88,-659.13 1021.92,-660.06 1021.85,-660.99 1021.68,-661.92 1021.39,-662.87 1021.01,-663.81 1020.52,-664.75 1019.95,-665.69 1019.29,-666.62 1018.54,-667.54 1017.72,-668.45 1016.82,-669.35 1015.85,-670.23 1014.82,-671.09 1013.74,-671.93 1012.6,-672.75 1011.41,-673.54 1010.17,-674.3 1008.9,-675.03 1007.59,-675.73 1006.25,-676.4 1004.88,-677.03 1003.49,-677.62 1002.07,-678.18 1000.64,-678.69 999.19,-679.16 997.73,-679.59 996.26,-679.97 994.77,-680.31 993.28,-680.6 991.78,-680.85 990.28,-681.04 988.77,-681.19 987.27,-681.29 985.76,-681.34 984.24,-681.34 982.73,-681.29 981.23,-681.19 979.72,-681.04 978.22,-680.85 976.72,-680.6 975.23,-680.31 973.74,-679.97 972.27,-679.59 970.81,-679.16 969.36,-678.69 967.93,-678.18 966.51,-677.62 965.12,-677.03 963.75,-676.4 962.41,-675.73 961.1,-675.03 959.83,-674.3 958.59,-673.54 957.4,-672.75 956.26,-671.93 955.18,-671.09 954.15,-670.23 953.18,-669.35 952.28,-668.45 951.46,-667.54 950.71,-666.62 950.05,-665.69 949.48,-664.75 948.99,-663.81 948.61,-662.87 948.32,-661.92 948.15,-660.99 948.08,-660.06 948.12,-659.13 948.28,-658.22 948.55,-657.33 948.94,-656.45 949.46,-655.59 950.09,-654.75 950.85,-653.93 951.72,-653.14 952.72,-652.38 953.83,-651.64 955.06,-650.94 956.4,-650.28 957.85,-649.65 959.4,-649.05 961.05,-648.5 962.8,-647.98 964.63,-647.51 966.55,-647.08 968.54,-646.7 970.6,-646.36 972.71,-646.07 974.88,-645.83 977.08,-645.63 979.32,-645.48 981.58,-645.39 983.86,-645.34 986.14,-645.34 988.42,-645.39"/>
<text text-anchor="middle" x="985" y="-660.24" font-family="Times New Roman,serif" font-size="12.00">Decoder</text>
</g>
<!-- node7 -->
<g id="node16" class="node">
<title>node7</title>
<polygon fill="none" stroke="black" points="1071.47,-549.5 1071.47,-571.08 1020.82,-586.34 949.18,-586.34 898.53,-571.08 898.53,-549.5 949.18,-534.25 1020.82,-534.25 1071.47,-549.5"/>
<text text-anchor="middle" x="985" y="-563.69" font-family="Times New Roman,serif" font-size="12.00">DecoderLib</text>
<text text-anchor="middle" x="985" y="-550.69" font-family="Times New Roman,serif" font-size="12.00">(TMIV::DecoderLib)</text>
</g>
<!-- node6&#45;&gt;node7 -->
<g id="edge15" class="edge">
<title>node6&#45;&gt;node7</title>
<path fill="none" stroke="black" stroke-dasharray="1,5" d="M985,-645.2C985,-631.99 985,-613.27 985,-596.86"/>
<polygon fill="black" stroke="black" points="988.5,-596.49 985,-586.49 981.5,-596.49 988.5,-596.49"/>
</g>
<!-- node9 -->
<g id="node18" class="node">
<title>node9</title>
<polygon fill="none" stroke="black" points="1304.3,-549.5 1304.3,-571.08 1241.45,-586.34 1152.55,-586.34 1089.7,-571.08 1089.7,-549.5 1152.55,-534.25 1241.45,-534.25 1304.3,-549.5"/>
<text text-anchor="middle" x="1197" y="-563.69" font-family="Times New Roman,serif" font-size="12.00">RendererFrontLib</text>
<text text-anchor="middle" x="1197" y="-550.69" font-family="Times New Roman,serif" font-size="12.00">(TMIV::RendererFrontLib)</text>
</g>
<!-- node6&#45;&gt;node9 -->
<g id="edge22" class="edge">
<title>node6&#45;&gt;node9</title>
<path fill="none" stroke="black" stroke-dasharray="1,5" d="M1012.28,-649.33C1043.89,-634.27 1096.89,-609.01 1138.03,-589.4"/>
<polygon fill="black" stroke="black" points="1139.62,-592.52 1147.14,-585.05 1136.61,-586.2 1139.62,-592.52"/>
</g>
<!-- node13 -->
<g id="node22" class="node">
<title>node13</title>
<polygon fill="none" stroke="black" points="1129.3,-282.37 1129.3,-303.95 1066.45,-319.2 977.55,-319.2 914.7,-303.95 914.7,-282.37 977.55,-267.11 1066.45,-267.11 1129.3,-282.37"/>
<text text-anchor="middle" x="1022" y="-296.56" font-family="Times New Roman,serif" font-size="12.00">VideoDecoderLib</text>
<text text-anchor="middle" x="1022" y="-283.56" font-family="Times New Roman,serif" font-size="12.00">(TMIV::VideoDecoderLib)</text>
</g>
<!-- node6&#45;&gt;node13 -->
<g id="edge29" class="edge">
<title>node6&#45;&gt;node13</title>
<path fill="none" stroke="black" stroke-dasharray="1,5" d="M948.23,-658.26C903.01,-651.32 826.76,-633.07 782,-586.31 737.73,-540.07 732.93,-506.01 753,-445.22 768.45,-398.45 779.36,-385.43 819,-356.18 848.95,-334.08 886.87,-319.77 921.8,-310.53"/>
<polygon fill="black" stroke="black" points="922.73,-313.91 931.57,-308.06 921.02,-307.12 922.73,-313.91"/>
</g>
<!-- node8 -->
<g id="node17" class="node">
<title>node8</title>
<polygon fill="none" stroke="black" points="1139.81,-460.46 1139.81,-482.04 1084.27,-497.29 1005.73,-497.29 950.19,-482.04 950.19,-460.46 1005.73,-445.2 1084.27,-445.2 1139.81,-460.46"/>
<text text-anchor="middle" x="1045" y="-474.65" font-family="Times New Roman,serif" font-size="12.00">PtlCheckerLib</text>
<text text-anchor="middle" x="1045" y="-461.65" font-family="Times New Roman,serif" font-size="12.00">(TMIV::PtlCheckerLib)</text>
</g>
<!-- node7&#45;&gt;node8 -->
<g id="edge14" class="edge">
<title>node7&#45;&gt;node8</title>
<path fill="none" stroke="black" d="M1002.35,-534.12C1008.45,-525.27 1015.4,-515.2 1021.89,-505.78"/>
<polygon fill="black" stroke="black" points="1024.89,-507.59 1027.68,-497.37 1019.13,-503.61 1024.89,-507.59"/>
</g>
<!-- node8&#45;&gt;node5 -->
<g id="edge13" class="edge">
<title>node8&#45;&gt;node5</title>
<path fill="none" stroke="black" d="M1048.24,-445.16C1052.92,-419.18 1064.07,-379.24 1090,-356.18 1123.21,-326.63 1168.93,-310.91 1211.14,-302.64"/>
<polygon fill="black" stroke="black" points="1212.01,-306.04 1221.22,-300.79 1210.75,-299.15 1212.01,-306.04"/>
</g>
<!-- node10 -->
<g id="node19" class="node">
<title>node10</title>
<polygon fill="none" stroke="black" points="893.64,-460.46 893.64,-482.04 855.19,-497.29 800.81,-497.29 762.36,-482.04 762.36,-460.46 800.81,-445.2 855.19,-445.2 893.64,-460.46"/>
<text text-anchor="middle" x="828" y="-474.65" font-family="Times New Roman,serif" font-size="12.00">IOLib</text>
<text text-anchor="middle" x="828" y="-461.65" font-family="Times New Roman,serif" font-size="12.00">(TMIV::IOLib)</text>
</g>
<!-- node9&#45;&gt;node10 -->
<g id="edge17" class="edge">
<title>node9&#45;&gt;node10</title>
<path fill="none" stroke="black" d="M1121.88,-541.57C1055.28,-525.86 958.9,-503.13 894.9,-488.03"/>
<polygon fill="black" stroke="black" points="895.45,-484.56 884.91,-485.67 893.84,-491.38 895.45,-484.56"/>
</g>
<!-- node11 -->
<g id="node20" class="node">
<title>node11</title>
<polygon fill="none" stroke="black" points="1868.03,-460.46 1868.03,-482.04 1816.47,-497.29 1743.53,-497.29 1691.97,-482.04 1691.97,-460.46 1743.53,-445.2 1816.47,-445.2 1868.03,-460.46"/>
<text text-anchor="middle" x="1780" y="-474.65" font-family="Times New Roman,serif" font-size="12.00">RendererLib</text>
<text text-anchor="middle" x="1780" y="-461.65" font-family="Times New Roman,serif" font-size="12.00">(TMIV::RendererLib)</text>
</g>
<!-- node9&#45;&gt;node11 -->
<g id="edge21" class="edge">
<title>node9&#45;&gt;node11</title>
<path fill="none" stroke="black" d="M1273.61,-542.01C1287.04,-539.24 1300.9,-536.54 1314,-534.27 1382.99,-522.32 1568.82,-498.53 1683.89,-484.14"/>
<polygon fill="black" stroke="black" points="1684.62,-487.57 1694.11,-482.86 1683.75,-480.63 1684.62,-487.57"/>
</g>
<!-- node10&#45;&gt;node5 -->
<g id="edge16" class="edge">
<title>node10&#45;&gt;node5</title>
<path fill="none" stroke="black" d="M823.61,-445.08C820.65,-419.05 820.79,-379.06 844,-356.18 890.89,-309.95 1072.7,-327.68 1138,-319.18 1165.19,-315.64 1194.61,-311.72 1221.85,-308.06"/>
<polygon fill="black" stroke="black" points="1222.34,-311.53 1231.78,-306.72 1221.4,-304.59 1222.34,-311.53"/>
</g>
<!-- node11&#45;&gt;node2 -->
<g id="edge18" class="edge">
<title>node11&#45;&gt;node2</title>
<path fill="none" stroke="black" stroke-dasharray="1,5" d="M1826.17,-447.83C1864.23,-425.75 1912,-388.1 1912,-338.18 1912,-338.18 1912,-338.18 1912,-203.11 1912,-183.15 1912,-160.62 1912,-143.48"/>
<polygon fill="black" stroke="black" points="1915.5,-143.08 1912,-133.08 1908.5,-143.08 1915.5,-143.08"/>
</g>
<!-- node12 -->
<g id="node21" class="node">
<title>node12</title>
<polygon fill="none" stroke="black" points="1845.74,-371.41 1845.74,-392.99 1783.8,-408.25 1696.2,-408.25 1634.26,-392.99 1634.26,-371.41 1696.2,-356.16 1783.8,-356.16 1845.74,-371.41"/>
<text text-anchor="middle" x="1740" y="-385.6" font-family="Times New Roman,serif" font-size="12.00">ViewingSpaceLib</text>
<text text-anchor="middle" x="1740" y="-372.6" font-family="Times New Roman,serif" font-size="12.00">(TMIV::ViewingSpaceLib)</text>
</g>
<!-- node11&#45;&gt;node12 -->
<g id="edge20" class="edge">
<title>node11&#45;&gt;node12</title>
<path fill="none" stroke="black" d="M1768.43,-445.07C1764.49,-436.5 1760.02,-426.77 1755.81,-417.6"/>
<polygon fill="black" stroke="black" points="1758.9,-415.95 1751.54,-408.32 1752.54,-418.87 1758.9,-415.95"/>
</g>
<!-- node12&#45;&gt;node5 -->
<g id="edge19" class="edge">
<title>node12&#45;&gt;node5</title>
<path fill="none" stroke="black" d="M1663.38,-364.24C1650.89,-361.51 1638.09,-358.75 1626,-356.18 1554.33,-340.96 1472.97,-324.28 1412.76,-312.06"/>
<polygon fill="black" stroke="black" points="1413.41,-308.62 1402.91,-310.06 1412.01,-315.48 1413.41,-308.62"/>
</g>
<!-- node13&#45;&gt;node1 -->
<g id="edge23" class="edge">
<title>node13&#45;&gt;node1</title>
<path fill="none" stroke="black" d="M1106.61,-276.85C1194.08,-261.02 1329.9,-236.44 1417.64,-220.56"/>
<polygon fill="black" stroke="black" points="1418.35,-223.99 1427.57,-218.76 1417.11,-217.1 1418.35,-223.99"/>
</g>
<!-- node14 -->
<g id="node23" class="node">
<title>node14</title>
<polygon fill="none" stroke="black" points="1113.16,-193.32 1113.16,-214.9 1059.76,-230.16 984.24,-230.16 930.84,-214.9 930.84,-193.32 984.24,-178.07 1059.76,-178.07 1113.16,-193.32"/>
<text text-anchor="middle" x="1022" y="-207.51" font-family="Times New Roman,serif" font-size="12.00">TLibDecoder</text>
<text text-anchor="middle" x="1022" y="-194.51" font-family="Times New Roman,serif" font-size="12.00">(TMIV::TLibDecoder)</text>
</g>
<!-- node13&#45;&gt;node14 -->
<g id="edge26" class="edge">
<title>node13&#45;&gt;node14</title>
<path fill="none" stroke="black" stroke-dasharray="1,5" d="M1022,-266.98C1022,-258.68 1022,-249.29 1022,-240.38"/>
<polygon fill="black" stroke="black" points="1025.5,-240.23 1022,-230.23 1018.5,-240.23 1025.5,-240.23"/>
</g>
<!-- node17 -->
<g id="node26" class="node">
<title>node17</title>
<polygon fill="none" stroke="black" points="1846.14,-196.66 1846.14,-211.57 1829.07,-222.11 1804.93,-222.11 1787.86,-211.57 1787.86,-196.66 1804.93,-186.11 1829.07,-186.11 1846.14,-196.66"/>
<text text-anchor="middle" x="1817" y="-201.01" font-family="Times New Roman,serif" font-size="12.00">vvdec</text>
</g>
<!-- node13&#45;&gt;node17 -->
<g id="edge28" class="edge">
<title>node13&#45;&gt;node17</title>
<path fill="none" stroke="black" stroke-dasharray="1,5" d="M1116.14,-279.08C1146.69,-275.02 1180.76,-270.68 1212,-267.13 1384.12,-247.6 1427.73,-248.28 1600,-230.13 1662.02,-223.6 1733.9,-215.14 1777.38,-209.92"/>
<polygon fill="black" stroke="black" points="1778.03,-213.37 1787.54,-208.7 1777.19,-206.42 1778.03,-213.37"/>
</g>
<!-- node15 -->
<g id="node24" class="node">
<title>node15</title>
<polygon fill="none" stroke="black" points="1115.25,-104.28 1115.25,-125.86 1060.63,-141.11 983.37,-141.11 928.75,-125.86 928.75,-104.28 983.37,-89.02 1060.63,-89.02 1115.25,-104.28"/>
<text text-anchor="middle" x="1022" y="-118.47" font-family="Times New Roman,serif" font-size="12.00">TLibCommon</text>
<text text-anchor="middle" x="1022" y="-105.47" font-family="Times New Roman,serif" font-size="12.00">(TMIV::TLibCommon)</text>
</g>
<!-- node14&#45;&gt;node15 -->
<g id="edge25" class="edge">
<title>node14&#45;&gt;node15</title>
<path fill="none" stroke="black" d="M1022,-177.94C1022,-169.63 1022,-160.24 1022,-151.33"/>
<polygon fill="black" stroke="black" points="1025.5,-151.19 1022,-141.19 1018.5,-151.19 1025.5,-151.19"/>
</g>
<!-- node16 -->
<g id="node25" class="node">
<title>node16</title>
<polygon fill="none" stroke="black" points="1090.24,-15.23 1090.24,-36.81 1050.26,-52.07 993.74,-52.07 953.76,-36.81 953.76,-15.23 993.74,0.02 1050.26,0.02 1090.24,-15.23"/>
<text text-anchor="middle" x="1022" y="-29.42" font-family="Times New Roman,serif" font-size="12.00">libmd5</text>
<text text-anchor="middle" x="1022" y="-16.42" font-family="Times New Roman,serif" font-size="12.00">(TMIV::libmd5)</text>
</g>
<!-- node15&#45;&gt;node16 -->
<g id="edge24" class="edge">
<title>node15&#45;&gt;node16</title>
<path fill="none" stroke="black" stroke-dasharray="1,5" d="M1022,-88.89C1022,-80.59 1022,-71.2 1022,-62.29"/>
<polygon fill="black" stroke="black" points="1025.5,-62.14 1022,-52.14 1018.5,-62.14 1025.5,-62.14"/>
</g>
<!-- node17&#45;&gt;node2 -->
<g id="edge27" class="edge">
<title>node17&#45;&gt;node2</title>
<path fill="none" stroke="black" d="M1831.73,-187.23C1839.86,-178.67 1850.25,-168.06 1860,-159.09 1868.23,-151.51 1877.56,-143.6 1886.01,-136.66"/>
<polygon fill="black" stroke="black" points="1888.23,-139.37 1893.79,-130.35 1883.82,-133.93 1888.23,-139.37"/>
</g>
<!-- node18 -->
<g id="node27" class="node">
<title>node18</title>
<polygon fill="none" stroke="black" points="1768.35,-549.5 1768.35,-571.08 1690.23,-586.34 1579.77,-586.34 1501.65,-571.08 1501.65,-549.5 1579.77,-534.25 1690.23,-534.25 1768.35,-549.5"/>
<text text-anchor="middle" x="1635" y="-563.69" font-family="Times New Roman,serif" font-size="12.00">DepthQualityAssessorLib</text>
<text text-anchor="middle" x="1635" y="-550.69" font-family="Times New Roman,serif" font-size="12.00">(TMIV::DepthQualityAssessorLib)</text>
</g>
<!-- node18&#45;&gt;node11 -->
<g id="edge30" class="edge">
<title>node18&#45;&gt;node11</title>
<path fill="none" stroke="black" d="M1676.94,-534.12C1693.75,-524.02 1713.24,-512.32 1730.72,-501.83"/>
<polygon fill="black" stroke="black" points="1732.88,-504.62 1739.65,-496.47 1729.28,-498.61 1732.88,-504.62"/>
</g>
<!-- node19 -->
<g id="node28" class="node">
<title>node19</title>
<polygon fill="none" stroke="black" points="603.34,-726.41 605.55,-726.51 607.74,-726.65 609.9,-726.85 612.02,-727.09 614.09,-727.39 616.1,-727.72 618.04,-728.11 619.92,-728.54 621.71,-729.01 623.42,-729.52 625.04,-730.07 626.56,-730.67 627.97,-731.3 629.28,-731.96 630.48,-732.67 631.57,-733.4 632.55,-734.16 633.4,-734.95 634.14,-735.77 634.76,-736.61 635.26,-737.47 635.65,-738.35 635.92,-739.25 636.07,-740.16 636.11,-741.08 636.04,-742.01 635.87,-742.95 635.59,-743.89 635.21,-744.83 634.74,-745.77 634.18,-746.71 633.53,-747.64 632.8,-748.56 632,-749.47 631.12,-750.37 630.17,-751.25 629.17,-752.11 628.1,-752.95 626.99,-753.77 625.83,-754.56 624.62,-755.32 623.37,-756.05 622.09,-756.75 620.78,-757.42 619.45,-758.05 618.08,-758.64 616.7,-759.2 615.3,-759.71 613.88,-760.18 612.45,-760.61 611.01,-761 609.56,-761.33 608.1,-761.62 606.63,-761.87 605.16,-762.06 603.69,-762.21 602.22,-762.31 600.74,-762.36 599.26,-762.36 597.78,-762.31 596.31,-762.21 594.84,-762.06 593.37,-761.87 591.9,-761.62 590.44,-761.33 588.99,-761 587.55,-760.61 586.12,-760.18 584.7,-759.71 583.3,-759.2 581.92,-758.64 580.55,-758.05 579.22,-757.42 577.91,-756.75 576.63,-756.05 575.38,-755.32 574.17,-754.56 573.01,-753.77 571.9,-752.95 570.83,-752.11 569.83,-751.25 568.88,-750.37 568,-749.47 567.2,-748.56 566.47,-747.64 565.82,-746.71 565.26,-745.77 564.79,-744.83 564.41,-743.89 564.13,-742.95 563.96,-742.01 563.89,-741.08 563.93,-740.16 564.08,-739.25 564.35,-738.35 564.74,-737.47 565.24,-736.61 565.86,-735.77 566.6,-734.95 567.45,-734.16 568.43,-733.4 569.52,-732.67 570.72,-731.96 572.03,-731.3 573.44,-730.67 574.96,-730.07 576.58,-729.52 578.29,-729.01 580.08,-728.54 581.96,-728.11 583.9,-727.72 585.91,-727.39 587.98,-727.09 590.1,-726.85 592.26,-726.65 594.45,-726.51 596.66,-726.41 598.88,-726.36 601.12,-726.36 603.34,-726.41"/>
<text text-anchor="middle" x="600" y="-741.26" font-family="Times New Roman,serif" font-size="12.00">Encoder</text>
</g>
<!-- node19&#45;&gt;node10 -->
<g id="edge40" class="edge">
<title>node19&#45;&gt;node10</title>
<path fill="none" stroke="black" stroke-dasharray="1,5" d="M589.03,-726.89C565.05,-688.63 513.66,-592.56 560,-534.27 583.65,-504.52 681.5,-487.79 752.13,-479.39"/>
<polygon fill="black" stroke="black" points="752.81,-482.83 762.35,-478.21 752.01,-475.88 752.81,-482.83"/>
</g>
<!-- node20 -->
<g id="node29" class="node">
<title>node20</title>
<polygon fill="none" stroke="black" points="1719.91,-652.55 1719.91,-674.13 1670.17,-689.38 1599.83,-689.38 1550.09,-674.13 1550.09,-652.55 1599.83,-637.29 1670.17,-637.29 1719.91,-652.55"/>
<text text-anchor="middle" x="1635" y="-666.74" font-family="Times New Roman,serif" font-size="12.00">EncoderLib</text>
<text text-anchor="middle" x="1635" y="-653.74" font-family="Times New Roman,serif" font-size="12.00">(TMIV::EncoderLib)</text>
</g>
<!-- node19&#45;&gt;node20 -->
<g id="edge39" class="edge">
<title>node19&#45;&gt;node20</title>
<path fill="none" stroke="black" stroke-dasharray="1,5" d="M633.66,-734.98C647.87,-731.76 664.66,-728.38 680,-726.36 992.4,-685.26 1073.83,-713.47 1388,-689.36 1438.14,-685.51 1493.88,-679.97 1539.71,-675.09"/>
<polygon fill="black" stroke="black" points="1540.36,-678.54 1549.93,-673.99 1539.61,-671.58 1540.36,-678.54"/>
</g>
<!-- node20&#45;&gt;node0 -->
<g id="edge31" class="edge">
<title>node20&#45;&gt;node0</title>
<path fill="none" stroke="black" d="M1720.06,-653.28C1828.84,-641.08 2022.78,-617.3 2187,-586.31 2195.55,-584.7 2204.46,-582.84 2213.3,-580.88"/>
<polygon fill="black" stroke="black" points="2214.26,-584.25 2223.24,-578.62 2212.71,-577.42 2214.26,-584.25"/>
</g>
<!-- node20&#45;&gt;node18 -->
<g id="edge32" class="edge">
<title>node20&#45;&gt;node18</title>
<path fill="none" stroke="black" d="M1635,-637.1C1635,-624.92 1635,-610.11 1635,-596.81"/>
<polygon fill="black" stroke="black" points="1638.5,-596.56 1635,-586.56 1631.5,-596.56 1638.5,-596.56"/>
</g>
<!-- node21 -->
<g id="node30" class="node">
<title>node21</title>
<polygon fill="none" stroke="black" points="1483.23,-549.5 1483.23,-571.08 1436.23,-586.34 1369.77,-586.34 1322.77,-571.08 1322.77,-549.5 1369.77,-534.25 1436.23,-534.25 1483.23,-549.5"/>
<text text-anchor="middle" x="1403" y="-563.69" font-family="Times New Roman,serif" font-size="12.00">PackerLib</text>
<text text-anchor="middle" x="1403" y="-550.69" font-family="Times New Roman,serif" font-size="12.00">(TMIV::PackerLib)</text>
</g>
<!-- node20&#45;&gt;node21 -->
<g id="edge34" class="edge">
<title>node20&#45;&gt;node21</title>
<path fill="none" stroke="black" d="M1586.65,-641.28C1549.8,-625.23 1498.95,-603.08 1460.1,-586.16"/>
<polygon fill="black" stroke="black" points="1461.06,-582.76 1450.5,-581.98 1458.27,-589.18 1461.06,-582.76"/>
</g>
<!-- node22 -->
<g id="node31" class="node">
<title>node22</title>
<polygon fill="none" stroke="black" points="2177.67,-549.5 2177.67,-571.08 2131.58,-586.34 2066.42,-586.34 2020.33,-571.08 2020.33,-549.5 2066.42,-534.25 2131.58,-534.25 2177.67,-549.5"/>
<text text-anchor="middle" x="2099" y="-563.69" font-family="Times New Roman,serif" font-size="12.00">PrunerLib</text>
<text text-anchor="middle" x="2099" y="-550.69" font-family="Times New Roman,serif" font-size="12.00">(TMIV::PrunerLib)</text>
</g>
<!-- node20&#45;&gt;node22 -->
<g id="edge36" class="edge">
<title>node20&#45;&gt;node22</title>
<path fill="none" stroke="black" d="M1708.86,-649.15C1784.95,-635.17 1906.81,-611.62 2011,-586.31 2017.9,-584.64 2025.07,-582.79 2032.21,-580.87"/>
<polygon fill="black" stroke="black" points="2033.17,-584.24 2041.89,-578.23 2031.32,-577.48 2033.17,-584.24"/>
</g>
<!-- node23 -->
<g id="node32" class="node">
<title>node23</title>
<polygon fill="none" stroke="black" points="2001.83,-549.5 2001.83,-571.08 1938.67,-586.34 1849.33,-586.34 1786.17,-571.08 1786.17,-549.5 1849.33,-534.25 1938.67,-534.25 2001.83,-549.5"/>
<text text-anchor="middle" x="1894" y="-563.69" font-family="Times New Roman,serif" font-size="12.00">ViewOptimizerLib</text>
<text text-anchor="middle" x="1894" y="-550.69" font-family="Times New Roman,serif" font-size="12.00">(TMIV::ViewOptimizerLib)</text>
</g>
<!-- node20&#45;&gt;node23 -->
<g id="edge38" class="edge">
<title>node20&#45;&gt;node23</title>
<path fill="none" stroke="black" d="M1686.48,-642.25C1727.02,-626.44 1783.84,-604.27 1827.77,-587.13"/>
<polygon fill="black" stroke="black" points="1829.18,-590.34 1837.22,-583.44 1826.63,-583.82 1829.18,-590.34"/>
</g>
<!-- node21&#45;&gt;node5 -->
<g id="edge33" class="edge">
<title>node21&#45;&gt;node5</title>
<path fill="none" stroke="black" d="M1405.8,-534.18C1409.13,-494.41 1411.23,-415.39 1384,-356.18 1379.06,-345.44 1371.47,-335.43 1363.33,-326.72"/>
<polygon fill="black" stroke="black" points="1365.61,-324.05 1356.08,-319.41 1360.64,-328.98 1365.61,-324.05"/>
</g>
<!-- node22&#45;&gt;node11 -->
<g id="edge35" class="edge">
<title>node22&#45;&gt;node11</title>
<path fill="none" stroke="black" d="M2042.46,-542.06C2032.06,-539.22 2021.25,-536.49 2011,-534.27 1958.29,-522.87 1943.07,-530.3 1891,-516.27 1873.1,-511.45 1854.16,-504.62 1837.09,-497.78"/>
<polygon fill="black" stroke="black" points="1838.39,-494.53 1827.81,-493.99 1835.75,-501.01 1838.39,-494.53"/>
</g>
<!-- node23&#45;&gt;node11 -->
<g id="edge37" class="edge">
<title>node23&#45;&gt;node11</title>
<path fill="none" stroke="black" d="M1861.03,-534.12C1848.5,-524.55 1834.08,-513.54 1820.91,-503.48"/>
<polygon fill="black" stroke="black" points="1822.97,-500.65 1812.9,-497.37 1818.72,-506.22 1822.97,-500.65"/>
</g>
<!-- node24 -->
<g id="node33" class="node">
<title>node24</title>
<polygon fill="none" stroke="black" points="1527.95,-453.3 1530.57,-453.4 1533.16,-453.54 1535.71,-453.74 1538.22,-453.98 1540.67,-454.27 1543.04,-454.61 1545.35,-455 1547.56,-455.42 1549.69,-455.89 1551.71,-456.41 1553.62,-456.96 1555.42,-457.56 1557.09,-458.19 1558.64,-458.85 1560.07,-459.55 1561.35,-460.29 1562.51,-461.05 1563.52,-461.84 1564.39,-462.66 1565.13,-463.5 1565.72,-464.36 1566.18,-465.24 1566.49,-466.13 1566.67,-467.04 1566.72,-467.97 1566.64,-468.9 1566.44,-469.83 1566.11,-470.78 1565.66,-471.72 1565.1,-472.66 1564.44,-473.6 1563.67,-474.53 1562.81,-475.45 1561.85,-476.36 1560.82,-477.26 1559.7,-478.14 1558.51,-479 1557.25,-479.84 1555.93,-480.66 1554.55,-481.45 1553.13,-482.21 1551.65,-482.94 1550.14,-483.64 1548.59,-484.31 1547.01,-484.94 1545.39,-485.53 1543.76,-486.09 1542.1,-486.6 1540.42,-487.07 1538.73,-487.5 1537.02,-487.88 1535.31,-488.22 1533.58,-488.51 1531.85,-488.76 1530.11,-488.95 1528.37,-489.1 1526.62,-489.2 1524.87,-489.25 1523.13,-489.25 1521.38,-489.2 1519.63,-489.1 1517.89,-488.95 1516.15,-488.76 1514.42,-488.51 1512.69,-488.22 1510.98,-487.88 1509.27,-487.5 1507.58,-487.07 1505.9,-486.6 1504.24,-486.09 1502.61,-485.53 1500.99,-484.94 1499.41,-484.31 1497.86,-483.64 1496.35,-482.94 1494.87,-482.21 1493.45,-481.45 1492.07,-480.66 1490.75,-479.84 1489.49,-479 1488.3,-478.14 1487.18,-477.26 1486.15,-476.36 1485.19,-475.45 1484.33,-474.53 1483.56,-473.6 1482.9,-472.66 1482.34,-471.72 1481.89,-470.78 1481.56,-469.83 1481.36,-468.9 1481.28,-467.97 1481.33,-467.04 1481.51,-466.13 1481.82,-465.24 1482.28,-464.36 1482.87,-463.5 1483.61,-462.66 1484.48,-461.84 1485.49,-461.05 1486.65,-460.29 1487.93,-459.55 1489.36,-458.85 1490.91,-458.19 1492.58,-457.56 1494.38,-456.96 1496.29,-456.41 1498.31,-455.89 1500.44,-455.42 1502.65,-455 1504.96,-454.61 1507.33,-454.27 1509.78,-453.98 1512.29,-453.74 1514.84,-453.54 1517.43,-453.4 1520.05,-453.3 1522.68,-453.25 1525.32,-453.25 1527.95,-453.3"/>
<text text-anchor="middle" x="1524" y="-468.15" font-family="Times New Roman,serif" font-size="12.00">GaInserter</text>
</g>
<!-- node25 -->
<g id="node34" class="node">
<title>node25</title>
<polygon fill="none" stroke="black" points="1616.72,-371.41 1616.72,-392.99 1562.41,-408.25 1485.59,-408.25 1431.28,-392.99 1431.28,-371.41 1485.59,-356.16 1562.41,-356.16 1616.72,-371.41"/>
<text text-anchor="middle" x="1524" y="-385.6" font-family="Times New Roman,serif" font-size="12.00">GaInserterLib</text>
<text text-anchor="middle" x="1524" y="-372.6" font-family="Times New Roman,serif" font-size="12.00">(TMIV::GaInserterLib)</text>
</g>
<!-- node24&#45;&gt;node25 -->
<g id="edge42" class="edge">
<title>node24&#45;&gt;node25</title>
<path fill="none" stroke="black" stroke-dasharray="1,5" d="M1524,-453.05C1524,-443.16 1524,-430.37 1524,-418.44"/>
<polygon fill="black" stroke="black" points="1527.5,-418.28 1524,-408.28 1520.5,-418.28 1527.5,-418.28"/>
</g>
<!-- node25&#45;&gt;node5 -->
<g id="edge41" class="edge">
<title>node25&#45;&gt;node5</title>
<path fill="none" stroke="black" d="M1473.79,-359.35C1447.07,-347.72 1413.99,-333.32 1385.71,-321.02"/>
<polygon fill="black" stroke="black" points="1386.89,-317.71 1376.33,-316.93 1384.1,-324.13 1386.89,-317.71"/>
</g>
<!-- node26 -->
<g id="node35" class="node">
<title>node26</title>
<polygon fill="none" stroke="black" points="742.49,-726.41 745.46,-726.51 748.41,-726.65 751.3,-726.85 754.15,-727.09 756.93,-727.39 759.63,-727.72 762.25,-728.11 764.76,-728.54 767.17,-729.01 769.47,-729.52 771.64,-730.07 773.68,-730.67 775.59,-731.3 777.35,-731.96 778.96,-732.67 780.42,-733.4 781.73,-734.16 782.88,-734.95 783.88,-735.77 784.71,-736.61 785.38,-737.47 785.9,-738.35 786.26,-739.25 786.47,-740.16 786.52,-741.08 786.43,-742.01 786.2,-742.95 785.82,-743.89 785.32,-744.83 784.68,-745.77 783.93,-746.71 783.06,-747.64 782.08,-748.56 780.99,-749.47 779.81,-750.37 778.54,-751.25 777.19,-752.11 775.76,-752.95 774.27,-753.77 772.7,-754.56 771.08,-755.32 769.41,-756.05 767.69,-756.75 765.93,-757.42 764.13,-758.05 762.3,-758.64 760.44,-759.2 758.56,-759.71 756.65,-760.18 754.73,-760.61 752.79,-761 750.84,-761.33 748.88,-761.62 746.91,-761.87 744.94,-762.06 742.96,-762.21 740.98,-762.31 738.99,-762.36 737.01,-762.36 735.02,-762.31 733.04,-762.21 731.06,-762.06 729.09,-761.87 727.12,-761.62 725.16,-761.33 723.21,-761 721.27,-760.61 719.35,-760.18 717.44,-759.71 715.56,-759.2 713.7,-758.64 711.87,-758.05 710.07,-757.42 708.31,-756.75 706.59,-756.05 704.92,-755.32 703.3,-754.56 701.73,-753.77 700.24,-752.95 698.81,-752.11 697.46,-751.25 696.19,-750.37 695.01,-749.47 693.92,-748.56 692.94,-747.64 692.07,-746.71 691.32,-745.77 690.68,-744.83 690.18,-743.89 689.8,-742.95 689.57,-742.01 689.48,-741.08 689.53,-740.16 689.74,-739.25 690.1,-738.35 690.62,-737.47 691.29,-736.61 692.12,-735.77 693.12,-734.95 694.27,-734.16 695.58,-733.4 697.04,-732.67 698.65,-731.96 700.41,-731.3 702.32,-730.67 704.36,-730.07 706.53,-729.52 708.83,-729.01 711.24,-728.54 713.75,-728.11 716.37,-727.72 719.07,-727.39 721.85,-727.09 724.7,-726.85 727.59,-726.65 730.54,-726.51 733.51,-726.41 736.5,-726.36 739.5,-726.36 742.49,-726.41"/>
<text text-anchor="middle" x="738" y="-741.26" font-family="Times New Roman,serif" font-size="12.00">MpiEncoder</text>
</g>
<!-- node26&#45;&gt;node20 -->
<g id="edge43" class="edge">
<title>node26&#45;&gt;node20</title>
<path fill="none" stroke="black" stroke-dasharray="1,5" d="M786.54,-739.63C894.63,-731.25 1163.33,-710.07 1388,-689.36 1438.08,-684.74 1493.81,-679.14 1539.65,-674.4"/>
<polygon fill="black" stroke="black" points="1540.29,-677.86 1549.87,-673.34 1539.57,-670.89 1540.29,-677.86"/>
</g>
<!-- node27 -->
<g id="node36" class="node">
<title>node27</title>
<polygon fill="none" stroke="black" points="734.82,-549.5 734.82,-571.08 686.3,-586.34 617.7,-586.34 569.18,-571.08 569.18,-549.5 617.7,-534.25 686.3,-534.25 734.82,-549.5"/>
<text text-anchor="middle" x="652" y="-563.69" font-family="Times New Roman,serif" font-size="12.00">MpiPcsLib</text>
<text text-anchor="middle" x="652" y="-550.69" font-family="Times New Roman,serif" font-size="12.00">(TMIV::MpiPcsLib)</text>
</g>
<!-- node26&#45;&gt;node27 -->
<g id="edge45" class="edge">
<title>node26&#45;&gt;node27</title>
<path fill="none" stroke="black" stroke-dasharray="1,5" d="M731.81,-726.17C724,-704.94 709.78,-667.9 695,-637.31 688.26,-623.36 680.05,-608.43 672.61,-595.53"/>
<polygon fill="black" stroke="black" points="675.43,-593.42 667.37,-586.54 669.38,-596.94 675.43,-593.42"/>
</g>
<!-- node27&#45;&gt;node10 -->
<g id="edge44" class="edge">
<title>node27&#45;&gt;node10</title>
<path fill="none" stroke="black" d="M712.19,-542.3C732.16,-535.52 754.11,-526.8 773,-516.27 779.54,-512.63 786.09,-508.21 792.28,-503.6"/>
<polygon fill="black" stroke="black" points="794.71,-506.14 800.46,-497.24 790.42,-500.62 794.71,-506.14"/>
</g>
<!-- node28 -->
<g id="node37" class="node">
<title>node28</title>
<polygon fill="none" stroke="black" points="655.16,-645.39 657.26,-645.48 659.33,-645.63 661.37,-645.83 663.38,-646.07 665.33,-646.36 667.24,-646.7 669.08,-647.08 670.85,-647.51 672.55,-647.98 674.17,-648.5 675.7,-649.05 677.13,-649.65 678.47,-650.28 679.72,-650.94 680.85,-651.64 681.88,-652.38 682.8,-653.14 683.61,-653.93 684.31,-654.75 684.9,-655.59 685.38,-656.45 685.74,-657.33 685.99,-658.22 686.14,-659.13 686.18,-660.06 686.11,-660.99 685.95,-661.92 685.69,-662.87 685.33,-663.81 684.88,-664.75 684.35,-665.69 683.74,-666.62 683.05,-667.54 682.28,-668.45 681.45,-669.35 680.56,-670.23 679.61,-671.09 678.6,-671.93 677.54,-672.75 676.44,-673.54 675.3,-674.3 674.12,-675.03 672.91,-675.73 671.67,-676.4 670.4,-677.03 669.11,-677.62 667.81,-678.18 666.48,-678.69 665.14,-679.16 663.78,-679.59 662.42,-679.97 661.05,-680.31 659.66,-680.6 658.28,-680.85 656.89,-681.04 655.49,-681.19 654.1,-681.29 652.7,-681.34 651.3,-681.34 649.9,-681.29 648.51,-681.19 647.11,-681.04 645.72,-680.85 644.34,-680.6 642.95,-680.31 641.58,-679.97 640.22,-679.59 638.86,-679.16 637.52,-678.69 636.19,-678.18 634.89,-677.62 633.6,-677.03 632.33,-676.4 631.09,-675.73 629.88,-675.03 628.7,-674.3 627.56,-673.54 626.46,-672.75 625.4,-671.93 624.39,-671.09 623.44,-670.23 622.55,-669.35 621.72,-668.45 620.95,-667.54 620.26,-666.62 619.65,-665.69 619.12,-664.75 618.67,-663.81 618.31,-662.87 618.05,-661.92 617.89,-660.99 617.82,-660.06 617.86,-659.13 618.01,-658.22 618.26,-657.33 618.62,-656.45 619.1,-655.59 619.69,-654.75 620.39,-653.93 621.2,-653.14 622.12,-652.38 623.15,-651.64 624.28,-650.94 625.53,-650.28 626.87,-649.65 628.3,-649.05 629.83,-648.5 631.45,-647.98 633.15,-647.51 634.92,-647.08 636.76,-646.7 638.67,-646.36 640.62,-646.07 642.63,-645.83 644.67,-645.63 646.74,-645.48 648.84,-645.39 650.94,-645.34 653.06,-645.34 655.16,-645.39"/>
<text text-anchor="middle" x="652" y="-660.24" font-family="Times New Roman,serif" font-size="12.00">MpiPcs</text>
</g>
<!-- node28&#45;&gt;node27 -->
<g id="edge46" class="edge">
<title>node28&#45;&gt;node27</title>
<path fill="none" stroke="black" stroke-dasharray="1,5" d="M652,-645.2C652,-631.99 652,-613.27 652,-596.86"/>
<polygon fill="black" stroke="black" points="655.5,-596.49 652,-586.49 648.5,-596.49 655.5,-596.49"/>
</g>
<!-- node29 -->
<g id="node38" class="node">
<title>node29</title>
<polygon fill="none" stroke="black" points="840.13,-542.34 842.87,-542.44 845.58,-542.59 848.24,-542.78 850.86,-543.03 853.42,-543.32 855.91,-543.66 858.31,-544.04 860.63,-544.47 862.85,-544.94 864.96,-545.45 866.96,-546.01 868.84,-546.6 870.59,-547.23 872.21,-547.9 873.7,-548.6 875.04,-549.33 876.25,-550.09 877.31,-550.88 878.22,-551.7 878.99,-552.54 879.61,-553.4 880.08,-554.28 880.42,-555.18 880.61,-556.09 880.66,-557.01 880.57,-557.94 880.36,-558.88 880.01,-559.82 879.55,-560.76 878.96,-561.7 878.27,-562.64 877.47,-563.57 876.56,-564.5 875.57,-565.41 874.48,-566.3 873.31,-567.18 872.07,-568.04 870.75,-568.88 869.38,-569.7 867.94,-570.49 866.45,-571.25 864.91,-571.99 863.32,-572.69 861.7,-573.35 860.05,-573.98 858.36,-574.58 856.65,-575.13 854.92,-575.64 853.16,-576.12 851.4,-576.54 849.61,-576.93 847.82,-577.27 846.01,-577.56 844.2,-577.8 842.39,-578 840.56,-578.14 838.74,-578.24 836.91,-578.29 835.09,-578.29 833.26,-578.24 831.44,-578.14 829.61,-578 827.8,-577.8 825.99,-577.56 824.18,-577.27 822.39,-576.93 820.6,-576.54 818.84,-576.12 817.08,-575.64 815.35,-575.13 813.64,-574.58 811.95,-573.98 810.3,-573.35 808.68,-572.69 807.09,-571.99 805.55,-571.25 804.06,-570.49 802.62,-569.7 801.25,-568.88 799.93,-568.04 798.69,-567.18 797.52,-566.3 796.43,-565.41 795.44,-564.5 794.53,-563.57 793.73,-562.64 793.04,-561.7 792.45,-560.76 791.99,-559.82 791.64,-558.88 791.43,-557.94 791.34,-557.01 791.39,-556.09 791.58,-555.18 791.92,-554.28 792.39,-553.4 793.01,-552.54 793.78,-551.7 794.69,-550.88 795.75,-550.09 796.96,-549.33 798.3,-548.6 799.79,-547.9 801.41,-547.23 803.16,-546.6 805.04,-546.01 807.04,-545.45 809.15,-544.94 811.37,-544.47 813.69,-544.04 816.09,-543.66 818.58,-543.32 821.14,-543.03 823.76,-542.78 826.42,-542.59 829.13,-542.44 831.87,-542.34 834.62,-542.29 837.38,-542.29 840.13,-542.34"/>
<text text-anchor="middle" x="836" y="-557.19" font-family="Times New Roman,serif" font-size="12.00">Multiplexer</text>
</g>
<!-- node29&#45;&gt;node10 -->
<g id="edge47" class="edge">
<title>node29&#45;&gt;node10</title>
<path fill="none" stroke="black" stroke-dasharray="1,5" d="M834.42,-542.09C833.51,-532.21 832.34,-519.42 831.24,-507.49"/>
<polygon fill="black" stroke="black" points="834.71,-506.96 830.3,-497.32 827.73,-507.6 834.71,-506.96"/>
</g>
<!-- node30 -->
<g id="node39" class="node">
<title>node30</title>
<polygon fill="none" stroke="black" points="1042.81,-371.41 1042.81,-392.99 987.27,-408.25 908.73,-408.25 853.19,-392.99 853.19,-371.41 908.73,-356.16 987.27,-356.16 1042.81,-371.41"/>
<text text-anchor="middle" x="948" y="-385.6" font-family="Times New Roman,serif" font-size="12.00">MultiplexerLib</text>
<text text-anchor="middle" x="948" y="-372.6" font-family="Times New Roman,serif" font-size="12.00">(TMIV::MultiplexerLib)</text>
</g>
<!-- node29&#45;&gt;node30 -->
<g id="edge50" class="edge">
<title>node29&#45;&gt;node30</title>
<path fill="none" stroke="black" stroke-dasharray="1,5" d="M857.4,-543.66C871.88,-532.18 890.56,-515.46 903,-497.27 919.61,-472.98 931.41,-441.65 938.74,-417.98"/>
<polygon fill="black" stroke="black" points="942.11,-418.93 941.61,-408.35 935.4,-416.93 942.11,-418.93"/>
</g>
<!-- node30&#45;&gt;node5 -->
<g id="edge48" class="edge">
<title>node30&#45;&gt;node5</title>
<path fill="none" stroke="black" d="M996.84,-358.76C1015.36,-350.97 1036.85,-342.8 1057,-337.18 1087.53,-328.67 1160.09,-317.17 1221.88,-308.21"/>
<polygon fill="black" stroke="black" points="1222.69,-311.63 1232.09,-306.73 1221.69,-304.7 1222.69,-311.63"/>
</g>
<!-- node30&#45;&gt;node13 -->
<g id="edge49" class="edge">
<title>node30&#45;&gt;node13</title>
<path fill="none" stroke="black" d="M969.4,-356.03C977.07,-347 985.84,-336.69 993.98,-327.11"/>
<polygon fill="black" stroke="black" points="996.83,-329.16 1000.64,-319.28 991.5,-324.63 996.83,-329.16"/>
</g>
<!-- node31 -->
<g id="node40" class="node">
<title>node31</title>
<polygon fill="none" stroke="black" points="1190.81,-453.3 1192.66,-453.4 1194.5,-453.54 1196.31,-453.74 1198.09,-453.98 1199.82,-454.27 1201.51,-454.61 1203.15,-455 1204.72,-455.42 1206.22,-455.89 1207.66,-456.41 1209.02,-456.96 1210.29,-457.56 1211.48,-458.19 1212.58,-458.85 1213.59,-459.55 1214.5,-460.29 1215.32,-461.05 1216.04,-461.84 1216.66,-462.66 1217.18,-463.5 1217.6,-464.36 1217.92,-465.24 1218.15,-466.13 1218.28,-467.04 1218.31,-467.97 1218.26,-468.9 1218.11,-469.83 1217.88,-470.78 1217.56,-471.72 1217.16,-472.66 1216.69,-473.6 1216.15,-474.53 1215.53,-475.45 1214.86,-476.36 1214.12,-477.26 1213.33,-478.14 1212.48,-479 1211.59,-479.84 1210.66,-480.66 1209.68,-481.45 1208.67,-482.21 1207.62,-482.94 1206.55,-483.64 1205.45,-484.31 1204.32,-484.94 1203.18,-485.53 1202.02,-486.09 1200.84,-486.6 1199.65,-487.07 1198.45,-487.5 1197.24,-487.88 1196.02,-488.22 1194.8,-488.51 1193.57,-488.76 1192.33,-488.95 1191.1,-489.1 1189.86,-489.2 1188.62,-489.25 1187.38,-489.25 1186.14,-489.2 1184.9,-489.1 1183.67,-488.95 1182.43,-488.76 1181.2,-488.51 1179.98,-488.22 1178.76,-487.88 1177.55,-487.5 1176.35,-487.07 1175.16,-486.6 1173.98,-486.09 1172.82,-485.53 1171.68,-484.94 1170.55,-484.31 1169.45,-483.64 1168.38,-482.94 1167.33,-482.21 1166.32,-481.45 1165.34,-480.66 1164.41,-479.84 1163.52,-479 1162.67,-478.14 1161.88,-477.26 1161.14,-476.36 1160.47,-475.45 1159.85,-474.53 1159.31,-473.6 1158.84,-472.66 1158.44,-471.72 1158.12,-470.78 1157.89,-469.83 1157.74,-468.9 1157.69,-467.97 1157.72,-467.04 1157.85,-466.13 1158.08,-465.24 1158.4,-464.36 1158.82,-463.5 1159.34,-462.66 1159.96,-461.84 1160.68,-461.05 1161.5,-460.29 1162.41,-459.55 1163.42,-458.85 1164.52,-458.19 1165.71,-457.56 1166.98,-456.96 1168.34,-456.41 1169.78,-455.89 1171.28,-455.42 1172.85,-455 1174.49,-454.61 1176.18,-454.27 1177.91,-453.98 1179.69,-453.74 1181.5,-453.54 1183.34,-453.4 1185.19,-453.3 1187.06,-453.25 1188.94,-453.25 1190.81,-453.3"/>
<text text-anchor="middle" x="1188" y="-468.15" font-family="Times New Roman,serif" font-size="12.00">Parser</text>
</g>
<!-- node32 -->
<g id="node41" class="node">
<title>node32</title>
<polygon fill="none" stroke="black" points="1255.13,-371.41 1255.13,-392.99 1209.36,-408.25 1144.64,-408.25 1098.87,-392.99 1098.87,-371.41 1144.64,-356.16 1209.36,-356.16 1255.13,-371.41"/>
<text text-anchor="middle" x="1177" y="-385.6" font-family="Times New Roman,serif" font-size="12.00">ParserLib</text>
<text text-anchor="middle" x="1177" y="-372.6" font-family="Times New Roman,serif" font-size="12.00">(TMIV::ParserLib)</text>
</g>
<!-- node31&#45;&gt;node32 -->
<g id="edge52" class="edge">
<title>node31&#45;&gt;node32</title>
<path fill="none" stroke="black" stroke-dasharray="1,5" d="M1185.83,-453.05C1184.58,-443.16 1182.96,-430.37 1181.45,-418.44"/>
<polygon fill="black" stroke="black" points="1184.9,-417.76 1180.17,-408.28 1177.95,-418.64 1184.9,-417.76"/>
</g>
<!-- node32&#45;&gt;node5 -->
<g id="edge51" class="edge">
<title>node32&#45;&gt;node5</title>
<path fill="none" stroke="black" d="M1216.01,-358.1C1233.48,-347.76 1254.32,-335.42 1273.01,-324.35"/>
<polygon fill="black" stroke="black" points="1274.89,-327.31 1281.71,-319.2 1271.32,-321.28 1274.89,-327.31"/>
</g>
<!-- node33 -->
<g id="node42" class="node">
<title>node33</title>
<polygon fill="none" stroke="black" points="1343.6,-645.39 1345.98,-645.48 1348.33,-645.63 1350.65,-645.83 1352.93,-646.07 1355.16,-646.36 1357.32,-646.7 1359.42,-647.08 1361.43,-647.51 1363.36,-647.98 1365.2,-648.5 1366.94,-649.05 1368.57,-649.65 1370.1,-650.28 1371.51,-650.94 1372.8,-651.64 1373.97,-652.38 1375.02,-653.14 1375.94,-653.93 1376.74,-654.75 1377.4,-655.59 1377.95,-656.45 1378.36,-657.33 1378.65,-658.22 1378.81,-659.13 1378.86,-660.06 1378.78,-660.99 1378.6,-661.92 1378.3,-662.87 1377.89,-663.81 1377.38,-664.75 1376.78,-665.69 1376.08,-666.62 1375.3,-667.54 1374.43,-668.45 1373.48,-669.35 1372.47,-670.23 1371.39,-671.09 1370.24,-671.93 1369.04,-672.75 1367.79,-673.54 1366.49,-674.3 1365.15,-675.03 1363.77,-675.73 1362.36,-676.4 1360.92,-677.03 1359.46,-677.62 1357.97,-678.18 1356.46,-678.69 1354.94,-679.16 1353.4,-679.59 1351.84,-679.97 1350.28,-680.31 1348.71,-680.6 1347.14,-680.85 1345.56,-681.04 1343.97,-681.19 1342.38,-681.29 1340.79,-681.34 1339.21,-681.34 1337.62,-681.29 1336.03,-681.19 1334.44,-681.04 1332.86,-680.85 1331.29,-680.6 1329.72,-680.31 1328.16,-679.97 1326.6,-679.59 1325.06,-679.16 1323.54,-678.69 1322.03,-678.18 1320.54,-677.62 1319.08,-677.03 1317.64,-676.4 1316.23,-675.73 1314.85,-675.03 1313.51,-674.3 1312.21,-673.54 1310.96,-672.75 1309.76,-671.93 1308.61,-671.09 1307.53,-670.23 1306.52,-669.35 1305.57,-668.45 1304.7,-667.54 1303.92,-666.62 1303.22,-665.69 1302.62,-664.75 1302.11,-663.81 1301.7,-662.87 1301.4,-661.92 1301.22,-660.99 1301.14,-660.06 1301.19,-659.13 1301.35,-658.22 1301.64,-657.33 1302.05,-656.45 1302.6,-655.59 1303.26,-654.75 1304.06,-653.93 1304.98,-653.14 1306.03,-652.38 1307.2,-651.64 1308.49,-650.94 1309.9,-650.28 1311.43,-649.65 1313.06,-649.05 1314.8,-648.5 1316.64,-647.98 1318.57,-647.51 1320.58,-647.08 1322.68,-646.7 1324.84,-646.36 1327.07,-646.07 1329.35,-645.83 1331.67,-645.63 1334.02,-645.48 1336.4,-645.39 1338.8,-645.34 1341.2,-645.34 1343.6,-645.39"/>
<text text-anchor="middle" x="1340" y="-660.24" font-family="Times New Roman,serif" font-size="12.00">Renderer</text>
</g>
<!-- node33&#45;&gt;node9 -->
<g id="edge54" class="edge">
<title>node33&#45;&gt;node9</title>
<path fill="none" stroke="black" stroke-dasharray="1,5" d="M1318.9,-647.43C1298.43,-632.96 1266.74,-610.57 1240.81,-592.25"/>
<polygon fill="black" stroke="black" points="1242.8,-589.37 1232.61,-586.46 1238.76,-595.09 1242.8,-589.37"/>
</g>
<!-- node33&#45;&gt;node18 -->
<g id="edge53" class="edge">
<title>node33&#45;&gt;node18</title>
<path fill="none" stroke="black" stroke-dasharray="1,5" d="M1372.41,-651.23C1416.95,-635.98 1498.42,-608.07 1558.85,-587.38"/>
<polygon fill="black" stroke="black" points="1560.03,-590.67 1568.36,-584.12 1557.76,-584.05 1560.03,-590.67"/>
</g>
<!-- node34 -->
<g id="node43" class="node">
<title>node34</title>
<polygon fill="none" stroke="black" points="2007.96,-285.7 2007.96,-300.61 1988.07,-311.16 1959.93,-311.16 1940.04,-300.61 1940.04,-285.7 1959.93,-275.16 1988.07,-275.16 2007.96,-285.7"/>
<text text-anchor="middle" x="1974" y="-290.06" font-family="Times New Roman,serif" font-size="12.00">apputils</text>
</g>
<!-- node34&#45;&gt;node2 -->
<g id="edge55" class="edge">
<title>node34&#45;&gt;node2</title>
<path fill="none" stroke="black" d="M1967.94,-274.95C1957,-243.86 1933.87,-178.19 1921.05,-141.76"/>
<polygon fill="black" stroke="black" points="1924.34,-140.58 1917.72,-132.31 1917.74,-142.91 1924.34,-140.58"/>
</g>
<!-- node35 -->
<g id="node44" class="node">
<title>node35</title>
<polygon fill="none" stroke="black" points="2035.8,-196.66 2035.8,-211.57 2018.93,-222.11 1995.07,-222.11 1978.2,-211.57 1978.2,-196.66 1995.07,-186.11 2018.93,-186.11 2035.8,-196.66"/>
<text text-anchor="middle" x="2007" y="-201.01" font-family="Times New Roman,serif" font-size="12.00">vvenc</text>
</g>
<!-- node34&#45;&gt;node35 -->
<g id="edge57" class="edge">
<title>node34&#45;&gt;node35</title>
<path fill="none" stroke="black" d="M1980.52,-274.96C1985.18,-262.68 1991.53,-245.92 1996.84,-231.9"/>
<polygon fill="black" stroke="black" points="2000.22,-232.87 2000.49,-222.27 1993.68,-230.38 2000.22,-232.87"/>
</g>
<!-- node35&#45;&gt;node2 -->
<g id="edge56" class="edge">
<title>node35&#45;&gt;node2</title>
<path fill="none" stroke="black" d="M1992.27,-187.23C1984.14,-178.67 1973.75,-168.06 1964,-159.09 1955.77,-151.51 1946.44,-143.6 1937.99,-136.66"/>
<polygon fill="black" stroke="black" points="1940.18,-133.93 1930.21,-130.35 1935.77,-139.37 1940.18,-133.93"/>
</g>
<!-- node36 -->
<g id="node45" class="node">
<title>node36</title>
<polygon fill="none" stroke="black" points="1847.7,-275.21 1850.15,-275.31 1852.57,-275.45 1854.96,-275.65 1857.31,-275.89 1859.6,-276.18 1861.82,-276.52 1863.98,-276.91 1866.05,-277.33 1868.04,-277.8 1869.93,-278.32 1871.72,-278.87 1873.4,-279.47 1874.97,-280.1 1876.42,-280.76 1877.75,-281.46 1878.95,-282.2 1880.03,-282.96 1880.98,-283.75 1881.8,-284.57 1882.48,-285.41 1883.04,-286.27 1883.47,-287.15 1883.76,-288.04 1883.93,-288.95 1883.98,-289.88 1883.9,-290.81 1883.71,-291.74 1883.4,-292.69 1882.99,-293.63 1882.46,-294.57 1881.84,-295.51 1881.12,-296.44 1880.31,-297.36 1879.42,-298.27 1878.45,-299.17 1877.41,-300.05 1876.29,-300.91 1875.11,-301.75 1873.88,-302.57 1872.59,-303.36 1871.26,-304.12 1869.88,-304.85 1868.46,-305.55 1867.01,-306.22 1865.53,-306.85 1864.02,-307.44 1862.49,-308 1860.94,-308.51 1859.37,-308.98 1857.78,-309.41 1856.19,-309.79 1854.58,-310.13 1852.97,-310.42 1851.34,-310.67 1849.72,-310.86 1848.09,-311.01 1846.45,-311.11 1844.82,-311.16 1843.18,-311.16 1841.55,-311.11 1839.91,-311.01 1838.28,-310.86 1836.66,-310.67 1835.03,-310.42 1833.42,-310.13 1831.81,-309.79 1830.22,-309.41 1828.63,-308.98 1827.06,-308.51 1825.51,-308 1823.98,-307.44 1822.47,-306.85 1820.99,-306.22 1819.54,-305.55 1818.12,-304.85 1816.74,-304.12 1815.41,-303.36 1814.12,-302.57 1812.89,-301.75 1811.71,-300.91 1810.59,-300.05 1809.55,-299.17 1808.58,-298.27 1807.69,-297.36 1806.88,-296.44 1806.16,-295.51 1805.54,-294.57 1805.01,-293.63 1804.6,-292.69 1804.29,-291.74 1804.1,-290.81 1804.02,-289.88 1804.07,-288.95 1804.24,-288.04 1804.53,-287.15 1804.96,-286.27 1805.52,-285.41 1806.2,-284.57 1807.02,-283.75 1807.97,-282.96 1809.05,-282.2 1810.25,-281.46 1811.58,-280.76 1813.03,-280.1 1814.6,-279.47 1816.28,-278.87 1818.07,-278.32 1819.96,-277.8 1821.95,-277.33 1824.02,-276.91 1826.18,-276.52 1828.4,-276.18 1830.69,-275.89 1833.04,-275.65 1835.43,-275.45 1837.85,-275.31 1840.3,-275.21 1842.77,-275.16 1845.23,-275.16 1847.7,-275.21"/>
<text text-anchor="middle" x="1844" y="-290.06" font-family="Times New Roman,serif" font-size="12.00">vvdecapp</text>
</g>
<!-- node36&#45;&gt;node2 -->
<g id="edge58" class="edge">
<title>node36&#45;&gt;node2</title>
<path fill="none" stroke="black" stroke-dasharray="1,5" d="M1850.52,-275.27C1862.49,-244.27 1888.04,-178.11 1902.14,-141.59"/>
<polygon fill="black" stroke="black" points="1905.46,-142.72 1905.8,-132.13 1898.93,-140.2 1905.46,-142.72"/>
</g>
<!-- node36&#45;&gt;node17 -->
<g id="edge59" class="edge">
<title>node36&#45;&gt;node17</title>
<path fill="none" stroke="black" stroke-dasharray="1,5" d="M1838.67,-274.96C1834.86,-262.68 1829.66,-245.92 1825.31,-231.9"/>
<polygon fill="black" stroke="black" points="1828.63,-230.79 1822.32,-222.27 1821.94,-232.86 1828.63,-230.79"/>
</g>
<!-- node37 -->
<g id="node46" class="node">
<title>node37</title>
<polygon fill="none" stroke="black" points="2040.49,-364.25 2043.46,-364.35 2046.41,-364.5 2049.3,-364.69 2052.15,-364.94 2054.93,-365.23 2057.63,-365.57 2060.25,-365.95 2062.76,-366.38 2065.17,-366.85 2067.47,-367.36 2069.64,-367.92 2071.68,-368.51 2073.59,-369.14 2075.35,-369.81 2076.96,-370.51 2078.42,-371.24 2079.73,-372 2080.88,-372.79 2081.88,-373.61 2082.71,-374.45 2083.38,-375.31 2083.9,-376.19 2084.26,-377.09 2084.47,-378 2084.52,-378.92 2084.43,-379.85 2084.2,-380.79 2083.82,-381.73 2083.32,-382.67 2082.68,-383.62 2081.93,-384.55 2081.06,-385.48 2080.08,-386.41 2078.99,-387.32 2077.81,-388.21 2076.54,-389.09 2075.19,-389.95 2073.76,-390.79 2072.27,-391.61 2070.7,-392.4 2069.08,-393.16 2067.41,-393.9 2065.69,-394.6 2063.93,-395.26 2062.13,-395.89 2060.3,-396.49 2058.44,-397.04 2056.56,-397.56 2054.65,-398.03 2052.73,-398.45 2050.79,-398.84 2048.84,-399.18 2046.88,-399.47 2044.91,-399.71 2042.94,-399.91 2040.96,-400.05 2038.98,-400.15 2036.99,-400.2 2035.01,-400.2 2033.02,-400.15 2031.04,-400.05 2029.06,-399.91 2027.09,-399.71 2025.12,-399.47 2023.16,-399.18 2021.21,-398.84 2019.27,-398.45 2017.35,-398.03 2015.44,-397.56 2013.56,-397.04 2011.7,-396.49 2009.87,-395.89 2008.07,-395.26 2006.31,-394.6 2004.59,-393.9 2002.92,-393.16 2001.3,-392.4 1999.73,-391.61 1998.24,-390.79 1996.81,-389.95 1995.46,-389.09 1994.19,-388.21 1993.01,-387.32 1991.92,-386.41 1990.94,-385.48 1990.07,-384.55 1989.32,-383.62 1988.68,-382.67 1988.18,-381.73 1987.8,-380.79 1987.57,-379.85 1987.48,-378.92 1987.53,-378 1987.74,-377.09 1988.1,-376.19 1988.62,-375.31 1989.29,-374.45 1990.12,-373.61 1991.12,-372.79 1992.27,-372 1993.58,-371.24 1995.04,-370.51 1996.65,-369.81 1998.41,-369.14 2000.32,-368.51 2002.36,-367.92 2004.53,-367.36 2006.83,-366.85 2009.24,-366.38 2011.75,-365.95 2014.37,-365.57 2017.07,-365.23 2019.85,-364.94 2022.7,-364.69 2025.59,-364.5 2028.54,-364.35 2031.51,-364.25 2034.5,-364.2 2037.5,-364.2 2040.49,-364.25"/>
<text text-anchor="middle" x="2036" y="-379.1" font-family="Times New Roman,serif" font-size="12.00">vvencFFapp</text>
</g>
<!-- node37&#45;&gt;node2 -->
<g id="edge60" class="edge">
<title>node37&#45;&gt;node2</title>
<path fill="none" stroke="black" stroke-dasharray="1,5" d="M2042.75,-364.29C2056.37,-327.2 2082.74,-237.33 2045,-178.09 2028.35,-151.95 1997.49,-136.65 1969.68,-127.78"/>
<polygon fill="black" stroke="black" points="1970.58,-124.4 1960,-124.91 1968.59,-131.11 1970.58,-124.4"/>
</g>
<!-- node37&#45;&gt;node34 -->
<g id="edge61" class="edge">
<title>node37&#45;&gt;node34</title>
<path fill="none" stroke="black" stroke-dasharray="1,5" d="M2024.05,-364.42C2015.01,-351.74 2002.46,-334.11 1992.18,-319.68"/>
<polygon fill="black" stroke="black" points="1994.78,-317.3 1986.13,-311.19 1989.08,-321.36 1994.78,-317.3"/>
</g>
<!-- node37&#45;&gt;node35 -->
<g id="edge62" class="edge">
<title>node37&#45;&gt;node35</title>
<path fill="none" stroke="black" stroke-dasharray="1,5" d="M2033.17,-364C2028.11,-333.28 2017.49,-268.79 2011.45,-232.12"/>
<polygon fill="black" stroke="black" points="2014.88,-231.43 2009.8,-222.13 2007.97,-232.56 2014.88,-231.43"/>
</g>
</g>
</svg>
